<svg xmlns="http://www.w3.org/2000/svg" height="1024" preserveAspectRatio="none" style="display: block;" version="1.1" viewBox="0 0 2048 2048" width="1024">
<defs>
	<linearGradient gradientUnits="userSpaceOnUse" id="Gradient1" x1="1099.61" x2="1087.3" y1="993.45" y2="1064.67">
		<stop class="stop0" offset="0" stop-color="rgb(255,255,255)" stop-opacity="0.921569"></stop>
		<stop class="stop1" offset="1" stop-color="rgb(255,255,255)" stop-opacity="1"></stop>
	</linearGradient>
	<linearGradient gradientUnits="userSpaceOnUse" id="Gradient2" x1="975.672" x2="995.47" y1="1023.24" y2="1030.11">
		<stop class="stop0" offset="0" stop-color="rgb(255,255,255)" stop-opacity="0.878431"></stop>
		<stop class="stop1" offset="1" stop-color="rgb(255,255,255)" stop-opacity="0.913725"></stop>
	</linearGradient>
</defs>
<path d="M 1011.52 51.4167 C 1040.41 47.5615 1122.02 56.7387 1134.75 86.9249 C 1137.01 92.3153 1136.99 98.3894 1134.7 103.765 C 1130.6 113.122 1119.96 117.081 1110.97 120.284 C 1110.84 129.023 1110.86 137.764 1111.02 146.502 C 1170.62 156.478 1226.24 192.672 1250.6 249.193 C 1281.78 260.992 1278.5 285.59 1279.03 312.952 C 1279.44 334.367 1277.9 358.455 1279.76 379.606 C 1293.84 387.571 1303.23 395.065 1305.63 412.514 C 1307.03 422.835 1304.08 433.275 1297.49 441.337 C 1290.73 449.597 1279.98 455.239 1269.37 456.356 C 1328.44 498.823 1372.03 560.229 1374 635.479 C 1374.64 659.998 1374.28 684.746 1374.41 709.291 L 1374.17 909.625 L 1374.19 1410.92 L 1374.3 1682.92 L 1374.21 1756.94 C 1374.21 1776.44 1375 1795.34 1372.14 1814.6 C 1365.62 1858.47 1345.93 1897.32 1315.24 1929.2 C 1302.11 1942.83 1273.14 1966.3 1255.62 1973.18 C 1189.99 1998.96 1105.17 2003.28 1036.05 2004.89 C 962.231 2005.55 872.297 2000.43 800.915 1976.92 C 767.966 1966.06 732.22 1932.94 712.092 1904.81 C 672.214 1849.08 673.62 1797.15 673.72 1732.41 L 673.926 1619.85 L 673.93 1263.35 L 673.758 793.139 L 673.944 694.167 C 673.909 665.208 672.447 629.402 678.181 601.842 C 691.134 539.589 727.2 492.43 779.476 457.916 L 778.228 457.533 C 765.029 453.396 754.177 447.645 747.708 434.672 C 742.961 425.138 742.196 414.108 745.581 404.009 C 749.638 392.055 758.039 384.931 769.093 379.597 L 768.911 318.626 C 768.891 308.607 768.38 291.535 769.687 282.227 C 770.417 276.956 772.028 271.844 774.454 267.107 C 778.972 258.462 786.946 251.561 796.307 248.767 C 825.522 187.056 875.948 160.489 939.843 145.448 C 940.309 137.489 940.078 128.997 940.006 120.978 C 929.021 117.203 918.149 113.032 913.89 101.257 C 908.523 86.4177 919.392 75.9248 931.496 69.5636 C 956.451 56.4487 983.822 52.9262 1011.52 51.4167 z M 1040.57 1223.73 C 1131.54 1214.86 1198.03 1133.81 1188.94 1042.86 C 1179.85 951.9 1098.63 885.61 1007.7 894.925 C 917.082 904.207 851.072 985.081 860.132 1075.72 C 869.192 1166.36 949.903 1232.57 1040.57 1223.73 z" fill="rgb(2,2,1)" transform="translate(0,0)"></path>
<path d="M 1247.72 461.372 C 1299.36 489.999 1336.06 532.925 1353.59 590.072 C 1364.2 624.636 1361.03 678.839 1360.97 716.672 L 1360.94 832.169 L 1360.98 1305.59 L 1360.99 1634.09 L 1361.06 1736.81 C 1361.08 1756.75 1361.64 1778.66 1360.46 1798.21 C 1356.07 1870.94 1299.51 1950.03 1227.36 1968.67 C 1168.49 1983.87 1093.86 1992.7 1032.79 1990.88 C 1019.53 1991.17 1006.27 1990.98 993.02 1990.32 C 941.154 1990.86 862.944 1981.8 813.42 1966.64 C 770.746 1953.58 730.423 1914.21 710.116 1874.47 C 697.689 1850.39 690.278 1824.05 688.329 1797.03 C 687.128 1779.02 687.454 1757.41 687.408 1739.18 L 687.545 1642.94 L 687.828 1365.16 L 687.788 903.936 L 687.891 724.481 C 687.932 690.235 686.96 654.028 689.596 620.076 C 694.481 557.165 743.724 490.711 799.044 462.579 C 812.187 463.582 833.988 467.538 847.822 469.384 C 870.534 472.311 893.325 474.589 916.166 476.216 C 968.45 480.014 1020.9 480.991 1073.29 479.144 C 1095 478.445 1116.38 476.752 1137.89 475.9 C 1176.31 470.599 1207.72 468.719 1247.72 461.372 z M 1040.57 1223.73 C 1131.54 1214.86 1198.03 1133.81 1188.94 1042.86 C 1179.85 951.9 1098.63 885.61 1007.7 894.925 C 917.082 904.207 851.072 985.081 860.132 1075.72 C 869.192 1166.36 949.903 1232.57 1040.57 1223.73 z" fill="rgb(30,191,163)" transform="translate(0,0)"></path>
<path d="M 799.044 462.579 C 812.187 463.582 833.988 467.538 847.822 469.384 C 870.534 472.311 893.325 474.589 916.166 476.216 C 908.277 483.88 883.992 494.7 873.143 502.662 C 822.287 539.986 785.385 594.73 783.117 659.159 C 782.297 684.667 782.497 710.389 782.432 735.935 L 782.379 884.985 L 782.149 1364.83 L 782.085 1641.56 L 782.11 1720.87 C 782.134 1740.35 781.943 1765.43 784.553 1784.47 C 789.861 1823.21 808.178 1864.05 834.556 1893.04 C 870.811 1932.88 916.404 1960.9 967.451 1977.69 C 974.942 1980.15 990.676 1985.97 998.093 1986.48 L 996.108 1989.86 L 993.02 1990.32 C 941.154 1990.86 862.944 1981.8 813.42 1966.64 C 770.746 1953.58 730.423 1914.21 710.116 1874.47 C 697.689 1850.39 690.278 1824.05 688.329 1797.03 C 687.128 1779.02 687.454 1757.41 687.408 1739.18 L 687.545 1642.94 L 687.828 1365.16 L 687.788 903.936 L 687.891 724.481 C 687.932 690.235 686.96 654.028 689.596 620.076 C 694.481 557.165 743.724 490.711 799.044 462.579 z" fill="rgb(100,199,182)" transform="translate(0,0)"></path>
<path d="M 1247.72 461.372 C 1299.36 489.999 1336.06 532.925 1353.59 590.072 C 1364.2 624.636 1361.03 678.839 1360.97 716.672 L 1360.94 832.169 L 1360.98 1305.59 L 1360.99 1634.09 L 1361.06 1736.81 C 1361.08 1756.75 1361.64 1778.66 1360.46 1798.21 C 1356.07 1870.94 1299.51 1950.03 1227.36 1968.67 C 1168.49 1983.87 1093.86 1992.7 1032.79 1990.88 C 1112.69 1975.55 1185.86 1941.58 1233.53 1872.47 C 1271.52 1817.38 1269.54 1765.61 1269.38 1702.46 L 1269.11 1583.12 L 1269.03 1185.43 L 1269.29 831.015 L 1269.73 714.827 C 1269.67 688.353 1270.58 657.015 1265.51 631.591 C 1253.65 572.131 1216.86 526.671 1167.22 493.529 C 1158.04 487.397 1147.72 482.457 1138.63 476.402 L 1137.89 475.9 C 1176.31 470.599 1207.72 468.719 1247.72 461.372 z" fill="rgb(14,137,123)" transform="translate(0,0)"></path>
<path d="M 998.093 1986.48 C 1006.26 1989.79 1002.67 1989.81 996.108 1989.86 L 998.093 1986.48 z" fill="rgb(100,199,182)" transform="translate(0,0)"></path>
<path d="M 1017.98 879.815 C 1116.92 876.14 1200.19 953.182 1204.2 1052.1 C 1208.21 1151.03 1131.45 1234.56 1032.54 1238.9 C 933.156 1243.27 849.137 1166.06 845.108 1066.66 C 841.078 967.265 918.571 883.508 1017.98 879.815 z M 1040.57 1223.73 C 1131.54 1214.86 1198.03 1133.81 1188.94 1042.86 C 1179.85 951.9 1098.63 885.61 1007.7 894.925 C 917.082 904.207 851.072 985.081 860.132 1075.72 C 869.192 1166.36 949.903 1232.57 1040.57 1223.73 z" fill="rgb(2,2,1)" transform="translate(0,0)"></path>
<path d="M 1007.7 894.925 C 1098.63 885.61 1179.85 951.9 1188.94 1042.86 C 1198.03 1133.81 1131.54 1214.86 1040.57 1223.73 C 949.903 1232.57 869.192 1166.36 860.132 1075.72 C 851.072 985.081 917.082 904.207 1007.7 894.925 z M 974.043 1090.45 C 1020.23 1070.04 1013.21 961.943 963.034 966.136 C 915.119 989.122 928.195 1096.46 974.043 1090.45 z M 1083.09 1089.51 C 1116.1 1079.39 1117.46 1023.32 1108.56 996.276 C 1102.93 979.165 1093.42 964.039 1073.34 965.098 C 1025.59 986.359 1033.2 1090 1083.09 1089.51 z" fill="rgb(249,112,105)" transform="translate(0,0)"></path>
<path d="M 963.034 966.136 C 1013.21 961.943 1020.23 1070.04 974.043 1090.45 C 928.195 1096.46 915.119 989.122 963.034 966.136 z M 978.106 1058.3 C 978.567 1059.47 979.037 1060.45 979.568 1061.58 L 979.995 1062.64 C 987.466 1073.16 991.037 1069.71 994.763 1058.45 C 1001.65 1037.62 1001.87 1011.13 992.325 991.065 C 991.822 989.848 991.302 988.638 990.764 987.436 C 989.543 985.767 989.322 985.394 988.299 983.568 C 980.741 987.896 981.378 987.234 978.819 996.273 C 976.234 999.809 981.249 1009.07 980.52 1015 C 979.583 1022.62 987.018 1031.34 981.536 1039.64 C 979.856 1042.72 979.096 1053.89 978.106 1058.3 z" fill="rgb(2,2,1)" transform="translate(0,0)"></path>
<path d="M 990.764 987.436 C 991.302 988.638 991.822 989.848 992.325 991.065 C 987.371 995.371 992.395 1002.8 993.403 1008.49 C 996.71 1015.95 992.885 1025.42 992.777 1031 C 992.627 1038.73 996.794 1042.4 991.399 1051.23 C 984.716 1062.15 994.318 1067.07 979.995 1062.64 L 979.568 1061.58 C 985.387 1061.85 985.851 1062.97 984.443 1056.03 C 980.096 1053.81 980.348 1057.82 979.568 1061.58 C 979.037 1060.45 978.567 1059.47 978.106 1058.3 C 979.096 1053.89 979.856 1042.72 981.536 1039.64 C 987.018 1031.34 979.583 1022.62 980.52 1015 C 981.249 1009.07 976.234 999.809 978.819 996.273 C 981.892 1001.08 989.245 989.623 990.764 987.436 z" fill="url(#Gradient2)" transform="translate(0,0)"></path>
<path d="M 978.106 1058.3 C 972.471 1042.02 971.581 1023.56 973.811 1006.49 C 974.738 999.4 977.351 978.4 988.299 983.568 C 980.741 987.896 981.378 987.234 978.819 996.273 C 976.234 999.809 981.249 1009.07 980.52 1015 C 979.583 1022.62 987.018 1031.34 981.536 1039.64 C 979.856 1042.72 979.096 1053.89 978.106 1058.3 z" fill="rgb(255,255,254)" transform="translate(0,0)"></path>
<path d="M 979.995 1062.64 C 994.318 1067.07 984.716 1062.15 991.399 1051.23 C 996.794 1042.4 992.627 1038.73 992.777 1031 C 992.885 1025.42 996.71 1015.95 993.403 1008.49 C 992.395 1002.8 987.371 995.371 992.325 991.065 C 1001.87 1011.13 1001.65 1037.62 994.763 1058.45 C 991.037 1069.71 987.466 1073.16 979.995 1062.64 z" fill="rgb(255,255,254)" fill-opacity="0.988235" transform="translate(0,0)"></path>
<path d="M 988.299 983.568 C 989.322 985.394 989.543 985.767 990.764 987.436 C 989.245 989.623 981.892 1001.08 978.819 996.273 C 981.378 987.234 980.741 987.896 988.299 983.568 z" fill="rgb(255,255,254)" fill-opacity="0.568627" transform="translate(0,0)"></path>
<path d="M 979.568 1061.58 C 980.348 1057.82 980.096 1053.81 984.443 1056.03 C 985.851 1062.97 985.387 1061.85 979.568 1061.58 z" fill="rgb(255,255,254)" fill-opacity="0.741176" transform="translate(0,0)"></path>
<path d="M 1073.34 965.098 C 1093.42 964.039 1102.93 979.165 1108.56 996.276 C 1117.46 1023.32 1116.1 1079.39 1083.09 1089.51 C 1033.2 1090 1025.59 986.359 1073.34 965.098 z M 1081.54 1039.85 C 1083.46 1049.01 1084.67 1059.86 1092.24 1066.43 C 1094.56 1068.72 1097.74 1069.75 1099.71 1066.41 C 1109.65 1049.6 1109.24 1026.05 1106.51 1007.51 C 1105.26 1002.02 1104.02 996.245 1101.48 991.195 L 1100.71 989.612 C 1100.31 988.502 1099.94 987.559 1099.5 986.47 L 1097.34 982.821 C 1088 981.288 1084.52 992.021 1083.29 999.634 C 1083.69 1002.39 1084.22 1015.92 1083.49 1017.34 C 1079.73 1024.6 1084.54 1034.81 1081.54 1039.85 z" fill="rgb(2,2,1)" transform="translate(0,0)"></path>
<path d="M 1083.29 999.634 C 1084.52 992.021 1088 981.288 1097.34 982.821 C 1083.4 991.418 1095.34 993.273 1099.5 986.47 C 1099.94 987.559 1100.31 988.502 1100.71 989.612 C 1098.77 996.733 1099.97 998.42 1102.21 1005.49 C 1102.21 1005.47 1105.13 1013.73 1104.65 1013.32 C 1104.65 1013.13 1104.64 1012.94 1104.63 1012.74 L 1105.65 1011.95 L 1105.61 1012.41 C 1106.26 1010.4 1106.31 1009.61 1106.51 1007.51 C 1109.24 1026.05 1109.65 1049.6 1099.71 1066.41 C 1097.74 1069.75 1094.56 1068.72 1092.24 1066.43 C 1084.67 1059.86 1083.46 1049.01 1081.54 1039.85 C 1084.54 1034.81 1079.73 1024.6 1083.49 1017.34 C 1084.22 1015.92 1083.69 1002.39 1083.29 999.634 z M 1093.49 1061.99 C 1094.42 1061.86 1095.18 1061.18 1095.41 1060.27 C 1095.64 1059.35 1095.29 1058.39 1094.53 1057.84 C 1093.78 1057.28 1092.76 1057.24 1091.95 1057.73 C 1091.02 1058.3 1090.61 1059.45 1090.99 1060.49 C 1091.36 1061.52 1092.4 1062.15 1093.49 1061.99 z" fill="url(#Gradient1)" transform="translate(0,0)"></path>
<path d="M 1091.95 1057.73 C 1092.76 1057.24 1093.78 1057.28 1094.53 1057.84 C 1095.29 1058.39 1095.64 1059.35 1095.41 1060.27 C 1095.18 1061.18 1094.42 1061.86 1093.49 1061.99 C 1092.4 1062.15 1091.36 1061.52 1090.99 1060.49 C 1090.61 1059.45 1091.02 1058.3 1091.95 1057.73 z" fill="rgb(255,255,254)" fill-opacity="0.478431" transform="translate(0,0)"></path>
<path d="M 1100.71 989.612 L 1101.48 991.195 C 1104.02 996.245 1105.26 1002.02 1106.51 1007.51 C 1106.31 1009.61 1106.26 1010.4 1105.61 1012.41 L 1105.65 1011.95 L 1104.63 1012.74 C 1104.64 1012.94 1104.65 1013.13 1104.65 1013.32 C 1105.13 1013.73 1102.21 1005.47 1102.21 1005.49 C 1099.97 998.42 1098.77 996.733 1100.71 989.612 z" fill="rgb(255,255,254)" fill-opacity="0.988235" transform="translate(0,0)"></path>
<path d="M 1083.29 999.634 C 1083.69 1002.39 1084.22 1015.92 1083.49 1017.34 C 1079.73 1024.6 1084.54 1034.81 1081.54 1039.85 C 1080.18 1028.35 1080.09 1010.79 1083.29 999.634 z" fill="rgb(255,255,254)" transform="translate(0,0)"></path>
<path d="M 1097.34 982.821 L 1099.5 986.47 C 1095.34 993.273 1083.4 991.418 1097.34 982.821 z" fill="rgb(255,255,254)" fill-opacity="0.596078" transform="translate(0,0)"></path>
<path d="M 955.013 1105.94 C 956.965 1108.02 958.461 1109.12 958.96 1111.88 C 956.99 1114.39 956.73 1114.36 955.87 1117.35 C 957.107 1123.43 961.093 1126.7 965.343 1131.05 C 980.95 1147.01 1005.08 1155.15 1027.34 1154.57 C 1050.42 1153.73 1072.19 1143.63 1087.73 1126.56 C 1089.85 1124.24 1094.88 1118.99 1094.77 1116.25 L 1090.53 1113.48 C 1090.32 1110.16 1092 1108.84 1094.1 1105.31 C 1100.86 1109.77 1105.68 1111.08 1111.74 1116.52 C 1112.93 1119.75 1112.52 1118.76 1110.68 1123.04 C 1107.23 1125.17 1106.84 1124.55 1102.66 1123.62 C 1098.37 1126.99 1092.49 1134.55 1088.3 1138.94 C 1072.89 1155.05 1047.39 1163.76 1025.4 1163.97 C 1000.5 1164.36 976.464 1154.9 958.515 1137.65 C 953.566 1132.87 950.738 1127.59 945.613 1122.51 C 942.28 1123.01 941.619 1123.46 938.524 1122.18 C 936.804 1119.76 937.094 1119.71 937.067 1116.66 C 940.937 1112.94 949.925 1108.64 955.013 1105.94 z" fill="rgb(2,2,1)" transform="translate(0,0)"></path>
<path d="M 1039.17 128.657 C 1058.58 127.809 1077.95 126.129 1097.22 123.623 L 1097.17 157.827 C 1147.13 167.847 1196.14 185.966 1225.61 230.759 C 1229.72 236.966 1233.11 243.624 1235.7 250.601 C 1225.76 252.197 1198.17 257.082 1188.83 256.959 C 1070.35 271.231 972.235 268.968 854.428 256.276 C 840.354 254.554 826.301 252.668 812.271 250.62 C 835.4 194.649 897.593 166.589 953.962 157.462 L 953.888 124.989 C 962.818 126.399 972.126 127.09 981.152 127.911 C 1000.48 128.881 1019.83 129.13 1039.17 128.657 z" fill="rgb(30,191,163)" transform="translate(0,0)"></path>
<path d="M 1039.17 128.657 C 1058.58 127.809 1077.95 126.129 1097.22 123.623 L 1097.17 157.827 C 1147.13 167.847 1196.14 185.966 1225.61 230.759 C 1229.72 236.966 1233.11 243.624 1235.7 250.601 C 1225.76 252.197 1198.17 257.082 1188.83 256.959 C 1187.68 251.666 1185.14 248.683 1182.1 244.427 C 1146.66 194.852 1099.21 172.585 1041.09 159.626 C 1041.09 153.359 1041.98 132.502 1039.17 128.657 z" fill="rgb(14,137,123)" transform="translate(0,0)"></path>
<path d="M 953.888 124.989 C 962.818 126.399 972.126 127.09 981.152 127.911 C 981.001 132.474 979.944 148.798 982.211 151.063 C 988.252 157.099 1016.37 160.448 1025.03 161.869 C 1005.19 170.461 982.67 174.061 962.045 180.396 C 921.555 192.831 875.836 218.351 854.428 256.276 C 840.354 254.554 826.301 252.668 812.271 250.62 C 835.4 194.649 897.593 166.589 953.962 157.462 L 953.888 124.989 z" fill="rgb(100,199,182)" transform="translate(0,0)"></path>
<path d="M 798.273 263.081 C 804.401 262.971 810.098 263.799 816.184 264.483 C 889.723 278.191 968.983 281.824 1043.74 280.937 C 1070.93 280.615 1098.69 278.529 1125.96 277.835 L 1127.62 278.722 C 1142.42 286.52 1153.61 287.536 1165.34 302.154 C 1167.37 324.563 1166.09 371.306 1166.11 394.932 C 1158.33 395.542 1150.57 396.315 1142.83 397.253 L 1143.07 331.417 C 1143.1 322.786 1144.78 300.176 1140.3 294.259 C 1136.63 292.336 1138.5 292.679 1134.51 293.009 C 1132.58 294.162 1129.59 295.848 1129.4 298.091 C 1126.81 328.036 1129.04 369.493 1128.88 398.867 C 1112.79 399.654 1095.02 401.047 1079.12 401.229 L 1068.33 401.763 L 1068.09 296.33 C 1066.05 292.888 1064.5 290.637 1060.58 289.504 C 1057.65 290.907 1056.24 292.177 1055.12 295.308 C 1050.46 308.347 1053.01 382.316 1053.05 402.265 L 1004.46 402.324 L 991.179 402.255 C 991.102 368.294 990.505 332.78 991.265 298.94 C 989.956 294.502 991.145 296.222 987.928 293.36 C 983.367 292.286 977.728 291.787 977.085 297.877 C 975.914 308.953 976.427 320.733 976.49 331.893 C 976.732 355.24 976.823 378.589 976.762 401.937 C 960.766 401.216 944.781 400.26 928.813 399.069 C 924.465 398.829 920.998 398.484 916.667 398.015 C 916.626 387.158 916.077 367.805 916.757 357.229 C 916.259 346.638 918.855 298.919 913.566 293.436 C 911.911 291.72 909.703 291.126 907.401 291.196 C 901.097 295.363 901.012 306.068 900.991 312.937 C 900.907 340.857 901.968 368.89 901.889 396.799 C 888.434 395.272 867.913 393.621 855.135 391.368 C 851.459 390.906 848.342 390.348 844.726 389.786 C 843.974 383.28 844.42 373.88 844.355 366.939 C 844.135 343.536 844.877 319.787 844.07 296.414 C 843.902 291.571 842.431 286.007 838.539 282.801 C 824.66 282.663 829.076 308.53 829.061 318.553 L 828.906 387.601 C 820.426 385.196 807.337 383.2 798.292 381.582 C 792.397 380.963 789.707 380.016 784.156 378.308 L 783.856 315.888 C 783.818 304.094 783.077 289.255 785.063 277.702 C 786.266 270.706 792.664 266.631 798.273 263.081 z" fill="rgb(30,191,163)" transform="translate(0,0)"></path>
<path d="M 798.273 263.081 C 804.401 262.971 810.098 263.799 816.184 264.483 C 811.872 273.663 804.389 279.702 802.777 290.157 C 798.382 318.668 801.969 348.742 800.799 377.578 C 800.685 380.389 800.224 380.164 798.292 381.582 C 792.397 380.963 789.707 380.016 784.156 378.308 L 783.856 315.888 C 783.818 304.094 783.077 289.255 785.063 277.702 C 786.266 270.706 792.664 266.631 798.273 263.081 z" fill="rgb(100,199,182)" transform="translate(0,0)"></path>
<path d="M 991.265 298.94 C 995.047 300.113 1002.86 302.892 1003.23 306.55 C 1005.54 329.468 1005.6 381.094 1004.46 402.324 L 991.179 402.255 C 991.102 368.294 990.505 332.78 991.265 298.94 z" fill="rgb(100,199,182)" transform="translate(0,0)"></path>
<path d="M 917.182 300.473 L 918.829 301.616 C 924.44 305.443 923.917 305.533 928.07 311.008 C 928.521 319.025 928.651 327.442 928.527 335.484 C 928.202 356.502 929.72 378.111 928.813 399.069 C 924.465 398.829 920.998 398.484 916.667 398.015 C 916.626 387.158 916.077 367.805 916.757 357.229 C 918.106 342.279 917.067 316.634 917.182 300.473 z" fill="rgb(100,199,182)" transform="translate(0,0)"></path>
<path d="M 1068.09 296.33 C 1073.39 300.537 1075.52 303.132 1078.81 309.11 C 1079.23 338.446 1079.71 371.916 1079.12 401.229 L 1068.33 401.763 L 1068.09 296.33 z" fill="rgb(100,199,182)" transform="translate(0,0)"></path>
<path d="M 844.973 292.152 C 849.716 295.103 851.555 296.247 855.68 300.03 C 856.43 322.141 855.281 344.726 855.741 366.883 C 855.905 374.763 856.052 383.573 855.135 391.368 C 851.459 390.906 848.342 390.348 844.726 389.786 C 845.545 380.098 845.113 365.685 845.11 355.576 L 844.973 292.152 z" fill="rgb(100,199,182)" transform="translate(0,0)"></path>
<path d="M 765.958 436.298 C 763.387 433.8 761.334 431.497 759.679 428.275 C 756.524 422.278 756.122 415.209 758.576 408.892 C 762.18 399.386 768.146 395.233 776.978 391.556 C 799.924 398.016 829.537 402.003 853.28 405.239 C 958.643 419.309 1065.32 420.525 1170.98 408.859 C 1199.38 404.306 1228.05 401.164 1256.33 395.214 C 1262.21 393.974 1269.15 392.835 1275.14 392.379 C 1282.78 396.402 1289.42 401.159 1292.08 409.905 C 1294.03 416.525 1293.17 423.656 1289.7 429.623 C 1284.95 437.781 1276.46 441.489 1267.61 443.278 C 1242.7 448.308 1216.47 452.413 1191.34 455.641 C 1073.73 470.454 954.672 469.75 837.237 453.548 C 817.118 450.723 782.534 447.552 765.958 436.298 z" fill="rgb(14,137,123)" transform="translate(0,0)"></path>
<path d="M 765.958 436.298 C 763.387 433.8 761.334 431.497 759.679 428.275 C 756.524 422.278 756.122 415.209 758.576 408.892 C 762.18 399.386 768.146 395.233 776.978 391.556 C 799.924 398.016 829.537 402.003 853.28 405.239 C 958.643 419.309 1065.32 420.525 1170.98 408.859 C 1110.66 453.734 916.524 445.812 839.979 441.718 C 824.826 440.936 809.69 439.841 794.582 438.433 C 787.95 437.837 771.92 435.92 765.958 436.298 z" fill="rgb(30,191,163)" transform="translate(0,0)"></path>
<path d="M 1125.96 277.835 C 1133.84 276.43 1144.74 275.936 1152.97 275.149 C 1165.65 273.844 1178.32 272.4 1190.96 270.819 C 1207.81 268.751 1224.71 266.017 1241.17 263.541 C 1254.57 261.527 1263.71 274.19 1264.43 285.941 C 1266.31 316.646 1264.64 349.002 1265.44 379.696 C 1251.13 381.503 1233 384.708 1218.61 387.463 L 1218.76 324.627 C 1218.77 313.731 1219.23 301.922 1217.93 291.109 C 1217.46 287.173 1214.54 284.608 1210.99 283.14 C 1208.49 283.494 1207.55 283.694 1205.78 285.756 C 1201.89 290.305 1204.04 377.607 1204.09 390.319 L 1166.11 394.932 C 1166.09 371.306 1167.37 324.563 1165.34 302.154 C 1153.61 287.536 1142.42 286.52 1127.62 278.722 L 1125.96 277.835 z" fill="rgb(14,137,123)" transform="translate(0,0)"></path>
<path d="M 941.162 80.1953 C 972.906 66.0001 1009.96 63.5061 1044.24 65.8594 C 1067.61 67.9543 1091.21 71.2864 1111.95 83.0128 C 1117.96 86.5125 1128.28 93.8355 1120.66 99.9435 C 1103.41 113.754 1071.05 111.669 1049.58 113.527 C 1029.68 113.996 958.097 112.707 942.691 106.784 C 919.458 103.034 925.514 89.545 941.162 80.1953 z" fill="rgb(30,191,163)" transform="translate(0,0)"></path>
<path d="M 941.162 80.1953 C 972.906 66.0001 1009.96 63.5061 1044.24 65.8594 L 1047.39 70.976 C 1053.17 71.1669 1067.35 72.1756 1071.31 76.353 C 1070.9 78.4582 1071.42 77.8221 1069.72 79.0063 C 1055.12 89.1829 974.639 97.6973 955.818 93.214 C 949.55 91.7209 945.904 90.3456 941.98 85.1903 L 941.162 80.1953 z" fill="rgb(100,199,182)" transform="translate(0,0)"></path>
<path d="M 941.162 80.1953 C 972.906 66.0001 1009.96 63.5061 1044.24 65.8594 L 1047.39 70.976 C 1007.04 67.2481 981.097 74.7041 943.06 84.751 C 942.7 84.8974 942.34 85.0438 941.98 85.1903 L 941.162 80.1953 z" fill="rgb(30,191,163)" transform="translate(0,0)"></path>
<path d="M 1111.95 83.0128 C 1117.96 86.5125 1128.28 93.8355 1120.66 99.9435 C 1103.41 113.754 1071.05 111.669 1049.58 113.527 C 1029.68 113.996 958.097 112.707 942.691 106.784 C 951.326 104.211 977.387 109.048 987.775 108.425 C 1012.72 106.93 1097.88 104.623 1111.95 83.0128 z" fill="rgb(14,137,123)" transform="translate(0,0)"></path>
<metadata><recraft-signature>{"signed_by": "recraft", "signature_b64": "E6ry7+sVCdzcdxsYEzcrWI16kSZsRsoQziZqE06Zd6AVmtdrKl4caFLv3QZhPBV2adHbWfuwCy6YWuZwGFACCw==", "signing_algo": "Ed25519", "generation_timestamp": 1782415722, "identifier": "a748520c-a6fa-407c-9f2a-1402d9d1c8ba"}</recraft-signature></metadata></svg>