<svg xmlns="http://www.w3.org/2000/svg" height="1024" preserveAspectRatio="none" style="display: block;" version="1.1" viewBox="0 0 2048 2048" width="1024">
<defs>
	<linearGradient gradientUnits="userSpaceOnUse" id="Gradient1" x1="961.474" x2="925.647" y1="525.652" y2="557.714">
		<stop class="stop0" offset="0" stop-color="rgb(255,255,255)" stop-opacity="0"></stop>
		<stop class="stop1" offset="1" stop-color="rgb(255,255,255)" stop-opacity="0.0352941"></stop>
	</linearGradient>
	<linearGradient gradientUnits="userSpaceOnUse" id="Gradient2" x1="964.274" x2="906.612" y1="812.262" y2="645.867">
		<stop class="stop0" offset="0" stop-color="rgb(229,140,151)" stop-opacity="1"></stop>
		<stop class="stop1" offset="1" stop-color="rgb(197,146,204)" stop-opacity="1"></stop>
	</linearGradient>
	<linearGradient gradientUnits="userSpaceOnUse" id="Gradient3" x1="1184.25" x2="1173.58" y1="575.85" y2="549.222">
		<stop class="stop0" offset="0" stop-color="rgb(251,249,250)" stop-opacity="0.960784"></stop>
		<stop class="stop1" offset="1" stop-color="rgb(248,241,242)" stop-opacity="1"></stop>
	</linearGradient>
	<linearGradient gradientUnits="userSpaceOnUse" id="Gradient4" x1="1203.91" x2="1105.48" y1="585.913" y2="478.128">
		<stop class="stop0" offset="0" stop-color="rgb(230,139,153)" stop-opacity="1"></stop>
		<stop class="stop1" offset="1" stop-color="rgb(204,148,199)" stop-opacity="1"></stop>
	</linearGradient>
	<linearGradient gradientUnits="userSpaceOnUse" id="Gradient5" x1="1124.61" x2="1073" y1="1528.09" y2="856.818">
		<stop class="stop0" offset="0" stop-color="rgb(254,123,99)" stop-opacity="1"></stop>
		<stop class="stop1" offset="1" stop-color="rgb(224,143,165)" stop-opacity="1"></stop>
	</linearGradient>
	<linearGradient gradientUnits="userSpaceOnUse" id="Gradient6" x1="369.539" x2="372.699" y1="1137.44" y2="1136.87">
		<stop class="stop0" offset="0" stop-color="rgb(255,255,255)" stop-opacity="0.870588"></stop>
		<stop class="stop1" offset="1" stop-color="rgb(255,255,255)" stop-opacity="0.901961"></stop>
	</linearGradient>
	<linearGradient gradientUnits="userSpaceOnUse" id="Gradient7" x1="1490.8" x2="1573.94" y1="1244.35" y2="1382.52">
		<stop class="stop0" offset="0" stop-color="rgb(255,255,254)" stop-opacity="0.913725"></stop>
		<stop class="stop1" offset="1" stop-color="rgb(255,255,255)" stop-opacity="1"></stop>
	</linearGradient>
	<linearGradient gradientUnits="userSpaceOnUse" id="Gradient8" x1="1173.14" x2="893.155" y1="1559.71" y2="506.415">
		<stop class="stop0" offset="0" stop-color="rgb(255,125,80)" stop-opacity="1"></stop>
		<stop class="stop1" offset="1" stop-color="rgb(158,157,255)" stop-opacity="1"></stop>
	</linearGradient>
</defs>
<path d="M 1192.48 417.247 C 1232.85 413.247 1262.47 435.084 1279.72 470.753 C 1296.57 505.594 1305.49 533.026 1278.62 566.312 C 1266.93 580.785 1255.46 590.802 1238.98 599.72 C 1235.95 601.363 1229.77 605.089 1228.62 608.453 C 1235.4 614.257 1565.43 608.174 1609.21 612.211 C 1621.69 613.362 1633.46 615.957 1645.36 619.911 C 1667.71 627.338 1691.17 639.544 1709.01 655.062 C 1717.21 662.191 1724.58 670.31 1733.01 677.164 C 1744.06 686.155 1755.34 692.768 1765.67 702.915 C 1792.2 728.977 1802.27 747.792 1818.29 780.229 C 1827.3 798.461 1834.69 814.694 1838.66 834.754 C 1842.37 853.572 1842.44 872.353 1842.59 891.437 C 1842.97 941.933 1841.47 992.376 1841.06 1042.86 C 1841.16 1098.48 1840.96 1154.1 1840.47 1209.72 C 1840.15 1233.4 1840 1257.08 1840.02 1280.77 C 1840 1308.33 1841.16 1337.24 1834.65 1364.03 C 1825.34 1402.33 1806.39 1434.36 1778.73 1462.19 C 1749.47 1491.17 1712.2 1510.73 1671.72 1518.35 C 1643.33 1523.65 1595.18 1522.08 1564.7 1522.06 L 1410.89 1522.05 L 815.5 1522.01 L 624.107 1522 C 589.558 1522 538.869 1524.09 505.872 1517.88 C 483.101 1513.6 435.588 1489.28 414.164 1476.96 C 397.166 1467.18 373.042 1442.29 360.958 1426.09 C 357.604 1422.04 353.94 1411.38 350.632 1408.16 C 280.83 1340.39 285.058 1280.86 285.664 1187.41 L 286.571 1038.62 L 285.999 873.387 C 285.992 843.52 285.31 808.165 288.498 778.742 C 291.18 753.984 304.018 720.986 317.619 700.194 C 343.938 659.96 386.301 629.895 432.595 617.076 C 459.613 609.594 486.911 610.84 514.693 610.83 L 575.638 610.696 L 801.431 610.497 C 816.744 610.388 872.023 611.253 882.156 609.071 L 883.045 607.456 C 881.248 603.905 848.615 577.707 843.712 572.725 C 750.992 478.676 859.424 369.253 964.676 440.76 C 1013.04 473.616 1017.15 485.756 1047.74 534.345 C 1059.03 515.669 1070.44 495.089 1086.54 480.045 C 1119.92 448.854 1146.46 425.946 1192.48 417.247 z M 1221.14 784.715 C 1222.58 804.216 1225.12 824.372 1224.3 843.666 C 1222.84 877.713 1198.3 870.324 1180.53 852.496 C 1164.35 836.259 1152.46 819.014 1139.16 800.54 C 1108.55 758.759 1081.15 718.957 1058.78 672.033 C 1033.22 734.27 997.01 785.496 949.179 832.655 C 937.417 844.252 925.47 858.053 910.018 864.667 C 900.338 868.81 889.598 870.857 885.859 858.311 C 885.073 855.675 883.675 854.565 881.588 852.902 C 877.623 849.937 876.338 846.848 876.272 841.638 C 876.06 824.808 881.126 803.622 884.59 786.951 C 866.229 787.753 821.372 789.231 803.919 778.193 C 800.606 776.098 800.939 767.483 801.034 763.627 L 799.954 762.867 C 793.337 758.131 787.742 753.18 792.906 744.954 C 799.908 739.836 812.051 736.106 820.121 732.674 C 855.652 717.562 885.578 694.386 915.649 670.657 C 930.747 658.742 947.578 646.803 960.882 632.85 C 950.781 630.067 928.584 622.479 920.5 622.282 C 894.508 621.651 867.382 622.099 841.302 622.121 L 678.85 622.437 L 539.044 622.37 C 482.887 622.483 441.483 618.003 390.482 647.211 C 348.318 670.97 317.431 710.633 304.727 757.333 C 295.09 793.179 297.903 846.146 297.995 884.603 L 298.312 1028.86 L 297.057 1171.61 C 297.004 1189.37 296.272 1213.45 297.123 1230.74 C 296.689 1250.6 296.384 1267.96 299.371 1287.77 C 306.447 1337.17 333.344 1381.56 373.859 1410.7 C 400.281 1429.63 431.146 1441.42 463.464 1444.92 C 483.084 1446.94 510.317 1446.34 530.366 1446.38 L 638.698 1446.34 L 985.5 1446.27 L 1418.88 1446.57 L 1524.39 1446.58 C 1549.93 1446.66 1583.89 1447.73 1608.33 1443.79 C 1657.73 1436.08 1702.03 1409.02 1731.45 1368.6 C 1771.29 1312.78 1766.27 1268.18 1766.71 1204.04 L 1767.85 1070.23 L 1769.65 913.968 C 1770.46 871.582 1773.45 812.013 1766.75 771.752 C 1755.31 720.055 1728.88 680.142 1683.9 651.504 C 1660.85 636.889 1634.91 627.454 1607.86 623.85 C 1588.61 621.364 1559.28 622.253 1539.12 622.261 L 1421.81 622.432 L 1258.12 622.205 C 1235.93 622.143 1211.85 621.565 1189.71 622.196 C 1180.17 622.468 1159.88 629.983 1149.86 633.03 C 1182.08 667.677 1217.25 697.186 1257.3 722.411 C 1270.19 730.528 1337.82 755.138 1311.96 778.524 C 1296.67 792.35 1252.2 788.431 1232.61 786.257 C 1228.77 785.821 1224.95 785.307 1221.14 784.715 z M 979.685 615.581 C 991.816 606.392 1000.33 598.883 1015.22 594.667 C 1000.39 584.162 982.225 582.608 966.337 576.966 C 940.841 567.912 883.711 541.171 869.472 519.629 C 846.92 481.661 884.524 465.258 917.4 476.361 C 964.494 492.266 991.42 535.939 1014.78 577.007 C 1020.09 586.341 1020.86 589.257 1029.45 596.067 C 1032.86 576.662 1035.42 563.6 1042.58 544.799 C 1031.41 527.979 1022.15 508.701 1009.8 492.999 C 979.951 455.07 931.902 424.845 882.562 428.225 C 869.984 430.747 859.771 433.38 849.222 440.737 C 800.174 474.941 817.719 546.191 865.196 572.661 C 891.122 587.117 916.389 595.442 944.888 603.47 C 955.988 606.76 969.302 610.57 979.685 615.581 z M 1125.5 554.43 C 1126.33 556.944 1126.7 558.196 1127.89 560.556 C 1157.17 549.551 1197.58 534.865 1213.99 505.452 C 1214.33 502.07 1200.92 504.642 1199.99 504.794 C 1168.66 509.955 1146.34 532.486 1125.5 554.43 z M 1000.64 574.236 C 980.76 537.64 945.612 500.198 900.091 504.216 C 893.042 507.662 884.017 514.252 891.473 522.27 C 911.242 543.527 960.838 566.51 988.26 572.39 C 992.471 573.164 996.36 574.017 1000.64 574.236 z M 1039.69 598.73 C 1051.11 591.252 1059.73 588.38 1073.12 585.744 C 1091.41 542.664 1129.83 498.992 1173.34 480.386 C 1190.23 473.162 1217.36 466.806 1224.71 489.303 C 1227.36 497.408 1226.3 506.068 1222.42 513.51 C 1222.09 514.136 1221.75 514.756 1221.39 515.368 C 1193.82 552.277 1128.16 572.267 1085.57 591.715 C 1101.48 598.537 1111.49 605.195 1126.01 614.319 C 1144.46 607.938 1162.3 600.296 1180.59 593.712 C 1227.12 576.963 1284.92 528.76 1265.05 472.651 C 1259.2 455.636 1246.75 441.692 1230.5 433.96 C 1218.06 428.176 1206.27 426.887 1192.72 428.332 C 1160.08 433.185 1137.74 449.002 1112.94 469.807 C 1074.21 502.295 1045.59 547.867 1039.69 598.73 z" fill="rgb(5,5,5)" transform="translate(0,0)"></path>
<path d="M 1149.86 633.03 C 1159.88 629.983 1180.17 622.468 1189.71 622.196 C 1211.85 621.565 1235.93 622.143 1258.12 622.205 L 1421.81 622.432 L 1539.12 622.261 C 1559.28 622.253 1588.61 621.364 1607.86 623.85 C 1634.91 627.454 1660.85 636.889 1683.9 651.504 C 1728.88 680.142 1755.31 720.055 1766.75 771.752 C 1773.45 812.013 1770.46 871.582 1769.65 913.968 L 1767.85 1070.23 L 1766.71 1204.04 C 1766.27 1268.18 1771.29 1312.78 1731.45 1368.6 C 1702.03 1409.02 1657.73 1436.08 1608.33 1443.79 C 1583.89 1447.73 1549.93 1446.66 1524.39 1446.58 L 1418.88 1446.57 L 985.5 1446.27 L 638.698 1446.34 L 530.366 1446.38 C 510.317 1446.34 483.084 1446.94 463.464 1444.92 C 431.146 1441.42 400.281 1429.63 373.859 1410.7 C 333.344 1381.56 306.447 1337.17 299.371 1287.77 C 296.384 1267.96 296.689 1250.6 297.123 1230.74 C 296.272 1213.45 297.004 1189.37 297.057 1171.61 L 298.312 1028.86 L 297.995 884.603 C 297.903 846.146 295.09 793.179 304.727 757.333 C 317.431 710.633 348.318 670.97 390.482 647.211 C 441.483 618.003 482.887 622.483 539.044 622.37 L 678.85 622.437 L 841.302 622.121 C 867.382 622.099 894.508 621.651 920.5 622.282 C 928.584 622.479 950.781 630.067 960.882 632.85 C 947.578 646.803 930.747 658.742 915.649 670.657 C 885.578 694.386 855.652 717.562 820.121 732.674 C 812.051 736.106 799.908 739.836 792.906 744.954 C 787.742 753.18 793.337 758.131 799.954 762.867 L 801.034 763.627 C 800.939 767.483 800.606 776.098 803.919 778.193 C 821.372 789.231 866.229 787.753 884.59 786.951 C 881.126 803.622 876.06 824.808 876.272 841.638 C 876.338 846.848 877.623 849.937 881.588 852.902 C 883.675 854.565 885.073 855.675 885.859 858.311 C 889.598 870.857 900.338 868.81 910.018 864.667 C 925.47 858.053 937.417 844.252 949.179 832.655 C 997.01 785.496 1033.22 734.27 1058.78 672.033 C 1081.15 718.957 1108.55 758.759 1139.16 800.54 C 1152.46 819.014 1164.35 836.259 1180.53 852.496 C 1198.3 870.324 1222.84 877.713 1224.3 843.666 C 1225.12 824.372 1222.58 804.216 1221.14 784.715 C 1224.95 785.307 1228.77 785.821 1232.61 786.257 C 1252.2 788.431 1296.67 792.35 1311.96 778.524 C 1337.82 755.138 1270.19 730.528 1257.3 722.411 C 1217.25 697.186 1182.08 667.677 1149.86 633.03 z M 1258.9 1376.03 C 1261.21 1372.78 1263.07 1371.58 1262.55 1367.5 C 1263.07 1367.2 1263.6 1366.89 1264.08 1366.54 C 1263.74 1366.39 1263.36 1366.38 1263 1366.33 C 1261.83 1366.15 1260.67 1365.93 1259.5 1365.73 C 1250.03 1364.11 1177.19 1362.53 1172.33 1366.28 C 1170.9 1367.39 1170.4 1369.29 1170.28 1371.02 C 1170.11 1373.24 1170.93 1375.89 1172.55 1377.46 C 1174.64 1379.49 1177.86 1379.13 1180.5 1378.93 C 1183.5 1378.7 1186.52 1378.15 1189.5 1377.74 C 1191.1 1377.52 1192.69 1377.23 1194.29 1377 C 1194.33 1377.29 1194.38 1378.39 1194.64 1378.39 C 1209.25 1378.27 1237.83 1379.89 1250.78 1380.2 C 1269.15 1382.68 1293.51 1383.55 1312.84 1384.93 C 1422.3 1392.7 1557.21 1412.31 1648.92 1337.62 C 1705.77 1291.31 1722.61 1206.54 1716.62 1137.21 C 1715.63 1129.84 1715.64 1120.79 1711.65 1114.29 C 1709.14 1110.22 1706.97 1111.58 1703.14 1110.46 C 1699.63 1113 1699.62 1112.8 1696.99 1116.11 C 1697.07 1129.16 1698.53 1141.08 1698.13 1154.29 C 1696.71 1201.2 1681.96 1244.3 1648.27 1277.93 C 1612.35 1313.77 1566.41 1334.32 1517.97 1347.04 C 1505.85 1350.22 1484.88 1353.57 1474.7 1356.77 C 1472.06 1359.7 1456.88 1361.53 1453 1361.43 C 1452.17 1361.4 1451.33 1361.55 1450.55 1361.85 L 1450.51 1361.91 L 1450.8 1362.06 C 1445.27 1364.63 1437.44 1364.04 1431.68 1362.22 C 1393.54 1364.95 1359.03 1365.66 1320.75 1365.69 C 1304.89 1365.7 1280.08 1364.46 1265.34 1365.63 L 1267.76 1366.2 C 1268.03 1371.26 1263.95 1375.39 1258.9 1376.03 z M 582.342 774.271 C 573.637 818.956 543.933 841.288 503.349 855.511 C 509.721 858.859 518.403 862.13 525.255 865.561 C 561.909 883.912 568.819 914.12 580.821 949.931 C 596.576 901.114 604.435 878.269 653.675 857.968 C 612.05 838.074 600.003 817.203 587.585 773.532 L 582.342 774.271 z M 1701.24 1059.58 C 1700.77 1057.73 1699.33 1048.84 1699.36 1048.85 L 1699.03 1048.96 C 1698.24 1050.2 1698.7 1051.37 1698.41 1051.78 L 1698.24 1051.66 C 1698.38 1047.33 1698.51 1047.5 1698 1042.86 C 1696.38 1049.57 1694.67 1063.03 1695.86 1069.64 C 1697.23 1069.04 1698.46 1068.62 1699.86 1068.12 C 1705.85 1069.38 1702.82 1062.18 1701.24 1059.58 z M 370.962 1131.2 C 361.138 1137.14 365.819 1138.26 367.759 1148.47 C 368.989 1154.95 368.544 1161.27 370.401 1167.73 C 371.781 1172.53 380.33 1172.18 381.658 1168.71 C 385.368 1159.04 381.2 1140.39 375.401 1132.05 C 373.252 1131.18 373.361 1131.32 370.962 1131.2 z" fill="url(#Gradient8)" transform="translate(0,0)"></path>
<path d="M 1474.7 1356.77 C 1484.88 1353.57 1505.85 1350.22 1517.97 1347.04 C 1566.41 1334.32 1612.35 1313.77 1648.27 1277.93 C 1681.96 1244.3 1696.71 1201.2 1698.13 1154.29 C 1698.53 1141.08 1697.07 1129.16 1696.99 1116.11 L 1697.87 1117.88 C 1698.77 1119.67 1699.36 1121.46 1699.92 1123.39 C 1698.34 1131.19 1707.6 1122.58 1708.19 1128.9 C 1708.33 1130.47 1710.66 1133.28 1710.04 1135.48 C 1710.58 1139.39 1711.86 1141.1 1710.43 1145.34 C 1710.28 1145.78 1711.56 1154.14 1711.71 1154.59 C 1712.57 1157.18 1711.38 1166.34 1712.35 1167.62 L 1712.44 1167.63 C 1715.58 1164.86 1712.22 1144.86 1716.62 1137.21 C 1722.61 1206.54 1705.77 1291.31 1648.92 1337.62 C 1557.21 1412.31 1422.3 1392.7 1312.84 1384.93 C 1293.51 1383.55 1269.15 1382.68 1250.78 1380.2 C 1251.79 1380.1 1256.23 1379.93 1257.05 1379.3 C 1256.21 1377.66 1252.19 1376.91 1250.56 1376.53 C 1254.06 1376.51 1255.46 1376.5 1258.9 1376.03 C 1263.95 1375.39 1268.03 1371.26 1267.76 1366.2 L 1265.34 1365.63 C 1280.08 1364.46 1304.89 1365.7 1320.75 1365.69 C 1359.03 1365.66 1393.54 1364.95 1431.68 1362.22 C 1437.44 1364.04 1445.27 1364.63 1450.8 1362.06 L 1450.51 1361.91 L 1450.55 1361.85 C 1451.33 1361.55 1452.17 1361.4 1453 1361.43 C 1456.88 1361.53 1472.06 1359.7 1474.7 1356.77 z" fill="url(#Gradient7)" transform="translate(0,0)"></path>
<path d="M 581.595 716.478 C 584.366 716.758 585.402 717.195 588.047 718.011 C 591.714 721.551 595.711 753.8 597.225 761.552 C 605.152 802.159 617.053 830.274 656.877 847.231 C 664.125 850.318 674.705 851.727 681.298 855.899 C 683.869 857.526 683.538 858.775 683.835 861.279 C 681.066 864.448 652.847 871.809 644.211 875.373 C 604.474 891.773 595.079 935.992 588.939 974.143 C 587.905 980.565 586.598 998.839 584.626 1003.79 C 579.494 1007.81 576.829 1005.31 573.621 1000.77 C 568.986 940.43 560.953 878.952 491.433 863.856 C 484.097 862.263 465.507 862.62 465.796 853.465 C 470.394 846.904 495.518 845.045 506.375 841.8 C 556.659 826.774 566.702 795.729 575.522 747.494 C 577.047 739.156 577.874 723.299 581.595 716.478 z M 582.342 774.271 C 573.637 818.956 543.933 841.288 503.349 855.511 C 509.721 858.859 518.403 862.13 525.255 865.561 C 561.909 883.912 568.819 914.12 580.821 949.931 C 596.576 901.114 604.435 878.269 653.675 857.968 C 612.05 838.074 600.003 817.203 587.585 773.532 L 582.342 774.271 z" fill="rgb(5,5,5)" transform="translate(0,0)"></path>
<path d="M 582.342 774.271 C 582.633 773.043 584.066 765.93 585.375 765.772 C 585.867 766.147 585.992 766.725 586.148 767.325 C 586.667 769.385 587.146 771.454 587.585 773.532 L 582.342 774.271 z" fill="rgb(250,246,249)" transform="translate(0,0)"></path>
<path d="M 461.114 681.84 C 462.63 682.125 463.295 682.604 464.74 683.279 C 467.626 687.142 466.918 685.082 467.413 689.505 C 466.815 691.331 465.451 693.573 463.695 694.51 C 371.228 743.867 362.302 837.538 363.799 931.711 C 364.409 965.946 366.1 1000.15 368.869 1034.28 C 370.057 1048.63 374.698 1080.7 374.751 1093.04 C 372.889 1096.26 372.749 1095.56 368.943 1097.7 C 366.689 1097.28 363.125 1096.36 362.634 1093.66 C 351.074 1034.55 352.867 974.361 350.938 914.61 C 348.052 825.206 369.726 721.478 461.114 681.84 z" fill="rgb(254,254,254)" transform="translate(0,0)"></path>
<path d="M 1694.91 769.738 C 1698.09 767.413 1698.57 766.717 1702.55 766.538 C 1709.25 768.817 1710.02 776.823 1711.44 783.078 C 1732 869.367 1720.18 965.235 1710.84 1052.52 C 1710.06 1059.8 1710 1071.02 1702.1 1073.1 C 1698.48 1072.38 1698.52 1072.06 1695.86 1069.64 C 1697.23 1069.04 1698.46 1068.62 1699.86 1068.12 C 1705.85 1069.38 1702.82 1062.18 1701.24 1059.58 C 1700.77 1057.73 1699.33 1048.84 1699.36 1048.85 L 1699.03 1048.96 C 1698.24 1050.2 1698.7 1051.37 1698.41 1051.78 L 1698.24 1051.66 C 1698.38 1047.33 1698.51 1047.5 1698 1042.86 C 1698.06 1036.29 1700.05 1023.27 1700.92 1016.32 C 1703.09 1000.15 1704.86 983.925 1706.24 967.664 C 1710 919.836 1711.19 868.581 1704.87 820.868 C 1702.5 802.931 1698.3 787.338 1694.91 769.738 z" fill="rgb(254,254,254)" transform="translate(0,0)"></path>
<path d="M 370.962 1131.2 C 370.339 1133.5 367.794 1140.36 369.204 1141.92 C 378.511 1152.22 375.22 1134.93 375.401 1132.05 C 381.2 1140.39 385.368 1159.04 381.658 1168.71 C 380.33 1172.18 371.781 1172.53 370.401 1167.73 C 368.544 1161.27 368.989 1154.95 367.759 1148.47 C 365.819 1138.26 361.138 1137.14 370.962 1131.2 z" fill="rgb(254,254,254)" fill-opacity="0.988235" transform="translate(0,0)"></path>
<path d="M 1703.14 1110.46 C 1706.97 1111.58 1709.14 1110.22 1711.65 1114.29 C 1715.64 1120.79 1715.63 1129.84 1716.62 1137.21 C 1712.22 1144.86 1715.58 1164.86 1712.44 1167.63 L 1712.35 1167.62 C 1711.38 1166.34 1712.57 1157.18 1711.71 1154.59 C 1711.56 1154.14 1710.28 1145.78 1710.43 1145.34 C 1711.86 1141.1 1710.58 1139.39 1710.04 1135.48 C 1710.66 1133.28 1708.33 1130.47 1708.19 1128.9 C 1707.6 1122.58 1698.34 1131.19 1699.92 1123.39 C 1707.27 1120.13 1712.84 1115.99 1703.14 1110.46 z" fill="rgb(254,254,254)" fill-opacity="0.898039" transform="translate(0,0)"></path>
<path d="M 1194.29 1377 C 1202.05 1375.12 1242.25 1375.19 1250.56 1376.53 C 1252.19 1376.91 1256.21 1377.66 1257.05 1379.3 C 1256.23 1379.93 1251.79 1380.1 1250.78 1380.2 C 1237.83 1379.89 1209.25 1378.27 1194.64 1378.39 C 1194.38 1378.39 1194.33 1377.29 1194.29 1377 z" fill="rgb(254,254,254)" fill-opacity="0.988235" transform="translate(0,0)"></path>
<path d="M 1431.68 1362.22 C 1445.16 1360.47 1461.36 1357.67 1474.7 1356.77 C 1472.06 1359.7 1456.88 1361.53 1453 1361.43 C 1452.17 1361.4 1451.33 1361.55 1450.55 1361.85 L 1450.51 1361.91 L 1450.8 1362.06 C 1445.27 1364.63 1437.44 1364.04 1431.68 1362.22 z" fill="rgb(254,254,254)" transform="translate(0,0)"></path>
<path d="M 1698 1042.86 C 1698.51 1047.5 1698.38 1047.33 1698.24 1051.66 L 1698.41 1051.78 C 1698.7 1051.37 1698.24 1050.2 1699.03 1048.96 L 1699.36 1048.85 C 1699.33 1048.84 1700.77 1057.73 1701.24 1059.58 C 1699.69 1063.53 1698.48 1064.23 1699.86 1068.12 C 1698.46 1068.62 1697.23 1069.04 1695.86 1069.64 C 1694.67 1063.03 1696.38 1049.57 1698 1042.86 z" fill="rgb(254,254,254)" fill-opacity="0.988235" transform="translate(0,0)"></path>
<path d="M 1703.14 1110.46 C 1712.84 1115.99 1707.27 1120.13 1699.92 1123.39 C 1699.36 1121.46 1698.77 1119.67 1697.87 1117.88 L 1696.99 1116.11 C 1699.62 1112.8 1699.63 1113 1703.14 1110.46 z" fill="rgb(254,254,254)" fill-opacity="0.54902" transform="translate(0,0)"></path>
<path d="M 370.962 1131.2 C 373.361 1131.32 373.252 1131.18 375.401 1132.05 C 375.22 1134.93 378.511 1152.22 369.204 1141.92 C 367.794 1140.36 370.339 1133.5 370.962 1131.2 z" fill="url(#Gradient6)" transform="translate(0,0)"></path>
<path d="M 1701.24 1059.58 C 1702.82 1062.18 1705.85 1069.38 1699.86 1068.12 C 1698.48 1064.23 1699.69 1063.53 1701.24 1059.58 z" fill="rgb(254,254,254)" fill-opacity="0.862745" transform="translate(0,0)"></path>
<path d="M 1807.61 801.197 C 1813.07 825.313 1811.75 873.08 1811.62 898.796 L 1810.71 1038 C 1811.11 1099.2 1811.04 1160.4 1810.49 1221.6 C 1809.84 1290.33 1815.15 1332.19 1776.28 1394.22 C 1745.95 1442.19 1697.8 1476.14 1642.43 1488.62 C 1615.63 1494.58 1583.33 1493.27 1555.53 1493.25 L 1458.95 1493.2 L 1105.31 1493.33 L 699.469 1493.25 L 571.669 1493.59 C 549.569 1493.65 518.262 1494.59 496.978 1492.81 C 469.369 1490.77 442.702 1481.89 419.374 1466.98 C 401.22 1455.3 389.72 1443.1 375.258 1427.31 C 438.892 1460.92 465.238 1458.48 534.1 1458.64 L 636.213 1458.75 L 965.803 1458.41 L 1373.84 1458.71 L 1508.5 1458.78 C 1531.67 1458.8 1560.36 1459.57 1583.2 1458.56 C 1602.13 1457.67 1620.88 1454.4 1638.99 1448.85 C 1689.55 1433.2 1731.76 1398 1756.24 1351.08 C 1767.38 1330.08 1774.51 1307.19 1777.25 1283.58 C 1779.71 1262.91 1779.05 1235.44 1779.16 1213.86 L 1780.13 1116.88 L 1783.01 806.11 C 1784.32 804.614 1784.06 804.403 1785.47 805.562 C 1787.22 804.545 1785.87 803.709 1786.57 802.592 C 1787.18 802.372 1789.48 805.436 1791.12 803.558 C 1792.76 801.674 1796.28 805.017 1798.74 804.804 C 1800.11 804.685 1801.35 804.834 1802.49 803.472 C 1803.28 802.413 1805.54 800.177 1806.24 802.433 C 1806.34 802.507 1806.45 802.582 1806.55 802.657 C 1807.04 802.194 1807.24 801.83 1807.61 801.197 z" fill="url(#Gradient5)" transform="translate(0,0)"></path>
<path d="M 1046.32 607.224 C 1052.1 602.543 1059.46 597.235 1067.27 598.123 C 1091.31 600.861 1132.84 630.581 1148.27 647.456 C 1196.39 692.226 1226.35 726.488 1291.18 751.442 C 1257.06 765.979 1240.82 754.692 1206.26 752.74 C 1175.34 750.995 1201.99 831.106 1192.98 839.568 C 1174.52 833.619 1089.26 712.319 1081.55 691.108 C 1069.08 671.397 1052.45 629.558 1046.32 607.224 z" fill="rgb(211,144,179)" transform="translate(0,0)"></path>
<path d="M 1046.32 607.224 C 1052.1 602.543 1059.46 597.235 1067.27 598.123 C 1091.31 600.861 1132.84 630.581 1148.27 647.456 L 1147.83 649.258 C 1141.44 643.051 1120.52 623.29 1112.08 622.418 L 1110.69 623.085 C 1092.82 631.525 1076.74 621.946 1069.34 635.616 C 1068.84 636.556 1068.84 642.798 1068.84 644.33 C 1067.17 646.286 1067.84 645.742 1065.7 646.965 C 1063.88 663.256 1082.7 681.256 1081.55 691.108 C 1069.08 671.397 1052.45 629.558 1046.32 607.224 z" fill="rgb(188,149,220)" transform="translate(0,0)"></path>
<path d="M 882.562 428.225 C 931.902 424.845 979.951 455.07 1009.8 492.999 C 1022.15 508.701 1031.41 527.979 1042.58 544.799 C 1035.42 563.6 1032.86 576.662 1029.45 596.067 C 1020.86 589.257 1020.09 586.341 1014.78 577.007 C 991.42 535.939 964.494 492.266 917.4 476.361 C 884.524 465.258 846.92 481.661 869.472 519.629 C 883.711 541.171 940.841 567.912 966.337 576.966 C 982.225 582.608 1000.39 584.162 1015.22 594.667 C 1000.33 598.883 991.816 606.392 979.685 615.581 C 969.302 610.57 955.988 606.76 944.888 603.47 C 916.389 595.442 891.122 587.117 865.196 572.661 C 817.719 546.191 800.174 474.941 849.222 440.737 C 859.771 433.38 869.984 430.747 882.562 428.225 z M 872.146 452.33 C 882.629 453.21 889.662 454.314 900.02 456.811 L 909.988 459.304 C 912.195 459.855 914.344 460.463 916.464 461.289 C 924.757 460.599 922.924 461.074 931.131 461.716 C 933.295 462.442 940.921 465.996 941.764 465.415 C 943.722 464.067 944.953 458.48 940.408 456.784 L 940.283 455.83 C 933.155 453.212 928.03 451.146 920.458 449.271 L 916.48 448.263 C 902.203 444.917 885.727 444.933 873.641 441.565 C 876.306 445.814 874.913 448.169 872.146 452.33 z" fill="rgb(188,149,220)" transform="translate(0,0)"></path>
<path d="M 873.641 441.565 C 885.727 444.933 902.203 444.917 916.48 448.263 L 920.458 449.271 C 928.03 451.146 933.155 453.212 940.283 455.83 C 929.862 455.943 927.232 455.873 916.988 451.587 C 916.331 451.312 916.747 450.407 916.32 449.524 C 914.892 449.032 909.532 451.837 908.696 453.56 C 908.763 454.44 914.303 456.323 916.464 461.289 C 914.344 460.463 912.195 459.855 909.988 459.304 L 900.02 456.811 C 889.662 454.314 882.629 453.21 872.146 452.33 C 874.913 448.169 876.306 445.814 873.641 441.565 z" fill="rgb(250,246,249)" fill-opacity="0.933333" transform="translate(0,0)"></path>
<path d="M 916.464 461.289 C 914.303 456.323 908.763 454.44 908.696 453.56 C 909.532 451.837 914.892 449.032 916.32 449.524 C 916.747 450.407 916.331 451.312 916.988 451.587 C 927.232 455.873 929.862 455.943 940.283 455.83 L 940.408 456.784 C 935.933 457.286 932.506 456.322 931.131 461.716 C 922.924 461.074 924.757 460.599 916.464 461.289 z" fill="rgb(254,254,254)" fill-opacity="0.694118" transform="translate(0,0)"></path>
<path d="M 940.408 456.784 C 944.953 458.48 943.722 464.067 941.764 465.415 C 940.921 465.996 933.295 462.442 931.131 461.716 C 932.506 456.322 935.933 457.286 940.408 456.784 z" fill="rgb(254,254,254)" fill-opacity="0.0980392" transform="translate(0,0)"></path>
<path d="M 873.641 441.565 C 876.306 445.814 874.913 448.169 872.146 452.33 C 869.167 448.382 867.737 446.082 872.285 442.626 L 873.641 441.565 z" fill="rgb(250,246,249)" transform="translate(0,0)"></path>
<path d="M 1192.72 428.332 C 1206.27 426.887 1218.06 428.176 1230.5 433.96 C 1246.75 441.692 1259.2 455.636 1265.05 472.651 C 1284.92 528.76 1227.12 576.963 1180.59 593.712 C 1162.3 600.296 1144.46 607.938 1126.01 614.319 C 1111.49 605.195 1101.48 598.537 1085.57 591.715 C 1128.16 572.267 1193.82 552.277 1221.39 515.368 C 1221.75 514.756 1222.09 514.136 1222.42 513.51 C 1226.3 506.068 1227.36 497.408 1224.71 489.303 C 1217.36 466.806 1190.23 473.162 1173.34 480.386 C 1129.83 498.992 1091.41 542.664 1073.12 585.744 C 1059.73 588.38 1051.11 591.252 1039.69 598.73 C 1045.59 547.867 1074.21 502.295 1112.94 469.807 C 1137.74 449.002 1160.08 433.185 1192.72 428.332 z M 1229.3 542.184 C 1235.82 535.978 1246.12 530.105 1238.53 522.356 L 1238.06 522.11 C 1235.85 520.949 1235.11 520.754 1233 522.129 C 1209.43 542.922 1187.05 562.934 1157.15 574.609 C 1149.69 577.525 1115.45 587.105 1128.46 598.229 C 1139.61 600.3 1192.82 571.334 1204.26 563.083 C 1212.04 557.47 1222.38 549.439 1229.3 542.184 z M 1170.16 455.287 C 1168.06 455.879 1161.25 456.947 1160.69 458.376 C 1156.96 467.879 1168.2 463.172 1170.41 462.483 C 1179.5 459.946 1184.54 455.958 1193 454.277 C 1196.97 453.489 1207.04 450.148 1196.89 448.823 L 1194.95 449.176 C 1191.57 449.767 1181.62 445.789 1175.59 450.605 C 1174.29 451.647 1173.85 452.555 1172.79 453.273 C 1171.24 454.058 1171.39 453.985 1170.16 455.287 z" fill="url(#Gradient4)" transform="translate(0,0)"></path>
<path d="M 1233 522.129 C 1234.53 526.081 1232.62 527.269 1230.39 530.967 C 1226.06 532.951 1222.53 539.083 1229.3 542.184 C 1222.38 549.439 1212.04 557.47 1204.26 563.083 C 1192.82 571.334 1139.61 600.3 1128.46 598.229 C 1115.45 587.105 1149.69 577.525 1157.15 574.609 C 1187.05 562.934 1209.43 542.922 1233 522.129 z" fill="url(#Gradient3)" transform="translate(0,0)"></path>
<path d="M 1196.89 448.823 L 1194.82 447.963 C 1194.2 447.697 1193.91 447.555 1193.59 447.004 C 1194.04 445.511 1203.02 445.379 1203.32 446.684 C 1205.46 455.845 1204.49 456.66 1197.02 458.19 C 1186.4 460.366 1182.01 461.044 1172.45 464.739 C 1169.87 465.204 1163.17 470.428 1160.63 468.747 C 1158.54 467.365 1153.99 460.545 1157.19 458.267 C 1161.35 455.304 1167.72 450.507 1172.79 453.273 C 1171.24 454.058 1171.39 453.985 1170.16 455.287 C 1168.06 455.879 1161.25 456.947 1160.69 458.376 C 1156.96 467.879 1168.2 463.172 1170.41 462.483 C 1179.5 459.946 1184.54 455.958 1193 454.277 C 1196.97 453.489 1207.04 450.148 1196.89 448.823 z" fill="rgb(254,254,254)" transform="translate(0,0)"></path>
<path d="M 1172.79 453.273 C 1173.85 452.555 1174.29 451.647 1175.59 450.605 C 1181.62 445.789 1191.57 449.767 1194.95 449.176 L 1196.89 448.823 C 1207.04 450.148 1196.97 453.489 1193 454.277 C 1184.54 455.958 1179.5 459.946 1170.41 462.483 C 1170.59 458.876 1172.3 456.999 1170.16 455.287 C 1171.39 453.985 1171.24 454.058 1172.79 453.273 z" fill="rgb(254,254,254)" fill-opacity="0.494118" transform="translate(0,0)"></path>
<path d="M 1238.53 522.356 C 1246.12 530.105 1235.82 535.978 1229.3 542.184 C 1222.53 539.083 1226.06 532.951 1230.39 530.967 C 1237.88 536.477 1236.67 524.432 1238.53 522.356 z" fill="rgb(250,246,249)" fill-opacity="0.909804" transform="translate(0,0)"></path>
<path d="M 1170.41 462.483 C 1168.2 463.172 1156.96 467.879 1160.69 458.376 C 1161.25 456.947 1168.06 455.879 1170.16 455.287 C 1172.3 456.999 1170.59 458.876 1170.41 462.483 z" fill="rgb(254,254,254)" fill-opacity="0.203922" transform="translate(0,0)"></path>
<path d="M 1233 522.129 C 1235.11 520.754 1235.85 520.949 1238.06 522.11 L 1238.53 522.356 C 1236.67 524.432 1237.88 536.477 1230.39 530.967 C 1232.62 527.269 1234.53 526.081 1233 522.129 z" fill="rgb(250,246,249)" fill-opacity="0.839216" transform="translate(0,0)"></path>
<path d="M 1021.82 605.165 C 1027.09 606.298 1029.72 607.909 1034.51 610.292 C 1037.72 617.114 1041.6 629.99 1043.8 637.28 C 1025.64 691.689 984.515 743.226 945.697 784.272 C 938.017 792.393 894.135 840.394 888.287 841.085 L 887.117 839.699 C 885.98 827.94 894.508 790.601 897.154 778.218 C 898.347 773.218 900.702 766.893 896.869 762.537 C 892.901 758.028 886.335 757.147 880.652 757.306 C 864.153 757.766 847.654 757.649 831.153 757.448 C 824.186 757.36 807.282 757.79 802.919 751.873 C 806.333 749.179 820.933 744.831 826.307 742.393 C 851.021 731.181 873.914 716.637 895.718 700.639 C 917.901 684.176 939.376 666.782 960.086 648.502 C 978.222 632.776 998.46 611.255 1021.82 605.165 z" fill="url(#Gradient2)" transform="translate(0,0)"></path>
<path d="M 900.091 504.216 C 945.612 500.198 980.76 537.64 1000.64 574.236 C 996.36 574.017 992.471 573.164 988.26 572.39 C 960.838 566.51 911.242 543.527 891.473 522.27 C 884.017 514.252 893.042 507.662 900.091 504.216 z" fill="url(#Gradient1)" transform="translate(0,0)"></path>
<path d="M 1755.15 707.725 C 1782 732.124 1802.11 764.972 1807.61 801.197 C 1807.24 801.83 1807.04 802.194 1806.55 802.657 C 1806.45 802.582 1806.34 802.507 1806.24 802.433 C 1805.54 800.177 1803.28 802.413 1802.49 803.472 C 1801.35 804.834 1800.11 804.685 1798.74 804.804 C 1796.28 805.017 1792.76 801.674 1791.12 803.558 C 1789.48 805.436 1787.18 802.372 1786.57 802.592 C 1785.87 803.709 1787.22 804.545 1785.47 805.562 C 1784.06 804.403 1784.32 804.614 1783.01 806.11 C 1782.7 794.769 1781.15 781.052 1778.73 770.01 C 1778.1 767.171 1777.44 764.34 1776.75 761.515 C 1771.06 738.433 1765.4 728.122 1755.15 707.725 z" fill="rgb(211,144,179)" transform="translate(0,0)"></path>
<path d="M 1115.12 565.272 C 1118.11 562.059 1122.35 557.009 1125.5 554.43 C 1126.33 556.944 1126.7 558.196 1127.89 560.556 C 1123.58 562.284 1119.46 563.68 1115.12 565.272 z" fill="rgb(250,246,249)" transform="translate(0,0)"></path>
<metadata><recraft-signature>{"signed_by": "recraft", "signature_b64": "gYsqC6NYuViBSVa7i24W4NMvmTdeQ/ZFjL2Dv0/JbwjCnBfnMM6jCUcABKsze0i+msfkG9oOIHAeQ1pL4ebOCw==", "signing_algo": "Ed25519", "generation_timestamp": 1782415617, "identifier": "20e652f5-6498-4cce-ba4d-bd1a11dbeed6"}</recraft-signature></metadata></svg>