<svg xmlns="http://www.w3.org/2000/svg" height="1024" preserveAspectRatio="none" style="display: block;" version="1.1" viewBox="0 0 2048 2048" width="1024">
<defs>
	<linearGradient gradientUnits="userSpaceOnUse" id="Gradient1" x1="1096.79" x2="1047.24" y1="596.961" y2="601.569">
		<stop class="stop0" offset="0" stop-color="rgb(253,253,253)" stop-opacity="0.886275"></stop>
		<stop class="stop1" offset="1" stop-color="rgb(255,255,255)" stop-opacity="0.921569"></stop>
	</linearGradient>
	<linearGradient gradientUnits="userSpaceOnUse" id="Gradient2" x1="1613.99" x2="1592.04" y1="701.956" y2="702.028">
		<stop class="stop0" offset="0" stop-color="rgb(255,255,255)" stop-opacity="0"></stop>
		<stop class="stop1" offset="1" stop-color="rgb(255,255,255)" stop-opacity="0.0470588"></stop>
	</linearGradient>
	<linearGradient gradientUnits="userSpaceOnUse" id="Gradient3" x1="1410.73" x2="1301.11" y1="558.257" y2="695.151">
		<stop class="stop0" offset="0" stop-color="rgb(254,254,254)" stop-opacity="0.67451"></stop>
		<stop class="stop1" offset="1" stop-color="rgb(255,255,255)" stop-opacity="0.937255"></stop>
	</linearGradient>
</defs>
<path d="M 992.51 444.659 C 998.9 431.893 1005.14 420.218 1015.67 410.315 C 1035.76 391.43 1062.09 385.141 1089.05 385.969 C 1118.28 386.868 1144.85 394.834 1172.15 404.534 C 1289.45 446.207 1651.45 632.296 1728.59 714.519 C 1739.96 726.638 1749.57 740.22 1748.97 757.6 C 1743.49 761.745 1746.88 765.747 1743.49 766.949 C 1742.78 768.978 1742.26 770.718 1741.68 772.799 L 1742.17 774.603 C 1742.88 776.939 1742.55 779.433 1742.58 781.84 C 1736.9 789.772 1731.44 792.605 1724.86 802.504 C 1723.22 801.929 1721.76 801.363 1720.15 800.722 C 1720.76 806.052 1718.46 812.452 1719.65 814.11 C 1719.77 826.607 1719.77 829.952 1722.92 841.729 C 1725.98 853.135 1733.39 870.565 1734.25 881.866 C 1732.51 890.86 1732.06 899.424 1734.3 908.404 C 1729.37 938.587 1698.37 965.35 1674.18 980.901 C 1681.83 991.691 1689.5 1003.5 1697.16 1014.5 C 1718.55 1043.36 1729.1 1086.74 1719.49 1122.57 C 1699.74 1196.2 1603.4 1256.8 1546.09 1299.92 C 1498.24 1336.25 1451.11 1373.54 1404.75 1411.76 C 1368.78 1441.99 1333.57 1473.12 1299.16 1505.11 C 1274.03 1529.08 1248.51 1552.63 1222.6 1575.75 C 1194.44 1601.08 1165.66 1625.99 1133.62 1646.59 C 1050.91 1699.77 969.101 1650.43 893.256 1610.16 C 751.968 1535.15 616.38 1445.79 484.565 1355.23 C 441.273 1325.49 396.795 1295.45 357.112 1260.96 C 306.088 1217.43 277.162 1178.01 295.564 1108.38 C 321.866 1008.97 402.602 934.54 480.631 873.937 C 493.612 864.007 506.703 854.221 519.9 844.581 C 527.083 839.278 541.691 829.203 547.069 822.623 C 568.655 796.209 589.851 768.695 610.484 741.489 C 632.46 712.511 654.695 685.61 677.657 657.525 C 709.056 619.12 738.572 578.195 782.008 552.168 C 822.597 527.847 866.277 528.074 910.897 539.871 C 913.748 514.857 910.57 503.962 928.076 481.427 C 940.659 465.227 972.945 446.607 992.51 444.659 z M 1116.26 790.614 C 1106.92 792.412 1098 794.815 1088.18 796.613 C 1072.99 786.855 1058.31 776.315 1044.21 765.035 C 1058.44 744.969 1078.24 718.067 1075.31 691.294 C 1076.49 684.384 1076.92 678.426 1072.36 672.724 C 1059.71 656.908 1030.71 664.602 1030.33 685.976 C 1030.27 689.738 1031.49 694.067 1032.35 697.653 C 1025.54 708.887 1017.89 719.591 1009.47 729.676 C 1004.92 725.306 1001 720.796 995.34 718.252 L 993.411 718.399 C 993.499 724.134 1002.24 730.437 1006.38 734.183 C 951.589 800.925 886.48 803.218 821.204 849.523 C 767.185 887.843 757.55 955.399 697.596 989.704 C 684.281 998.835 667.391 1003.86 655.121 1014.09 C 653.139 1015.74 653.596 1019.24 653.106 1020.62 C 645.838 1041.18 597.8 1056.76 578.679 1056.74 C 567.381 1056.72 559.073 1047.71 547.946 1050.82 C 543.302 1054.3 543.082 1059.16 544.137 1064.5 C 542.398 1080.58 560.145 1085.89 573.025 1088.24 C 609.155 1094.82 633.112 1083.26 662.01 1062.93 C 748.385 1066.38 779.926 994.692 823.468 937.316 C 834.683 922.406 847.538 908.804 861.791 896.765 C 906.885 859.195 957.8 851.009 1001.58 813.841 C 1014.95 802.491 1028.56 783.297 1039.23 768.964 C 1061.39 788.05 1086.57 800.548 1104.9 823.978 C 1111.56 832.489 1156.62 866.039 1165.41 860.164 C 1164.58 855.699 1157.95 853.864 1153.76 851.493 C 1130.48 838.31 1113.65 822.902 1095.62 803.552 C 1138.66 793.418 1181.79 783.679 1225 774.337 C 1276.91 763.018 1321.94 753.329 1375.45 748.236 C 1413.25 744.637 1444.82 744.236 1482.8 744.879 C 1516 745.569 1549.16 747.712 1582.18 751.304 C 1605.62 753.836 1629.3 757.473 1652.88 757.858 C 1659.41 758.378 1676.55 754.92 1673.57 744.9 C 1670.24 733.738 1650.69 718.884 1641.69 711.786 C 1603.65 681.774 1560.08 657.021 1518.22 632.848 C 1428.58 581.318 1336.86 533.502 1243.29 489.523 C 1203.97 470.905 1165.19 451.442 1124.4 437.274 C 1043.9 409.31 1019.38 479.211 1029.36 544.99 C 1031.81 561.143 1046.99 628.373 1061.15 636.921 C 1061.98 642.009 1071.94 661.883 1074.6 667.123 C 1084.42 687.155 1089.7 697.445 1096.56 718.874 L 1097.23 720.117 C 1099.75 729.525 1104.01 745.73 1107.54 754.357 C 1108.73 760.827 1111.18 768.909 1112.78 775.519 L 1113.72 779.536 C 1113.89 780.353 1114.05 781.169 1114.22 781.986 L 1115.16 786.487 C 1115.41 787.764 1115.91 789.386 1116.26 790.614 z M 1398.77 584.686 C 1406.11 587.326 1404.24 585.419 1409.5 591.081 C 1413.13 594.989 1421.31 589.357 1423.66 596.603 C 1426.26 604.642 1436.33 595.928 1439.28 604 C 1443.58 603.33 1442.13 603.198 1441.52 599.062 C 1437 597.684 1436.84 597.287 1431.97 597.706 C 1426.4 597.685 1424.92 589.277 1419 590.536 C 1416.27 591.315 1411.05 590.476 1409.27 587.962 C 1406.65 584.24 1405.84 584.403 1400.81 584.625 L 1398.77 584.686 z" fill="rgb(88,139,254)" transform="translate(0,0)"></path>
<path d="M 1248.26 1540.1 C 1237.33 1552.72 1222.11 1564.96 1209.87 1575.8 C 1152.16 1626.91 1089.12 1684.36 1006.41 1652.59 C 985.531 1644.57 966.192 1637.64 945.392 1627.26 C 846.331 1577.81 752.026 1520.82 659.022 1460.9 C 601.073 1424.21 543.929 1386.25 487.63 1347.07 C 437.257 1311.81 385.86 1277.53 341.28 1234.86 C 315.434 1210.13 296.295 1177.93 299.509 1140.98 C 301.159 1122.01 305.656 1098.64 314.217 1081.48 C 317.504 1089.57 317.937 1098.38 320.573 1106.87 C 327.51 1129.23 338.97 1150.4 353.927 1168.43 C 394.931 1214.65 455.483 1253.24 506.033 1288.69 C 572.289 1335.15 640.068 1380.31 709.342 1421.85 C 742.693 1441.84 774.487 1460.35 809.766 1476.19 C 908.946 1520.72 970.609 1534.23 1074.51 1495.26 C 1090.54 1489.22 1106.22 1482.31 1121.49 1474.54 C 1130.01 1470.21 1158.57 1452.32 1164.87 1451.29 C 1196.97 1418.56 1230.68 1387.45 1265.88 1358.08 C 1349.36 1288.55 1440.03 1228.15 1536.36 1177.92 C 1551.49 1170.11 1616.86 1135.78 1630.57 1137 L 1631.37 1139.29 C 1628.37 1142.92 1625.52 1143.65 1621.16 1145.53 C 1619.62 1151.06 1606.23 1159.6 1601.15 1163.15 C 1549.31 1199.39 1499.44 1237.63 1449.95 1276.97 C 1421.07 1299.94 1390.62 1320.84 1363.61 1346.33 C 1354.39 1354.89 1340.78 1365.75 1332.46 1375.15 C 1305.37 1405.76 1279.54 1448.31 1263.5 1485.91 C 1258.08 1498.63 1247.83 1527.33 1248.26 1540.1 z" fill="rgb(46,89,191)" transform="translate(0,0)"></path>
<path d="M 1164.87 1451.29 C 1196.97 1418.56 1230.68 1387.45 1265.88 1358.08 C 1349.36 1288.55 1440.03 1228.15 1536.36 1177.92 C 1551.49 1170.11 1616.86 1135.78 1630.57 1137 L 1631.37 1139.29 C 1628.37 1142.92 1625.52 1143.65 1621.16 1145.53 C 1599.23 1155.62 1562.76 1172.68 1542.78 1186.61 C 1506.88 1211.65 1466.68 1245.59 1433.78 1274.51 C 1392.24 1311.03 1348.13 1349.68 1308.52 1388.2 C 1269.2 1427.12 1230.77 1466.93 1193.27 1507.6 C 1174.22 1527.92 1155.4 1549.79 1137.94 1571.53 C 1136.5 1573.32 1134.26 1574.42 1132.03 1573.99 C 1130.22 1566.61 1147.5 1548.39 1152.47 1542.47 C 1167.83 1523.97 1183.79 1505.98 1200.31 1488.5 C 1260.79 1423.32 1324.57 1361.27 1391.39 1302.61 C 1416.56 1280.41 1442.44 1259.34 1467.63 1237.17 C 1478.44 1227.65 1491.06 1218.73 1501.52 1208.85 L 1500.6 1206.79 C 1462.31 1229.29 1423.71 1252.71 1387.17 1277.95 C 1300.49 1337.82 1104.37 1489.56 1078.64 1591.07 C 1076.88 1598.02 1075.43 1605.36 1074.88 1612.51 L 1073.43 1613.81 L 1071.25 1613.34 C 1069.44 1608.74 1072.59 1589.09 1074.22 1583.59 C 1089.02 1533.61 1131.11 1489.14 1164.87 1451.29 z" fill="rgb(0,0,0)" transform="translate(0,0)"></path>
<path d="M 1500.6 1206.79 L 1503.55 1205.05 C 1504.26 1204.62 1505.49 1203.77 1506.4 1203.85 C 1507.34 1204.83 1501.87 1208.57 1501.52 1208.85 L 1500.6 1206.79 z" fill="rgb(45,82,185)" transform="translate(0,0)"></path>
<path d="M 992.51 444.659 C 998.9 431.893 1005.14 420.218 1015.67 410.315 C 1035.76 391.43 1062.09 385.141 1089.05 385.969 C 1118.28 386.868 1144.85 394.834 1172.15 404.534 C 1289.45 446.207 1651.45 632.296 1728.59 714.519 C 1739.96 726.638 1749.57 740.22 1748.97 757.6 C 1743.49 761.745 1746.88 765.747 1743.49 766.949 C 1744.95 750.233 1740.03 735.557 1728.37 723.664 C 1690.05 684.587 1638.35 654.107 1591.92 625.97 C 1490.31 564.358 1385.34 508.473 1277.5 458.576 C 1235.57 439.167 1193.43 419.003 1149.58 404.533 C 1108.79 391.403 1055.04 382.882 1020.27 414.65 C 996.106 436.725 988.094 474.392 988.947 506.026 C 989.212 515.838 993.138 525.985 992.646 536.353 L 992.582 535.081 L 990.993 534.685 C 980.052 509.001 983.318 477.23 989.769 450.897 C 978.994 454.347 968.668 459.066 959.008 464.955 C 920.536 488.595 914.959 515.799 920.158 558.971 C 926.773 613.907 949.017 653.189 977.5 698.396 L 976.483 699.619 C 971.299 699.53 967.898 693.837 965.086 689.855 C 933.659 645.36 916.271 599.577 911.247 545.475 C 890.605 539.982 863.153 538.831 841.995 540.938 C 774.595 547.65 729.284 607.885 689.313 656.746 C 660.738 692.144 632.494 727.808 604.584 763.733 C 612.246 762.942 644.396 738.485 656.733 734.408 C 663.423 730.118 671.658 724.715 679.088 722.31 C 706.289 702.696 730.992 679.831 752.647 654.224 C 758.21 647.651 772.154 626.7 777.86 624.572 L 778.798 625.243 C 777.401 633.773 765.936 647.812 760.738 654.832 C 732.153 693.433 688.049 728.626 650.019 758.051 C 627.073 776.011 603.835 793.597 580.317 810.801 C 493.853 873.59 387.05 946.709 333.392 1041.16 C 328.247 1050.21 316.463 1071.78 314.217 1081.48 C 305.656 1098.64 301.159 1122.01 299.509 1140.98 C 296.295 1177.93 315.434 1210.13 341.28 1234.86 C 385.86 1277.53 437.257 1311.81 487.63 1347.07 C 543.929 1386.25 601.073 1424.21 659.022 1460.9 C 752.026 1520.82 846.331 1577.81 945.392 1627.26 C 966.192 1637.64 985.531 1644.57 1006.41 1652.59 C 1089.12 1684.36 1152.16 1626.91 1209.87 1575.8 C 1222.11 1564.96 1237.33 1552.72 1248.26 1540.1 C 1269.91 1521.96 1293.97 1497.48 1315.46 1477.91 C 1355.26 1441.73 1396.15 1406.77 1438.07 1373.06 C 1477.59 1341.18 1517.75 1310.1 1558.53 1279.85 C 1594.16 1253.07 1632.19 1226.05 1663.84 1194.84 C 1693.69 1165.41 1713.94 1134.35 1713.82 1091.44 C 1713.7 1049.77 1692.54 1019.29 1667.18 987.92 C 1658.38 977.039 1650.07 966.538 1640.12 956.593 C 1552.09 939.257 1462.94 924.191 1375.25 906.339 C 1339.58 899.005 1303.97 891.369 1268.43 883.431 C 1251.59 879.499 1234.82 874.65 1218.05 870.873 C 1213.68 878.708 1208.64 886.273 1204.41 894.016 C 1196.09 908.021 1189.71 923.37 1182.05 937.698 C 1152.26 993.469 1111.93 1039.83 1057.5 1072.64 C 1014.3 1098.68 967.081 1117.59 928.205 1150.26 C 907.257 1167.87 897.365 1185.93 881.198 1206.33 C 878.289 1205.04 874.677 1203.55 871.983 1202.02 C 859.768 1218.87 835.65 1249.13 840.098 1270.62 C 841.006 1275.01 842.664 1282.33 841.783 1286.19 C 840.269 1288.13 838.595 1290.08 835.993 1290.22 C 815.991 1291.29 817.472 1262.3 816.985 1250.47 C 820.724 1230 827.815 1217.58 841.649 1202.17 C 844.743 1198.72 851.321 1191.15 853.505 1187.28 C 851.602 1181.51 850.415 1179.97 852.579 1174.11 C 857.263 1161.43 866.457 1149.51 875.664 1139.8 C 903.33 1110.74 937.63 1088.33 972.874 1069.53 C 1013.63 1047.8 1054.01 1027.63 1087.54 995.135 C 1116.68 966.889 1136.21 934.384 1154.78 898.742 C 1163.81 881.414 1172.63 863.694 1183.86 847.644 C 1194.92 831.881 1210.06 821.354 1224.56 809.221 C 1226.11 807.93 1226.72 804.186 1227.6 802.403 C 1235.44 791.473 1248.85 787.613 1261.27 793.516 C 1281.73 803.242 1278.31 830.502 1256.97 836.186 C 1254.54 836.832 1253.09 837.304 1250.86 838.39 C 1250.41 846.2 1238.7 855.383 1232.66 863.336 C 1239.61 863.006 1246.56 862.626 1253.5 862.193 C 1262.35 861.617 1270.75 861.672 1279.59 861.691 C 1385.12 861.914 1489.72 882.35 1591.84 907.886 C 1599.03 906.509 1611.33 909.344 1619.06 910.368 C 1640.33 911.827 1664.23 919.506 1685.24 914.026 C 1712.11 906.718 1719.88 878.149 1711.9 854.77 C 1700.41 821.088 1669.61 824.276 1641.63 815.706 C 1641.17 815.443 1640.7 815.18 1640.24 814.917 C 1646.85 813.691 1657.17 812.95 1663.92 811.869 C 1673.25 810.374 1705.72 802.281 1712.95 797.106 L 1721.68 797.113 L 1720.15 800.722 C 1720.76 806.052 1718.46 812.452 1719.65 814.11 C 1719.77 826.607 1719.77 829.952 1722.92 841.729 C 1725.98 853.135 1733.39 870.565 1734.25 881.866 C 1732.51 890.86 1732.06 899.424 1734.3 908.404 C 1729.37 938.587 1698.37 965.35 1674.18 980.901 C 1681.83 991.691 1689.5 1003.5 1697.16 1014.5 C 1718.55 1043.36 1729.1 1086.74 1719.49 1122.57 C 1699.74 1196.2 1603.4 1256.8 1546.09 1299.92 C 1498.24 1336.25 1451.11 1373.54 1404.75 1411.76 C 1368.78 1441.99 1333.57 1473.12 1299.16 1505.11 C 1274.03 1529.08 1248.51 1552.63 1222.6 1575.75 C 1194.44 1601.08 1165.66 1625.99 1133.62 1646.59 C 1050.91 1699.77 969.101 1650.43 893.256 1610.16 C 751.968 1535.15 616.38 1445.79 484.565 1355.23 C 441.273 1325.49 396.795 1295.45 357.112 1260.96 C 306.088 1217.43 277.162 1178.01 295.564 1108.38 C 321.866 1008.97 402.602 934.54 480.631 873.937 C 493.612 864.007 506.703 854.221 519.9 844.581 C 527.083 839.278 541.691 829.203 547.069 822.623 C 568.655 796.209 589.851 768.695 610.484 741.489 C 632.46 712.511 654.695 685.61 677.657 657.525 C 709.056 619.12 738.572 578.195 782.008 552.168 C 822.597 527.847 866.277 528.074 910.897 539.871 C 913.748 514.857 910.57 503.962 928.076 481.427 C 940.659 465.227 972.945 446.607 992.51 444.659 z" fill="rgb(0,0,0)" transform="translate(0,0)"></path>
<path d="M 1274.59 864.871 C 1370.57 868.414 1465.84 882.826 1558.57 907.833 C 1570.34 910.884 1595.72 916.216 1604.9 921.018 C 1610.83 924.126 1635.32 950.464 1640.12 956.593 C 1552.09 939.257 1462.94 924.191 1375.25 906.339 C 1339.58 899.005 1303.97 891.369 1268.43 883.431 C 1251.59 879.499 1234.82 874.65 1218.05 870.873 C 1220.81 867.397 1220.58 867.441 1224.59 865.72 C 1232.78 866.603 1263.8 864.992 1274.59 864.871 z" fill="rgb(46,89,191)" transform="translate(0,0)"></path>
<path d="M 1712.95 797.106 L 1721.68 797.113 L 1720.15 800.722 C 1713.26 812.203 1711.58 831.985 1716.32 844.267 C 1741.15 908.593 1722.95 934.607 1669.86 976.592 C 1654.8 958.949 1639.15 941.817 1622.94 925.224 C 1632.69 927.366 1688.6 943.427 1691.03 942.911 C 1690.73 940.434 1689.44 939.506 1687.49 938.093 C 1684.33 935.807 1635.99 921.043 1627.95 918.486 C 1626.74 914.022 1613.41 914.216 1610.01 911.352 C 1610.43 911.094 1617.45 910.663 1619.06 910.368 C 1640.33 911.827 1664.23 919.506 1685.24 914.026 C 1712.11 906.718 1719.88 878.149 1711.9 854.77 C 1700.41 821.088 1669.61 824.276 1641.63 815.706 C 1641.17 815.443 1640.7 815.18 1640.24 814.917 C 1646.85 813.691 1657.17 812.95 1663.92 811.869 C 1673.25 810.374 1705.72 802.281 1712.95 797.106 z" fill="rgb(46,89,191)" transform="translate(0,0)"></path>
<path d="M 656.733 734.408 C 658.753 734.239 663.704 732.528 664.182 732.685 C 664.153 732.809 653.679 740.994 650.988 745.685 C 649.268 747.423 645.646 750.049 643.631 751.62 C 621.22 769.083 599.093 786.671 575.398 802.423 C 579.333 796.266 583.525 790.277 587.964 784.473 C 591.681 779.572 600.265 767.587 604.584 763.733 C 612.246 762.942 644.396 738.485 656.733 734.408 z" fill="rgb(45,82,185)" transform="translate(0,0)"></path>
<path d="M 1250.86 838.39 C 1250.41 846.2 1238.7 855.383 1232.66 863.336 C 1229.93 864.182 1227.44 863.805 1224.59 863.612 C 1227.73 857.844 1245.38 842.573 1250.86 838.39 z" fill="rgb(46,89,191)" transform="translate(0,0)"></path>
<path d="M 1591.84 907.886 C 1599.03 906.509 1611.33 909.344 1619.06 910.368 C 1617.45 910.663 1610.43 911.094 1610.01 911.352 C 1613.41 914.216 1626.74 914.022 1627.95 918.486 C 1618.93 916.763 1600.76 910.965 1591.84 907.886 z" fill="rgb(45,82,185)" transform="translate(0,0)"></path>
<path d="M 656.733 734.408 C 663.423 730.118 671.658 724.715 679.088 722.31 C 672.809 729.648 659.105 740.006 650.988 745.685 C 653.679 740.994 664.153 732.809 664.182 732.685 C 663.704 732.528 658.753 734.239 656.733 734.408 z" fill="rgb(46,89,191)" transform="translate(0,0)"></path>
<path d="M 1247.95 807.152 C 1256.73 807.608 1262.66 813.899 1257.18 822.268 C 1252.73 829.056 1244.02 835.026 1237.92 840.616 C 1230.06 848.404 1216.82 859.172 1210.99 868.501 C 1178.1 921.121 1158.23 980.131 1111.11 1023.33 C 1089.37 1043.25 1062 1063.51 1035.46 1077.82 C 977.287 1109.19 925.503 1130.93 886.731 1187.89 C 884.213 1183.06 883.609 1181.38 879.6 1177.79 C 871.488 1174.98 866.652 1175.83 858.372 1176.85 C 884.21 1118.92 977.81 1076.07 1030.64 1046.35 C 1105.18 1004.4 1141.13 944.47 1177.51 870.242 C 1190.46 843.815 1218.98 815.77 1247.95 807.152 z" fill="rgb(88,139,254)" transform="translate(0,0)"></path>
<path d="M 858.631 1192.65 C 862.406 1193.58 864.962 1196.51 868.058 1199.14 C 852.478 1217.56 848.955 1223.78 837.531 1244.38 C 833.522 1242.89 829.993 1241.62 825.88 1240.44 C 835.243 1217.02 840.786 1210.75 858.631 1192.65 z" fill="rgb(88,139,254)" transform="translate(0,0)"></path>
<path d="M 824.213 1246.07 C 828.555 1247.32 831.172 1248.06 835.525 1249.59 C 834.148 1257.65 832.85 1264.12 834.195 1272.49 C 834.94 1277.14 836.533 1281.83 836.849 1286.4 C 820.942 1283.12 822.319 1258.57 824.213 1246.07 z" fill="rgb(45,82,185)" transform="translate(0,0)"></path>
<path d="M 862.724 1179.34 L 864.558 1179.39 C 876.061 1179.62 890.343 1185.84 879.785 1197.85 L 878.537 1199.36 C 872.595 1194.6 865.608 1189.56 860.243 1184.38 C 856.528 1180.8 859.957 1180.04 862.724 1179.34 z" fill="rgb(88,139,254)" transform="translate(0,0)"></path>
<path d="M 1247.97 796.321 C 1255.94 796.603 1262.69 797.668 1267.01 805.496 C 1270.92 812.981 1270.08 825.684 1261.45 829.608 C 1258.11 831.129 1265.01 822.118 1265.4 821.435 C 1269.93 789.975 1234.64 804.062 1234.37 803.851 C 1233.84 800.95 1241.99 797.364 1244.49 796.915 L 1247.97 796.321 z" fill="rgb(254,253,254)" transform="translate(0,0)"></path>
<path d="M 1204.41 894.016 C 1203.73 903.464 1190.3 930.904 1185.86 940.236 C 1167.54 978.551 1146.86 1019.58 1113.78 1047.34 C 1069.56 1084.43 1013.5 1105.75 966.936 1139.69 C 938.615 1159.47 914.095 1181.32 893.903 1209.5 C 889.681 1215.4 882.009 1212.47 878.595 1215.41 C 865.057 1227.25 854.09 1248.82 850.22 1266.21 C 849.005 1271.67 857.762 1288.66 850.667 1292.05 C 818.912 1307.21 810.341 1273.08 816.985 1250.47 C 817.472 1262.3 815.991 1291.29 835.993 1290.22 C 838.595 1290.08 840.269 1288.13 841.783 1286.19 C 842.664 1282.33 841.006 1275.01 840.098 1270.62 C 835.65 1249.13 859.768 1218.87 871.983 1202.02 C 874.677 1203.55 878.289 1205.04 881.198 1206.33 C 897.365 1185.93 907.257 1167.87 928.205 1150.26 C 967.081 1117.59 1014.3 1098.68 1057.5 1072.64 C 1111.93 1039.83 1152.26 993.469 1182.05 937.698 C 1189.71 923.37 1196.09 908.021 1204.41 894.016 z" fill="rgb(46,89,191)" transform="translate(0,0)"></path>
<path d="M 1640.24 814.917 C 1637.87 814.937 1635.51 814.937 1633.14 814.918 C 1589.69 814.546 1546.99 807.223 1504.67 797.607 C 1499.94 796.532 1493.34 795.432 1489.89 791.931 L 1490.18 790.332 C 1493.93 789.071 1545.68 799.537 1554.02 800.88 C 1587.98 806.352 1625.18 810.992 1659.58 807.201 C 1672.83 805.741 1704.51 796.13 1712.95 797.106 C 1705.72 802.281 1673.25 810.374 1663.92 811.869 C 1657.17 812.95 1646.85 813.691 1640.24 814.917 z" fill="rgb(0,0,0)" transform="translate(0,0)"></path>
<path d="M 1721.68 797.113 C 1727.14 790.787 1737.8 779.087 1741.68 772.799 L 1742.17 774.603 C 1742.88 776.939 1742.55 779.433 1742.58 781.84 C 1736.9 789.772 1731.44 792.605 1724.86 802.504 C 1723.22 801.929 1721.76 801.363 1720.15 800.722 L 1721.68 797.113 z" fill="rgb(0,0,0)" transform="translate(0,0)"></path>
<path d="M 1061.15 636.921 C 1046.99 628.373 1031.81 561.143 1029.36 544.99 C 1019.38 479.211 1043.9 409.31 1124.4 437.274 C 1165.19 451.442 1203.97 470.905 1243.29 489.523 C 1336.86 533.502 1428.58 581.318 1518.22 632.848 C 1560.08 657.021 1603.65 681.774 1641.69 711.786 C 1650.69 718.884 1670.24 733.738 1673.57 744.9 C 1676.55 754.92 1659.41 758.378 1652.88 757.858 C 1629.3 757.473 1605.62 753.836 1582.18 751.304 C 1549.16 747.712 1516 745.569 1482.8 744.879 C 1444.82 744.236 1413.25 744.637 1375.45 748.236 C 1321.94 753.329 1276.91 763.018 1225 774.337 C 1181.79 783.679 1138.66 793.418 1095.62 803.552 C 1113.65 822.902 1130.48 838.31 1153.76 851.493 C 1157.95 853.864 1164.58 855.699 1165.41 860.164 C 1156.62 866.039 1111.56 832.489 1104.9 823.978 C 1086.57 800.548 1061.39 788.05 1039.23 768.964 C 1028.56 783.297 1014.95 802.491 1001.58 813.841 C 957.8 851.009 906.885 859.195 861.791 896.765 C 847.538 908.804 834.683 922.406 823.468 937.316 C 779.926 994.692 748.385 1066.38 662.01 1062.93 C 633.112 1083.26 609.155 1094.82 573.025 1088.24 C 560.145 1085.89 542.398 1080.58 544.137 1064.5 C 543.082 1059.16 543.302 1054.3 547.946 1050.82 C 559.073 1047.71 567.381 1056.72 578.679 1056.74 C 597.8 1056.76 645.838 1041.18 653.106 1020.62 C 653.596 1019.24 653.139 1015.74 655.121 1014.09 C 667.391 1003.86 684.281 998.835 697.596 989.704 C 757.55 955.399 767.185 887.843 821.204 849.523 C 886.48 803.218 951.589 800.925 1006.38 734.183 C 1002.24 730.437 993.499 724.134 993.411 718.399 L 995.34 718.252 C 1001 720.796 1004.92 725.306 1009.47 729.676 C 1017.89 719.591 1025.54 708.887 1032.35 697.653 C 1031.49 694.067 1030.27 689.738 1030.33 685.976 C 1030.71 664.602 1059.71 656.908 1072.36 672.724 C 1076.92 678.426 1076.49 684.384 1075.31 691.294 C 1078.24 718.067 1058.44 744.969 1044.21 765.035 C 1058.31 776.315 1072.99 786.855 1088.18 796.613 C 1098 794.815 1106.92 792.412 1116.26 790.614 C 1115.91 789.386 1115.41 787.764 1115.16 786.487 L 1114.22 781.986 C 1114.05 781.169 1113.89 780.353 1113.72 779.536 L 1112.78 775.519 C 1111.18 768.909 1108.73 760.827 1107.54 754.357 C 1111.15 756.441 1111.85 757.912 1112.95 761.987 L 1113.4 763.749 C 1115.07 770.029 1116.24 772.509 1117.67 779.571 C 1117.97 780.55 1118.04 780.989 1118.23 782.007 C 1124.49 783.819 1126.2 783.403 1125.12 776.487 C 1124.72 770.252 1124.19 763.877 1121.1 758.462 C 1118.11 753.216 1118.19 746.428 1117.42 740.413 C 1115.95 731.976 1113.15 720.977 1112.09 713.149 C 1111.61 703.351 1109.69 703.987 1111.71 693.914 C 1111.06 689.717 1110.57 687.439 1109.42 683.353 C 1107.67 669.801 1104.25 649.602 1101.03 636.466 C 1101.09 637.846 1101.77 642.624 1100.5 643.312 C 1100.06 643.155 1095.9 639.351 1095.11 638.708 C 1092.46 633.399 1091.84 608.427 1091.47 601.061 C 1091 591.99 1086.39 580.855 1086.22 573.958 C 1085.84 559.181 1083.78 539.999 1084.59 525.605 C 1085.42 510.867 1087.1 497.929 1087.47 482.824 C 1064.68 495.094 1054.39 503.277 1045.58 528.503 C 1039.9 544.784 1044.67 559.012 1040.71 569.307 L 1041.31 571.211 C 1044.32 585.956 1049.15 600.246 1053.7 614.556 C 1056.01 621.846 1060.31 628.818 1061.08 636.29 L 1061.15 636.921 z M 1475.66 719.478 C 1511.51 724.398 1550.08 733.29 1586.13 727.531 L 1594.09 725.651 C 1597.86 724.836 1599.4 724.511 1603 722.816 C 1604.7 722.013 1605.56 721.599 1607.16 720.66 C 1609.27 719.434 1611.6 718.041 1613.16 716.137 C 1616.49 712.102 1619.42 711.716 1623.74 708.558 C 1617.08 703.481 1594.86 686.312 1588.13 683.546 C 1584.36 680.617 1581.28 679.057 1577.44 676.475 C 1572.7 673.033 1555.05 662.508 1549.7 659.355 C 1525.13 644.876 1497.98 627.724 1472.63 615.217 C 1467.48 611.722 1461.06 608.395 1455.52 605.277 C 1451.54 602.937 1446.54 600.492 1442.39 598.317 C 1369.96 557.12 1278.79 512.174 1202.27 477.732 L 1182.55 468.723 C 1177.86 466.374 1174.18 464.941 1169.48 462.804 C 1168.45 466.522 1168.07 468.616 1167.37 472.359 C 1166.38 477.933 1165.25 483.708 1164.33 489.244 C 1162.69 494.57 1163.21 508.851 1163.26 514.633 C 1160.21 544.951 1177.49 586.681 1196.59 609.845 C 1253.03 678.319 1391.32 706.989 1475.66 719.478 z M 1441.52 599.062 C 1442.13 603.198 1443.58 603.33 1439.28 604 C 1436.33 595.928 1426.26 604.642 1423.66 596.603 C 1421.31 589.357 1413.13 594.989 1409.5 591.081 C 1404.24 585.419 1406.11 587.326 1398.77 584.686 L 1400.81 584.625 C 1405.84 584.403 1406.65 584.24 1409.27 587.962 C 1411.05 590.476 1416.27 591.315 1419 590.536 C 1424.92 589.277 1426.4 597.685 1431.97 597.706 C 1436.84 597.287 1437 597.684 1441.52 599.062 z" fill="rgb(0,0,0)" transform="translate(0,0)"></path>
<path d="M 1163.26 514.633 C 1165.13 508.447 1163.81 502.326 1164.31 501.626 C 1167.21 501.226 1165.9 511.749 1166.04 513.917 L 1166.33 514.308 L 1166.21 514.363 C 1165.88 514.569 1167.42 503.333 1178.55 503.994 C 1179.94 504.076 1184.55 501.451 1186.55 500.753 C 1194.83 497.854 1199.36 501.67 1207.37 496.903 C 1208.75 497.993 1210.3 500.925 1211.98 501.946 C 1222.64 508.423 1219.96 498.274 1225.72 509.4 C 1225.94 509.295 1226.16 509.189 1226.38 509.083 C 1234.38 511.458 1234.41 508.707 1241.55 508.154 C 1244.33 507.939 1248.16 517.501 1251.46 517.635 C 1253.97 517.69 1256.61 515.076 1259.16 517.637 C 1260.99 519.469 1262.98 523.592 1264.85 524.491 C 1267.09 525.569 1275.62 523.157 1277.03 524.936 C 1279.32 528.579 1282.2 532.51 1287.57 531.724 C 1294.4 530.726 1296.99 538.909 1299.52 539.518 C 1308.16 541.601 1306.89 536.913 1313.49 546.208 C 1322.16 549.931 1330.96 553.349 1339.66 556.833 C 1348.01 560.178 1342.51 564.551 1355.09 563.396 C 1358.79 565.629 1357.27 564.923 1359.48 567.243 C 1365.77 573.838 1368.51 568.325 1376.16 576.216 C 1380.21 579.219 1378.9 577.843 1382.09 579.446 C 1399.24 588.079 1425.73 599.953 1440.81 610.623 L 1442.43 611.749 C 1446.7 614.76 1447.59 615.673 1450.53 619.988 C 1456.32 619.863 1457.01 619.371 1462.07 621.995 C 1478.58 630.557 1494.66 638.647 1509.76 649.615 C 1515.3 653.64 1516.09 646.842 1520.95 658.753 C 1526.61 663.711 1543.71 663.151 1545.08 670.826 C 1545.31 672.156 1545.67 673.803 1546.16 675.487 C 1547.06 676.031 1553.83 679.231 1553.74 678.744 C 1556.9 695.532 1573.79 684.916 1582.3 692.751 C 1582.69 696.823 1579.87 703.736 1578.18 707.561 C 1574.93 709.903 1572.64 709.496 1570.19 712.026 C 1574.48 716.521 1576.36 713.503 1577.19 717.12 C 1572.88 720.299 1565.06 719.31 1559.83 718.733 C 1546.8 717.297 1534.35 716.632 1521.23 716.426 C 1522.93 715.323 1552.52 713.872 1558.83 712.682 L 1558.74 711.44 C 1554.84 709.384 1517.18 710.63 1514.43 716.364 C 1523.32 722.09 1563.22 718.271 1575.07 723.652 C 1576.1 724.119 1580.87 725.67 1582.3 726.17 C 1565.95 725.393 1552.85 725.304 1536.09 723.538 C 1519.6 721.8 1490.87 715.73 1475.66 719.478 C 1391.32 706.989 1253.03 678.319 1196.59 609.845 C 1177.49 586.681 1160.21 544.951 1163.26 514.633 z" fill="url(#Gradient3)" transform="translate(0,0)"></path>
<path d="M 1375.7 569.968 C 1379.9 578.196 1387.86 576.551 1394.52 583.103 C 1395.68 584.246 1397.23 584.468 1398.77 584.686 C 1406.11 587.326 1404.24 585.419 1409.5 591.081 C 1413.13 594.989 1421.31 589.357 1423.66 596.603 C 1426.26 604.642 1436.33 595.928 1439.28 604 C 1444.82 613.846 1447.01 603.267 1452.94 615.513 C 1462.36 621.571 1463.35 610.427 1469.21 622.415 C 1477.26 627.61 1486.44 630.537 1494.21 634.74 C 1500.93 638.381 1492.85 640.376 1507.6 639.789 L 1509.81 640.994 C 1511.26 648.863 1512.15 648.392 1520.11 648.481 C 1523.75 651.224 1522.56 653.973 1524.56 654.719 C 1534.34 658.366 1532.44 657.35 1538.8 663.836 C 1555.15 668.792 1542.93 666.443 1555.29 673.634 C 1562.38 677.759 1558.21 683.362 1568 682.688 C 1573.34 682.116 1578.93 690.459 1585.57 689.964 C 1587.67 689.807 1586.79 699.928 1593.49 698.524 C 1598.03 698.442 1597.82 702.89 1599.47 705.529 C 1599.21 706.968 1584.93 712.294 1585.67 716.067 C 1587.26 724.103 1591.89 717.303 1594.09 725.651 L 1586.13 727.531 L 1582.3 726.17 C 1580.87 725.67 1576.1 724.119 1575.07 723.652 C 1563.22 718.271 1523.32 722.09 1514.43 716.364 C 1517.18 710.63 1554.84 709.384 1558.74 711.44 L 1558.83 712.682 C 1552.52 713.872 1522.93 715.323 1521.23 716.426 C 1534.35 716.632 1546.8 717.297 1559.83 718.733 C 1565.06 719.31 1572.88 720.299 1577.19 717.12 C 1576.36 713.503 1574.48 716.521 1570.19 712.026 C 1572.64 709.496 1574.93 709.903 1578.18 707.561 C 1579.87 703.736 1582.69 696.823 1582.3 692.751 C 1573.79 684.916 1556.9 695.532 1553.74 678.744 C 1553.83 679.231 1547.06 676.031 1546.16 675.487 C 1545.67 673.803 1545.31 672.156 1545.08 670.826 C 1543.71 663.151 1526.61 663.711 1520.95 658.753 C 1516.09 646.842 1515.3 653.64 1509.76 649.615 C 1494.66 638.647 1478.58 630.557 1462.07 621.995 C 1457.01 619.371 1456.32 619.863 1450.53 619.988 C 1447.59 615.673 1446.7 614.76 1442.43 611.749 L 1440.81 610.623 C 1425.73 599.953 1399.24 588.079 1382.09 579.446 C 1378.9 577.843 1380.21 579.219 1376.16 576.216 L 1375.7 569.968 z" fill="rgb(254,253,254)" fill-opacity="0.470588" transform="translate(0,0)"></path>
<path d="M 1182.55 468.723 L 1202.27 477.732 C 1200.08 482.472 1200.47 480.421 1201.67 486.095 C 1207.18 489.586 1215.75 484.702 1218.03 490.574 C 1218.96 492.962 1218.19 491.285 1219.48 493.704 C 1224.21 495.517 1230.62 496.547 1233.49 499.41 C 1242.19 508.09 1260.47 509.745 1267.62 518.615 C 1270.31 521.951 1272.99 521.508 1277.51 521.674 L 1278.97 521.717 C 1280.61 522.799 1282.99 524.523 1284.13 525.99 C 1289.44 532.804 1295.23 525.572 1298.76 532.97 C 1299.75 535.047 1301.27 536.023 1303.25 537.03 C 1310.86 537.318 1312.2 535.956 1316.28 542.75 C 1319.68 544.906 1328.14 545.045 1328.51 545.619 C 1336.82 558.601 1356.71 554.873 1366.34 567.5 C 1370.06 569.277 1371.55 569.297 1375.7 569.968 L 1376.16 576.216 C 1368.51 568.325 1365.77 573.838 1359.48 567.243 C 1357.27 564.923 1358.79 565.629 1355.09 563.396 C 1342.51 564.551 1348.01 560.178 1339.66 556.833 C 1330.96 553.349 1322.16 549.931 1313.49 546.208 C 1306.89 536.913 1308.16 541.601 1299.52 539.518 C 1296.99 538.909 1294.4 530.726 1287.57 531.724 C 1282.2 532.51 1279.32 528.579 1277.03 524.936 C 1275.62 523.157 1267.09 525.569 1264.85 524.491 C 1262.98 523.592 1260.99 519.469 1259.16 517.637 C 1256.61 515.076 1253.97 517.69 1251.46 517.635 C 1248.16 517.501 1244.33 507.939 1241.55 508.154 C 1234.41 508.707 1234.38 511.458 1226.38 509.083 C 1227.96 507.174 1229.76 504.576 1228.02 501.949 C 1226.02 499.032 1222.26 498.067 1218.94 497.623 C 1214.88 497.079 1215.49 493.576 1213.38 491.321 C 1211.53 489.921 1203.07 490.343 1200.98 490.545 C 1192.73 491.344 1197.63 485.153 1192.65 482.271 C 1189.05 480.182 1185.44 481.82 1184.44 485.992 C 1184.21 486.969 1181.69 487.381 1180.93 487.617 C 1181.07 486.725 1182.2 482.222 1181.69 481.921 C 1178.44 480.014 1171.62 476.74 1168.2 475.517 C 1174.22 470.259 1174.25 470.364 1182.55 468.723 z" fill="rgb(254,253,254)" fill-opacity="0.0588235" transform="translate(0,0)"></path>
<path d="M 1441.52 599.062 L 1442.39 598.317 C 1446.54 600.492 1451.54 602.937 1455.52 605.277 C 1455.21 610.917 1455.36 616.264 1463.5 613.931 C 1468.28 612.562 1468.38 615.813 1472.63 615.217 C 1497.98 627.724 1525.13 644.876 1549.7 659.355 C 1555.05 662.508 1572.7 673.033 1577.44 676.475 L 1577.16 676.722 C 1574.14 679.471 1571.96 680.571 1567.33 679.579 C 1564.35 679.666 1562.42 672.525 1562.2 672.496 C 1558.68 672.047 1553.7 666.996 1551.84 665.898 C 1545.94 662.381 1546.19 663.3 1538.8 663.836 C 1532.44 657.35 1534.34 658.366 1524.56 654.719 C 1522.56 653.973 1523.75 651.224 1520.11 648.481 C 1512.15 648.392 1511.26 648.863 1509.81 640.994 L 1507.6 639.789 C 1492.85 640.376 1500.93 638.381 1494.21 634.74 C 1486.44 630.537 1477.26 627.61 1469.21 622.415 C 1463.35 610.427 1462.36 621.571 1452.94 615.513 C 1447.01 603.267 1444.82 613.846 1439.28 604 C 1443.58 603.33 1442.13 603.198 1441.52 599.062 z" fill="rgb(254,253,254)" fill-opacity="0.0352941" transform="translate(0,0)"></path>
<path d="M 1180.93 487.617 C 1181.69 487.381 1184.21 486.969 1184.44 485.992 C 1185.44 481.82 1189.05 480.182 1192.65 482.271 C 1197.63 485.153 1192.73 491.344 1200.98 490.545 C 1203.07 490.343 1211.53 489.921 1213.38 491.321 C 1215.49 493.576 1214.88 497.079 1218.94 497.623 C 1222.26 498.067 1226.02 499.032 1228.02 501.949 C 1229.76 504.576 1227.96 507.174 1226.38 509.083 C 1226.16 509.189 1225.94 509.295 1225.72 509.4 C 1219.96 498.274 1222.64 508.423 1211.98 501.946 C 1210.3 500.925 1208.75 497.993 1207.37 496.903 C 1199.36 501.67 1194.83 497.854 1186.55 500.753 C 1184.55 501.451 1179.94 504.076 1178.55 503.994 C 1167.42 503.333 1165.88 514.569 1166.21 514.363 L 1166.33 514.308 L 1166.04 513.917 C 1165.9 511.749 1167.21 501.226 1164.31 501.626 C 1163.81 502.326 1165.13 508.447 1163.26 514.633 C 1163.21 508.851 1162.69 494.57 1164.33 489.244 C 1167.58 495.574 1166.66 486.238 1172.56 490.145 C 1173.51 490.778 1179.01 488.107 1180.93 487.617 z" fill="rgb(254,253,254)" fill-opacity="0.537255" transform="translate(0,0)"></path>
<path d="M 1538.8 663.836 C 1546.19 663.3 1545.94 662.381 1551.84 665.898 C 1551.94 666.599 1552.05 667.301 1552.16 668.002 C 1552.51 670.669 1554.56 671.628 1556.98 671.895 C 1562.27 672.478 1559.8 678.698 1563.46 680.325 C 1564.83 680.933 1569.85 680.531 1571.52 681.045 C 1574.78 681.593 1575.37 680.777 1576.91 684.054 C 1577.97 686.526 1581.06 686.988 1583.5 686.872 C 1584.59 686.886 1589.04 687.394 1589.96 689.02 C 1590.8 693.73 1592.04 696.203 1597.5 696.637 C 1599.36 696.815 1599.76 698.403 1600.08 700.054 C 1600.81 703.863 1607.11 705.391 1605.51 710.109 C 1604.05 712.931 1602.02 711.043 1600.9 714.472 C 1599.91 717.504 1603.25 718.601 1602.49 720.103 C 1601.56 721.936 1601.09 721.171 1603 722.816 C 1599.4 724.511 1597.86 724.836 1594.09 725.651 C 1591.89 717.303 1587.26 724.103 1585.67 716.067 C 1584.93 712.294 1599.21 706.968 1599.47 705.529 C 1597.82 702.89 1598.03 698.442 1593.49 698.524 C 1586.79 699.928 1587.67 689.807 1585.57 689.964 C 1578.93 690.459 1573.34 682.116 1568 682.688 C 1558.21 683.362 1562.38 677.759 1555.29 673.634 C 1542.93 666.443 1555.15 668.792 1538.8 663.836 z" fill="rgb(254,253,254)" fill-opacity="0.32549" transform="translate(0,0)"></path>
<path d="M 1475.66 719.478 C 1490.87 715.73 1519.6 721.8 1536.09 723.538 C 1552.85 725.304 1565.95 725.393 1582.3 726.17 L 1586.13 727.531 C 1550.08 733.29 1511.51 724.398 1475.66 719.478 z" fill="rgb(254,253,254)" fill-opacity="0.831373" transform="translate(0,0)"></path>
<path d="M 1588.13 683.546 C 1594.86 686.312 1617.08 703.481 1623.74 708.558 C 1619.42 711.716 1616.49 712.102 1613.16 716.137 C 1611.6 718.041 1609.27 719.434 1607.16 720.66 C 1606.78 719.442 1606.72 716.708 1607 715.448 C 1609.14 705.79 1604.91 703.946 1600.37 696.352 C 1598.16 692.666 1593.96 696.405 1592.64 690.406 C 1591.58 685.607 1588.29 687.096 1588.13 683.546 z" fill="url(#Gradient2)" transform="translate(0,0)"></path>
<path d="M 1551.84 665.898 C 1553.7 666.996 1558.68 672.047 1562.2 672.496 C 1562.42 672.525 1564.35 679.666 1567.33 679.579 C 1571.96 680.571 1574.14 679.471 1577.16 676.722 L 1577.44 676.475 C 1581.28 679.057 1584.36 680.617 1588.13 683.546 C 1588.29 687.096 1591.58 685.607 1592.64 690.406 C 1593.96 696.405 1598.16 692.666 1600.37 696.352 C 1604.91 703.946 1609.14 705.79 1607 715.448 C 1606.72 716.708 1606.78 719.442 1607.16 720.66 C 1605.56 721.599 1604.7 722.013 1603 722.816 C 1601.09 721.171 1601.56 721.936 1602.49 720.103 C 1603.25 718.601 1599.91 717.504 1600.9 714.472 C 1602.02 711.043 1604.05 712.931 1605.51 710.109 C 1607.11 705.391 1600.81 703.863 1600.08 700.054 C 1599.76 698.403 1599.36 696.815 1597.5 696.637 C 1592.04 696.203 1590.8 693.73 1589.96 689.02 C 1589.04 687.394 1584.59 686.886 1583.5 686.872 C 1581.06 686.988 1577.97 686.526 1576.91 684.054 C 1575.37 680.777 1574.78 681.593 1571.52 681.045 C 1569.85 680.531 1564.83 680.933 1563.46 680.325 C 1559.8 678.698 1562.27 672.478 1556.98 671.895 C 1554.56 671.628 1552.51 670.669 1552.16 668.002 C 1552.05 667.301 1551.94 666.599 1551.84 665.898 z" fill="rgb(254,253,254)" fill-opacity="0.0784314" transform="translate(0,0)"></path>
<path d="M 1164.33 489.244 C 1165.25 483.708 1166.38 477.933 1167.37 472.359 C 1167.65 473.412 1167.92 474.465 1168.2 475.517 C 1171.62 476.74 1178.44 480.014 1181.69 481.921 C 1182.2 482.222 1181.07 486.725 1180.93 487.617 C 1179.01 488.107 1173.51 490.778 1172.56 490.145 C 1166.66 486.238 1167.58 495.574 1164.33 489.244 z" fill="rgb(254,253,254)" fill-opacity="0.380392" transform="translate(0,0)"></path>
<path d="M 1040.71 569.307 C 1034.68 539.458 1031.17 500.124 1043.84 471.365 C 1067.48 417.73 1130.99 444.606 1169.48 462.804 C 1168.45 466.522 1168.07 468.616 1167.37 472.359 C 1166.38 477.933 1165.25 483.708 1164.33 489.244 C 1162.69 494.57 1163.21 508.851 1163.26 514.633 C 1160.21 544.951 1177.49 586.681 1196.59 609.845 C 1253.03 678.319 1391.32 706.989 1475.66 719.478 C 1511.51 724.398 1550.08 733.29 1586.13 727.531 L 1594.09 725.651 C 1597.86 724.836 1599.4 724.511 1603 722.816 C 1604.7 722.013 1605.56 721.599 1607.16 720.66 C 1609.27 719.434 1611.6 718.041 1613.16 716.137 C 1616.49 712.102 1619.42 711.716 1623.74 708.558 C 1630.19 711.599 1659.5 734.7 1663.21 741.935 C 1664.66 744.771 1664.5 745.168 1663.77 747.718 C 1655.72 753.893 1611.21 747.051 1598.54 745.43 C 1510.96 734.226 1407.93 730.21 1320.58 746.943 C 1268.89 701.228 1170.89 645.013 1107.42 620.396 C 1102.37 580.766 1096.56 543.363 1095.52 503.082 C 1095.39 498.187 1096.33 480.655 1094.1 478.026 L 1092.13 478.256 C 1090.37 480.989 1090.64 484.327 1090.46 487.727 L 1089.43 483.699 L 1087.47 482.824 C 1064.68 495.094 1054.39 503.277 1045.58 528.503 C 1039.9 544.784 1044.67 559.012 1040.71 569.307 z" fill="rgb(192,201,229)" transform="translate(0,0)"></path>
<path d="M 665.108 1043.91 C 717.103 1058.84 779.539 973.626 803.714 934.429 C 836.708 880.933 876.133 863.128 931.401 839.19 C 964.821 824.714 1003.8 796.938 1029.03 770.929 C 1031.74 768.133 1031.8 766.031 1036.12 765.804 L 1039.23 768.964 C 1028.56 783.297 1014.95 802.491 1001.58 813.841 C 957.8 851.009 906.885 859.195 861.791 896.765 C 847.538 908.804 834.683 922.406 823.468 937.316 C 779.926 994.692 748.385 1066.38 662.01 1062.93 C 633.112 1083.26 609.155 1094.82 573.025 1088.24 C 560.145 1085.89 542.398 1080.58 544.137 1064.5 C 556.841 1078.87 589.885 1082.94 607.633 1077.8 C 628.387 1071.8 649.312 1058.45 665.108 1043.91 z" fill="rgb(46,89,191)" transform="translate(0,0)"></path>
<path d="M 1087.47 482.824 L 1089.43 483.699 L 1090.46 487.727 C 1087.76 532.389 1092.72 578.213 1099.16 622.417 C 1099.77 626.607 1101.09 632.333 1101.03 636.466 C 1101.09 637.846 1101.77 642.624 1100.5 643.312 C 1100.06 643.155 1095.9 639.351 1095.11 638.708 C 1092.46 633.399 1091.84 608.427 1091.47 601.061 C 1091 591.99 1086.39 580.855 1086.22 573.958 C 1085.84 559.181 1083.78 539.999 1084.59 525.605 C 1085.42 510.867 1087.1 497.929 1087.47 482.824 z" fill="rgb(254,253,254)" transform="translate(0,0)"></path>
<path d="M 1064 703.154 C 1070.4 697.685 1070.29 698.084 1075.31 691.294 C 1078.24 718.067 1058.44 744.969 1044.21 765.035 C 1041.89 763.469 1040.31 761.916 1038.1 760.192 C 1054.22 738.871 1058.57 728.991 1064 703.154 z" fill="rgb(45,82,185)" transform="translate(0,0)"></path>
<path d="M 1111.71 693.914 C 1112.63 697.955 1113.4 701.938 1114.26 705.99 L 1118.21 724.99 L 1120.21 734.491 C 1123.16 748.698 1126.39 762.818 1129.37 776.993 L 1131.51 787.139 L 1121.51 789.263 C 1119.78 789.649 1117.98 790.157 1116.26 790.614 C 1115.91 789.386 1115.41 787.764 1115.16 786.487 L 1114.22 781.986 C 1114.05 781.169 1113.89 780.353 1113.72 779.536 L 1112.78 775.519 C 1111.18 768.909 1108.73 760.827 1107.54 754.357 C 1111.15 756.441 1111.85 757.912 1112.95 761.987 L 1113.4 763.749 C 1115.07 770.029 1116.24 772.509 1117.67 779.571 C 1117.97 780.55 1118.04 780.989 1118.23 782.007 C 1124.49 783.819 1126.2 783.403 1125.12 776.487 C 1124.72 770.252 1124.19 763.877 1121.1 758.462 C 1118.11 753.216 1118.19 746.428 1117.42 740.413 C 1115.95 731.976 1113.15 720.977 1112.09 713.149 C 1111.61 703.351 1109.69 703.987 1111.71 693.914 z" fill="rgb(254,253,254)" transform="translate(0,0)"></path>
<path d="M 1108.84 626.781 C 1119.31 630.053 1142.29 642.401 1152.31 647.556 C 1209.51 676.981 1262.23 712.39 1315.89 747.615 L 1284.78 753.107 C 1235.99 762.76 1187.4 773.455 1139.06 785.185 C 1137.67 779.743 1136.55 773.904 1135.54 768.355 C 1127 721.271 1115.19 674.186 1108.84 626.781 z" fill="rgb(192,201,229)" transform="translate(0,0)"></path>
<path d="M 1047.01 680.95 C 1051.21 680.631 1052.66 680.165 1056.43 681.668 C 1057.91 683.266 1059.06 683.892 1059.19 685.815 C 1060.37 703.459 1050.81 729.987 1041.63 743.965 C 1016.42 782.348 971.374 814.005 930.036 833.133 C 894.969 849.359 868.983 857.05 838.295 883.141 C 818.226 899.625 804.195 920.362 790.393 942.121 C 769.189 975.553 725.592 1030.07 685.494 1039.26 C 683.256 1036.85 683.944 1036.35 683.482 1032.27 C 680.505 1016.83 669.282 1019.84 663.499 1015.38 C 684.802 1003.06 700.023 997.884 720.678 981.595 C 762.471 948.637 775.591 898.097 815.112 863.745 C 838.252 843.632 865.774 830.189 893.762 818.298 C 960.716 791.69 1018.57 750.007 1047.01 680.95 z" fill="rgb(88,139,254)" transform="translate(0,0)"></path>
<path d="M 655.552 1031.75 C 658.652 1033.28 660.211 1036.32 662.433 1039.22 C 642.695 1056.11 622.888 1068.06 597.244 1073.08 C 590.514 1072.91 590.017 1071.52 591.643 1063.57 C 591.909 1062.27 595.427 1061.43 596.501 1061.19 C 618.997 1056.14 637.49 1045.64 655.552 1031.75 z" fill="rgb(88,139,254)" transform="translate(0,0)"></path>
<path d="M 550.586 1054.34 C 558.404 1056.62 564.622 1061.07 573.498 1061.96 C 585.908 1063.21 587.475 1060.72 585.849 1073.44 C 578.304 1072.77 544.8 1067.88 549.884 1056.05 L 550.586 1054.34 z" fill="rgb(45,82,185)" transform="translate(0,0)"></path>
<path d="M 658.4 1020.1 C 673.79 1022 680.19 1025.67 680.829 1041.33 C 669.966 1039.95 659.174 1031.16 658.4 1020.1 z" fill="rgb(88,139,254)" transform="translate(0,0)"></path>
<path d="M 1047.54 670.306 C 1057.34 669.523 1063.21 668.965 1069.52 678.083 C 1073.5 683.845 1068.17 696.53 1065.96 695.332 C 1064.22 689.678 1071.13 689.054 1062.56 677.065 C 1043.94 668.188 1042.34 676.968 1035.46 689.697 C 1032.94 680.824 1040.04 673.607 1047.54 670.306 z" fill="rgb(254,253,254)" transform="translate(0,0)"></path>
<path d="M 1040.71 569.307 C 1044.67 559.012 1039.9 544.784 1045.58 528.503 C 1054.39 503.277 1064.68 495.094 1087.47 482.824 C 1087.1 497.929 1085.42 510.867 1084.59 525.605 C 1083.78 539.999 1085.84 559.181 1086.22 573.958 C 1086.39 580.855 1091 591.99 1091.47 601.061 C 1091.84 608.427 1092.46 633.399 1095.11 638.708 C 1097.28 644.578 1101.96 651.634 1101.98 657.996 C 1101.99 661.96 1104.72 683.442 1108.62 684.286 C 1109.01 683.996 1108.76 684.233 1109.42 683.353 C 1110.57 687.439 1111.06 689.717 1111.71 693.914 C 1109.69 703.987 1111.61 703.351 1112.09 713.149 L 1111.24 712.962 C 1110.4 710.998 1110.13 709.753 1108.08 708.884 C 1106.47 708.182 1104.63 708.199 1103.04 708.931 C 1099.41 710.578 1097.74 713.974 1096.93 717.616 L 1096.56 718.874 C 1089.7 697.445 1084.42 687.155 1074.6 667.123 C 1074.67 664.045 1073.27 654.086 1071.48 651.596 L 1069.21 648.424 L 1068.1 646.892 L 1067.01 645.329 C 1067.23 635.353 1069.23 629.25 1060.59 622.443 C 1051.69 615.435 1061.37 604.027 1051.61 598.629 C 1047.79 596.521 1049.12 581.556 1047.82 577.492 C 1047.02 574.076 1046.12 566.741 1041.31 571.211 L 1040.71 569.307 z" fill="url(#Gradient1)" transform="translate(0,0)"></path>
<path d="M 1278.1 1052.59 C 1282.76 1053.15 1323.85 1085.44 1331.04 1089.08 C 1331.33 1089.23 1332.74 1091.04 1332.42 1091.42 C 1318.29 1108.45 1301.03 1125.81 1284.83 1141.29 C 1278.67 1138.92 1236.76 1107.84 1229.9 1102 C 1241.25 1089 1265.28 1063.98 1278.1 1052.59 z" fill="rgb(0,0,0)" transform="translate(0,0)"></path>
<path d="M 1278.05 1058.64 C 1279.94 1059.61 1287.88 1065.66 1290.28 1067.34 L 1325.81 1092.1 C 1313.72 1102.83 1296.33 1121.96 1284.4 1134.2 C 1282.84 1134.7 1242.29 1104.46 1237.48 1101.12 C 1250.79 1086.8 1264.91 1073.32 1278.05 1058.64 z" fill="rgb(95,177,115)" transform="translate(0,0)"></path>
<path d="M 1225.67 1107.69 C 1227.67 1108.04 1273.01 1140.96 1279.46 1145.35 L 1280.25 1145.89 C 1270.85 1158.56 1244.36 1185.33 1232.29 1196.34 C 1228.94 1197 1182.82 1160.61 1178.56 1156.03 C 1190.46 1142.35 1212.56 1119.9 1225.67 1107.69 z" fill="rgb(0,0,0)" transform="translate(0,0)"></path>
<path d="M 1225.7 1113.68 C 1237.28 1119.42 1260.23 1138.63 1272.04 1146.82 C 1260.23 1159.8 1243.98 1177.46 1231.7 1189.74 C 1229.87 1189.7 1190.45 1159.76 1185.56 1155.97 C 1199.34 1141.97 1212.23 1127.26 1225.7 1113.68 z" fill="rgb(253,188,91)" transform="translate(0,0)"></path>
<path d="M 1165.61 1063.82 C 1172.72 1066.8 1212.41 1096.75 1219.75 1102.98 L 1173.4 1153.37 C 1160.04 1146.37 1130.2 1123.63 1118.11 1113.89 C 1132.36 1097.23 1150.2 1080.01 1165.61 1063.82 z" fill="rgb(0,0,0)" transform="translate(0,0)"></path>
<path d="M 1165.99 1070.58 C 1169.37 1071.52 1204.96 1098.3 1211.93 1102.7 C 1202.05 1115.03 1182.66 1135.08 1171.29 1146.26 C 1167.58 1143.41 1163.84 1140.6 1160.08 1137.81 C 1148.9 1129.64 1136.6 1121.43 1125.78 1113.05 C 1138.96 1098.68 1152.37 1084.52 1165.99 1070.58 z" fill="rgb(70,171,244)" transform="translate(0,0)"></path>
<path d="M 1217.87 1008.6 C 1222.8 1010.65 1266.57 1042.89 1272.85 1047.71 C 1261.97 1060.81 1236.99 1086.37 1224.62 1097.44 C 1208.29 1087.73 1185.13 1069.78 1169.83 1058.01 C 1176.74 1050.3 1185.87 1042.11 1193.15 1034.13 C 1200.63 1025.93 1209.8 1016.1 1217.87 1008.6 z" fill="rgb(0,0,0)" transform="translate(0,0)"></path>
<path d="M 1217.82 1015.61 C 1221.8 1016.78 1259.44 1044.82 1265.41 1049.26 C 1253.58 1060.69 1235.38 1078.51 1224.65 1091 C 1222.94 1090.77 1182.65 1062.06 1177.04 1058.39 C 1190.82 1044.89 1204.2 1029.45 1217.82 1015.61 z" fill="rgb(205,81,73)" transform="translate(0,0)"></path>
<path d="M 1648.81 1053.42 C 1652.71 1053.17 1651.35 1052.54 1654.1 1054.07 L 1654.78 1056.91 C 1651.08 1060.65 1635.2 1062.24 1628.99 1063.37 C 1617.57 1065.35 1606.28 1068 1595.17 1071.31 C 1558 1082.18 1522.36 1100.77 1490.45 1122.55 C 1488.55 1123.79 1489.36 1123.42 1486.97 1123.67 L 1486.31 1122.17 C 1486.65 1121.41 1487.04 1120.35 1487.73 1119.85 C 1527.21 1090.82 1571.42 1066.9 1619.99 1057.7 C 1629.78 1055.85 1638.9 1054.48 1648.81 1053.42 z" fill="rgb(0,0,0)" transform="translate(0,0)"></path>
<path d="M 1325.91 776.444 C 1363.14 775.302 1399.78 778.37 1436.74 783.221 C 1438.35 783.432 1437.68 783.3 1438.93 785.079 L 1438.45 787.119 C 1435.44 788.635 1400.49 784.636 1394.25 784.141 C 1365.65 782.144 1336.99 781.414 1308.33 781.953 C 1301.93 782.113 1279.62 783.439 1275.83 781.597 C 1281.51 777.074 1316.46 776.846 1325.91 776.444 z" fill="rgb(0,0,0)" transform="translate(0,0)"></path>
<path d="M 1041.31 571.211 C 1046.12 566.741 1047.02 574.076 1047.82 577.492 C 1049.12 581.556 1047.79 596.521 1051.61 598.629 C 1061.37 604.027 1051.69 615.435 1060.59 622.443 C 1069.23 629.25 1067.23 635.353 1067.01 645.329 L 1068.1 646.892 L 1069.21 648.424 L 1071.48 651.596 C 1073.27 654.086 1074.67 664.045 1074.6 667.123 C 1071.94 661.883 1061.98 642.009 1061.15 636.921 L 1061.08 636.29 C 1060.31 628.818 1056.01 621.846 1053.7 614.556 C 1049.15 600.246 1044.32 585.956 1041.31 571.211 z" fill="rgb(254,253,254)" fill-opacity="0.988235" transform="translate(0,0)"></path>
<path d="M 1097.23 720.117 C 1100.78 722.993 1104.79 725.605 1108.48 728.304 C 1108.03 732.146 1105.8 743.333 1108.47 745.667 C 1114.21 750.685 1116.59 742.391 1117.42 740.413 C 1118.19 746.428 1118.11 753.216 1121.1 758.462 C 1124.19 763.877 1124.72 770.252 1125.12 776.487 L 1123.99 774.77 C 1123.52 772.057 1122.73 756.533 1117.9 765.523 C 1118.34 764.706 1118.12 776.96 1117.67 779.571 C 1116.24 772.509 1115.07 770.029 1113.4 763.749 L 1112.95 761.987 C 1111.85 757.912 1111.15 756.441 1107.54 754.357 C 1104.01 745.73 1099.75 729.525 1097.23 720.117 z" fill="rgb(254,253,254)" fill-opacity="0.839216" transform="translate(0,0)"></path>
<path d="M 1111.24 712.962 L 1112.09 713.149 C 1113.15 720.977 1115.95 731.976 1117.42 740.413 C 1116.59 742.391 1114.21 750.685 1108.47 745.667 C 1105.8 743.333 1108.03 732.146 1108.48 728.304 C 1104.79 725.605 1100.78 722.993 1097.23 720.117 L 1096.56 718.874 L 1096.93 717.616 C 1102.96 723.093 1110.61 722.185 1111.24 712.962 z" fill="rgb(254,253,254)" fill-opacity="0.698039" transform="translate(0,0)"></path>
<path d="M 1101.03 636.466 C 1104.25 649.602 1107.67 669.801 1109.42 683.353 C 1108.76 684.233 1109.01 683.996 1108.62 684.286 C 1104.72 683.442 1101.99 661.96 1101.98 657.996 C 1101.96 651.634 1097.28 644.578 1095.11 638.708 C 1095.9 639.351 1100.06 643.155 1100.5 643.312 C 1101.77 642.624 1101.09 637.846 1101.03 636.466 z" fill="rgb(254,253,254)" fill-opacity="0.988235" transform="translate(0,0)"></path>
<path d="M 1096.93 717.616 C 1097.74 713.974 1099.41 710.578 1103.04 708.931 C 1104.63 708.199 1106.47 708.182 1108.08 708.884 C 1110.13 709.753 1110.4 710.998 1111.24 712.962 C 1110.61 722.185 1102.96 723.093 1096.93 717.616 z" fill="rgb(254,253,254)" fill-opacity="0.584314" transform="translate(0,0)"></path>
<path d="M 1398.77 584.686 L 1400.81 584.625 C 1405.84 584.403 1406.65 584.24 1409.27 587.962 C 1411.05 590.476 1416.27 591.315 1419 590.536 C 1424.92 589.277 1426.4 597.685 1431.97 597.706 C 1436.84 597.287 1437 597.684 1441.52 599.062 C 1442.13 603.198 1443.58 603.33 1439.28 604 C 1436.33 595.928 1426.26 604.642 1423.66 596.603 C 1421.31 589.357 1413.13 594.989 1409.5 591.081 C 1404.24 585.419 1406.11 587.326 1398.77 584.686 z" fill="rgb(254,253,254)" fill-opacity="0.14902" transform="translate(0,0)"></path>
<path d="M 1117.67 779.571 C 1118.12 776.96 1118.34 764.706 1117.9 765.523 C 1122.73 756.533 1123.52 772.057 1123.99 774.77 C 1119.88 776.763 1119.28 777.798 1118.23 782.007 C 1118.04 780.989 1117.97 780.55 1117.67 779.571 z" fill="rgb(254,253,254)" fill-opacity="0.709804" transform="translate(0,0)"></path>
<path d="M 786.349 602.633 C 791.027 606.9 784.232 617.67 780.98 621.265 C 777.479 616.773 783.735 607.549 786.349 602.633 z" fill="rgb(0,0,0)" transform="translate(0,0)"></path>
<path d="M 1123.99 774.77 L 1125.12 776.487 C 1126.2 783.403 1124.49 783.819 1118.23 782.007 C 1119.28 777.798 1119.88 776.763 1123.99 774.77 z" fill="rgb(254,253,254)" fill-opacity="0.596078" transform="translate(0,0)"></path>
<path d="M 1743.49 766.949 C 1746.88 765.747 1743.49 761.745 1748.97 757.6 C 1748.77 768.654 1748.51 772.699 1742.58 781.84 C 1742.55 779.433 1742.88 776.939 1742.17 774.603 L 1741.68 772.799 C 1742.26 770.718 1742.78 768.978 1743.49 766.949 z" fill="rgb(0,0,0)" fill-opacity="0.984314" transform="translate(0,0)"></path>
<path d="M 1734.25 881.866 C 1735.44 888.792 1735.47 901.405 1734.3 908.404 C 1732.06 899.424 1732.51 890.86 1734.25 881.866 z" fill="rgb(0,0,0)" fill-opacity="0.952941" transform="translate(0,0)"></path>
<path d="M 1720.15 800.722 C 1721.76 801.363 1723.22 801.929 1724.86 802.504 L 1724.31 803.93 C 1723.19 807 1721.71 811.656 1719.65 814.11 C 1718.46 812.452 1720.76 806.052 1720.15 800.722 z" fill="rgb(0,0,0)" fill-opacity="0.984314" transform="translate(0,0)"></path>
<metadata><recraft-signature>{"signed_by": "recraft", "signature_b64": "6sOu+D18z6jdqCn4fpL/HkyJbCuWk+k2oSJ7rkEcTXV6MFQJQvHNO8jlInXNvVr6ccg/zBO5zGM7sSYiGKvRCg==", "signing_algo": "Ed25519", "generation_timestamp": 1782415619, "identifier": "771ffd00-7bce-400c-a2b7-8318996faf53"}</recraft-signature></metadata></svg>