<svg xmlns="http://www.w3.org/2000/svg" height="1024" preserveAspectRatio="none" style="display: block;" version="1.1" viewBox="0 0 2048 2048" width="1024">
<path d="M 993.597 372.42 C 1107.33 365.385 1226.03 399.62 1315.96 471.387 C 1328.59 481.461 1334.92 482.567 1349.78 487.803 C 1359.5 491.156 1369.06 494.979 1378.41 499.259 C 1465.34 539.142 1521.63 606.832 1554.61 695.406 C 1565.99 703.353 1583.29 720.802 1592.38 731.572 C 1649.61 799.408 1669.11 865.838 1662.82 952.73 C 1672.23 967.775 1680.36 983.575 1687.15 999.968 C 1727.99 1098.83 1717.78 1183.22 1677.93 1279.6 C 1702.62 1395.34 1641.84 1518.79 1545.35 1583.05 C 1455.87 1642.65 1331.35 1657.33 1227.28 1636.42 C 1163.45 1661.73 1122.65 1672.11 1053.25 1676.64 C 983.631 1682.12 882.353 1665.31 818.808 1635.5 C 652.486 1667.95 474.963 1619.05 394.978 1459.55 C 371.14 1412.01 355.194 1330.88 371.701 1279.65 C 361.569 1256.85 351.934 1234.4 345.706 1210.14 C 323.952 1123.09 337.813 1030.96 384.217 954.164 C 383.802 936.601 382.354 922.084 383.303 904.147 C 386.713 839.682 413 783.475 453.18 734.038 C 466.272 717.929 480.543 706.719 492.906 691.587 C 497.082 686.476 505.859 662.141 509.733 654.19 C 522.735 627.508 537.411 606.03 556.577 583.526 C 589.958 544.681 632.04 514.266 679.397 494.757 C 686.474 491.829 719.994 481.681 723.038 479.164 C 804.616 411.716 886.363 381 993.597 372.42 z M 1516.78 662.812 C 1509.01 662.05 1511.45 650.697 1507.21 652.774 L 1507.25 653.014 C 1507.26 653.012 1504.43 654.498 1504.78 654.423 C 1498.06 658.972 1509.54 665.365 1511.49 667.775 L 1513.46 671.515 L 1517.87 673.922 C 1518.92 674.419 1521.26 675.857 1522.38 675.887 C 1523.78 674.992 1517.65 663.853 1516.78 662.812 z" fill="rgb(29,27,28)" transform="translate(0,0)"></path>
<path d="M 733.312 501.851 C 746.719 489.924 760.329 477.532 775.132 467.52 C 935.602 358.974 1158.88 374.555 1309.01 494.246 C 1323.07 505.452 1346.21 508.555 1362.27 516.773 C 1403.53 535.359 1440.69 563.235 1471.2 596.573 C 1484.75 611.516 1509.09 644.782 1516.78 662.812 C 1509.01 662.05 1511.45 650.697 1507.21 652.774 L 1507.25 653.014 C 1507.26 653.012 1504.43 654.498 1504.78 654.423 C 1498.06 658.972 1509.54 665.365 1511.49 667.775 L 1513.46 671.515 C 1506.34 668.692 1499.25 665.772 1492.21 662.756 C 1484.21 659.931 1468.27 653.491 1460.41 654.422 L 1459.09 655.954 C 1460.44 659.782 1460.94 659.636 1465.1 662.224 C 1546.04 701.845 1598.45 756.185 1629.45 842.021 C 1652.73 906.474 1647.46 979.787 1621.45 1042.98 C 1619.96 1046.58 1619.64 1047.34 1618.93 1051.12 C 1620.07 1054.32 1619.11 1053.11 1621.81 1054.97 C 1629.09 1053.5 1642.62 1021.05 1645.73 1013.58 C 1648.75 1004.64 1651.8 995.011 1655.03 986.206 C 1667.26 1005.6 1671.52 1021.55 1678.09 1043.02 C 1711.21 1151.32 1672.9 1262.99 1607.59 1351.61 C 1605.43 1354.73 1603.87 1356.91 1601.47 1359.85 C 1597.08 1370.69 1572.95 1392.22 1573.14 1401.75 L 1574.64 1402.53 C 1590.66 1396.56 1636.29 1340.29 1648.02 1324.87 C 1651.54 1319.46 1655.13 1314.09 1658.77 1308.76 C 1662.2 1370.08 1651.15 1428.75 1615.38 1479.94 C 1608.41 1492.85 1595.43 1507.89 1585.59 1518.67 C 1503.42 1608.76 1385.71 1627.58 1269.91 1622.45 C 1296.38 1612.44 1323.55 1603.98 1349.82 1593.33 C 1354.52 1591.42 1360.15 1588.99 1364.92 1587.44 C 1378.6 1581.14 1392.08 1574.68 1405.48 1567.78 C 1422.46 1559.04 1495.65 1513.99 1500.03 1497.27 C 1500.53 1495.33 1500.1 1495.42 1499.15 1493.84 C 1498.22 1493.79 1497.3 1493.73 1496.37 1493.67 C 1481.79 1502.19 1468.48 1513.92 1453.7 1522.26 C 1430.47 1535.37 1402.87 1554.44 1377.46 1562.7 C 1369.89 1566.71 1356.8 1571.16 1348.41 1574.41 C 1324.08 1583.86 1298.84 1592.29 1273.92 1600.15 C 1239.95 1610.88 1205.15 1624.8 1171.14 1634.93 C 1123.58 1649.01 1074.22 1656.06 1024.62 1655.87 C 864.744 1655.3 721.919 1584.21 610.414 1471.89 L 575.576 1437.13 C 569.767 1431.23 564.678 1422.59 556.493 1421.17 L 557.842 1421.37 L 553.61 1423.08 L 554.851 1421.45 C 553.657 1424.84 553.235 1423.79 554.458 1426.34 C 562.182 1442.45 581.435 1458.79 590.508 1472.28 C 597.346 1477.99 605.825 1487.5 612.239 1494.11 C 647.901 1530.86 686.967 1563.75 730.362 1591.08 C 745.837 1600.83 762.774 1608.72 778.144 1619.08 C 647.278 1636.52 499.393 1592.29 430.4 1472.99 C 394.55 1411 386.346 1375.36 386.99 1303.92 C 394.651 1315.43 404.755 1328.17 413.214 1339.14 C 422.167 1349.48 469.385 1402.73 480.088 1404.26 C 482.585 1402.3 481.729 1403.55 482.49 1400.23 L 481.906 1398.66 C 474.506 1392.73 464.487 1380.6 458.073 1373.16 C 422.782 1332.22 392.647 1285.38 375.364 1233.89 C 347.773 1152.9 353.343 1064.28 390.858 987.383 L 395.804 1002.73 C 400.816 1015.06 405.478 1027.1 411.504 1039.03 C 415.565 1047.08 420.234 1053.56 423.434 1061.96 C 426.279 1063.95 424.709 1063.41 428.388 1063.39 L 429.467 1061.76 C 429.697 1057.05 422.07 1039.1 420.088 1033.16 C 391.914 948.723 400.685 857.69 446.776 782.067 C 456.59 767.559 467.617 751.919 478.5 738.182 C 468.293 810.378 472.337 837.593 503.555 904.27 C 506.551 908.203 506.828 909.178 511.328 910.267 L 512.681 908.883 C 512.668 905.454 501.687 867.416 499.651 859.973 C 480.71 790.74 505.923 701.698 542.899 641.412 C 587.367 568.909 650.127 521.974 733.312 501.851 z" fill="rgb(137,196,87)" transform="translate(0,0)"></path>
<path d="M 386.99 1303.92 C 394.651 1315.43 404.755 1328.17 413.214 1339.14 C 409.394 1350.36 433.394 1412.02 439.96 1425.44 C 483.594 1514.62 567.445 1559.71 661.757 1574.2 C 650.629 1556.47 591.054 1485.02 590.508 1472.28 C 597.346 1477.99 605.825 1487.5 612.239 1494.11 C 647.901 1530.86 686.967 1563.75 730.362 1591.08 C 745.837 1600.83 762.774 1608.72 778.144 1619.08 C 647.278 1636.52 499.393 1592.29 430.4 1472.99 C 394.55 1411 386.346 1375.36 386.99 1303.92 z" fill="rgb(73,167,91)" transform="translate(0,0)"></path>
<path d="M 733.312 501.851 C 746.719 489.924 760.329 477.532 775.132 467.52 C 935.602 358.974 1158.88 374.555 1309.01 494.246 C 1323.07 505.452 1346.21 508.555 1362.27 516.773 C 1403.53 535.359 1440.69 563.235 1471.2 596.573 C 1484.75 611.516 1509.09 644.782 1516.78 662.812 C 1509.01 662.05 1511.45 650.697 1507.21 652.774 L 1507.25 653.014 C 1507.26 653.012 1504.43 654.498 1504.78 654.423 C 1498.06 658.972 1509.54 665.365 1511.49 667.775 L 1513.46 671.515 C 1506.34 668.692 1499.25 665.772 1492.21 662.756 C 1489.17 652.727 1460.07 613.388 1453.26 606.047 C 1408.17 557.422 1347.73 528.311 1287.44 503.29 C 1276.23 498.638 1263.21 487.848 1251.77 481.903 C 1216.46 463.556 1180.74 445.995 1142.26 435.201 C 1074.88 416.803 1004.18 414.126 935.609 427.377 C 877.194 438.382 828.451 456.038 775.401 482.456 C 766.1 487.087 739.979 503.432 733.312 501.851 z" fill="rgb(184,215,148)" transform="translate(0,0)"></path>
<path d="M 610.414 1471.89 C 611.752 1472.03 613.09 1472.17 614.428 1472.32 C 738.003 1570.25 892.831 1636.88 1052.33 1635.92 C 1088.47 1635.69 1124.48 1631.4 1159.67 1623.15 C 1191.64 1615.68 1361.16 1554.99 1377.46 1562.7 C 1369.89 1566.71 1356.8 1571.16 1348.41 1574.41 C 1324.08 1583.86 1298.84 1592.29 1273.92 1600.15 C 1239.95 1610.88 1205.15 1624.8 1171.14 1634.93 C 1123.58 1649.01 1074.22 1656.06 1024.62 1655.87 C 864.744 1655.3 721.919 1584.21 610.414 1471.89 z" fill="rgb(73,167,91)" transform="translate(0,0)"></path>
<path d="M 1465.1 662.224 C 1546.04 701.845 1598.45 756.185 1629.45 842.021 C 1652.73 906.474 1647.46 979.787 1621.45 1042.98 C 1617.91 1037.93 1621.98 1016.59 1622.52 1009.18 C 1623.99 989.164 1624.17 969.078 1623.06 949.043 C 1621.61 915.44 1615.03 882.256 1603.55 850.642 C 1583.85 796.626 1552.03 755.674 1511.89 715.255 C 1503.52 706.822 1463.59 671.276 1465.1 662.224 z" fill="rgb(184,215,148)" transform="translate(0,0)"></path>
<path d="M 1655.03 986.206 C 1667.26 1005.6 1671.52 1021.55 1678.09 1043.02 C 1711.21 1151.32 1672.9 1262.99 1607.59 1351.61 L 1604.66 1348.66 C 1625.14 1311.92 1643.9 1254 1653.67 1213.53 C 1666.88 1158.85 1669.67 1104.93 1656.74 1050.02 C 1654.11 1038.86 1651.9 1023.47 1645.73 1013.58 C 1648.75 1004.64 1651.8 995.011 1655.03 986.206 z" fill="rgb(184,215,148)" transform="translate(0,0)"></path>
<path d="M 481.906 1398.66 C 474.506 1392.73 464.487 1380.6 458.073 1373.16 C 422.782 1332.22 392.647 1285.38 375.364 1233.89 C 347.773 1152.9 353.343 1064.28 390.858 987.383 L 395.804 1002.73 C 395.478 1007.36 397.433 1013.24 394.892 1016.85 C 377.515 1039.09 375.378 1126.27 379.546 1154.39 C 390.028 1225.12 416.236 1293.32 453.347 1354.33 C 458.329 1362.61 480.84 1393.03 481.906 1398.66 z" fill="rgb(73,167,91)" transform="translate(0,0)"></path>
<path d="M 1364.92 1587.44 C 1367.8 1589 1368.31 1588.89 1371.65 1589.12 C 1441.4 1593.86 1517.85 1566.58 1570.22 1520.58 C 1580.31 1511.71 1589.87 1502.25 1598.84 1492.25 C 1602.05 1488.65 1610.14 1478.26 1612.88 1475.88 L 1615.07 1476.09 C 1614.93 1478.41 1614.62 1478.02 1615.38 1479.94 C 1608.41 1492.85 1595.43 1507.89 1585.59 1518.67 C 1503.42 1608.76 1385.71 1627.58 1269.91 1622.45 C 1296.38 1612.44 1323.55 1603.98 1349.82 1593.33 C 1354.52 1591.42 1360.15 1588.99 1364.92 1587.44 z" fill="rgb(73,167,91)" transform="translate(0,0)"></path>
<path d="M 478.5 738.182 C 468.293 810.378 472.337 837.593 503.555 904.27 C 499.419 902.245 495.716 897.152 492.705 893.403 C 474.733 871.131 461.708 846.375 453.893 818.867 C 451.086 808.985 450.358 790.057 446.776 782.067 C 456.59 767.559 467.617 751.919 478.5 738.182 z" fill="rgb(73,167,91)" transform="translate(0,0)"></path>
<path d="M 1658.77 1308.76 C 1662.2 1370.08 1651.15 1428.75 1615.38 1479.94 C 1614.62 1478.02 1614.93 1478.41 1615.07 1476.09 C 1617.41 1471.97 1621.06 1459.3 1622.81 1454.52 C 1633.71 1424.89 1650.39 1355.51 1648.02 1324.87 C 1651.54 1319.46 1655.13 1314.09 1658.77 1308.76 z" fill="rgb(184,215,148)" transform="translate(0,0)"></path>
<path d="M 395.804 1002.73 C 400.816 1015.06 405.478 1027.1 411.504 1039.03 C 415.565 1047.08 420.234 1053.56 423.434 1061.96 C 413.367 1057.43 398.096 1027.7 394.892 1016.85 C 397.433 1013.24 395.478 1007.36 395.804 1002.73 z" fill="rgb(55,154,91)" transform="translate(0,0)"></path>
<path d="M 1604.66 1348.66 L 1607.59 1351.61 C 1605.43 1354.73 1603.87 1356.91 1601.47 1359.85 C 1600.29 1357.28 1600.48 1357.11 1601.82 1354.37 L 1604.66 1348.66 z" fill="rgb(189,217,160)" transform="translate(0,0)"></path>
<path d="M 768.156 652.134 C 864.506 646.549 947.218 719.959 953.112 816.291 C 959.007 912.622 885.863 995.57 789.551 1001.77 C 692.8 1008.01 609.392 934.456 603.471 837.686 C 597.549 740.916 671.367 657.745 768.156 652.134 z" fill="rgb(29,27,28)" transform="translate(0,0)"></path>
<path d="M 763.892 675.487 C 847.483 667.489 921.773 728.668 929.952 812.241 C 938.131 895.815 877.113 970.236 793.557 978.596 C 709.746 986.981 635.047 925.735 626.843 841.906 C 618.639 758.077 680.046 683.51 763.892 675.487 z" fill="rgb(137,196,87)" transform="translate(0,0)"></path>
<path d="M 833.766 724.4 C 911.564 728.403 913.756 909.792 833.301 916.432 C 762.138 912.058 754.916 765.021 808.869 731.81 C 818.417 725.933 823.23 725.186 833.766 724.4 z" fill="rgb(29,27,28)" transform="translate(0,0)"></path>
<path d="M 1255.3 652.519 C 1351.4 644.946 1435.48 716.595 1443.26 812.672 C 1451.03 908.749 1379.56 992.986 1283.5 1000.96 C 1187.15 1008.96 1102.61 937.233 1094.81 840.869 C 1087.01 744.505 1158.92 660.113 1255.3 652.519 z" fill="rgb(29,27,28)" transform="translate(0,0)"></path>
<path d="M 1257.5 675.096 C 1341.71 668.63 1415.13 731.858 1421.23 816.098 C 1427.33 900.337 1363.78 973.481 1279.51 979.209 C 1195.77 984.903 1123.17 921.831 1117.11 838.111 C 1111.05 754.392 1173.81 681.523 1257.5 675.096 z" fill="rgb(137,196,87)" transform="translate(0,0)"></path>
<path d="M 1214.25 724.339 C 1291.07 721.352 1300.29 904.823 1218.09 915.932 C 1137.93 916.515 1132.87 734.255 1214.25 724.339 z" fill="rgb(29,27,28)" transform="translate(0,0)"></path>
<path d="M 913.088 997.037 C 929.73 995.973 936.089 1008.01 950.196 1014.31 C 1000.07 1036.61 1058.92 1035.3 1106.9 1008.64 C 1112.43 1005.56 1118.08 999.712 1124.36 997.757 C 1136.72 995.018 1147.46 1001.07 1148.34 1014.26 C 1151.1 1038.48 1139.81 1058.4 1125.68 1076.7 C 1115.69 1087.86 1108.03 1094.79 1094.81 1102.4 C 1061.53 1121.42 1022.07 1126.49 985.058 1116.5 C 947.145 1106.05 908.171 1072.35 900.546 1032.17 C 897.625 1016.78 898.274 1005.17 913.088 997.037 z" fill="rgb(29,27,28)" transform="translate(0,0)"></path>
<path d="M 1362.3 1155.58 C 1368.5 1148.57 1377.76 1133.47 1384.22 1125.03 C 1400.62 1103.62 1419.57 1081.9 1439.25 1063.62 C 1452.05 1051.75 1497.47 1015.19 1512.4 1015.86 C 1515.12 1017.64 1514.2 1016.45 1515.2 1019.61 C 1514.3 1023.71 1504.89 1030.49 1501.3 1033.15 C 1446.3 1073.77 1411.25 1118.52 1370.27 1171.65 C 1347.9 1172.29 1326.99 1179.06 1315.08 1199.4 C 1314.62 1204.86 1314.91 1209.17 1315.13 1214.61 C 1325.66 1231.63 1336.94 1228.81 1351.58 1220.42 C 1355.43 1220.85 1353.72 1220.15 1356.79 1222.81 L 1356.66 1224.76 C 1350.29 1231.99 1342.3 1236.11 1334.9 1242.49 C 1323.1 1252.67 1316.41 1271.85 1327.53 1285.09 C 1345.77 1306.82 1371.59 1272.81 1382.76 1273.48 C 1387.4 1278.58 1376.34 1290.53 1378.67 1301.98 C 1386.42 1340.12 1428.77 1321.28 1444.88 1300.26 C 1449.79 1293.85 1453.52 1287.37 1457.75 1280.13 C 1517.46 1262.83 1568.87 1220.82 1607.43 1172.85 C 1612.31 1166.78 1620.05 1151.53 1627.23 1149.56 L 1629.18 1151.1 C 1629.88 1154.74 1629.08 1154.76 1627.5 1158.9 C 1629.29 1168.96 1618.11 1184.66 1613 1193.53 C 1581.1 1248.88 1534.63 1295.72 1473.42 1316.7 C 1466.69 1325.88 1461.31 1333.47 1452.65 1341.08 C 1416.17 1373.12 1379.19 1369.07 1354.08 1326.81 C 1337.12 1328.84 1326.84 1331.4 1311.62 1319.88 C 1290.36 1303.79 1284.12 1273.17 1301.33 1251.72 C 1305.39 1246.67 1310.52 1242.34 1314.01 1236.84 C 1283.5 1216.06 1297.93 1181.55 1325.57 1167.09 C 1338.21 1160.47 1348.3 1157.84 1362.3 1155.58 z" fill="rgb(29,27,28)" transform="translate(0,0)"></path>
<path d="M 1627.5 1158.9 C 1629.29 1168.96 1618.11 1184.66 1613 1193.53 C 1581.1 1248.88 1534.63 1295.72 1473.42 1316.7 C 1466.69 1325.88 1461.31 1333.47 1452.65 1341.08 C 1416.17 1373.12 1379.19 1369.07 1354.08 1326.81 C 1337.12 1328.84 1326.84 1331.4 1311.62 1319.88 C 1290.36 1303.79 1284.12 1273.17 1301.33 1251.72 C 1305.39 1246.67 1310.52 1242.34 1314.01 1236.84 C 1315.95 1238.15 1315.31 1237.29 1316.08 1239.29 C 1308.9 1250.58 1300.59 1266.16 1304.14 1279.5 C 1312.06 1309.24 1338.11 1310.34 1361.96 1305.25 C 1362.65 1307.9 1363.46 1310.52 1364.38 1313.11 C 1382.75 1365.11 1451.74 1335.12 1468.19 1295.1 C 1541.51 1272.41 1589.33 1223.52 1627.5 1158.9 z" fill="rgb(73,167,91)" transform="translate(0,0)"></path>
<path d="M 674.778 1169.68 C 638.65 1117.95 605.12 1080.35 555.261 1040.92 C 548.241 1035.37 531.632 1024.96 532.632 1016.99 C 541.525 1006.37 589.322 1047.3 599.09 1054.73 C 635.47 1082.37 658.039 1121.94 686.512 1155.25 C 699.077 1156.87 707.759 1158.58 719.245 1164.01 C 752.861 1179.92 764.991 1212.66 733.869 1239.54 C 742.573 1249.8 744.504 1253.37 747.396 1267.03 C 749.584 1276.12 751.884 1284.1 749.342 1293.42 C 740.871 1324.44 717.201 1329.7 689.61 1322.35 C 684.737 1334.23 679.93 1342.31 669.351 1350.14 C 657.326 1359.04 642.239 1362.75 627.459 1360.45 C 603.642 1356.64 583.242 1336.7 569.936 1317.74 C 544.393 1308.97 524.6 1298.37 503.865 1281.18 C 493.756 1272.82 484.395 1263.6 475.891 1253.61 C 464.615 1240.28 424.97 1182.73 423.473 1167.1 C 421.682 1163.54 420.116 1161.5 420.573 1157.62 L 421.871 1155.99 C 426.361 1156.48 431.959 1163.5 434.772 1167.22 C 466.119 1208.68 514.298 1251.22 562.593 1271.23 C 571.986 1275.12 582.63 1277.11 592.604 1279.45 C 604.655 1299.68 631.744 1340.09 662.274 1315.43 C 669.301 1309.76 670.066 1294.66 668.175 1286.87 C 666.962 1281.02 661.466 1276.79 665.141 1270.95 L 667.038 1270.34 C 679.045 1279.56 709.356 1302.39 723.131 1285.58 C 727.576 1280.25 729.602 1273.32 728.722 1266.44 C 725.546 1243.43 697.171 1232.62 693.841 1222.28 C 698.805 1220.02 709.026 1225.77 713.635 1227.99 C 723.221 1225.94 732.849 1221.02 733.959 1210.46 C 737.427 1177.48 695.748 1174.38 674.778 1169.68 z" fill="rgb(29,27,28)" transform="translate(0,0)"></path>
<path d="M 423.473 1167.1 C 462.398 1225.45 510.964 1277.02 581.806 1294.68 C 595.064 1314.29 610.234 1333.56 634.669 1338.34 C 663.527 1343.99 677.337 1330.23 684.982 1304.55 C 717.045 1310.18 745.041 1307.12 747.396 1267.03 C 749.584 1276.12 751.884 1284.1 749.342 1293.42 C 740.871 1324.44 717.201 1329.7 689.61 1322.35 C 684.737 1334.23 679.93 1342.31 669.351 1350.14 C 657.326 1359.04 642.239 1362.75 627.459 1360.45 C 603.642 1356.64 583.242 1336.7 569.936 1317.74 C 544.393 1308.97 524.6 1298.37 503.865 1281.18 C 493.756 1272.82 484.395 1263.6 475.891 1253.61 C 464.615 1240.28 424.97 1182.73 423.473 1167.1 z" fill="rgb(73,167,91)" transform="translate(0,0)"></path>
<path d="M 1450.66 1413.74 C 1454.59 1413.34 1457.47 1414.1 1460.58 1416.45 C 1464.72 1426.88 1446.52 1438.67 1439.2 1444.7 C 1393.01 1482.16 1340.4 1510.92 1283.94 1529.6 C 1136.23 1578.25 978.824 1575.86 838.504 1504.95 C 831.719 1501.58 822.199 1497.77 825.051 1488.42 C 828.042 1486.5 831.727 1485.83 834.937 1487.43 C 846.47 1493.21 857.995 1498.21 869.991 1502.9 C 903.757 1515.9 938.551 1526.06 974.01 1533.26 C 1105.95 1558.86 1251.38 1538.76 1368.41 1471.36 C 1386.59 1460.88 1404.11 1449.32 1420.89 1436.73 C 1430.28 1429.6 1439.76 1420.97 1449.44 1414.54 L 1450.66 1413.74 z" fill="rgb(29,27,28)" transform="translate(0,0)"></path>
<path d="M 775.384 565.424 C 800.478 564.486 823.406 566.989 847.423 574.994 C 855.04 577.533 864.91 582.88 861.289 593.354 C 857.807 603.426 843.58 595.165 837.158 592.944 C 798.176 579.461 760.433 581.969 722.937 598.037 C 710.68 603.579 698.522 612.279 688.611 621.394 C 683.335 626.246 677.841 632.353 672.172 636.498 C 666.651 636.999 662.61 635.271 660.398 630.111 C 660.524 624.231 663.82 619.607 667.772 615.335 C 698.428 582.2 731.717 568.618 775.384 565.424 z" fill="rgb(29,27,28)" transform="translate(0,0)"></path>
<path d="M 1252.57 565.426 C 1295.2 564.575 1337.05 575.414 1368.43 605.751 C 1375.28 612.216 1393.87 629.652 1376.64 635.732 C 1369.41 638.285 1360.6 624.425 1355.24 619.495 C 1348.56 613.344 1344.25 610.134 1336.46 605.111 C 1297.65 582.572 1246.32 577.484 1204.03 594.201 C 1193.67 600.91 1178.31 589.998 1187.85 580.945 C 1199.27 570.095 1239.57 566.126 1252.57 565.426 z" fill="rgb(29,27,28)" transform="translate(0,0)"></path>
<path d="M 1511.49 667.775 C 1509.54 665.365 1498.06 658.972 1504.78 654.423 C 1504.43 654.498 1507.26 653.012 1507.25 653.014 L 1507.21 652.774 C 1511.45 650.697 1509.01 662.05 1516.78 662.812 C 1517.65 663.853 1523.78 674.992 1522.38 675.887 C 1521.26 675.857 1518.92 674.419 1517.87 673.922 C 1516.18 670.95 1517.22 660.515 1511.49 667.775 z" fill="rgb(189,217,160)" fill-opacity="0.929412" transform="translate(0,0)"></path>
<path d="M 1511.49 667.775 C 1517.22 660.515 1516.18 670.95 1517.87 673.922 L 1513.46 671.515 L 1511.49 667.775 z" fill="rgb(189,217,160)" fill-opacity="0.909804" transform="translate(0,0)"></path>
<metadata><recraft-signature>{"signed_by": "recraft", "signature_b64": "28niBDd26mmxLzXGni5IJcws1wstJL0h6q5XhktE+wJY6ulgmPiiXnObA7P28tPrtT1Yn48AQeyvieWAUfQNDQ==", "signing_algo": "Ed25519", "generation_timestamp": 1782415618, "identifier": "76a55ddc-76b5-43ef-852c-9d4df9f5fab8"}</recraft-signature></metadata></svg>