<svg xmlns="http://www.w3.org/2000/svg" height="1024" preserveAspectRatio="none" style="display: block;" version="1.1" viewBox="0 0 2048 2048" width="1024">
<defs>
	<linearGradient gradientUnits="userSpaceOnUse" id="Gradient1" x1="986.932" x2="989.453" y1="1403.02" y2="1414.25">
		<stop class="stop0" offset="0" stop-color="rgb(255,254,255)" stop-opacity="0.776471"></stop>
		<stop class="stop1" offset="1" stop-color="rgb(255,255,255)" stop-opacity="0.862745"></stop>
	</linearGradient>
	<linearGradient gradientUnits="userSpaceOnUse" id="Gradient2" x1="873.056" x2="862.619" y1="1412.92" y2="1385.48">
		<stop class="stop0" offset="0" stop-color="rgb(255,255,255)" stop-opacity="0.788235"></stop>
		<stop class="stop1" offset="1" stop-color="rgb(255,255,255)" stop-opacity="0.835294"></stop>
	</linearGradient>
	<linearGradient gradientUnits="userSpaceOnUse" id="Gradient3" x1="939.717" x2="899.375" y1="1235.05" y2="1450.48">
		<stop class="stop0" offset="0" stop-color="rgb(119,115,132)" stop-opacity="1"></stop>
		<stop class="stop1" offset="1" stop-color="rgb(164,159,171)" stop-opacity="1"></stop>
	</linearGradient>
	<linearGradient gradientUnits="userSpaceOnUse" id="Gradient4" x1="1684.85" x2="970.365" y1="1165.35" y2="671.203">
		<stop class="stop0" offset="0" stop-color="rgb(240,162,171)" stop-opacity="1"></stop>
		<stop class="stop1" offset="1" stop-color="rgb(204,225,177)" stop-opacity="1"></stop>
	</linearGradient>
</defs>
<path d="M 1733.89 506.36 C 1743.91 505.023 1754.1 506.63 1763.22 510.984 C 1778.57 518.216 1787.81 530.687 1793.11 546.469 C 1795.4 553.272 1793.77 565.313 1792.75 572.614 C 1786.23 619.444 1779.47 666.321 1772.58 713.091 L 1738.25 948.004 L 1702.21 1197.61 C 1698.86 1220.48 1688.81 1307.43 1680.88 1322.97 C 1673.67 1337.12 1661.8 1344.55 1647.23 1349.41 C 1644.07 1359.29 1641.19 1366.14 1632.18 1372.47 C 1628.4 1375.14 1624.18 1377.14 1619.72 1378.4 C 1606.48 1382.1 1575.38 1386.7 1560.83 1389.22 L 1441.2 1409.68 L 1176.49 1455.18 C 1148.77 1460.28 1121.01 1465.16 1093.21 1469.83 C 1086.88 1470.89 1057.76 1476 1053.54 1475.57 C 1040.46 1474.23 1018.53 1470.12 1004.72 1467.83 C 963.021 1460.57 921.269 1453.64 879.464 1447.05 L 374.213 1362.37 C 343.65 1355.71 310.72 1352.55 279.897 1346.38 C 265.413 1343.56 248.272 1342.87 234.549 1337.85 C 217.008 1331.43 204.633 1309.92 205.747 1291.59 C 206.041 1286.76 211.428 1282.86 214.783 1280.09 C 226.339 1277.67 258.513 1275.85 271.19 1274.87 L 382.908 1266.41 L 643.904 1246.51 C 694.313 1242.76 749.634 1239.73 799.576 1234.8 C 795.984 1220.55 791.76 1214.9 795.128 1199.23 C 801.645 1168.92 808.187 1138.6 814.603 1108.26 L 851.048 933.212 L 880.552 789.136 C 885.848 762.824 890.787 736.523 896.542 710.289 C 900.989 690.016 916.171 669.651 936.953 664.149 C 963.19 657.202 990.933 652.49 1017.69 647.119 L 1197.02 611.791 L 1486.6 554.731 L 1634.79 525.512 C 1667.6 519.045 1700.95 511.835 1733.89 506.36 z M 1630.02 1361.1 C 1606.86 1366.87 1571.11 1370.52 1546.3 1374.69 L 1349.48 1407.59 L 1146.88 1441.74 C 1121.77 1445.84 1096.74 1451.54 1071.51 1454.8 C 1056.35 1456.76 1046.49 1452.09 1035.96 1441.42 C 1002.67 1437.69 964.418 1430.45 931.063 1424.91 L 789.206 1401.94 C 732.864 1393.18 676.591 1383.97 620.392 1374.34 C 599.512 1370.87 574.998 1367.71 554.703 1363.7 C 554.492 1363.33 554.231 1363 554.281 1362.72 C 556.982 1360.84 561.807 1364.71 567.493 1361.84 C 572.9 1364.89 630.499 1374.61 636.135 1373.28 C 646.154 1370.47 670.352 1377.15 682.204 1378.61 C 683.454 1379.07 711.843 1383.04 712.534 1382.98 C 715.626 1383.71 717.456 1384.08 720.48 1385.13 C 724.868 1386.27 730.41 1386.81 734.968 1387.14 C 741.445 1388.19 760.376 1390.89 766.771 1390.99 L 767.61 1391 C 773.379 1393.73 797.828 1397.55 804.433 1397.69 C 808.419 1398.3 814.983 1399.33 818.729 1400.38 L 823.251 1403.58 L 822.804 1404.29 C 827.923 1405.68 833.551 1406.58 838.821 1407.38 C 867.221 1411.71 895.675 1416.48 924.116 1420.49 C 931.055 1421.9 936.455 1422.82 943.475 1423.71 C 955.167 1426.42 967.692 1427.47 979.51 1429.78 C 982.598 1430.34 985.92 1430.63 988.993 1431.16 C 993.328 1431.91 997.659 1432.5 1001.99 1433.2 C 1010.32 1434.54 1018.65 1435.95 1027 1437.11 C 1026.9 1437.1 1032.11 1438.1 1032.68 1437.45 C 1032.33 1434.61 1031.14 1431.48 1030.43 1428.56 C 1030.49 1426.87 1030.53 1426.56 1030.26 1424.89 C 1031.43 1421.42 1032.13 1419.51 1033.8 1416.29 C 1035.83 1414.12 1037.89 1411.55 1039.83 1409.26 C 1035.64 1408.39 1031.25 1407.5 1027.05 1406.7 C 1020.9 1405.8 1014.53 1405.14 1008.34 1404.32 C 1002.04 1403.75 995.266 1402.73 989.02 1401.66 L 982.071 1401.02 L 979.244 1400.5 C 960.534 1397.73 940.295 1394.31 921.637 1392.38 C 896.467 1387.75 848.836 1381.01 823.149 1378.79 C 820.675 1377.64 810.057 1376.33 807.364 1376.37 C 800.863 1378.7 796.098 1378.25 789.081 1378.04 C 784.288 1377.02 779.59 1376.3 774.763 1375.29 C 771.436 1373.7 754.6 1373.52 749.987 1372.15 C 743.498 1370.24 742.08 1371.94 735.856 1372.75 L 731.989 1373.23 C 730.685 1372.77 729.483 1372.39 728.526 1371.44 C 722.743 1366.09 712.641 1366.88 705.509 1365.25 C 700.394 1364.09 698.772 1363.85 694.758 1360.85 C 691.535 1359.61 674.539 1358.05 670.948 1358.21 C 632.33 1350.83 580.406 1345.3 541.327 1340.46 C 538.893 1340.01 537.052 1339.95 534.571 1339.8 C 517.855 1336.35 469.76 1329.56 453.288 1328.22 C 440.249 1325.43 422.972 1323.78 409.496 1322.12 L 395.739 1320.48 C 391.878 1319.35 363.106 1315.91 357.315 1315.24 C 331.221 1312.25 304.142 1308.08 278.093 1305.63 C 277.347 1305.37 276.819 1305.17 276.015 1305.08 C 256.674 1302.9 237.333 1299.55 217.967 1297.88 C 214.15 1297.55 215.927 1301.4 216.24 1303.88 C 219.984 1313.68 226.476 1324.59 237.155 1327.64 C 253.926 1332.42 272.69 1334.77 289.913 1337.65 L 396.622 1355.53 L 899.739 1439.45 L 1000.74 1456.86 C 1045.99 1464.75 1047.47 1467.35 1092.7 1459.5 L 1158.5 1447.82 C 1232.69 1435.55 1306.79 1422.68 1380.77 1409.23 L 1557.19 1379.13 C 1576.98 1375.56 1614.3 1371.09 1630.02 1361.1 z M 1590.79 1356.19 C 1591.75 1355.42 1591.97 1354.04 1591.29 1353.01 C 1590.61 1351.98 1589.25 1351.64 1588.17 1352.22 C 1587.37 1352.65 1586.89 1353.49 1586.91 1354.4 C 1586.94 1355.3 1587.48 1356.11 1588.3 1356.49 C 1589.12 1356.87 1590.08 1356.75 1590.79 1356.19 z M 453.163 1322.62 C 478.121 1327.97 721.767 1361.47 731.058 1359.35 C 724.93 1357.62 709.35 1356.07 702.524 1355.2 L 651.609 1348.61 C 584.986 1339.7 519.453 1331.74 453.174 1320.27 L 452.412 1317.5 L 453.869 1315.54 C 461.704 1312.67 486.183 1310.13 495.427 1308.96 L 569.912 1299.58 C 592.227 1296.72 618.622 1291.59 640.301 1289.72 C 641.037 1289.73 641.773 1289.74 642.509 1289.75 L 644.89 1290.11 L 644.199 1288.09 C 613.701 1285.47 582.431 1279.82 551.91 1276.59 C 547.082 1276.08 539.652 1274.88 536.777 1270.93 C 537.685 1268.03 536.883 1269.33 540.049 1267.48 L 536.746 1265.08 C 522.526 1265.34 501.194 1267.84 486.53 1268.97 L 383.856 1276.58 C 346.168 1278.87 308.511 1281.66 270.896 1284.94 C 259.281 1285.98 234.501 1287.59 223.78 1289.98 C 257.976 1293.6 294.076 1299.74 328.225 1304.75 C 369.601 1310.81 411.924 1316.04 453.163 1322.62 z M 1149.2 639.165 L 1149.95 638.205 C 1152.63 634.836 1148.92 634.94 1146.13 634.241 L 1145.21 635.086 C 1141.89 638.055 1146.66 638.32 1149.2 639.165 z M 854.058 1001.1 C 854.651 999.003 855.117 997.238 855.61 995.101 C 856.635 987.98 859.528 979.962 860.021 972.987 C 860.796 967.43 862.098 961.614 863.664 956.221 C 864.768 950.453 867.811 939.539 867.787 934.255 C 868.688 929.116 869.938 922.528 871.289 917.486 C 872.86 912.429 874.346 904.076 875.142 898.76 C 875.145 897.812 875.102 897.745 875.301 896.863 C 876.703 891.005 878.054 884.883 879.56 879.09 C 880.582 872.798 884.053 863.152 883.863 857.159 C 884.827 852.317 888.363 839.663 886.169 835.274 L 884.605 834.938 C 881.353 837.144 880.021 849.478 878.603 854.003 C 877.045 857.741 875.097 866.711 874.86 870.826 C 873.743 879.437 870.55 888.052 869.644 897.057 C 869.097 898.379 868.78 899.592 868.364 900.976 C 867.527 904.663 866.545 908.333 866.428 912.134 L 866.027 913.995 C 865.392 916.738 864.164 925.655 863.141 927.82 C 861.635 932.628 859.161 943.434 858.821 948.43 C 857.219 957.002 855.63 965.517 853.658 973.993 C 852.595 976.346 852.168 978.258 852.138 980.794 C 851.096 984.02 850.108 987.659 850.111 991.058 C 849.199 995.211 848.718 998.545 847.624 1002.75 C 848.209 1006.49 847.413 1010.04 851.551 1010.82 C 852.38 1007.55 853.121 1004.35 854.058 1001.1 z M 892.088 788.806 C 891.052 792.124 890.146 795.558 889.874 799.029 C 889.478 801.892 889.151 803.487 888.456 806.259 C 888.011 808.325 884.904 822.858 885.608 824.055 C 890.369 823.597 892.186 816.912 892.578 813.113 C 893.581 808.972 894.344 804.925 895.351 800.885 C 896.052 799.737 895.976 799.75 896.071 798.365 C 897.607 792.51 898.832 786.584 900.304 780.713 C 901.367 775.359 902.636 770.548 903.588 765.146 L 903.811 764.39 C 904.219 763.053 904.616 761.867 904.904 760.492 L 906.743 751.987 C 907.669 747.697 908.657 743.375 909.399 739.052 C 910.764 735.858 911.15 730.872 911.682 727.359 C 908.839 722.911 909.974 724.38 905.242 722.99 C 904.045 729.488 902.616 735.946 901.633 742.483 L 901.374 744.201 L 901.196 745.477 L 900.317 749.533 C 899.248 754.477 898.281 759.789 897.085 764.643 L 896.774 765.963 L 895.294 773.014 L 893.388 782.28 C 892.855 784.449 892.255 786.571 892.088 788.806 z M 1704.81 523.056 C 1705.42 525.343 1705.45 525.457 1706.39 527.507 C 1709.63 527.025 1711.86 526.785 1715.09 526.061 C 1722.15 524.759 1727.37 523.273 1734.61 522.676 C 1738.52 523.077 1743.22 523.554 1746.82 525.134 C 1748.86 524.333 1752.79 523.405 1753.24 523.21 L 1753.23 522.873 C 1752.42 522.116 1746.78 519.476 1744.77 518.111 C 1737.75 516.651 1737.27 516.625 1730.2 518.144 C 1723.99 518.62 1717.54 520.932 1711.76 521.082 L 1704.81 523.056 z M 847.538 1031.16 C 846.036 1029.07 844.736 1027.63 842.211 1029.01 C 841.56 1031.37 841.267 1032.41 840.959 1034.83 C 839.618 1039.85 838.989 1043.1 838.331 1048.16 C 840.886 1050.12 841.219 1050.14 844.261 1049.31 C 844.945 1046.21 845.292 1043.7 846.115 1040.54 C 846.701 1037.32 847.044 1034.36 847.538 1031.16 z M 813.719 1237.12 C 811.427 1222.3 811.781 1219.97 811.77 1205.87 C 811.96 1204.25 812.122 1203.14 812.406 1201.51 L 812.72 1200.47 C 814.391 1195.09 814.772 1190.36 816.087 1185.04 C 817.224 1182.79 819.444 1170.86 819.505 1168.13 C 820.147 1164.56 825.233 1147.15 821.485 1144.66 C 817.359 1141.93 814.804 1164.88 814.127 1167.99 C 812.221 1168.99 810.357 1180.86 810.15 1183.2 C 808.836 1190.05 807.271 1195.1 806.633 1202.28 C 804.12 1207.31 805.331 1216.64 807.259 1221.92 C 807.74 1226.51 811.51 1232.62 813.719 1237.12 z M 1386.03 585.571 C 1384.41 585.86 1383.71 585.896 1382.19 586.425 C 1382.3 586.776 1382.73 587.77 1382.68 587.941 C 1381.49 591.76 1390.88 590.988 1391.02 588.587 C 1390.35 587.779 1388.02 587.43 1386.03 585.571 z M 836.899 1083.09 L 837.297 1081.89 C 838.647 1077.45 838.998 1074.36 839.894 1069.97 C 836.889 1069.07 836.946 1069.02 833.767 1069.75 C 832.998 1073.1 831.844 1077.68 831.563 1080.95 C 832.041 1085.66 830.869 1088.73 835.968 1089.25 C 836.686 1086.45 836.692 1086.08 836.899 1083.09 z M 1428.81 577.302 C 1426.08 577.797 1423.36 578.225 1420.65 578.758 C 1424.06 581.085 1433.39 586.634 1428.81 577.302 z M 1463.08 570.412 C 1466.8 575.226 1471 578.551 1470.42 569.115 C 1467.92 569.603 1465.58 569.996 1463.08 570.412 z M 919.32 703.161 C 914.422 697.675 911.407 709.851 912.251 710.616 C 913.702 710.34 914.378 710.029 916.077 709.729 C 917.294 707.368 918.253 705.638 919.32 703.161 z M 943.054 673.675 C 942.31 673.86 941.567 674.044 940.823 674.229 C 941.554 676.766 940.959 675.935 941.196 678.382 C 941.451 678.728 948.301 680.634 943.054 673.675 z M 564.716 1270.69 C 563.981 1270.63 563.265 1270.42 562.582 1270.68 L 562.578 1270.79 C 563.189 1271.26 564.096 1271.35 564.81 1271.51 L 564.716 1270.69 z M 1178.88 626.571 C 1180.2 627.867 1180.25 627.676 1180.43 629.449 C 1181.79 630.828 1186.7 630.191 1188.07 629.716 C 1194.3 627.56 1181.24 626.181 1180.57 626.091 C 1179.63 626.217 1179.75 626.189 1178.88 626.571 z M 1548.99 553.471 C 1547 553.824 1545.13 554.079 1543.15 554.389 C 1544.77 556.91 1545.29 558.09 1547.16 560.701 C 1548.38 560.355 1549.58 559.985 1550.78 559.592 C 1549.82 557.836 1549.81 557.257 1549.44 555.209 L 1548.99 553.471 z M 1502.53 562.658 C 1504.7 565.343 1505.55 566.13 1508.07 568.501 C 1508.99 568.206 1509.9 567.899 1510.82 567.581 C 1509.64 565.185 1510.07 564.155 1509.48 561.506 C 1507.13 561.942 1504.87 562.223 1502.53 562.658 z M 1340.25 594.76 C 1342.13 596.624 1346.69 600.55 1350.73 597.788 C 1352.08 596.865 1349.02 594.717 1347.94 593.232 C 1346.96 593.432 1345.98 593.633 1344.99 593.834 C 1343.41 594.165 1341.83 594.474 1340.25 594.76 z M 826.451 1106.75 C 825.491 1110.77 824.552 1114.41 823.765 1118.48 L 822.86 1122.97 C 822.78 1123.37 817.177 1145.14 824.82 1134.59 C 827.98 1130.23 830.47 1114.73 831.529 1108.77 C 829.602 1106.84 829.259 1106.93 826.451 1106.75 z" fill="rgb(24,23,23)" transform="translate(0,0)"></path>
<path d="M 1716.81 574.371 C 1727.12 572.906 1730.64 578.693 1730.17 587.877 C 1729.4 603.173 1725.11 619.071 1723.04 634.209 C 1715.04 690.088 1706.74 745.922 1698.13 801.71 L 1655.84 1082.62 C 1648.16 1135.9 1640.15 1189.12 1631.83 1242.3 C 1630.4 1250.88 1625.23 1257.16 1615.89 1256.56 C 1589.51 1254.86 1563.14 1252.87 1536.77 1251.09 L 1365.92 1239.36 L 899.753 1208.85 C 887.686 1207.98 847.286 1209.37 840.468 1197.69 C 837.563 1192.7 842.425 1178.48 843.636 1171.9 C 848.266 1147.59 853.128 1123.32 858.221 1099.1 L 911.844 838.176 L 926.808 762.71 C 929.384 749.715 933.246 726.622 937.793 715.231 C 949.962 710.476 1003.32 702.306 1018.64 699.611 L 1176.05 671.271 L 1565.33 601.642 L 1674.16 582.454 C 1688.42 579.901 1702.58 576.615 1716.81 574.371 z" fill="url(#Gradient4)" transform="translate(0,0)"></path>
<path d="M 564.716 1270.69 C 579.24 1268.51 596.957 1267.23 611.769 1265.76 L 703.796 1256.68 C 724.951 1254.56 746.081 1252.2 767.182 1249.59 C 778.961 1248.13 796.982 1245.33 808.171 1244.71 C 832.899 1266 844.766 1262.37 875.981 1264.32 C 896.701 1265.55 917.411 1266.94 938.11 1268.49 L 1182.56 1286.22 C 1259.64 1292.57 1336.75 1298.52 1413.89 1304.07 C 1434.6 1305.76 1455.29 1307.58 1475.98 1309.51 C 1484.44 1310.27 1500.92 1312.52 1508.78 1311.86 L 1511.22 1314.17 C 1495.18 1315.82 1479.48 1318.78 1463.58 1321.4 C 1404.17 1331.22 1344.31 1340.08 1284.66 1348.06 C 1278.36 1348.9 1264.2 1346.57 1257.26 1345.83 C 1241.23 1344.12 1224.87 1342.22 1208.82 1340.62 C 1150.48 1335.01 1092.19 1328.97 1033.95 1322.52 C 975.68 1316.24 917.178 1311.33 858.874 1305.45 C 760.624 1296.22 662.58 1284.9 564.81 1271.51 L 564.716 1270.69 z" fill="rgb(162,158,168)" transform="translate(0,0)"></path>
<path d="M 644.199 1288.09 C 661.971 1289.69 679.722 1292.09 697.506 1293.7 C 703.484 1294.24 710.488 1294.69 716.334 1295.76 C 787.093 1303.49 857.91 1310.67 928.78 1317.31 C 940.59 1336.54 956.418 1354.86 970.828 1372.22 C 977.188 1379.88 985.77 1389.38 991.159 1397.49 L 840.816 1376.21 C 807.019 1371.53 766.98 1366.93 733.993 1360.74 L 733.067 1359.2 L 731.058 1359.35 C 724.93 1357.62 709.35 1356.07 702.524 1355.2 L 651.609 1348.61 C 584.986 1339.7 519.453 1331.74 453.174 1320.27 L 452.412 1317.5 L 453.869 1315.54 C 461.704 1312.67 486.183 1310.13 495.427 1308.96 L 569.912 1299.58 C 592.227 1296.72 618.622 1291.59 640.301 1289.72 C 641.037 1289.73 641.773 1289.74 642.509 1289.75 L 644.89 1290.11 L 644.199 1288.09 z" fill="rgb(24,23,23)" transform="translate(0,0)"></path>
<path d="M 716.334 1295.76 C 787.093 1303.49 857.91 1310.67 928.78 1317.31 C 940.59 1336.54 956.418 1354.86 970.828 1372.22 C 977.188 1379.88 985.77 1389.38 991.159 1397.49 L 840.816 1376.21 C 807.019 1371.53 766.98 1366.93 733.993 1360.74 L 733.067 1359.2 C 757.265 1355.56 784.257 1348.92 809.249 1345.09 C 840.386 1339.5 871.709 1334.92 902.897 1329.66 C 906.784 1329.01 913.201 1327.88 914.271 1323.76 C 907.446 1319.66 735.515 1300.05 716.049 1297.97 L 716.334 1295.76 z" fill="rgb(226,225,226)" transform="translate(0,0)"></path>
<path d="M 644.199 1288.09 C 661.971 1289.69 679.722 1292.09 697.506 1293.7 C 703.484 1294.24 710.488 1294.69 716.334 1295.76 L 716.049 1297.97 C 692.837 1296.28 668.227 1292.6 644.89 1290.11 L 644.199 1288.09 z" fill="rgb(162,158,168)" transform="translate(0,0)"></path>
<path d="M 472.595 1317.25 C 510.222 1312.66 547.822 1307.85 585.391 1302.81 C 598.178 1301.03 631.614 1294.86 642.417 1295.18 C 662.262 1295.76 691.672 1300.28 711.935 1302.86 L 817.137 1315.78 C 838.677 1318.48 869.634 1322.99 890.703 1324.2 L 891.439 1325.36 C 877.144 1329.47 832.312 1335.55 815.613 1338.48 L 761.748 1348.31 C 756.896 1349.2 734.835 1353.37 731.009 1353.14 C 709.461 1351.84 684.7 1347.65 663.138 1344.84 L 531.123 1327.5 C 513.4 1325.17 494.827 1321.96 477.196 1320.11 C 475.314 1320.07 467.606 1320.39 466.613 1318.33 L 466.651 1318.28 L 466.813 1318.3 L 467.316 1317.53 L 466.706 1317.85 C 469.051 1316.95 470.061 1317.02 472.595 1317.25 z" fill="rgb(162,158,168)" transform="translate(0,0)"></path>
<path d="M 477.196 1320.11 C 475.314 1320.07 467.606 1320.39 466.613 1318.33 L 466.651 1318.28 L 466.813 1318.3 L 467.316 1317.53 L 466.706 1317.85 C 469.051 1316.95 470.061 1317.02 472.595 1317.25 C 472.395 1317.56 472.195 1317.86 471.996 1318.17 C 472.164 1318.91 476.382 1319.83 477.196 1320.11 z" fill="rgb(94,94,94)" transform="translate(0,0)"></path>
<path d="M 890.703 1324.2 C 891.631 1324.28 892.921 1324.16 893.56 1324.99 C 893.429 1325.78 891.712 1325.38 891.439 1325.36 L 890.703 1324.2 z" fill="rgb(94,94,94)" transform="translate(0,0)"></path>
<path d="M 216.24 1303.88 C 225.042 1306.32 254.795 1311.86 263.749 1311.96 C 271.147 1308.83 275.793 1313.33 278.093 1305.63 C 304.142 1308.08 331.221 1312.25 357.315 1315.24 C 363.106 1315.91 391.878 1319.35 395.739 1320.48 C 394.593 1321.16 393.895 1321.85 392.879 1322.72 C 387.982 1322.77 372.681 1321.13 365.966 1320.75 C 358.533 1319.18 360.75 1323.49 368.103 1325.29 C 369.533 1325.31 390.705 1327.99 391.908 1328.32 C 396.821 1329.4 402.125 1328.7 406.403 1330.7 C 413.146 1333.86 413.551 1335.18 420.986 1334.14 C 423.044 1334.19 441.833 1335.98 437.855 1329.4 C 443.831 1328.49 446.818 1329.59 453.288 1328.22 C 469.76 1329.56 517.855 1336.35 534.571 1339.8 L 530.495 1340.96 C 520.43 1343.8 513.957 1334.85 505.669 1346.87 L 505.586 1347.58 C 506.004 1348.04 527.813 1354.18 530.675 1355.11 C 536.163 1356.28 540.393 1355.72 546.889 1357.32 C 551.742 1357.85 563.704 1359.28 567.493 1361.84 C 561.807 1364.71 556.982 1360.84 554.281 1362.72 C 554.231 1363 554.492 1363.33 554.703 1363.7 C 574.998 1367.71 599.512 1370.87 620.392 1374.34 C 676.591 1383.97 732.864 1393.18 789.206 1401.94 L 931.063 1424.91 C 964.418 1430.45 1002.67 1437.69 1035.96 1441.42 C 1046.49 1452.09 1056.35 1456.76 1071.51 1454.8 C 1096.74 1451.54 1121.77 1445.84 1146.88 1441.74 L 1349.48 1407.59 L 1546.3 1374.69 C 1571.11 1370.52 1606.86 1366.87 1630.02 1361.1 C 1614.3 1371.09 1576.98 1375.56 1557.19 1379.13 L 1380.77 1409.23 C 1306.79 1422.68 1232.69 1435.55 1158.5 1447.82 L 1092.7 1459.5 C 1047.47 1467.35 1045.99 1464.75 1000.74 1456.86 L 899.739 1439.45 L 396.622 1355.53 L 289.913 1337.65 C 272.69 1334.77 253.926 1332.42 237.155 1327.64 C 226.476 1324.59 219.984 1313.68 216.24 1303.88 z M 516.033 1356.67 C 515.188 1356.35 515.32 1356.37 514.426 1356.31 C 515.062 1356.8 515.162 1356.67 516.033 1356.67 z M 278.093 1305.63 C 275.793 1313.33 271.147 1308.83 263.749 1311.96 L 444.347 1341.49 C 452.065 1342.8 491.503 1348.89 495.65 1350.96 C 501.197 1351.53 529.411 1359.13 530.675 1355.11 C 527.813 1354.18 506.004 1348.04 505.586 1347.58 L 505.669 1346.87 C 513.957 1334.85 520.43 1343.8 530.495 1340.96 L 534.571 1339.8 C 517.855 1336.35 469.76 1329.56 453.288 1328.22 C 446.818 1329.59 443.831 1328.49 437.855 1329.4 C 441.833 1335.98 423.044 1334.19 420.986 1334.14 C 413.551 1335.18 413.146 1333.86 406.403 1330.7 C 402.125 1328.7 396.821 1329.4 391.908 1328.32 C 390.705 1327.99 369.533 1325.31 368.103 1325.29 C 360.75 1323.49 358.533 1319.18 365.966 1320.75 C 372.681 1321.13 387.982 1322.77 392.879 1322.72 C 393.895 1321.85 394.593 1321.16 395.739 1320.48 C 391.878 1319.35 363.106 1315.91 357.315 1315.24 C 331.221 1312.25 304.142 1308.08 278.093 1305.63 z" fill="url(#Gradient3)" transform="translate(0,0)"></path>
<path d="M 278.093 1305.63 C 304.142 1308.08 331.221 1312.25 357.315 1315.24 C 363.106 1315.91 391.878 1319.35 395.739 1320.48 C 394.593 1321.16 393.895 1321.85 392.879 1322.72 C 387.982 1322.77 372.681 1321.13 365.966 1320.75 C 358.533 1319.18 360.75 1323.49 368.103 1325.29 C 369.533 1325.31 390.705 1327.99 391.908 1328.32 C 396.821 1329.4 402.125 1328.7 406.403 1330.7 C 413.146 1333.86 413.551 1335.18 420.986 1334.14 C 423.044 1334.19 441.833 1335.98 437.855 1329.4 C 443.831 1328.49 446.818 1329.59 453.288 1328.22 C 469.76 1329.56 517.855 1336.35 534.571 1339.8 L 530.495 1340.96 C 520.43 1343.8 513.957 1334.85 505.669 1346.87 L 505.586 1347.58 C 506.004 1348.04 527.813 1354.18 530.675 1355.11 C 529.411 1359.13 501.197 1351.53 495.65 1350.96 C 491.503 1348.89 452.065 1342.8 444.347 1341.49 L 263.749 1311.96 C 271.147 1308.83 275.793 1313.33 278.093 1305.63 z M 334.269 1318.1 C 339.509 1318.3 344.618 1317.88 349.837 1317.52 C 344.914 1316.47 338.442 1314.78 333.474 1314.97 L 331.312 1314.84 C 327.634 1314.02 314.748 1312.91 311.707 1314.42 C 311.508 1314.74 311.55 1314.57 311.561 1314.92 C 312.813 1316.42 316.252 1316.53 318.021 1316.66 C 325.425 1319.02 326.745 1318.66 334.269 1318.1 z" fill="rgb(254,254,254)" transform="translate(0,0)"></path>
<path d="M 331.312 1314.84 L 333.474 1314.97 C 334.728 1316.34 335.082 1316.38 334.269 1318.1 C 326.745 1318.66 325.425 1319.02 318.021 1316.66 C 322.137 1313.8 325.012 1315.28 331.312 1314.84 z" fill="rgb(254,254,254)" fill-opacity="0.396078" transform="translate(0,0)"></path>
<path d="M 318.021 1316.66 C 316.252 1316.53 312.813 1316.42 311.561 1314.92 C 311.55 1314.57 311.508 1314.74 311.707 1314.42 C 314.748 1312.91 327.634 1314.02 331.312 1314.84 C 325.012 1315.28 322.137 1313.8 318.021 1316.66 z" fill="rgb(254,254,254)" fill-opacity="0.541176" transform="translate(0,0)"></path>
<path d="M 333.474 1314.97 C 338.442 1314.78 344.914 1316.47 349.837 1317.52 C 344.618 1317.88 339.509 1318.3 334.269 1318.1 C 335.082 1316.38 334.728 1316.34 333.474 1314.97 z" fill="rgb(254,254,254)" fill-opacity="0.517647" transform="translate(0,0)"></path>
<path d="M 495.65 1350.96 C 501.197 1351.53 529.411 1359.13 530.675 1355.11 C 536.163 1356.28 540.393 1355.72 546.889 1357.32 C 551.742 1357.85 563.704 1359.28 567.493 1361.84 C 561.807 1364.71 556.982 1360.84 554.281 1362.72 C 554.231 1363 554.492 1363.33 554.703 1363.7 C 541.931 1362.61 528.689 1358.46 516.033 1356.67 C 515.188 1356.35 515.32 1356.37 514.426 1356.31 C 508.501 1354.76 500.72 1354.18 495.65 1350.96 z" fill="rgb(60,58,60)" transform="translate(0,0)"></path>
<path d="M 1042.29 1413.7 C 1045.28 1411.04 1047.37 1409.2 1051.4 1408.64 C 1063.62 1406.94 1076 1405.48 1088.22 1403.83 L 1161.65 1393.48 L 1395.21 1358.51 L 1543.65 1335.59 C 1572.48 1331.04 1602.51 1325.01 1631.67 1323.92 C 1639.35 1323.63 1643.37 1333.88 1642.35 1340.66 C 1641.63 1345.64 1638.8 1350.07 1634.59 1352.8 C 1625.35 1358.71 1564.2 1365.87 1549.52 1368.29 L 1332.31 1404.45 L 1184.98 1429.57 C 1149.54 1435.86 1114.1 1442.25 1078.59 1448.12 C 1064.78 1450.4 1049.04 1450.06 1040.12 1437.17 C 1033.67 1427.66 1035.42 1422.03 1042.29 1413.7 z M 1590.79 1356.19 C 1591.75 1355.42 1591.97 1354.04 1591.29 1353.01 C 1590.61 1351.98 1589.25 1351.64 1588.17 1352.22 C 1587.37 1352.65 1586.89 1353.49 1586.91 1354.4 C 1586.94 1355.3 1587.48 1356.11 1588.3 1356.49 C 1589.12 1356.87 1590.08 1356.75 1590.79 1356.19 z" fill="rgb(165,161,196)" transform="translate(0,0)"></path>
<path d="M 1040.12 1437.17 C 1033.67 1427.66 1035.42 1422.03 1042.29 1413.7 C 1039.8 1423.37 1040.83 1427.37 1040.12 1437.17 z" fill="rgb(143,135,152)" transform="translate(0,0)"></path>
<path d="M 1607.1 1330.79 C 1622.68 1332.11 1627.45 1346.45 1613.3 1356.64 C 1598.89 1357.46 1593.44 1341.53 1607.1 1330.79 z" fill="rgb(24,23,23)" transform="translate(0,0)"></path>
<path d="M 1608.69 1337.28 C 1614.95 1339.68 1617.9 1343.3 1613.53 1349.54 L 1612.43 1351.22 C 1604.62 1348.12 1604.38 1343.87 1608.69 1337.28 z" fill="rgb(121,110,142)" transform="translate(0,0)"></path>
<path d="M 1571.09 1337.66 C 1577.2 1336.36 1583.23 1340.16 1584.7 1346.23 C 1586.16 1352.3 1582.53 1358.44 1576.5 1360.08 C 1572.45 1361.17 1568.12 1359.99 1565.2 1356.97 C 1562.28 1353.96 1561.22 1349.6 1562.45 1345.58 C 1563.67 1341.56 1566.98 1338.53 1571.09 1337.66 z" fill="rgb(24,23,23)" transform="translate(0,0)"></path>
<path d="M 1571.75 1344.29 C 1573.53 1343.7 1575.5 1344.13 1576.86 1345.42 C 1578.22 1346.72 1578.77 1348.66 1578.27 1350.47 C 1577.77 1352.28 1576.32 1353.67 1574.49 1354.09 C 1571.84 1354.69 1569.18 1353.11 1568.45 1350.5 C 1567.72 1347.88 1569.17 1345.15 1571.75 1344.29 z" fill="rgb(121,110,142)" transform="translate(0,0)"></path>
<path d="M 1588.17 1352.22 C 1589.25 1351.64 1590.61 1351.98 1591.29 1353.01 C 1591.97 1354.04 1591.75 1355.42 1590.79 1356.19 C 1590.08 1356.75 1589.12 1356.87 1588.3 1356.49 C 1587.48 1356.11 1586.94 1355.3 1586.91 1354.4 C 1586.89 1353.49 1587.37 1352.65 1588.17 1352.22 z" fill="rgb(143,135,152)" fill-opacity="0.67451" transform="translate(0,0)"></path>
<path d="M 928.78 1317.31 C 1010.15 1326.59 1094.58 1334.47 1176.23 1342.55 C 1198.14 1344.64 1220.03 1346.91 1241.9 1349.35 C 1250.34 1350.28 1278.85 1353.98 1286.34 1353.38 C 1306.65 1351.73 1332.09 1346.57 1352.8 1343.49 L 1511.65 1319.89 C 1520.78 1318.58 1524.14 1313.68 1527.04 1313.91 C 1539.79 1314.93 1586.12 1317.59 1594.77 1320.51 C 1586.48 1324.67 1509.38 1334.83 1495.21 1336.99 L 1314.12 1365.16 C 1255.32 1374.64 1196.46 1383.73 1137.54 1392.42 C 1110.8 1396.41 1081.44 1400.89 1054.8 1404.24 C 1047.09 1405.21 996.852 1399.24 991.159 1397.49 C 985.77 1389.38 977.188 1379.88 970.828 1372.22 C 956.418 1354.86 940.59 1336.54 928.78 1317.31 z" fill="rgb(162,158,168)" transform="translate(0,0)"></path>
<path d="M 223.78 1289.98 C 234.501 1287.59 259.281 1285.98 270.896 1284.94 C 308.511 1281.66 346.168 1278.87 383.856 1276.58 L 486.53 1268.97 C 501.194 1267.84 522.526 1265.34 536.746 1265.08 L 540.049 1267.48 C 536.883 1269.33 537.685 1268.03 536.777 1270.93 C 539.652 1274.88 547.082 1276.08 551.91 1276.59 C 582.431 1279.82 613.701 1285.47 644.199 1288.09 L 644.89 1290.11 L 642.509 1289.75 C 641.773 1289.74 641.037 1289.73 640.301 1289.72 C 618.622 1291.59 592.227 1296.72 569.912 1299.58 L 495.427 1308.96 C 486.183 1310.13 461.704 1312.67 453.869 1315.54 L 452.412 1317.5 L 453.174 1320.27 L 453.163 1322.62 C 411.924 1316.04 369.601 1310.81 328.225 1304.75 C 294.076 1299.74 257.976 1293.6 223.78 1289.98 z M 447.25 1278.25 C 450.361 1278.05 456.81 1276.75 459.857 1275.69 C 454.564 1275.45 445.128 1275.01 439.765 1275.48 C 437.094 1275.52 428.354 1275.32 426.371 1276.61 C 426.05 1277.48 427.823 1277.72 428.381 1277.78 C 434.641 1278.49 440.962 1278.35 447.25 1278.25 z M 532.987 1269.26 C 532.649 1268.52 532.811 1268.77 532.517 1268.41 C 532.003 1268.28 531.833 1268.5 531.209 1268.81 C 531.863 1270.05 531.838 1269.76 532.987 1269.26 z" fill="rgb(226,225,226)" transform="translate(0,0)"></path>
<path d="M 640.301 1289.72 C 641.326 1288.72 641.333 1289 642.509 1289.75 C 641.773 1289.74 641.037 1289.73 640.301 1289.72 z" fill="rgb(162,158,168)" transform="translate(0,0)"></path>
<path d="M 439.765 1275.48 C 445.128 1275.01 454.564 1275.45 459.857 1275.69 C 456.81 1276.75 450.361 1278.05 447.25 1278.25 C 440.962 1278.35 434.641 1278.49 428.381 1277.78 C 427.823 1277.72 426.05 1277.48 426.371 1276.61 C 428.354 1275.32 437.094 1275.52 439.765 1275.48 z" fill="rgb(226,225,226)" fill-opacity="0.866667" transform="translate(0,0)"></path>
<path d="M 531.209 1268.81 C 531.833 1268.5 532.003 1268.28 532.517 1268.41 C 532.811 1268.77 532.649 1268.52 532.987 1269.26 C 531.838 1269.76 531.863 1270.05 531.209 1268.81 z" fill="rgb(226,225,226)" fill-opacity="0.933333" transform="translate(0,0)"></path>
<path d="M 1744.77 518.111 C 1754.19 517.966 1763.26 521.677 1769.88 528.383 C 1777.09 535.579 1783.77 549.85 1782.88 559.91 C 1780.73 584.384 1776.18 609.943 1772.83 634.393 L 1745.01 827.292 L 1698.25 1150.49 L 1683.15 1255.4 C 1680.75 1271.96 1678.68 1288.55 1675.79 1305.04 C 1673.06 1320.65 1664.1 1332.17 1649.48 1338.55 L 1646.9 1327 C 1654.76 1321.9 1660.42 1317.98 1662.29 1307.91 C 1665.39 1291.2 1667.87 1273.92 1670.47 1257.12 C 1675.11 1228.36 1679.6 1199.58 1683.92 1170.78 C 1697.32 1086.81 1710.13 1002.74 1722.37 918.594 C 1735.68 831.282 1750.1 742.807 1762.46 655.432 C 1764.58 639.627 1766.91 623.849 1769.43 608.102 C 1775.12 574.548 1786.95 542.472 1746.82 525.134 C 1748.86 524.333 1752.79 523.405 1753.24 523.21 L 1753.23 522.873 C 1752.42 522.116 1746.78 519.476 1744.77 518.111 z" fill="rgb(143,135,152)" transform="translate(0,0)"></path>
<path d="M 1470.42 569.115 L 1502.53 562.658 C 1504.7 565.343 1505.55 566.13 1508.07 568.501 C 1465.13 576.216 1419.98 586.473 1376.98 595.161 L 1127.23 645.149 L 1003.29 669.514 C 984.797 673.233 963.777 677.079 945.578 682.075 C 936.579 684.546 925.101 695.574 919.32 703.161 C 914.422 697.675 911.407 709.851 912.251 710.616 C 913.702 710.34 914.378 710.029 916.077 709.729 C 914.383 715.853 913.018 721.152 911.682 727.359 C 908.839 722.911 909.974 724.38 905.242 722.99 C 910.414 700.545 917.101 683.14 940.823 674.229 C 941.554 676.766 940.959 675.935 941.196 678.382 C 941.451 678.728 948.301 680.634 943.054 673.675 C 968.92 667.466 1003.03 661.698 1029.7 656.221 L 1117.17 638.963 C 1137.41 634.91 1158.63 630.031 1178.88 626.571 C 1180.2 627.867 1180.25 627.676 1180.43 629.449 C 1181.79 630.828 1186.7 630.191 1188.07 629.716 C 1194.3 627.56 1181.24 626.181 1180.57 626.091 L 1340.25 594.76 C 1342.13 596.624 1346.69 600.55 1350.73 597.788 C 1352.08 596.865 1349.02 594.717 1347.94 593.232 L 1382.19 586.425 C 1382.3 586.776 1382.73 587.77 1382.68 587.941 C 1381.49 591.76 1390.88 590.988 1391.02 588.587 C 1390.35 587.779 1388.02 587.43 1386.03 585.571 L 1420.65 578.758 C 1424.06 581.085 1433.39 586.634 1428.81 577.302 L 1463.08 570.412 C 1466.8 575.226 1471 578.551 1470.42 569.115 z M 1149.2 639.165 L 1149.95 638.205 C 1152.63 634.836 1148.92 634.94 1146.13 634.241 L 1145.21 635.086 C 1141.89 638.055 1146.66 638.32 1149.2 639.165 z" fill="rgb(254,254,254)" transform="translate(0,0)"></path>
<path d="M 1146.13 634.241 C 1148.92 634.94 1152.63 634.836 1149.95 638.205 L 1149.2 639.165 C 1146.66 638.32 1141.89 638.055 1145.21 635.086 L 1146.13 634.241 z" fill="rgb(254,254,254)" fill-opacity="0.933333" transform="translate(0,0)"></path>
<path d="M 921.637 1392.38 C 940.295 1394.31 960.534 1397.73 979.244 1400.5 L 975.502 1400.96 C 973.203 1401.25 970.987 1402.08 968.388 1402.51 C 963.493 1401.96 961.535 1400.46 957.246 1403.27 C 953.259 1405.87 949.228 1403.03 943.01 1405.77 L 942.722 1406.65 C 942.338 1406.75 941.955 1406.84 941.572 1406.94 C 941.666 1408.37 945.341 1406.63 946.06 1406.51 C 951.965 1405.53 958.327 1406.12 964.429 1405.81 C 963.841 1406.51 963.128 1406.96 962.85 1407.59 L 963.006 1407.88 C 965.736 1409 979.02 1408.66 981.316 1404.17 C 981.386 1402.97 981.668 1402.22 982.071 1401.02 L 989.02 1401.66 C 984.355 1407.93 983.661 1408.95 975.494 1409.3 C 972.173 1409.44 966.463 1410.79 970.574 1414.97 C 975.396 1416.26 985.599 1420.02 974.531 1422.49 C 963.143 1425.04 954.249 1420.41 943.475 1423.71 C 936.455 1422.82 931.055 1421.9 924.116 1420.49 C 919.611 1416.72 916.605 1415.71 910.962 1414.83 C 913.548 1414.89 916.882 1415.43 919.386 1414.69 C 920.239 1414.46 921.451 1413.37 920.672 1412.44 C 918.793 1408.99 909.778 1409.65 908.564 1407.78 C 907.695 1406.44 907.801 1402.35 910.011 1401.02 C 914.254 1398.47 918.472 1396.36 922.444 1394.13 L 918.216 1394.88 C 913.642 1395.65 909.907 1398.47 905.001 1397.42 C 902.937 1396.98 891.222 1397.45 890.728 1401.53 C 890.757 1401.29 894.099 1410.56 893.604 1409.73 C 895.091 1409.51 897.017 1408.83 898.312 1409.89 L 898.252 1409.96 C 897.931 1410.02 897.61 1410.08 897.289 1410.14 C 899.128 1411.23 900.985 1412.48 902.889 1413.48 C 893.442 1413.56 889.658 1410.09 884.541 1402.74 C 883.228 1391.93 913.589 1394.81 921.637 1392.38 z" fill="rgb(254,254,254)" fill-opacity="0.682353" transform="translate(0,0)"></path>
<path d="M 823.149 1378.79 C 848.836 1381.01 896.467 1387.75 921.637 1392.38 C 913.589 1394.81 883.228 1391.93 884.541 1402.74 C 889.658 1410.09 893.442 1413.56 902.889 1413.48 C 906.344 1413.67 907.79 1414.43 910.962 1414.83 C 916.605 1415.71 919.611 1416.72 924.116 1420.49 C 895.675 1416.48 867.221 1411.71 838.821 1407.38 C 833.551 1406.58 827.923 1405.68 822.804 1404.29 L 823.251 1403.58 L 818.729 1400.38 C 820.276 1400.62 825.501 1401.58 826.504 1401.5 C 832.972 1400.82 840.624 1397.96 845.071 1393.04 C 845.767 1392.27 848.085 1390.64 847.619 1389.02 C 847.24 1387.71 849.459 1386.7 848.849 1386.32 C 846.433 1384.8 840.571 1384.18 837.859 1384 C 836.571 1383.53 835.321 1383.08 834.049 1382.56 C 830.427 1381.52 828.744 1381.8 824.925 1381.63 C 823.492 1380.66 823.441 1380.5 823.149 1378.79 z" fill="url(#Gradient2)" transform="translate(0,0)"></path>
<path d="M 1704.81 523.056 C 1705.42 525.343 1705.45 525.457 1706.39 527.507 C 1674.62 535 1640.32 541.419 1608.22 548.118 C 1593.48 551.193 1564.56 557.832 1550.78 559.592 C 1549.82 557.836 1549.81 557.257 1549.44 555.209 L 1548.99 553.471 C 1565.16 549.814 1584.02 546.696 1600.47 543.487 L 1704.81 523.056 z" fill="rgb(226,225,226)" transform="translate(0,0)"></path>
<path d="M 670.948 1358.21 C 674.539 1358.05 691.535 1359.61 694.758 1360.85 C 698.772 1363.85 700.394 1364.09 705.509 1365.25 C 712.641 1366.88 722.743 1366.09 728.526 1371.44 C 729.483 1372.39 730.685 1372.77 731.989 1373.23 C 735.24 1373.49 742.93 1373.19 744.084 1375.98 C 749.422 1388.87 739.056 1386.92 734.968 1387.14 C 730.41 1386.81 724.868 1386.27 720.48 1385.13 C 722.831 1384.98 750.898 1385.38 735.608 1375.28 C 731.375 1372.48 717.002 1373.09 713.884 1378.56 C 714.119 1379.01 714.355 1379.45 714.59 1379.9 C 714.37 1380.77 713.415 1380.6 712.534 1382.98 C 711.843 1383.04 683.454 1379.07 682.204 1378.61 C 686.187 1376.94 691.84 1367.62 691.052 1365.91 C 687.729 1358.72 680.1 1365.95 670.948 1358.21 z" fill="rgb(254,254,254)" fill-opacity="0.631373" transform="translate(0,0)"></path>
<path d="M 970.574 1414.97 C 993.007 1416.02 992.613 1421.52 1008.47 1407.06 L 1007.97 1410.25 C 1006.08 1422.39 994.089 1427.2 1013.17 1430.79 C 1016.64 1431.54 1019.59 1432.11 1023.02 1433.06 C 1030.82 1440.71 1024.16 1428.33 1030.43 1428.56 C 1031.14 1431.48 1032.33 1434.61 1032.68 1437.45 C 1032.11 1438.1 1026.9 1437.1 1027 1437.11 C 1018.65 1435.95 1010.32 1434.54 1001.99 1433.2 C 997.659 1432.5 993.328 1431.91 988.993 1431.16 C 985.92 1430.63 982.598 1430.34 979.51 1429.78 C 967.692 1427.47 955.167 1426.42 943.475 1423.71 C 954.249 1420.41 963.143 1425.04 974.531 1422.49 C 985.599 1420.02 975.396 1416.26 970.574 1414.97 z" fill="rgb(254,254,254)" fill-opacity="0.705882" transform="translate(0,0)"></path>
<path d="M 636.135 1373.28 C 646.154 1370.47 670.352 1377.15 682.204 1378.61 C 683.454 1379.07 711.843 1383.04 712.534 1382.98 C 715.626 1383.71 717.456 1384.08 720.48 1385.13 C 724.868 1386.27 730.41 1386.81 734.968 1387.14 C 741.445 1388.19 760.376 1390.89 766.771 1390.99 L 767.61 1391 C 773.379 1393.73 797.828 1397.55 804.433 1397.69 C 808.419 1398.3 814.983 1399.33 818.729 1400.38 L 823.251 1403.58 L 822.804 1404.29 C 807.127 1402.75 641.262 1376.4 636.135 1373.28 z" fill="rgb(254,254,254)" transform="translate(0,0)"></path>
<path d="M 807.364 1376.37 C 810.057 1376.33 820.675 1377.64 823.149 1378.79 C 823.441 1380.5 823.492 1380.66 824.925 1381.63 C 822.764 1382.4 819.446 1385.01 818.04 1384.6 C 814.805 1383.67 804.516 1395.86 804.433 1397.69 C 797.828 1397.55 773.379 1393.73 767.61 1391 C 773.249 1391.56 777.066 1391.82 782.771 1391.8 C 796.062 1382.74 789.142 1386.08 789.08 1379.45 L 789.081 1378.04 C 796.098 1378.25 800.863 1378.7 807.364 1376.37 z" fill="rgb(254,254,254)" fill-opacity="0.580392" transform="translate(0,0)"></path>
<path d="M 453.174 1320.27 C 519.453 1331.74 584.986 1339.7 651.609 1348.61 L 702.524 1355.2 C 709.35 1356.07 724.93 1357.62 731.058 1359.35 C 721.767 1361.47 478.121 1327.97 453.163 1322.62 L 453.174 1320.27 z" fill="rgb(121,120,120)" fill-opacity="0.984314" transform="translate(0,0)"></path>
<path d="M 824.925 1381.63 C 828.744 1381.8 830.427 1381.52 834.049 1382.56 L 833.13 1382.72 C 829.499 1383.3 819.913 1385.68 824.557 1393.36 C 825.219 1394.46 829.449 1393.87 830.181 1393.54 C 835.72 1391.4 837.014 1389.1 837.859 1384 C 840.571 1384.18 846.433 1384.8 848.849 1386.32 C 849.459 1386.7 847.24 1387.71 847.619 1389.02 C 848.085 1390.64 845.767 1392.27 845.071 1393.04 C 840.624 1397.96 832.972 1400.82 826.504 1401.5 C 825.501 1401.58 820.276 1400.62 818.729 1400.38 C 814.983 1399.33 808.419 1398.3 804.433 1397.69 C 804.516 1395.86 814.805 1383.67 818.04 1384.6 C 819.446 1385.01 822.764 1382.4 824.925 1381.63 z" fill="rgb(254,254,254)" fill-opacity="0.423529" transform="translate(0,0)"></path>
<path d="M 216.24 1303.88 C 215.927 1301.4 214.15 1297.55 217.967 1297.88 C 237.333 1299.55 256.674 1302.9 276.015 1305.08 C 276.819 1305.17 277.347 1305.37 278.093 1305.63 C 275.793 1313.33 271.147 1308.83 263.749 1311.96 C 254.795 1311.86 225.042 1306.32 216.24 1303.88 z" fill="rgb(226,225,226)" fill-opacity="0.984314" transform="translate(0,0)"></path>
<path d="M 731.989 1373.23 L 735.856 1372.75 C 742.08 1371.94 743.498 1370.24 749.987 1372.15 C 754.6 1373.52 771.436 1373.7 774.763 1375.29 C 768.157 1378.95 765.908 1383.86 766.771 1390.99 C 760.376 1390.89 741.445 1388.19 734.968 1387.14 C 739.056 1386.92 749.422 1388.87 744.084 1375.98 C 742.93 1373.19 735.24 1373.49 731.989 1373.23 z" fill="rgb(254,254,254)" fill-opacity="0.694118" transform="translate(0,0)"></path>
<path d="M 694.758 1360.85 C 727.144 1363.99 773.784 1371.44 807.364 1376.37 C 800.863 1378.7 796.098 1378.25 789.081 1378.04 C 784.288 1377.02 779.59 1376.3 774.763 1375.29 C 771.436 1373.7 754.6 1373.52 749.987 1372.15 C 743.498 1370.24 742.08 1371.94 735.856 1372.75 L 731.989 1373.23 C 730.685 1372.77 729.483 1372.39 728.526 1371.44 C 722.743 1366.09 712.641 1366.88 705.509 1365.25 C 700.394 1364.09 698.772 1363.85 694.758 1360.85 z" fill="rgb(254,254,254)" transform="translate(0,0)"></path>
<path d="M 534.571 1339.8 C 537.052 1339.95 538.893 1340.01 541.327 1340.46 C 540.41 1341.65 541.041 1341.2 540.558 1342.66 C 539.197 1343.32 529.263 1341.91 528.061 1343.57 C 528.206 1348.48 530.776 1349.68 535.527 1349.45 C 545.812 1348.97 545.842 1347.23 546.889 1357.32 C 540.393 1355.72 536.163 1356.28 530.675 1355.11 C 527.813 1354.18 506.004 1348.04 505.586 1347.58 L 505.669 1346.87 C 513.957 1334.85 520.43 1343.8 530.495 1340.96 L 534.571 1339.8 z" fill="rgb(254,254,254)" fill-opacity="0.0862745" transform="translate(0,0)"></path>
<path d="M 1008.34 1404.32 C 1014.53 1405.14 1020.9 1405.8 1027.05 1406.7 C 1025.85 1406.83 1020.39 1407.07 1019.81 1407.63 C 1016.74 1410.63 1015.87 1413.41 1019.37 1415.35 C 1012.87 1421.7 1016.87 1423.87 1024.02 1423.05 C 1030.59 1422.3 1026.14 1422.71 1030.26 1424.89 C 1030.53 1426.56 1030.49 1426.87 1030.43 1428.56 C 1024.16 1428.33 1030.82 1440.71 1023.02 1433.06 C 1032.93 1426.97 1015.85 1417.68 1013.17 1430.79 C 994.089 1427.2 1006.08 1422.39 1007.97 1410.25 L 1008.47 1407.06 C 1008.4 1406.14 1008.29 1405.24 1008.34 1404.32 z" fill="rgb(254,254,254)" fill-opacity="0.498039" transform="translate(0,0)"></path>
<path d="M 989.02 1401.66 C 995.266 1402.73 1002.04 1403.75 1008.34 1404.32 C 1008.29 1405.24 1008.4 1406.14 1008.47 1407.06 C 992.613 1421.52 993.007 1416.02 970.574 1414.97 C 966.463 1410.79 972.173 1409.44 975.494 1409.3 C 983.661 1408.95 984.355 1407.93 989.02 1401.66 z" fill="url(#Gradient1)" transform="translate(0,0)"></path>
<path d="M 395.739 1320.48 L 409.496 1322.12 C 422.972 1323.78 440.249 1325.43 453.288 1328.22 C 446.818 1329.59 443.831 1328.49 437.855 1329.4 C 433.693 1329.2 412.617 1324.94 420.986 1334.14 C 413.551 1335.18 413.146 1333.86 406.403 1330.7 C 402.125 1328.7 396.821 1329.4 391.908 1328.32 C 400.17 1325.5 400.843 1325.52 392.879 1322.72 C 393.895 1321.85 394.593 1321.16 395.739 1320.48 z" fill="rgb(254,254,254)" fill-opacity="0.968627" transform="translate(0,0)"></path>
<path d="M 902.889 1413.48 C 900.985 1412.48 899.128 1411.23 897.289 1410.14 C 897.61 1410.08 897.931 1410.02 898.252 1409.96 L 898.312 1409.89 C 897.017 1408.83 895.091 1409.51 893.604 1409.73 C 894.099 1410.56 890.757 1401.29 890.728 1401.53 C 891.222 1397.45 902.937 1396.98 905.001 1397.42 C 909.907 1398.47 913.642 1395.65 918.216 1394.88 L 922.444 1394.13 C 918.472 1396.36 914.254 1398.47 910.011 1401.02 C 907.801 1402.35 907.695 1406.44 908.564 1407.78 C 909.778 1409.65 918.793 1408.99 920.672 1412.44 C 921.451 1413.37 920.239 1414.46 919.386 1414.69 C 916.882 1415.43 913.548 1414.89 910.962 1414.83 C 907.79 1414.43 906.344 1413.67 902.889 1413.48 z" fill="rgb(254,254,254)" fill-opacity="0.631373" transform="translate(0,0)"></path>
<path d="M 536.746 1265.08 C 561.266 1260.99 597.181 1260.51 622.983 1258.06 C 636.992 1256.73 669.618 1252.85 681.547 1252.91 L 680.983 1253.84 C 650.956 1256.31 619.866 1260.45 589.735 1263.17 C 573.555 1264.63 556.209 1267.18 540.049 1267.48 L 536.746 1265.08 z" fill="rgb(162,158,168)" transform="translate(0,0)"></path>
<path d="M 774.763 1375.29 C 779.59 1376.3 784.288 1377.02 789.081 1378.04 L 789.08 1379.45 C 789.142 1386.08 796.062 1382.74 782.771 1391.8 C 777.066 1391.82 773.249 1391.56 767.61 1391 L 766.771 1390.99 C 765.908 1383.86 768.157 1378.95 774.763 1375.29 z" fill="rgb(254,254,254)" fill-opacity="0.258824" transform="translate(0,0)"></path>
<path d="M 712.534 1382.98 C 713.415 1380.6 714.37 1380.77 714.59 1379.9 C 714.355 1379.45 714.119 1379.01 713.884 1378.56 C 717.002 1373.09 731.375 1372.48 735.608 1375.28 C 750.898 1385.38 722.831 1384.98 720.48 1385.13 C 717.456 1384.08 715.626 1383.71 712.534 1382.98 z" fill="rgb(254,254,254)" fill-opacity="0.388235" transform="translate(0,0)"></path>
<path d="M 1509.48 561.506 C 1511.69 561.076 1513.82 560.538 1516.01 560.113 C 1522.35 558.868 1528.69 557.565 1535.01 556.204 C 1537.81 555.628 1540.38 555.008 1543.15 554.389 C 1544.77 556.91 1545.29 558.09 1547.16 560.701 C 1536.18 561.907 1522.41 565.95 1510.82 567.581 C 1509.64 565.185 1510.07 564.155 1509.48 561.506 z" fill="rgb(254,254,254)" transform="translate(0,0)"></path>
<path d="M 901.196 745.477 C 901.608 745.147 909.119 738.307 908.372 738.743 C 908.923 738.734 908.567 738.702 909.399 739.052 C 908.657 743.375 907.669 747.697 906.743 751.987 L 904.904 760.492 C 904.616 761.867 904.219 763.053 903.811 764.39 L 903.588 765.146 C 900.738 763.407 901.382 762.812 898.224 765.129 L 896.774 765.963 L 897.085 764.643 C 898.281 759.789 899.248 754.477 900.317 749.533 L 901.196 745.477 z" fill="rgb(254,254,254)" fill-opacity="0.988235" transform="translate(0,0)"></path>
<path d="M 826.451 1106.75 C 829.259 1106.93 829.602 1106.84 831.529 1108.77 C 830.47 1114.73 827.98 1130.23 824.82 1134.59 C 817.177 1145.14 822.78 1123.37 822.86 1122.97 L 823.765 1118.48 C 824.552 1114.41 825.491 1110.77 826.451 1106.75 z" fill="rgb(254,254,254)" fill-opacity="0.0666667" transform="translate(0,0)"></path>
<path d="M 365.966 1320.75 C 372.681 1321.13 387.982 1322.77 392.879 1322.72 C 400.843 1325.52 400.17 1325.5 391.908 1328.32 C 390.705 1327.99 369.533 1325.31 368.103 1325.29 C 367.393 1323.68 366.825 1322.3 365.966 1320.75 z" fill="rgb(254,254,254)" fill-opacity="0.270588" transform="translate(0,0)"></path>
<path d="M 905.242 722.99 C 909.974 724.38 908.839 722.911 911.682 727.359 C 911.15 730.872 910.764 735.858 909.399 739.052 C 908.567 738.702 908.923 738.734 908.372 738.743 C 909.119 738.307 901.608 745.147 901.196 745.477 L 901.374 744.201 L 901.633 742.483 C 902.616 735.946 904.045 729.488 905.242 722.99 z" fill="rgb(254,254,254)" fill-opacity="0.509804" transform="translate(0,0)"></path>
<path d="M 831.563 1080.95 C 832.041 1085.66 830.869 1088.73 835.968 1089.25 C 835.212 1091.84 835.316 1091.81 834.809 1094.49 L 833.83 1099.49 L 832.926 1103.99 C 832.606 1105.63 831.957 1107.16 831.529 1108.77 C 829.602 1106.84 829.259 1106.93 826.451 1106.75 C 826.153 1102.07 830.277 1086.09 831.563 1080.95 z" fill="rgb(254,254,254)" transform="translate(0,0)"></path>
<path d="M 863.141 927.82 C 863.361 935.38 861.54 933.481 867.787 934.255 C 867.811 939.539 864.768 950.453 863.664 956.221 C 862.313 952.291 861.4 951.992 858.821 948.43 C 859.161 943.434 861.635 932.628 863.141 927.82 z" fill="rgb(254,254,254)" fill-opacity="0.4" transform="translate(0,0)"></path>
<path d="M 847.624 1002.75 C 848.209 1006.49 847.413 1010.04 851.551 1010.82 C 851.351 1016.38 848.843 1025.59 847.538 1031.16 C 846.036 1029.07 844.736 1027.63 842.211 1029.01 C 842.707 1026.33 843.232 1023.66 843.772 1020.99 L 844.806 1015.99 C 845.676 1011.57 846.837 1007.07 847.624 1002.75 z" fill="rgb(254,254,254)" transform="translate(0,0)"></path>
<path d="M 858.821 948.43 C 861.4 951.992 862.313 952.291 863.664 956.221 C 862.098 961.614 860.796 967.43 860.021 972.987 C 857.064 973.822 857.192 973.884 854.514 975.193 C 854.229 974.793 853.943 974.393 853.658 973.993 C 855.63 965.517 857.219 957.002 858.821 948.43 z" fill="rgb(254,254,254)" fill-opacity="0.0705882" transform="translate(0,0)"></path>
<path d="M 838.331 1048.16 C 840.886 1050.12 841.219 1050.14 844.261 1049.31 C 843.56 1051.95 843.35 1052.88 842.835 1055.49 L 841.838 1060.49 L 840.856 1065.49 C 840.524 1066.98 840.19 1068.47 839.894 1069.97 C 836.889 1069.07 836.946 1069.02 833.767 1069.75 C 835.395 1062.65 836.916 1055.32 838.331 1048.16 z" fill="rgb(254,254,254)" transform="translate(0,0)"></path>
<path d="M 874.86 870.826 C 875.097 866.711 877.045 857.741 878.603 854.003 L 878.922 855.081 C 879.618 857.635 881.514 857.943 883.863 857.159 C 884.053 863.152 880.582 872.798 879.56 879.09 C 879.095 873.975 878.667 874.416 874.86 870.826 z" fill="rgb(254,254,254)" fill-opacity="0.6" transform="translate(0,0)"></path>
<path d="M 814.127 1167.99 C 814.804 1164.88 817.359 1141.93 821.485 1144.66 C 825.233 1147.15 820.147 1164.56 819.505 1168.13 L 814.127 1167.99 z" fill="rgb(254,254,254)" fill-opacity="0.0313725" transform="translate(0,0)"></path>
<path d="M 834.049 1382.56 C 835.321 1383.08 836.571 1383.53 837.859 1384 C 837.014 1389.1 835.72 1391.4 830.181 1393.54 C 829.449 1393.87 825.219 1394.46 824.557 1393.36 C 819.913 1385.68 829.499 1383.3 833.13 1382.72 L 834.049 1382.56 z" fill="rgb(254,254,254)" fill-opacity="0.176471" transform="translate(0,0)"></path>
<path d="M 819.505 1168.13 C 819.444 1170.86 817.224 1182.79 816.087 1185.04 L 810.15 1183.2 C 810.357 1180.86 812.221 1168.99 814.127 1167.99 L 819.505 1168.13 z" fill="rgb(254,254,254)" fill-opacity="0.988235" transform="translate(0,0)"></path>
<path d="M 896.774 765.963 L 898.224 765.129 C 901.382 762.812 900.738 763.407 903.588 765.146 C 902.636 770.548 901.367 775.359 900.304 780.713 C 897.79 782.421 896.197 783.395 893.388 782.28 L 895.294 773.014 L 896.774 765.963 z" fill="rgb(254,254,254)" fill-opacity="0.301961" transform="translate(0,0)"></path>
<path d="M 878.603 854.003 C 880.021 849.478 881.353 837.144 884.605 834.938 L 886.169 835.274 C 888.363 839.663 884.827 852.317 883.863 857.159 C 881.514 857.943 879.618 857.635 878.922 855.081 L 878.603 854.003 z" fill="rgb(254,254,254)" fill-opacity="0.0431373" transform="translate(0,0)"></path>
<path d="M 866.428 912.134 C 867.176 911.68 866.913 911.783 867.302 911.679 C 865.973 910.879 871.538 917.79 871.289 917.486 C 869.938 922.528 868.688 929.116 867.787 934.255 C 861.54 933.481 863.361 935.38 863.141 927.82 C 864.164 925.655 865.392 916.738 866.027 913.995 L 866.428 912.134 z" fill="rgb(254,254,254)" fill-opacity="0.0705882" transform="translate(0,0)"></path>
<path d="M 979.244 1400.5 L 982.071 1401.02 C 981.668 1402.22 981.386 1402.97 981.316 1404.17 C 979.02 1408.66 965.736 1409 963.006 1407.88 L 962.85 1407.59 C 963.128 1406.96 963.841 1406.51 964.429 1405.81 C 965.555 1404.45 966.951 1403.54 968.388 1402.51 C 970.987 1402.08 973.203 1401.25 975.502 1400.96 L 979.244 1400.5 z" fill="rgb(254,254,254)" fill-opacity="0.498039" transform="translate(0,0)"></path>
<path d="M 420.986 1334.14 C 412.617 1324.94 433.693 1329.2 437.855 1329.4 C 441.833 1335.98 423.044 1334.19 420.986 1334.14 z" fill="rgb(254,254,254)" fill-opacity="0.741176" transform="translate(0,0)"></path>
<path d="M 868.364 900.976 C 870.232 904.154 871.996 900.825 875.142 898.76 C 874.346 904.076 872.86 912.429 871.289 917.486 C 871.538 917.79 865.973 910.879 867.302 911.679 C 866.913 911.783 867.176 911.68 866.428 912.134 C 866.545 908.333 867.527 904.663 868.364 900.976 z" fill="rgb(254,254,254)" fill-opacity="0.313725" transform="translate(0,0)"></path>
<path d="M 1019.37 1415.35 C 1029.06 1419.04 1024.09 1419.41 1033.8 1416.29 C 1032.13 1419.51 1031.43 1421.42 1030.26 1424.89 C 1026.14 1422.71 1030.59 1422.3 1024.02 1423.05 C 1016.87 1423.87 1012.87 1421.7 1019.37 1415.35 z" fill="rgb(254,254,254)" fill-opacity="0.94902" transform="translate(0,0)"></path>
<path d="M 860.021 972.987 C 859.528 979.962 856.635 987.98 855.61 995.101 C 855.293 992.277 853.589 983.23 852.138 980.794 C 852.168 978.258 852.595 976.346 853.658 973.993 C 853.943 974.393 854.229 974.793 854.514 975.193 C 857.192 973.884 857.064 973.822 860.021 972.987 z" fill="rgb(254,254,254)" fill-opacity="0.596078" transform="translate(0,0)"></path>
<path d="M 1711.76 521.082 C 1717.54 520.932 1723.99 518.62 1730.2 518.144 C 1730.74 520.8 1732.32 521.606 1734.61 522.676 C 1727.37 523.273 1722.15 524.759 1715.09 526.061 C 1717.94 522.619 1715.18 522.421 1711.76 521.082 z" fill="rgb(254,254,254)" fill-opacity="0.486275" transform="translate(0,0)"></path>
<path d="M 833.767 1069.75 C 836.946 1069.02 836.889 1069.07 839.894 1069.97 C 838.998 1074.36 838.647 1077.45 837.297 1081.89 C 837.235 1080.9 836.934 1074.74 834.434 1077.55 C 833.956 1078.09 832.866 1083.73 834.632 1084.21 C 834.908 1084.15 835.184 1084.1 835.46 1084.04 C 835.94 1083.73 836.419 1083.41 836.899 1083.09 C 836.692 1086.08 836.686 1086.45 835.968 1089.25 C 830.869 1088.73 832.041 1085.66 831.563 1080.95 C 831.844 1077.68 832.998 1073.1 833.767 1069.75 z" fill="rgb(254,254,254)" fill-opacity="0.411765" transform="translate(0,0)"></path>
<path d="M 850.111 991.058 C 850.859 990.729 850.821 990.637 851.437 990.657 C 855.485 993.073 854.033 996.889 854.058 1001.1 C 853.121 1004.35 852.38 1007.55 851.551 1010.82 C 847.413 1010.04 848.209 1006.49 847.624 1002.75 C 848.718 998.545 849.199 995.211 850.111 991.058 z" fill="rgb(254,254,254)" fill-opacity="0.184314" transform="translate(0,0)"></path>
<path d="M 806.633 1202.28 C 806.977 1202.7 807.241 1203.14 807.678 1203.43 L 807.902 1203.45 C 808.65 1202.68 808.041 1201.58 808.354 1200.67 C 810.039 1200.69 809.432 1201.5 812.406 1201.51 C 812.122 1203.14 811.96 1204.25 811.77 1205.87 C 808.172 1213.26 810.661 1215.74 807.259 1221.92 C 805.331 1216.64 804.12 1207.31 806.633 1202.28 z" fill="rgb(254,254,254)" fill-opacity="0.0901961" transform="translate(0,0)"></path>
<path d="M 1013.17 1430.79 C 1015.85 1417.68 1032.93 1426.97 1023.02 1433.06 C 1019.59 1432.11 1016.64 1431.54 1013.17 1430.79 z" fill="rgb(254,254,254)" fill-opacity="0.0941176" transform="translate(0,0)"></path>
<path d="M 900.304 780.713 C 898.832 786.584 897.607 792.51 896.071 798.365 C 895.217 796.632 892.889 788.234 893.208 788.514 C 892.729 788.515 893.059 788.471 892.088 788.806 C 892.255 786.571 892.855 784.449 893.388 782.28 C 896.197 783.395 897.79 782.421 900.304 780.713 z" fill="rgb(254,254,254)" fill-opacity="0.721569" transform="translate(0,0)"></path>
<path d="M 842.211 1029.01 C 844.736 1027.63 846.036 1029.07 847.538 1031.16 C 847.044 1034.36 846.701 1037.32 846.115 1040.54 C 839.609 1046.55 841.305 1040.67 840.959 1034.83 C 841.267 1032.41 841.56 1031.37 842.211 1029.01 z" fill="rgb(254,254,254)" fill-opacity="0.309804" transform="translate(0,0)"></path>
<path d="M 807.259 1221.92 C 810.661 1215.74 808.172 1213.26 811.77 1205.87 C 811.781 1219.97 811.427 1222.3 813.719 1237.12 C 811.51 1232.62 807.74 1226.51 807.259 1221.92 z" fill="rgb(254,254,254)" fill-opacity="0.984314" transform="translate(0,0)"></path>
<path d="M 892.578 813.113 C 892.186 816.912 890.369 823.597 885.608 824.055 C 884.904 822.858 888.011 808.325 888.456 806.259 C 889.242 810.776 888.767 810.575 892.578 813.113 z" fill="rgb(254,254,254)" fill-opacity="0.184314" transform="translate(0,0)"></path>
<path d="M 964.429 1405.81 C 958.327 1406.12 951.965 1405.53 946.06 1406.51 C 945.341 1406.63 941.666 1408.37 941.572 1406.94 C 941.955 1406.84 942.338 1406.75 942.722 1406.65 L 943.01 1405.77 C 949.228 1403.03 953.259 1405.87 957.246 1403.27 C 961.535 1400.46 963.493 1401.96 968.388 1402.51 C 966.951 1403.54 965.555 1404.45 964.429 1405.81 z" fill="rgb(254,254,254)" fill-opacity="0.639216" transform="translate(0,0)"></path>
<path d="M 889.874 799.029 C 892.035 796.771 894.002 798.61 895.351 800.885 C 894.344 804.925 893.581 808.972 892.578 813.113 C 888.767 810.575 889.242 810.776 888.456 806.259 C 889.151 803.487 889.478 801.892 889.874 799.029 z" fill="rgb(254,254,254)" fill-opacity="0.0588235" transform="translate(0,0)"></path>
<path d="M 840.959 1034.83 C 841.305 1040.67 839.609 1046.55 846.115 1040.54 C 845.292 1043.7 844.945 1046.21 844.261 1049.31 C 841.219 1050.14 840.886 1050.12 838.331 1048.16 C 838.989 1043.1 839.618 1039.85 840.959 1034.83 z" fill="rgb(254,254,254)" fill-opacity="0.533333" transform="translate(0,0)"></path>
<path d="M 1711.76 521.082 C 1715.18 522.421 1717.94 522.619 1715.09 526.061 C 1711.86 526.785 1709.63 527.025 1706.39 527.507 C 1705.45 525.457 1705.42 525.343 1704.81 523.056 L 1711.76 521.082 z" fill="rgb(254,254,254)" fill-opacity="0.321569" transform="translate(0,0)"></path>
<path d="M 852.138 980.794 C 853.589 983.23 855.293 992.277 855.61 995.101 C 855.117 997.238 854.651 999.003 854.058 1001.1 C 854.033 996.889 855.485 993.073 851.437 990.657 C 850.821 990.637 850.859 990.729 850.111 991.058 C 850.108 987.659 851.096 984.02 852.138 980.794 z" fill="rgb(254,254,254)" fill-opacity="0.45098" transform="translate(0,0)"></path>
<path d="M 892.088 788.806 C 893.059 788.471 892.729 788.515 893.208 788.514 C 892.889 788.234 895.217 796.632 896.071 798.365 C 895.976 799.75 896.052 799.737 895.351 800.885 C 894.002 798.61 892.035 796.771 889.874 799.029 C 890.146 795.558 891.052 792.124 892.088 788.806 z" fill="rgb(254,254,254)" fill-opacity="0.439216" transform="translate(0,0)"></path>
<path d="M 916.077 709.729 C 914.378 710.029 913.702 710.34 912.251 710.616 C 911.407 709.851 914.422 697.675 919.32 703.161 C 918.253 705.638 917.294 707.368 916.077 709.729 z" fill="rgb(254,254,254)" fill-opacity="0.654902" transform="translate(0,0)"></path>
<path d="M 1340.25 594.76 C 1341.83 594.474 1343.41 594.165 1344.99 593.834 C 1345.98 593.633 1346.96 593.432 1347.94 593.232 C 1349.02 594.717 1352.08 596.865 1350.73 597.788 C 1346.69 600.55 1342.13 596.624 1340.25 594.76 z" fill="rgb(254,254,254)" fill-opacity="0.835294" transform="translate(0,0)"></path>
<path d="M 1502.53 562.658 C 1504.87 562.223 1507.13 561.942 1509.48 561.506 C 1510.07 564.155 1509.64 565.185 1510.82 567.581 C 1509.9 567.899 1508.99 568.206 1508.07 568.501 C 1505.55 566.13 1504.7 565.343 1502.53 562.658 z" fill="rgb(254,254,254)" fill-opacity="0.854902" transform="translate(0,0)"></path>
<path d="M 1548.99 553.471 L 1549.44 555.209 C 1549.81 557.257 1549.82 557.836 1550.78 559.592 C 1549.58 559.985 1548.38 560.355 1547.16 560.701 C 1545.29 558.09 1544.77 556.91 1543.15 554.389 C 1545.13 554.079 1547 553.824 1548.99 553.471 z" fill="rgb(254,254,254)" fill-opacity="0.933333" transform="translate(0,0)"></path>
<path d="M 1178.88 626.571 C 1179.75 626.189 1179.63 626.217 1180.57 626.091 C 1181.24 626.181 1194.3 627.56 1188.07 629.716 C 1186.7 630.191 1181.79 630.828 1180.43 629.449 C 1180.25 627.676 1180.2 627.867 1178.88 626.571 z" fill="rgb(254,254,254)" fill-opacity="0.921569" transform="translate(0,0)"></path>
<path d="M 1382.19 586.425 C 1383.71 585.896 1384.41 585.86 1386.03 585.571 C 1388.02 587.43 1390.35 587.779 1391.02 588.587 C 1390.88 590.988 1381.49 591.76 1382.68 587.941 C 1382.73 587.77 1382.3 586.776 1382.19 586.425 z" fill="rgb(254,254,254)" fill-opacity="0.913725" transform="translate(0,0)"></path>
<path d="M 1420.65 578.758 C 1423.36 578.225 1426.08 577.797 1428.81 577.302 C 1433.39 586.634 1424.06 581.085 1420.65 578.758 z" fill="rgb(254,254,254)" fill-opacity="0.917647" transform="translate(0,0)"></path>
<path d="M 1463.08 570.412 C 1465.58 569.996 1467.92 569.603 1470.42 569.115 C 1471 578.551 1466.8 575.226 1463.08 570.412 z" fill="rgb(254,254,254)" fill-opacity="0.952941" transform="translate(0,0)"></path>
<path d="M 869.644 897.057 C 870.307 897.242 871.349 897.742 871.425 896.71 C 871.365 896.288 871.305 895.867 871.245 895.445 C 871.728 895.35 873.531 896.641 875.301 896.863 C 875.102 897.745 875.145 897.812 875.142 898.76 C 871.996 900.825 870.232 904.154 868.364 900.976 C 868.78 899.592 869.097 898.379 869.644 897.057 z" fill="rgb(254,254,254)" fill-opacity="0.0901961" transform="translate(0,0)"></path>
<path d="M 368.103 1325.29 C 360.75 1323.49 358.533 1319.18 365.966 1320.75 C 366.825 1322.3 367.393 1323.68 368.103 1325.29 z" fill="rgb(254,254,254)" fill-opacity="0.584314" transform="translate(0,0)"></path>
<path d="M 836.899 1083.09 C 836.419 1083.41 835.94 1083.73 835.46 1084.04 C 835.184 1084.1 834.908 1084.15 834.632 1084.21 C 832.866 1083.73 833.956 1078.09 834.434 1077.55 C 836.934 1074.74 837.235 1080.9 837.297 1081.89 L 836.899 1083.09 z" fill="rgb(254,254,254)" fill-opacity="0.309804" transform="translate(0,0)"></path>
<path d="M 943.054 673.675 C 948.301 680.634 941.451 678.728 941.196 678.382 C 940.959 675.935 941.554 676.766 940.823 674.229 C 941.567 674.044 942.31 673.86 943.054 673.675 z" fill="rgb(254,254,254)" fill-opacity="0.960784" transform="translate(0,0)"></path>
<path d="M 1508.78 1311.86 C 1510.58 1312.09 1514.91 1312.68 1516.45 1313.5 C 1515.8 1314.1 1512.21 1314.11 1511.22 1314.17 L 1508.78 1311.86 z" fill="rgb(94,94,94)" transform="translate(0,0)"></path>
<path d="M 564.81 1271.51 C 564.096 1271.35 563.189 1271.26 562.578 1270.79 L 562.582 1270.68 C 563.265 1270.42 563.981 1270.63 564.716 1270.69 L 564.81 1271.51 z" fill="rgb(94,94,94)" fill-opacity="0.988235" transform="translate(0,0)"></path>
<metadata><recraft-signature>{"signed_by": "recraft", "signature_b64": "yKE7y1yytEPdhYoQ5zou/cZeAPxCzl8YPUO3Go0KmohxFJdPbPlvXFuK9Tps4aN6gXrq6rqNVbTfllPunDQRDg==", "signing_algo": "Ed25519", "generation_timestamp": 1782415675, "identifier": "6631976d-052a-4c41-889a-19028e82b609"}</recraft-signature></metadata></svg>