<svg xmlns="http://www.w3.org/2000/svg" height="1024" preserveAspectRatio="none" style="display: block;" version="1.1" viewBox="0 0 2048 2048" width="1024">
<path d="M 1121.74 453.391 C 1134.48 452.751 1143.11 457.783 1154.2 463.016 C 1162.61 466.989 1171.45 470.008 1179.9 473.799 C 1188.9 477.837 1197.02 483.787 1206.94 485.335 C 1224.91 488.6 1243.2 491.249 1261.51 491.77 C 1326.51 490.254 1379.14 492.848 1433.31 533.652 C 1489.73 576.147 1521.82 635.504 1561.69 691.833 C 1579.06 716.01 1597.97 739.042 1618.31 760.789 C 1641.07 784.867 1665.17 806.178 1688.5 829.483 C 1697.66 838.632 1694.68 855.59 1693.14 867.504 C 1689.34 896.775 1677.59 918.221 1660.25 941.441 C 1676.47 976.756 1677.35 1031.29 1641.41 1055.1 C 1684.59 1091.1 1714.97 1146.78 1676.53 1198.5 C 1668.53 1209.26 1657.38 1215 1646.82 1222.84 C 1652.91 1228.47 1660 1233.51 1666.23 1239.25 C 1704.11 1274.48 1703.9 1328.75 1668.73 1365.85 C 1635.89 1400.48 1598.75 1406.63 1554.94 1416.78 C 1529.09 1422.77 1503.29 1428.93 1477.52 1435.24 C 1408.03 1452.3 1339.4 1472.67 1271.85 1496.3 C 1188.97 1525.73 1076.72 1586.69 990.25 1588.83 C 932.867 1590.01 897.362 1567.98 855.665 1530.18 C 820.252 1498.08 790.406 1461.56 757.124 1427.47 C 741.31 1411.33 724.428 1396.27 706.59 1382.4 C 683.394 1364.24 657.758 1349.44 630.436 1338.43 C 594.993 1324.3 570.915 1324.85 556.894 1284.88 C 534.374 1278.41 511.462 1272.49 489.453 1264.43 C 434.852 1244.43 339.814 1185.59 315.477 1131.91 C 310.019 1119.88 311.635 1109.74 315.567 1097.61 C 323.345 1073.63 336.424 1051.12 347.998 1028.82 C 360.264 1005.61 371.856 982.043 382.759 958.158 C 395.75 929.835 408.063 901.207 419.688 872.298 C 453.17 790.334 475.19 732.462 551.58 680.524 C 563.939 672.221 576.644 664.448 589.662 657.223 C 606.722 647.711 725.175 586.681 728.651 576.781 C 729.615 574.037 730.453 570.65 732.152 568.259 C 738.779 558.934 769.407 529.221 779.38 526.631 C 793.103 523.067 810.424 528.596 824.326 530.425 C 833.672 531.589 843.055 532.428 852.459 532.942 C 928.02 537.343 1016.13 515.185 1079.76 474.176 C 1094.78 464.496 1102.67 455.399 1121.74 453.391 z M 790.3 563.336 C 785.813 555.208 785.499 553.037 782.606 544.762 C 784.554 535.183 783.567 537.723 774.964 543.093 C 772.088 545.21 763.591 553.097 760.739 555.865 C 754.996 561.483 748.291 566.774 742.902 572.299 C 739.135 575.594 739.537 574.321 738.137 578.491 C 738.608 583.22 743.665 590.13 746.525 594.001 C 799.994 666.371 902.218 693.581 988.383 684.838 C 1021.58 681.664 1054.01 672.875 1084.26 658.845 C 1094.58 654.111 1110.18 645.09 1119.56 641.614 C 1088.65 675.763 1012.71 692.358 965.884 694.282 C 894.743 697.204 819.164 673.943 764.601 627.164 C 750.905 615.421 744.942 603.774 734.262 591.43 C 731.684 591.633 728.711 594.027 726.644 595.501 C 724.769 596.505 720.904 598.788 719.561 600.365 C 697.528 613.76 677.181 627.232 654.205 639.088 C 610.617 661.581 568.157 680.148 530.998 713.35 C 529.021 714.323 528.844 714.733 527.275 716.358 L 526.904 716.736 L 525.184 719.04 C 528.057 720.842 534.032 720.034 537.881 720.742 C 586.691 729.728 625.911 764.518 651.962 805.357 C 657.928 814.709 665.561 827.035 668.539 837.814 C 658.526 828.927 650.081 813.717 641.765 802.583 C 615.774 767.784 567.699 724.854 521.002 726.329 C 519.221 726.39 517.442 726.513 515.67 726.698 C 469.112 772.803 454.733 828.622 429.022 886.565 C 418.407 910.488 408.519 934.907 397.588 958.649 C 385.487 984.496 372.849 1010.09 359.68 1035.41 C 349.058 1055.63 328.435 1090.96 323.492 1112.01 C 322.551 1114.77 322.233 1119.38 321.909 1122.36 C 325.272 1121.06 333.539 1118.21 336.295 1116.93 C 368.988 1107.36 405.572 1116.1 438.071 1126.68 C 510.705 1150.33 587.874 1183.7 640.621 1240.97 C 649.776 1250.91 657.96 1266.81 664.079 1278.68 C 672.191 1260.77 680.879 1242.2 687.287 1223.64 C 671.6 1209.31 660.989 1190.8 642.939 1176.42 C 571.735 1119.71 480.087 1082.66 389.479 1073.22 C 382.304 1072.48 375.367 1073.61 367.933 1072.6 L 367.04 1071.13 C 366.937 1071.85 366.923 1071.39 367.572 1072.42 L 368.661 1069.94 C 378.432 1067.48 393.538 1068.1 403.845 1069.19 C 488.472 1078.16 580.385 1118.27 646.29 1171.48 C 660.866 1183.25 677.857 1204.18 689.727 1218.37 C 696.406 1198.61 704.181 1163.02 706.364 1142.02 C 707.396 1132.1 697.621 1106.85 693.493 1096.4 C 665.93 1026.6 631.167 978.43 579.377 925.549 C 582.633 927.11 585.842 928.768 589 930.518 C 656.284 968.53 694.533 1030.64 715.271 1103.02 C 725.145 1069.58 724.858 1009.12 719.284 975.102 C 716.437 958.666 712.303 942.478 706.921 926.69 C 700.375 906.865 688.751 883.138 683.607 864.882 L 683.161 863.268 C 712.352 897.819 731.116 976.83 732.362 1021.15 C 732.444 1024.07 732.947 1034.29 734.371 1036.06 C 747.624 1032.17 766.842 965.621 771.21 950.46 C 772.248 957.101 771.698 961.531 772.123 968.132 C 771.052 997.815 768.369 1012.26 757.077 1039.82 C 773.264 1043.92 792.336 1048.18 807.878 1054.25 C 858.967 1074.19 911.969 1102.55 941.976 1150.18 C 965.142 1186.95 953.213 1227.78 902.973 1213.17 C 900.152 1212.34 897.348 1211.46 894.561 1210.52 L 895.682 1208.49 C 910.515 1210.13 926.621 1210.58 930.415 1193 C 932.539 1183.17 927.607 1169.61 921.517 1161.86 C 888.662 1120.02 831.392 1096 780.827 1083.79 C 767.689 1081.35 747.7 1079.6 736.379 1087.96 C 727.07 1094.84 724.581 1120.6 722.48 1132.07 C 764.619 1173.82 819.202 1207.44 872.135 1234.79 C 932.936 1266.21 1014.75 1261.42 993.795 1170.67 C 990.981 1158.48 984.765 1145.81 979.918 1133.99 C 982.085 1136.93 984.189 1139.92 986.23 1142.95 C 1001.9 1166.67 1010.66 1197.27 999.824 1224.72 C 994.831 1237.37 987.112 1243.43 976.291 1250.37 C 998.131 1249.59 1022.72 1245.67 1044.54 1242.18 C 1120.14 1230.09 1196.92 1208.44 1270.3 1186.57 C 1347.79 1163.98 1424.56 1138.97 1500.49 1111.58 C 1535.84 1098.56 1636.82 1059.37 1652.03 1022.75 C 1683.21 947.739 1599.44 879.654 1549.42 837.13 C 1528.31 819.175 1505.91 799.454 1485.42 779.918 C 1455.34 750.926 1429.81 717.566 1409.68 680.963 C 1407.53 676.954 1399.24 663.841 1401.17 660.265 C 1403.28 661.508 1413.22 677.209 1415.51 680.411 C 1426.3 695.417 1437.79 709.907 1449.94 723.831 C 1450.91 725.614 1451.7 726.18 1453.16 727.642 C 1456.1 730.47 1459.14 733.84 1462.03 736.814 C 1456.54 715.727 1458.05 709.522 1455.11 690.644 C 1455.86 665.491 1454.92 646.904 1462.35 621.94 C 1462.81 625.876 1463.24 629.605 1463.9 633.52 C 1464.22 675.799 1470.15 720.792 1488.3 759.375 C 1493.52 770.473 1509.51 784.07 1518.97 792.337 C 1514.06 773.116 1508.52 740.079 1516.82 721.127 C 1517.64 717.8 1517.98 716.793 1519.31 713.629 L 1519.91 717.4 C 1520.02 720.422 1519.95 724.574 1520.74 727.317 C 1520.85 730.217 1520.84 736.234 1521.54 738.734 C 1522.88 751.896 1529.38 795.215 1535.98 805.555 C 1540.05 811.938 1573.72 840.254 1582.18 848.382 C 1588.23 854.19 1604.01 870.008 1610.17 875.482 L 1611.01 876.313 L 1612.17 877.669 L 1614.04 880.336 C 1621.1 877.92 1618.89 879.74 1620.4 872.016 C 1621.05 868.712 1623.17 861.158 1625.5 858.813 C 1628.07 857.1 1628.86 853.183 1628.82 850.513 C 1628.61 838.708 1625.56 839.03 1636.05 833.591 C 1636.97 833.111 1638.16 823.637 1637.94 821.008 C 1637.39 814.274 1634.87 811.937 1643.18 813.57 L 1643.44 814.56 L 1645.27 816.861 C 1646.39 813.231 1647.76 811.029 1647.04 807.243 C 1642.02 803.037 1637.21 798.229 1632.2 794.122 C 1631.5 792.991 1631.4 792.9 1630.46 791.935 C 1615.81 778.936 1606.01 766.53 1592.91 753.242 C 1588.56 747.894 1583.66 742.698 1579.39 737.32 C 1567.8 723.292 1557.47 707.682 1546.7 694.739 C 1526.85 664.97 1509.88 637.68 1488.14 609.002 C 1486.7 606.69 1480.73 599.162 1478.83 596.647 C 1476.84 593.979 1474.75 591.369 1472.42 588.987 C 1470.93 586.778 1470.19 585.951 1468.39 583.992 C 1467.82 583.216 1467.24 582.441 1466.67 581.665 C 1447.94 559.071 1419.92 537.822 1394.37 523.805 C 1389.67 521.227 1383.38 517.452 1378.19 518.953 C 1377.33 522.105 1377.82 522.77 1378.62 525.965 C 1391.41 528.887 1382.05 534.987 1384.41 544.498 C 1384.99 546.829 1384.15 550.85 1383.51 553.263 L 1384.52 557.298 C 1390.36 586.1 1403.54 615.802 1409.35 646.445 C 1390.09 614.479 1374.67 551.085 1368.8 513.702 C 1314.47 497.599 1270.72 509.531 1219.52 498.614 C 1217.18 498.146 1203.73 494.464 1202.68 494.649 C 1201.43 495.863 1202.02 498.248 1202.07 499.769 C 1203.78 513.411 1201.41 525.071 1198.94 538.438 C 1196.9 549.515 1171.91 606.505 1159.84 603.087 C 1160.71 600.014 1168.6 588.859 1171.13 584.285 C 1184.05 560.832 1194.27 533.849 1194.69 506.793 C 1194.78 500.762 1193.99 495.726 1189.18 492.017 C 1183.03 489.376 1176.63 485.189 1169.96 482.223 C 1167.93 480.829 1163.14 478.858 1160.69 477.858 L 1154.56 475.189 C 1153.98 474.912 1153.4 474.635 1152.81 474.358 L 1140.24 468.123 C 1138.66 467.101 1136.8 466.204 1135.05 465.523 C 1123.54 462.195 1121.66 462.324 1111.38 468.653 C 1108.6 470.361 1105.73 471.907 1102.77 473.283 C 1100.37 474.126 1096.41 476.132 1094.7 477.969 C 1091.78 479.841 1090.07 481.141 1087.34 483.305 C 1083.77 486.284 1080.24 488.537 1076.56 491.281 C 1070.79 494.761 1064.76 497.959 1059.04 501.461 C 1044.66 508.264 1027.84 516.784 1012.69 521.813 C 954.057 541.288 890.115 550.643 828.502 543.615 C 817.274 542.334 806.582 539.918 795.282 539.013 C 783.093 550.575 815.766 578.233 824.228 584.52 C 840.155 586.577 854.556 589.488 871.039 590.219 C 954.179 593.905 1042.46 568.772 1107.21 515.668 C 1111.64 512.034 1118.02 508.061 1120.11 502.642 C 1120.69 501.137 1119.08 499.392 1118.23 497.941 C 1117.68 497.604 1117.14 497.268 1116.6 496.932 C 1112.19 489.59 1110.21 486.864 1104.73 480.269 L 1106.4 480.039 C 1119.02 480.1 1113.11 472.325 1127.51 471.553 C 1135.3 477.714 1141.71 485.079 1141.83 495.42 C 1142.87 583.792 1056.62 631.592 979.21 637.822 C 911.869 643.243 829.61 617.552 790.3 563.336 z M 1635.93 1074.5 C 1633.47 1075.17 1633.47 1076.17 1636.28 1075.63 C 1636.85 1075.32 1637.5 1075.29 1637.52 1074.71 C 1637.02 1074.35 1636.63 1074.48 1635.93 1074.5 z M 631.873 1319.1 L 634.535 1320.47 C 635.663 1321 639.973 1322.72 639.918 1322.65 C 642.911 1326.52 656.314 1324.2 647.602 1321.23 C 642.315 1319.42 642.414 1320.2 638.85 1316.62 L 638.638 1316.11 C 642.154 1304.96 656.381 1315.43 660.813 1309.93 C 660.862 1309.64 660.838 1308.56 660.618 1308.56 C 653.308 1308.74 638.804 1308.35 631.921 1308.72 L 629.929 1308.73 C 617.429 1302.66 603.019 1299.87 589.452 1294.4 C 581.621 1292.19 567.969 1284.05 583.202 1299.36 C 591.255 1306.63 599.719 1311.6 610.999 1312.5 C 622.759 1313.43 617.773 1318.96 631.873 1319.1 z M 1671.3 1162.48 C 1671.73 1168.01 1671.62 1171.18 1676.97 1173.66 C 1681.24 1153.49 1682.29 1146.19 1677.19 1125.44 C 1673.12 1134.43 1678.23 1138.02 1675.51 1149.01 C 1672.65 1150.47 1672.92 1148.06 1672.68 1145.82 L 1672.59 1145.76 C 1670.4 1147.64 1671.08 1159.82 1671.3 1162.48 z M 1671.02 1313.08 C 1670.33 1320.94 1668.95 1324.11 1676.81 1327.08 C 1681.11 1313.27 1683.46 1295.49 1677.48 1281.79 C 1673.81 1281.34 1675.04 1279.35 1672.56 1279.2 C 1672.17 1279.92 1673.02 1280.81 1673.15 1282.01 C 1671.42 1285.27 1667.18 1273.19 1671.22 1293.08 C 1670.25 1299.66 1668.7 1306.12 1670.9 1312.19 L 1671.02 1313.08 z M 1655.3 931.274 C 1675.84 903.335 1682.59 873.718 1683.35 839.396 C 1674.63 832.876 1662.75 816.52 1652.6 817.308 L 1650.73 817.441 C 1641.78 843.335 1634.59 864.272 1624.13 889.801 C 1633.19 899.202 1638.68 907.179 1645.98 918.043 C 1647.57 920.404 1653.8 929.805 1655.3 931.274 z M 328.048 1132.32 C 329.031 1133.9 329.923 1135.21 330.968 1136.74 C 336.226 1131.68 333.914 1130.6 328.048 1132.32 z M 991.286 1569.53 C 989.023 1570.63 989.029 1570.74 986.85 1572.34 C 975.54 1577.24 994.941 1574.79 996.539 1574.54 C 999.075 1570.92 998.988 1570.21 1002.7 1568.22 C 1010.82 1566.65 1006.6 1551.99 999.306 1566.87 C 998.078 1567.73 998.004 1567.87 996.975 1568.98 C 994.537 1569.36 993.738 1569.51 991.286 1569.53 z M 1661.77 1095.87 C 1653.3 1095.21 1656.83 1087.15 1647.48 1085.59 C 1644.09 1097.92 1655.57 1090.94 1656.03 1103.31 C 1658.92 1105.93 1663.35 1109.11 1663.29 1113 C 1663.11 1123.61 1676.42 1126.16 1669.67 1113.26 C 1666.64 1107.47 1664.65 1106.85 1665.35 1100.77 C 1664.7 1099.09 1663.27 1096.9 1661.77 1095.87 z" fill="rgb(28,25,26)" transform="translate(0,0)"></path>
<path d="M 1130.22 469.9 L 1133.07 471.353 C 1135.36 472.541 1136.22 474 1136.8 476.449 C 1137.18 476.862 1137.57 477.269 1137.95 477.688 C 1139.01 478.867 1140.02 480.148 1141.61 480.622 C 1145.31 481.725 1149.51 478.127 1152.42 476.456 C 1153.14 476.043 1153.86 475.635 1154.56 475.189 L 1160.69 477.858 C 1159.09 478.423 1158.87 478.242 1158.19 479.733 L 1158.22 479.856 L 1158.34 479.904 C 1158.29 480.278 1158.06 480.604 1157.91 480.95 C 1157.67 481.523 1157.46 482.111 1157.22 482.685 C 1157.16 482.818 1157.09 482.942 1157.03 483.074 C 1156.82 483.601 1156.59 484.362 1156.75 484.934 C 1156.92 485.531 1157.52 486.078 1157.9 486.519 C 1158.44 487.141 1158.46 487.545 1158.84 488.378 C 1159.2 489.158 1159.71 489.586 1160.52 489.853 C 1162.44 490.489 1165.48 489.8 1167.51 489.655 C 1168.49 489.586 1169.59 489.285 1170.21 488.472 C 1170.54 488.043 1170.85 487.599 1171.17 487.163 C 1173.27 486.089 1174.5 485.726 1175.8 488.025 L 1176.07 488.19 C 1176.84 489.949 1176.21 490.141 1175.92 491.588 C 1174.26 500.113 1178.95 493.486 1184.77 500.183 C 1190.57 506.864 1189.22 492.7 1189.18 492.017 C 1193.99 495.726 1194.78 500.762 1194.69 506.793 C 1194.27 533.849 1184.05 560.832 1171.13 584.285 C 1168.6 588.859 1160.71 600.014 1159.84 603.087 C 1171.91 606.505 1196.9 549.515 1198.94 538.438 C 1201.41 525.071 1203.78 513.411 1202.07 499.769 C 1209.86 501.743 1211.63 505.336 1218.22 499.704 L 1219.52 498.614 C 1270.72 509.531 1314.47 497.599 1368.8 513.702 C 1374.67 551.085 1390.09 614.479 1409.35 646.445 C 1403.54 615.802 1390.36 586.1 1384.52 557.298 C 1388.29 558.101 1393.91 560.239 1396.99 562.676 L 1398.87 562.694 C 1398.15 561.699 1398.67 562.217 1397.01 561.499 C 1397.78 559.434 1397.23 560.115 1398.2 559.161 L 1399.7 559.536 L 1399.76 558.742 L 1398.87 559.572 L 1399.95 559.353 C 1397.81 558.8 1398.92 558.889 1396.61 559.152 C 1389.41 555.368 1399.74 537.841 1403.58 533.337 C 1408.75 535.248 1409.47 539.939 1411.09 544.97 L 1413.23 544.761 C 1415.81 547.84 1414.44 550.109 1417.62 554.3 C 1423.38 556.876 1425.4 553.81 1430.54 550.482 C 1432.86 555.284 1430.73 557.785 1433.76 561.087 C 1435.8 560.662 1436.52 560.448 1438.48 559.844 C 1442.65 560.539 1445.43 562.451 1448.81 565.107 C 1449.16 572.043 1438.81 570.976 1452.36 578.573 C 1453.61 581.064 1453.62 582.172 1452.83 585 C 1451.51 601.089 1458.79 597.706 1466.25 603.133 C 1465.83 605.86 1464.07 607.286 1462.18 609.426 C 1461.1 614.964 1463.26 619.204 1462.35 621.94 C 1454.92 646.904 1455.86 665.491 1455.11 690.644 C 1458.05 709.522 1456.54 715.727 1462.03 736.814 C 1459.14 733.84 1456.1 730.47 1453.16 727.642 C 1455.94 721.764 1454.22 714.201 1446.39 714.05 L 1448.69 717.618 C 1450.23 720.059 1450.02 721.02 1449.94 723.831 C 1437.79 709.907 1426.3 695.417 1415.51 680.411 C 1413.22 677.209 1403.28 661.508 1401.17 660.265 C 1399.24 663.841 1407.53 676.954 1409.68 680.963 C 1429.81 717.566 1455.34 750.926 1485.42 779.918 C 1505.91 799.454 1528.31 819.175 1549.42 837.13 C 1599.44 879.654 1683.21 947.739 1652.03 1022.75 C 1636.82 1059.37 1535.84 1098.56 1500.49 1111.58 C 1424.56 1138.97 1347.79 1163.98 1270.3 1186.57 C 1196.92 1208.44 1120.14 1230.09 1044.54 1242.18 C 1022.72 1245.67 998.131 1249.59 976.291 1250.37 C 987.112 1243.43 994.831 1237.37 999.824 1224.72 C 1010.66 1197.27 1001.9 1166.67 986.23 1142.95 C 984.189 1139.92 982.085 1136.93 979.918 1133.99 C 984.765 1145.81 990.981 1158.48 993.795 1170.67 C 1014.75 1261.42 932.936 1266.21 872.135 1234.79 C 819.202 1207.44 764.619 1173.82 722.48 1132.07 C 724.581 1120.6 727.07 1094.84 736.379 1087.96 C 747.7 1079.6 767.689 1081.35 780.827 1083.79 C 831.392 1096 888.662 1120.02 921.517 1161.86 C 927.607 1169.61 932.539 1183.17 930.415 1193 C 926.621 1210.58 910.515 1210.13 895.682 1208.49 L 894.561 1210.52 C 897.348 1211.46 900.152 1212.34 902.973 1213.17 C 953.213 1227.78 965.142 1186.95 941.976 1150.18 C 911.969 1102.55 858.967 1074.19 807.878 1054.25 C 792.336 1048.18 773.264 1043.92 757.077 1039.82 C 768.369 1012.26 771.052 997.815 772.123 968.132 C 771.698 961.531 772.248 957.101 771.21 950.46 C 766.842 965.621 747.624 1032.17 734.371 1036.06 C 732.947 1034.29 732.444 1024.07 732.362 1021.15 C 731.116 976.83 712.352 897.819 683.161 863.268 L 683.607 864.882 C 688.751 883.138 700.375 906.865 706.921 926.69 C 712.303 942.478 716.437 958.666 719.284 975.102 C 724.858 1009.12 725.145 1069.58 715.271 1103.02 C 694.533 1030.64 656.284 968.53 589 930.518 C 585.842 928.768 582.633 927.11 579.377 925.549 C 631.167 978.43 665.93 1026.6 693.493 1096.4 C 697.621 1106.85 707.396 1132.1 706.364 1142.02 C 704.181 1163.02 696.406 1198.61 689.727 1218.37 C 677.857 1204.18 660.866 1183.25 646.29 1171.48 C 580.385 1118.27 488.472 1078.16 403.845 1069.19 C 393.538 1068.1 378.432 1067.48 368.661 1069.94 L 367.572 1072.42 C 366.923 1071.39 366.937 1071.85 367.04 1071.13 L 367.933 1072.6 C 375.367 1073.61 382.304 1072.48 389.479 1073.22 C 480.087 1082.66 571.735 1119.71 642.939 1176.42 C 660.989 1190.8 671.6 1209.31 687.287 1223.64 C 680.879 1242.2 672.191 1260.77 664.079 1278.68 C 657.96 1266.81 649.776 1250.91 640.621 1240.97 C 587.874 1183.7 510.705 1150.33 438.071 1126.68 C 405.572 1116.1 368.988 1107.36 336.295 1116.93 C 335.834 1115.52 335.351 1114.11 334.847 1112.71 C 340.161 1110.55 345.288 1108.92 350.702 1106.56 C 347.359 1105.68 345.806 1104.83 338.402 1103.5 C 335.408 1102.96 333.04 1084.89 328.852 1103.5 C 327.841 1107.99 328.357 1108.03 326.406 1112.11 C 324.847 1111.83 324.911 1111.72 323.492 1112.01 C 328.435 1090.96 349.058 1055.63 359.68 1035.41 C 372.849 1010.09 385.487 984.496 397.588 958.649 C 408.519 934.907 418.407 910.488 429.022 886.565 C 454.733 828.622 469.112 772.803 515.67 726.698 C 517.442 726.513 519.221 726.39 521.002 726.329 C 567.699 724.854 615.774 767.784 641.765 802.583 C 650.081 813.717 658.526 828.927 668.539 837.814 C 665.561 827.035 657.928 814.709 651.962 805.357 C 625.911 764.518 586.691 729.728 537.881 720.742 C 534.032 720.034 528.057 720.842 525.184 719.04 L 526.904 716.736 C 530.481 720.171 531.423 717.853 536.033 717.256 C 536.691 717.17 545.354 715.667 543.148 713.362 C 541.505 711.646 533.297 713.186 530.998 713.35 C 568.157 680.148 610.617 661.581 654.205 639.088 C 677.181 627.232 697.528 613.76 719.561 600.365 C 719.395 603.106 717.81 603.663 718.045 605 L 718.624 605.367 C 722.147 605.546 727.568 600.3 731.163 598.317 C 735.44 597.024 734.606 595.789 734.262 591.43 C 744.942 603.774 750.905 615.421 764.601 627.164 C 819.164 673.943 894.743 697.204 965.884 694.282 C 1012.71 692.358 1088.65 675.763 1119.56 641.614 C 1110.18 645.09 1094.58 654.111 1084.26 658.845 C 1054.01 672.875 1021.58 681.664 988.383 684.838 C 902.218 693.581 799.994 666.371 746.525 594.001 C 743.665 590.13 738.608 583.22 738.137 578.491 C 739.537 574.321 739.135 575.594 742.902 572.299 C 742.786 573.164 742.256 575.472 742.493 576.229 C 742.369 576.172 748.463 578.109 747.993 578.108 C 753.359 578.121 762.221 558.039 767.611 568.494 L 768.218 567.757 L 767.591 568.471 C 769.693 566.005 776.077 567.262 776.558 564.112 L 776.443 563.946 C 776.688 563.536 776.933 563.125 777.178 562.715 C 780.774 557.445 780.518 556.868 784.093 562.58 C 784.17 562.702 785.535 563.196 785.979 564.204 C 785.311 565.909 779.472 561.389 778.794 564.373 C 778.259 566.727 780.044 565.786 778.988 569.454 C 779.23 570.324 779 569.985 779.613 570.514 C 781.319 570.749 781.182 568.149 785.163 570.331 C 788.082 571.93 789.573 565.3 790.3 563.336 C 829.61 617.552 911.869 643.243 979.21 637.822 C 1056.62 631.592 1142.87 583.792 1141.83 495.42 C 1141.71 485.079 1135.3 477.714 1127.51 471.553 L 1130.22 469.9 z M 752.303 590.203 L 751.967 588.581 C 751.758 587.439 751.16 583.133 749.181 583.24 L 749.087 583.299 C 746.759 582.768 746.175 582.387 743.728 582.04 C 744.453 587.64 744.558 593.668 752.303 590.203 z M 1646.12 954.276 C 1647.63 948.781 1647.17 945.505 1641.82 942.556 C 1638.16 949.583 1639.67 951.211 1646.12 954.276 z M 1317.29 508.512 C 1305.17 506.436 1287.5 507.266 1274.78 507.508 C 1279.15 507.919 1295.08 507.677 1297.63 508.55 C 1303.39 510.52 1311.98 509.518 1317.29 508.512 z M 1158.77 795.331 C 1158.78 795.982 1158.77 796.491 1158.92 797.084 C 1159.27 797.032 1159.35 796.824 1159.85 796.286 C 1160.01 795.808 1160.21 795.542 1160.09 795.133 C 1159.65 794.999 1159.29 795.201 1158.77 795.331 z M 1434.93 697.792 C 1433.75 698.715 1433.5 700.392 1434.35 701.618 C 1435.21 702.844 1436.86 703.194 1438.14 702.416 C 1439.03 701.871 1439.55 700.874 1439.48 699.829 C 1439.42 698.783 1438.78 697.861 1437.82 697.433 C 1436.86 697.006 1435.75 697.144 1434.93 697.792 z M 1362.54 515.305 C 1361.51 515.491 1360.7 516.296 1360.51 517.325 C 1360.32 518.355 1360.79 519.394 1361.69 519.935 C 1362.58 520.476 1363.72 520.405 1364.54 519.757 C 1365.45 519.042 1365.75 517.802 1365.28 516.749 C 1364.8 515.695 1363.67 515.1 1362.54 515.305 z M 534.305 731.368 C 531.734 734.787 541.015 734.011 542.586 734.069 C 543.399 730.246 537.283 731.406 534.305 731.368 z M 1638.69 937.339 C 1638.43 932.202 1637.2 930.084 1632.43 928.256 C 1631.96 934.759 1631.56 936.547 1638.69 937.339 z M 902.347 636.348 C 907.287 638.93 908.025 639.111 913.459 638.215 C 910.202 634.846 907.027 635.993 902.347 636.348 z" fill="rgb(242,242,243)" transform="translate(0,0)"></path>
<path d="M 1446.39 714.05 C 1445.21 713.712 1444.69 713.593 1444.13 712.495 C 1444.72 709.758 1454.48 707.868 1450.68 697.674 C 1450.1 696.107 1449.53 687.349 1449.92 686.297 C 1454.69 684.296 1452.77 698.566 1454.28 699.368 C 1454.42 699.252 1455 691.532 1455.11 690.644 C 1458.05 709.522 1456.54 715.727 1462.03 736.814 C 1459.14 733.84 1456.1 730.47 1453.16 727.642 C 1455.94 721.764 1454.22 714.201 1446.39 714.05 z" fill="rgb(229,229,233)" transform="translate(0,0)"></path>
<path d="M 771.21 950.46 C 771.368 949.633 771.297 949.491 771.739 948.925 C 774.266 948.811 772.454 965.968 772.123 968.132 C 771.698 961.531 772.248 957.101 771.21 950.46 z" fill="rgb(97,94,99)" transform="translate(0,0)"></path>
<path d="M 894.561 1210.52 C 888.079 1207.12 889.091 1206.91 895.682 1208.49 L 894.561 1210.52 z" fill="rgb(49,47,47)" transform="translate(0,0)"></path>
<path d="M 1196.82 909.245 C 1200.33 913.07 1242.84 1022.06 1245.25 1031.49 C 1212.19 1045.13 1152.61 1056.02 1117.01 1059.32 C 1114.19 1057.72 1109.03 1040.12 1107.47 1035.32 C 1096.49 1001.53 1082.19 969.456 1069.1 936.57 C 1112.24 930.314 1154.9 921.185 1196.82 909.245 z" fill="rgb(28,25,26)" transform="translate(0,0)"></path>
<path d="M 1191 917.167 L 1192.45 916.91 C 1193.05 917.192 1193.64 917.474 1194.23 917.756 C 1206.42 945.364 1228.84 1002.55 1239.25 1028.35 C 1197.79 1039.67 1171.43 1046.93 1127.41 1052.23 C 1119.54 1053.17 1120.03 1054.14 1117.83 1046.97 C 1106.7 1010.72 1092.7 976.075 1077.52 941.382 C 1105.33 938.674 1163.72 924.595 1191 917.167 z" fill="rgb(39,164,232)" transform="translate(0,0)"></path>
<path d="M 1138.17 773.127 C 1139.63 772.876 1138.7 772.924 1140.92 773.5 C 1149.79 790.085 1158.74 812.621 1165.92 830.153 C 1174.9 851.772 1183.67 873.477 1192.23 895.266 C 1152.16 907.102 1108.06 915.788 1066.69 922.662 L 1064.51 923.145 C 1063.16 922.152 1062.99 922.026 1062.36 920.418 C 1046.66 880.472 1030.59 839.861 1012.61 800.898 C 1054.88 793.639 1096.78 784.371 1138.17 773.127 z" fill="rgb(28,25,26)" transform="translate(0,0)"></path>
<path d="M 1134.49 780.116 L 1136.38 780.024 C 1141.84 783.912 1178.39 877.542 1183.99 891.556 C 1151.23 900.835 1105.14 910.412 1071.52 916.631 L 1068.98 916.884 C 1064.6 914.822 1055.49 885.985 1052.75 879.042 C 1042.84 854.325 1032.4 829.821 1021.44 805.547 C 1026.94 804.26 1033.05 803.049 1038.64 802.089 C 1071.18 796.5 1102.55 788.384 1134.49 780.116 z" fill="rgb(226,83,59)" transform="translate(0,0)"></path>
<path d="M 1330.51 863.814 L 1332.47 864.398 C 1336.95 871.393 1344.67 891.057 1348.2 899.688 C 1359.73 928.24 1370.88 956.946 1381.63 985.798 C 1358.49 997.875 1293.9 1019.41 1267.24 1026.87 C 1264.72 1027.14 1265.93 1027.35 1263.62 1026.17 C 1259.6 1018.98 1250.48 995.391 1247.24 986.909 C 1237.15 960.527 1224.56 930.777 1216.18 903.888 C 1248.01 895.525 1301.18 878.259 1330.51 863.814 z" fill="rgb(28,25,26)" transform="translate(0,0)"></path>
<path d="M 1326.25 872.908 L 1327.95 872.792 C 1334.79 877.076 1369.34 970.107 1374.15 982.757 C 1345.38 996.496 1300.49 1010.57 1270.23 1019.99 L 1267.75 1019.68 C 1261.72 1012.21 1228.57 922.852 1222.76 907.758 C 1251.56 900.6 1299.01 884.241 1326.25 872.908 z" fill="rgb(250,189,36)" transform="translate(0,0)"></path>
<path d="M 1274.66 732.15 C 1281.46 738.678 1323.28 837.885 1328.28 851.464 C 1288.35 866.45 1253.04 879.084 1211.7 890.438 L 1210.89 890.262 C 1207.49 885.988 1204.55 878.514 1202.46 873.313 C 1188.36 838.117 1172.79 803.597 1157.98 768.714 C 1163.14 767.182 1168.7 765.834 1173.93 764.475 C 1208.17 755.579 1241.31 743.86 1274.66 732.15 z" fill="rgb(28,25,26)" transform="translate(0,0)"></path>
<path d="M 1270.59 739.861 C 1272.04 739.649 1271.15 739.647 1273.21 740.415 C 1288.35 771.681 1307.6 815.145 1320.56 847.978 C 1285.9 861.035 1250.76 872.831 1215.24 883.341 L 1213.3 883.557 C 1211.96 882.241 1171.34 785.239 1165.91 772.502 C 1201.37 763.512 1236.31 752.616 1270.59 739.861 z" fill="rgb(153,180,95)" transform="translate(0,0)"></path>
<path d="M 1147.21 616.537 C 1153.92 619.201 1140.51 629.6 1137.7 631.678 C 1136.65 630.93 1134.51 629.847 1134.3 628.461 C 1134.14 628.659 1145.96 617.776 1147.21 616.537 z" fill="rgb(28,25,26)" transform="translate(0,0)"></path>
<path d="M 743.728 582.04 C 746.175 582.387 746.759 582.768 749.087 583.299 L 749.181 583.24 C 751.16 583.133 751.758 587.439 751.967 588.581 L 752.303 590.203 C 744.558 593.668 744.453 587.64 743.728 582.04 z" fill="rgb(242,242,243)" fill-opacity="0.847059" transform="translate(0,0)"></path>
<path d="M 1641.82 942.556 C 1647.17 945.505 1647.63 948.781 1646.12 954.276 C 1639.67 951.211 1638.16 949.583 1641.82 942.556 z" fill="rgb(242,242,243)" fill-opacity="0.862745" transform="translate(0,0)"></path>
<path d="M 1274.78 507.508 C 1287.5 507.266 1305.17 506.436 1317.29 508.512 C 1311.98 509.518 1303.39 510.52 1297.63 508.55 C 1295.08 507.677 1279.15 507.919 1274.78 507.508 z" fill="rgb(242,242,243)" fill-opacity="0.682353" transform="translate(0,0)"></path>
<path d="M 1632.43 928.256 C 1637.2 930.084 1638.43 932.202 1638.69 937.339 C 1631.56 936.547 1631.96 934.759 1632.43 928.256 z" fill="rgb(242,242,243)" fill-opacity="0.917647" transform="translate(0,0)"></path>
<path d="M 1434.93 697.792 C 1435.75 697.144 1436.86 697.006 1437.82 697.433 C 1438.78 697.861 1439.42 698.783 1439.48 699.829 C 1439.55 700.874 1439.03 701.871 1438.14 702.416 C 1436.86 703.194 1435.21 702.844 1434.35 701.618 C 1433.5 700.392 1433.75 698.715 1434.93 697.792 z" fill="rgb(242,242,243)" fill-opacity="0.941176" transform="translate(0,0)"></path>
<path d="M 534.305 731.368 C 537.283 731.406 543.399 730.246 542.586 734.069 C 541.015 734.011 531.734 734.787 534.305 731.368 z" fill="rgb(242,242,243)" fill-opacity="0.831373" transform="translate(0,0)"></path>
<path d="M 902.347 636.348 C 907.027 635.993 910.202 634.846 913.459 638.215 C 908.025 639.111 907.287 638.93 902.347 636.348 z" fill="rgb(242,242,243)" fill-opacity="0.929412" transform="translate(0,0)"></path>
<path d="M 1362.54 515.305 C 1363.67 515.1 1364.8 515.695 1365.28 516.749 C 1365.75 517.802 1365.45 519.042 1364.54 519.757 C 1363.72 520.405 1362.58 520.476 1361.69 519.935 C 1360.79 519.394 1360.32 518.355 1360.51 517.325 C 1360.7 516.296 1361.51 515.491 1362.54 515.305 z" fill="rgb(242,242,243)" fill-opacity="0.784314" transform="translate(0,0)"></path>
<path d="M 1158.77 795.331 C 1159.29 795.201 1159.65 794.999 1160.09 795.133 C 1160.21 795.542 1160.01 795.808 1159.85 796.286 C 1159.35 796.824 1159.27 797.032 1158.92 797.084 C 1158.77 796.491 1158.78 795.982 1158.77 795.331 z" fill="rgb(242,242,243)" fill-opacity="0.945098" transform="translate(0,0)"></path>
<path d="M 1636.36 1069.44 C 1644.94 1076.9 1655.46 1086.64 1661.77 1095.87 C 1653.3 1095.21 1656.83 1087.15 1647.48 1085.59 C 1644.09 1097.92 1655.57 1090.94 1656.03 1103.31 C 1658.92 1105.93 1663.35 1109.11 1663.29 1113 C 1663.11 1123.61 1676.42 1126.16 1669.67 1113.26 C 1666.64 1107.47 1664.65 1106.85 1665.35 1100.77 C 1671.34 1109.84 1673.7 1115.13 1677.19 1125.44 C 1673.12 1134.43 1678.23 1138.02 1675.51 1149.01 C 1672.65 1150.47 1672.92 1148.06 1672.68 1145.82 L 1672.59 1145.76 C 1670.4 1147.64 1671.08 1159.82 1671.3 1162.48 C 1671.73 1168.01 1671.62 1171.18 1676.97 1173.66 C 1671.84 1185.19 1663.06 1199.15 1652.82 1206.42 C 1623.25 1227.41 1577.56 1244.48 1543.75 1257.44 C 1426.63 1301.33 1307.52 1339.73 1186.82 1372.52 C 1125.62 1388.91 1048.3 1408.65 985.235 1414.47 C 1000.02 1400.62 1011.89 1384.89 1011.9 1363.86 C 1011.91 1326.86 987.677 1292.55 957.191 1274.18 L 956.816 1270.6 C 962.364 1271.18 967.924 1271.64 973.493 1271.97 C 1141.29 1280.59 1511.91 1180.66 1636.36 1069.44 z M 1636.28 1075.63 C 1636.85 1075.32 1637.5 1075.29 1637.52 1074.71 C 1637.02 1074.35 1636.63 1074.48 1635.93 1074.5 C 1633.47 1075.17 1633.47 1076.17 1636.28 1075.63 z" fill="rgb(242,242,243)" transform="translate(0,0)"></path>
<path d="M 1635.93 1074.5 C 1636.63 1074.48 1637.02 1074.35 1637.52 1074.71 C 1637.5 1075.29 1636.85 1075.32 1636.28 1075.63 C 1633.47 1076.17 1633.47 1075.17 1635.93 1074.5 z" fill="rgb(242,242,243)" fill-opacity="0.917647" transform="translate(0,0)"></path>
<path d="M 1640.79 1233.13 C 1656.12 1242.82 1672.49 1264.15 1677.48 1281.79 C 1673.81 1281.34 1675.04 1279.35 1672.56 1279.2 C 1672.17 1279.92 1673.02 1280.81 1673.15 1282.01 C 1671.42 1285.27 1667.18 1273.19 1671.22 1293.08 C 1670.25 1299.66 1668.7 1306.12 1670.9 1312.19 L 1671.02 1313.08 C 1670.33 1320.94 1668.95 1324.11 1676.81 1327.08 C 1651.3 1391.23 1559.61 1401.08 1499.78 1415.24 C 1451.16 1426.68 1402.9 1439.61 1355.08 1454.03 C 1301.98 1470.23 1259.54 1486.05 1208.16 1506.58 C 1135.02 1535.8 1075.06 1565.16 996.539 1574.54 C 999.075 1570.92 998.988 1570.21 1002.7 1568.22 C 1010.82 1566.65 1006.6 1551.99 999.306 1566.87 C 998.078 1567.73 998.004 1567.87 996.975 1568.98 C 994.537 1569.36 993.738 1569.51 991.286 1569.53 C 1023.18 1543.91 1019.67 1495.86 1003.67 1462.15 C 997.979 1450.15 990.173 1440.49 982.153 1430.03 C 1024.23 1430.6 1066.27 1427.64 1107.85 1421.17 C 1218.46 1403.78 1341.55 1363.72 1445.87 1324.33 C 1504.75 1302.1 1587.25 1266.29 1640.79 1233.13 z" fill="rgb(242,242,243)" transform="translate(0,0)"></path>
<path d="M 629.929 1308.73 L 629.773 1306.61 C 634.934 1305.03 644.438 1307.19 651.94 1305.56 C 660.651 1303.67 667.958 1300.16 676.067 1298.04 C 710.596 1289.01 748.821 1323.2 775.213 1340.23 C 806.883 1360.86 839.905 1379.34 874.055 1395.54 C 903.85 1409.36 931.514 1417.76 963.253 1425.74 C 981.32 1430.28 999.686 1464.35 1004.13 1481.24 C 1014.91 1522.45 1006.66 1561.46 962.451 1575.53 C 917.263 1564.69 896.63 1550.16 863.509 1518.47 C 796.287 1454.13 741.504 1372.68 654.904 1332.46 C 650.066 1330.22 629.553 1322.97 627.463 1320.13 L 631.873 1319.1 L 634.535 1320.47 C 635.663 1321 639.973 1322.72 639.918 1322.65 C 642.911 1326.52 656.314 1324.2 647.602 1321.23 C 642.315 1319.42 642.414 1320.2 638.85 1316.62 L 638.638 1316.11 C 642.154 1304.96 656.381 1315.43 660.813 1309.93 C 660.862 1309.64 660.838 1308.56 660.618 1308.56 C 653.308 1308.74 638.804 1308.35 631.921 1308.72 L 629.929 1308.73 z" fill="rgb(242,242,243)" transform="translate(0,0)"></path>
<path d="M 829.012 1407.94 C 849.402 1411.45 868.176 1419.46 891.563 1427.43 C 923.67 1438.37 975.319 1475.89 964.824 1516.93 C 963.504 1522.09 956.511 1526.34 951.263 1528.17 C 939.177 1528.13 936.349 1527.69 925.009 1523.23 C 948.212 1518.43 949.209 1507.52 935.708 1489.09 C 914.257 1459.81 881.448 1438.31 850.009 1421.03 C 843.01 1417.18 835.215 1412.95 829.012 1407.94 z" fill="rgb(28,25,26)" transform="translate(0,0)"></path>
<path d="M 745.348 1201.56 C 759.049 1200.49 772.656 1210.08 785.445 1215.36 C 802.049 1222.23 818.419 1230.04 835.198 1236.57 C 873.476 1251.48 914.449 1258.98 951.932 1275.98 C 963.882 1281.88 972.432 1289.9 980.378 1300.56 C 1004.71 1333.21 1018.15 1378.31 980.96 1407.69 C 975.609 1411.91 971.479 1412.06 965.067 1410.8 C 890.779 1392.77 828.014 1340.68 769.159 1294.3 C 752.386 1281.08 735.432 1268.41 718.579 1255.32 C 710.825 1249.7 708.813 1242.18 708.182 1233.06 C 706.371 1206.89 724.058 1202.71 745.348 1201.56 z" fill="rgb(242,242,243)" transform="translate(0,0)"></path>
<path d="M 818.286 1260.17 C 862.186 1263 909.376 1280.08 939.452 1313.39 C 947.957 1322.81 965.55 1350.19 956.546 1362.1 C 947.291 1368.06 929.764 1359.72 920.25 1356.21 C 927.82 1354.77 930.322 1354.2 937.475 1351.46 C 911.797 1304.19 864.928 1282.34 816.906 1263.4 L 818.286 1260.17 z" fill="rgb(28,25,26)" transform="translate(0,0)"></path>
<path d="M 816.906 1263.4 C 815.684 1262.89 809.347 1260.74 808.918 1259.63 L 809.074 1259.47 L 810.478 1259.32 L 810.171 1259.3 C 812.554 1259.35 815.823 1259.89 818.286 1260.17 L 816.906 1263.4 z" fill="rgb(28,25,26)" transform="translate(0,0)"></path>
<path d="M 1094.23 487.566 C 1098.67 484.726 1100.34 480.84 1104.73 480.269 C 1110.21 486.864 1112.19 489.59 1116.6 496.932 C 1108.52 495.889 1107.06 479.178 1103.13 493.445 C 1100.04 504.697 1118.79 488.791 1113.49 504.949 C 1112.45 504.97 1111.2 504.784 1110.22 505.252 L 1110.12 505.469 C 1110.49 505.773 1111.02 505.852 1111.46 506.036 C 1111.61 506.101 1111.75 506.188 1111.91 506.25 C 1112.82 506.613 1113.65 506.598 1114.51 506.099 C 1116.81 504.757 1117.21 502.325 1117.72 499.976 C 1117.86 499.293 1118.05 498.618 1118.23 497.941 C 1119.08 499.392 1120.69 501.137 1120.11 502.642 C 1118.02 508.061 1111.64 512.034 1107.21 515.668 C 1042.46 568.772 954.179 593.905 871.039 590.219 C 854.556 589.488 840.155 586.577 824.228 584.52 C 815.766 578.233 783.093 550.575 795.282 539.013 C 806.582 539.918 817.274 542.334 828.502 543.615 C 890.115 550.643 954.057 541.288 1012.69 521.813 C 1027.84 516.784 1044.66 508.264 1059.04 501.461 C 1059.67 501.49 1064.44 501.298 1064.47 501.322 C 1064.65 505.24 1066.65 503.606 1072.43 503.448 C 1078.92 497.758 1087.66 494.407 1092.01 489.32 L 1093.28 487.875 L 1094.23 487.566 z M 797.604 545.691 C 798.858 542.893 799.078 542.839 797.038 540.67 C 796.356 542.629 794.306 546.269 797.604 545.691 z" fill="rgb(229,229,233)" fill-opacity="0.988235" transform="translate(0,0)"></path>
<path d="M 797.038 540.67 C 799.078 542.839 798.858 542.893 797.604 545.691 C 794.306 546.269 796.356 542.629 797.038 540.67 z" fill="rgb(229,229,233)" fill-opacity="0.654902" transform="translate(0,0)"></path>
<path d="M 328.048 1132.32 L 328.143 1129.68 C 333.162 1125.07 351.347 1122.11 358.811 1120.57 C 427.3 1195.07 517.678 1229.25 616.31 1238 C 630.649 1251.38 648.761 1281.86 614.065 1279.74 C 520.446 1274.03 412.061 1226.16 347.905 1157.72 C 341.689 1151.21 336.024 1144.19 330.968 1136.74 C 336.226 1131.68 333.914 1130.6 328.048 1132.32 z" fill="rgb(229,229,233)" transform="translate(0,0)"></path>
<path d="M 1524.69 706.871 L 1524.33 707.045 C 1529.6 702.973 1530.27 697.225 1536 695.141 L 1538.04 696.6 C 1541 698.269 1542.44 697.589 1544.63 697.651 C 1544.56 697.649 1546.86 701.327 1547.7 701.391 C 1550.22 702.544 1548.55 708.041 1549.9 708.823 C 1553.94 711.165 1556.21 718.063 1561 718.989 C 1563.26 719.426 1561.61 725.499 1561.38 725.949 C 1560.45 725.936 1559.54 725.038 1558.68 725.498 C 1558.78 729.487 1562.09 732.695 1562.12 732.958 C 1561.53 733.677 1560.8 732.908 1559.57 734.427 C 1560.16 734.815 1565.56 734.309 1566.94 737.001 C 1569.04 741.095 1569.72 741.758 1573.43 744.146 C 1577.17 745.177 1575.47 749.431 1579.38 751.052 C 1582.04 754.247 1583.12 754.96 1584.08 758.786 C 1585.66 762.822 1586 766.595 1587.32 770.671 L 1587.72 771.946 C 1590.48 780.648 1592.29 782.256 1598.72 788.589 C 1600.51 790.353 1605.18 793.95 1606.81 796.403 C 1608.82 799.424 1621.1 803.575 1624.75 803.591 C 1627.46 803.603 1628.86 810.774 1633.27 809.72 C 1638.28 808.126 1640.21 809.911 1643.18 813.57 C 1634.87 811.937 1637.39 814.274 1637.94 821.008 C 1638.16 823.637 1636.97 833.111 1636.05 833.591 C 1625.56 839.03 1628.61 838.708 1628.82 850.513 C 1628.86 853.183 1628.07 857.1 1625.5 858.813 C 1623.17 861.158 1621.05 868.712 1620.4 872.016 C 1618.89 879.74 1621.1 877.92 1614.04 880.336 L 1612.17 877.669 C 1622.51 877.633 1613.84 869.204 1610.71 869.911 C 1610.01 870.817 1610.83 873.798 1610.95 875.333 L 1611.01 876.313 L 1610.17 875.482 C 1605.56 867.185 1599.98 860.653 1592.91 854.316 L 1593.42 855.116 C 1576.98 843.034 1546.97 815.257 1534.37 798.988 C 1534.46 799.1 1525.53 760.027 1525.49 758.064 L 1526.52 757.583 C 1528.62 759.533 1529.11 762.587 1529.98 765.469 C 1530.18 761.792 1525.93 746.368 1524.56 742.424 L 1522.57 736.598 L 1521.54 738.734 C 1520.84 736.234 1520.85 730.217 1520.74 727.317 C 1522.67 728.603 1524.97 733.968 1526.22 736.487 C 1526.28 734.881 1526.39 733.221 1525.67 731.762 C 1521.85 724.013 1524 715.888 1524.69 706.871 z" fill="rgb(229,229,233)" fill-opacity="0.92549" transform="translate(0,0)"></path>
<path d="M 1463.9 633.52 L 1464.56 626.079 C 1464.89 630.033 1464.8 635.813 1466.58 638.882 C 1469.28 633.592 1462.29 622.181 1467.34 609.509 L 1470.1 607.2 C 1474.52 610.977 1477.53 617.309 1482.3 618.886 C 1487.24 618.466 1487.64 617.623 1491.44 619.422 C 1492.9 621.552 1492.5 622.097 1492.41 624.807 C 1496.3 629.305 1504.37 634.098 1504.99 639.232 L 1501.44 642.49 C 1510.99 657.712 1521.28 681.171 1518.4 699.438 L 1513.57 705.765 C 1514.22 708.454 1517.2 708.853 1520.3 712.037 L 1519.31 713.629 C 1517.98 716.793 1517.64 717.8 1516.82 721.127 C 1508.52 740.079 1514.06 773.116 1518.97 792.337 C 1509.51 784.07 1493.52 770.473 1488.3 759.375 C 1470.15 720.792 1464.22 675.799 1463.9 633.52 z" fill="rgb(242,242,243)" fill-opacity="0.952941" transform="translate(0,0)"></path>
<path d="M 1462.35 621.94 C 1463.26 619.204 1461.1 614.964 1462.18 609.426 C 1464.07 607.286 1465.83 605.86 1466.25 603.133 C 1458.79 597.706 1451.51 601.089 1452.83 585 L 1454 585.942 C 1463.02 593.298 1479.04 614.516 1485.59 616.576 L 1487.94 615.665 C 1489.19 612.68 1488.6 612.689 1488.14 609.002 C 1509.88 637.68 1526.85 664.97 1546.7 694.739 C 1540.28 692.948 1535.43 681.513 1538.04 696.6 L 1536 695.141 C 1530.27 697.225 1529.6 702.973 1524.33 707.045 L 1524.69 706.871 C 1524 715.888 1521.85 724.013 1525.67 731.762 C 1526.39 733.221 1526.28 734.881 1526.22 736.487 C 1524.97 733.968 1522.67 728.603 1520.74 727.317 C 1519.95 724.574 1520.02 720.422 1519.91 717.4 L 1519.31 713.629 L 1520.3 712.037 C 1517.2 708.853 1514.22 708.454 1513.57 705.765 L 1518.4 699.438 C 1521.28 681.171 1510.99 657.712 1501.44 642.49 L 1504.99 639.232 C 1504.37 634.098 1496.3 629.305 1492.41 624.807 C 1492.5 622.097 1492.9 621.552 1491.44 619.422 C 1487.64 617.623 1487.24 618.466 1482.3 618.886 C 1477.53 617.309 1474.52 610.977 1470.1 607.2 L 1467.34 609.509 C 1462.29 622.181 1469.28 633.592 1466.58 638.882 C 1464.8 635.813 1464.89 630.033 1464.56 626.079 L 1463.9 633.52 C 1463.24 629.605 1462.81 625.876 1462.35 621.94 z M 1526.49 673.355 C 1526.03 668.005 1525.15 666.48 1520.09 664.322 C 1520.65 670.839 1520.76 670.684 1526.49 673.355 z" fill="rgb(229,229,233)" fill-opacity="0.780392" transform="translate(0,0)"></path>
<path d="M 1520.09 664.322 C 1525.15 666.48 1526.03 668.005 1526.49 673.355 C 1520.76 670.684 1520.65 670.839 1520.09 664.322 z" fill="rgb(242,242,243)" fill-opacity="0.631373" transform="translate(0,0)"></path>
<path d="M 1378.62 525.965 C 1377.82 522.77 1377.33 522.105 1378.19 518.953 C 1383.38 517.452 1389.67 521.227 1394.37 523.805 C 1419.92 537.822 1447.94 559.071 1466.67 581.665 C 1463.28 585.994 1462.82 594.969 1468.94 596.513 C 1471.5 597.159 1475.44 604.933 1478.89 604.064 C 1478.93 603.929 1478.71 598.27 1478.83 596.647 C 1480.73 599.162 1486.7 606.69 1488.14 609.002 C 1488.6 612.689 1489.19 612.68 1487.94 615.665 L 1485.59 616.576 C 1479.04 614.516 1463.02 593.298 1454 585.942 L 1452.83 585 C 1453.62 582.172 1453.61 581.064 1452.36 578.573 C 1438.81 570.976 1449.16 572.043 1448.81 565.107 C 1445.43 562.451 1442.65 560.539 1438.48 559.844 C 1436.52 560.448 1435.8 560.662 1433.76 561.087 C 1430.73 557.785 1432.86 555.284 1430.54 550.482 C 1425.4 553.81 1423.38 556.876 1417.62 554.3 C 1414.44 550.109 1415.81 547.84 1413.23 544.761 L 1411.09 544.97 C 1409.47 539.939 1408.75 535.248 1403.58 533.337 C 1399.74 537.841 1389.41 555.368 1396.61 559.152 C 1398.92 558.889 1397.81 558.8 1399.95 559.353 L 1398.87 559.572 L 1399.76 558.742 L 1399.7 559.536 L 1398.2 559.161 C 1397.23 560.115 1397.78 559.434 1397.01 561.499 C 1398.67 562.217 1398.15 561.699 1398.87 562.694 L 1396.99 562.676 C 1393.91 560.239 1388.29 558.101 1384.52 557.298 L 1383.51 553.263 C 1384.15 550.85 1384.99 546.829 1384.41 544.498 C 1382.05 534.987 1391.41 528.887 1378.62 525.965 z" fill="rgb(242,242,243)" fill-opacity="0.635294" transform="translate(0,0)"></path>
<path d="M 782.606 544.762 C 785.499 553.037 785.813 555.208 790.3 563.336 C 789.573 565.3 788.082 571.93 785.163 570.331 C 781.182 568.149 781.319 570.749 779.613 570.514 C 779 569.985 779.23 570.324 778.988 569.454 C 780.044 565.786 778.259 566.727 778.794 564.373 C 779.472 561.389 785.311 565.909 785.979 564.204 C 785.535 563.196 784.17 562.702 784.093 562.58 C 780.518 556.868 780.774 557.445 777.178 562.715 C 776.933 563.125 776.688 563.536 776.443 563.946 L 776.558 564.112 C 776.077 567.262 769.693 566.005 767.591 568.471 L 768.218 567.757 L 767.611 568.494 C 762.221 558.039 753.359 578.121 747.993 578.108 C 748.463 578.109 742.369 576.172 742.493 576.229 C 742.256 575.472 742.786 573.164 742.902 572.299 C 748.291 566.774 754.996 561.483 760.739 555.865 C 761.56 556.618 763.531 559.324 763.558 559.322 C 780.717 557.768 780.147 557.222 781.787 547.831 L 782.606 544.762 z" fill="rgb(242,242,243)" fill-opacity="0.843137" transform="translate(0,0)"></path>
<path d="M 1584.08 758.786 L 1586.4 759.326 C 1594.31 769.154 1595.24 782.731 1607.87 790.237 C 1614.31 794.064 1621.33 798.699 1628.22 801.517 C 1630.94 802.606 1634.76 809.3 1638.05 805.962 C 1640.73 803.24 1634.09 799.146 1632.2 794.122 C 1637.21 798.229 1642.02 803.037 1647.04 807.243 C 1644.3 810.188 1643.36 810.692 1643.44 814.56 L 1643.18 813.57 C 1640.21 809.911 1638.28 808.126 1633.27 809.72 C 1628.86 810.774 1627.46 803.603 1624.75 803.591 C 1621.1 803.575 1608.82 799.424 1606.81 796.403 C 1605.18 793.95 1600.51 790.353 1598.72 788.589 C 1592.29 782.256 1590.48 780.648 1587.72 771.946 L 1587.32 770.671 C 1586 766.595 1585.66 762.822 1584.08 758.786 z" fill="rgb(242,242,243)" fill-opacity="0.866667" transform="translate(0,0)"></path>
<path d="M 1586.4 759.326 C 1597.23 763.372 1604.84 779.725 1614.65 786.578 C 1618.25 789.092 1623.41 791.521 1624.8 795.021 C 1629.19 801.659 1630.52 796.289 1630.46 791.935 C 1631.4 792.9 1631.5 792.991 1632.2 794.122 C 1634.09 799.146 1640.73 803.24 1638.05 805.962 C 1634.76 809.3 1630.94 802.606 1628.22 801.517 C 1621.33 798.699 1614.31 794.064 1607.87 790.237 C 1595.24 782.731 1594.31 769.154 1586.4 759.326 z" fill="rgb(242,242,243)" fill-opacity="0.72549" transform="translate(0,0)"></path>
<path d="M 1579.38 751.052 L 1581.18 751.985 C 1584.94 753.983 1588.77 764.055 1592.91 753.242 C 1606.01 766.53 1615.81 778.936 1630.46 791.935 C 1630.52 796.289 1629.19 801.659 1624.8 795.021 C 1623.41 791.521 1618.25 789.092 1614.65 786.578 C 1604.84 779.725 1597.23 763.372 1586.4 759.326 L 1584.08 758.786 C 1583.12 754.96 1582.04 754.247 1579.38 751.052 z" fill="rgb(229,229,233)" fill-opacity="0.607843" transform="translate(0,0)"></path>
<path d="M 1538.04 696.6 C 1535.43 681.513 1540.28 692.948 1546.7 694.739 C 1557.47 707.682 1567.8 723.292 1579.39 737.32 C 1577.77 736.899 1574.19 735.394 1572.99 736.055 C 1571.42 740.128 1571.48 740.789 1573.43 744.146 C 1569.72 741.758 1569.04 741.095 1566.94 737.001 C 1565.56 734.309 1560.16 734.815 1559.57 734.427 C 1560.8 732.908 1561.53 733.677 1562.12 732.958 C 1562.09 732.695 1558.78 729.487 1558.68 725.498 C 1559.54 725.038 1560.45 725.936 1561.38 725.949 C 1561.61 725.499 1563.26 719.426 1561 718.989 C 1556.21 718.063 1553.94 711.165 1549.9 708.823 C 1548.55 708.041 1550.22 702.544 1547.7 701.391 C 1546.86 701.327 1544.56 697.649 1544.63 697.651 C 1542.44 697.589 1541 698.269 1538.04 696.6 z" fill="rgb(229,229,233)" fill-opacity="0.713725" transform="translate(0,0)"></path>
<path d="M 1521.54 738.734 L 1522.57 736.598 L 1524.56 742.424 C 1525.93 746.368 1530.18 761.792 1529.98 765.469 C 1529.11 762.587 1528.62 759.533 1526.52 757.583 L 1525.49 758.064 C 1525.53 760.027 1534.46 799.1 1534.37 798.988 C 1546.97 815.257 1576.98 843.034 1593.42 855.116 L 1592.91 854.316 C 1599.98 860.653 1605.56 867.185 1610.17 875.482 C 1604.01 870.008 1588.23 854.19 1582.18 848.382 C 1573.72 840.254 1540.05 811.938 1535.98 805.555 C 1529.38 795.215 1522.88 751.896 1521.54 738.734 z" fill="rgb(229,229,233)" fill-opacity="0.988235" transform="translate(0,0)"></path>
<path d="M 1614.04 880.336 C 1621.1 877.92 1618.89 879.74 1620.4 872.016 C 1621.05 868.712 1623.17 861.158 1625.5 858.813 C 1628.07 857.1 1628.86 853.183 1628.82 850.513 C 1628.61 838.708 1625.56 839.03 1636.05 833.591 C 1636.97 833.111 1638.16 823.637 1637.94 821.008 C 1637.39 814.274 1634.87 811.937 1643.18 813.57 L 1643.44 814.56 L 1645.27 816.861 L 1644.93 817.756 C 1636.23 841.686 1628.76 861.801 1619.15 885.584 C 1617.39 883.677 1616.01 882.034 1614.04 880.336 z" fill="rgb(242,242,243)" transform="translate(0,0)"></path>
<path d="M 1671.22 1293.08 C 1667.18 1273.19 1671.42 1285.27 1673.15 1282.01 C 1673.02 1280.81 1672.17 1279.92 1672.56 1279.2 C 1675.04 1279.35 1673.81 1281.34 1677.48 1281.79 C 1683.46 1295.49 1681.11 1313.27 1676.81 1327.08 C 1668.95 1324.11 1670.33 1320.94 1671.02 1313.08 C 1677.07 1323.62 1677 1304.98 1676.95 1302.96 C 1676.85 1297.97 1677.09 1272.9 1671.22 1293.08 z" fill="rgb(242,242,243)" fill-opacity="0.862745" transform="translate(0,0)"></path>
<path d="M 1656.03 1103.31 C 1655.57 1090.94 1644.09 1097.92 1647.48 1085.59 C 1656.83 1087.15 1653.3 1095.21 1661.77 1095.87 C 1663.27 1096.9 1664.7 1099.09 1665.35 1100.77 C 1664.65 1106.85 1666.64 1107.47 1669.67 1113.26 C 1676.42 1126.16 1663.11 1123.61 1663.29 1113 C 1663.35 1109.11 1658.92 1105.93 1656.03 1103.31 C 1661.55 1104.33 1662.44 1104.85 1661.8 1099.27 C 1657.86 1097.93 1657.62 1097.74 1656.61 1101.67 L 1656.03 1103.31 z M 1668.48 1118.45 C 1669.68 1117.7 1670.06 1116.12 1669.32 1114.91 C 1668.59 1113.7 1667.02 1113.3 1665.79 1114.02 C 1664.99 1114.49 1664.5 1115.36 1664.51 1116.29 C 1664.53 1117.23 1665.05 1118.08 1665.87 1118.53 C 1666.69 1118.97 1667.69 1118.94 1668.48 1118.45 z" fill="rgb(242,242,243)" fill-opacity="0.901961" transform="translate(0,0)"></path>
<path d="M 1665.79 1114.02 C 1667.02 1113.3 1668.59 1113.7 1669.32 1114.91 C 1670.06 1116.12 1669.68 1117.7 1668.48 1118.45 C 1667.69 1118.94 1666.69 1118.97 1665.87 1118.53 C 1665.05 1118.08 1664.53 1117.23 1664.51 1116.29 C 1664.5 1115.36 1664.99 1114.49 1665.79 1114.02 z" fill="rgb(242,242,243)" fill-opacity="0.866667" transform="translate(0,0)"></path>
<path d="M 1102.77 473.283 C 1105.73 471.907 1108.6 470.361 1111.38 468.653 C 1121.66 462.324 1123.54 462.195 1135.05 465.523 C 1132.12 467.48 1124.7 468.591 1130.22 469.9 L 1127.51 471.553 C 1113.11 472.325 1119.02 480.1 1106.4 480.039 L 1106.11 479.39 C 1107.28 478.625 1111.58 475.574 1110.44 473.673 C 1110.01 473.656 1109.62 474.207 1109.33 474.472 C 1106.82 474.109 1105.23 473.906 1102.77 473.283 z M 1117.9 469.119 C 1118.48 468.857 1119.07 468.754 1119.39 468.242 L 1119.35 468.129 C 1118.6 467.91 1117.92 468.656 1117.42 469.047 C 1117.06 469.304 1116.1 469.914 1115.72 470.39 C 1116.45 469.966 1117.17 469.543 1117.9 469.119 z" fill="rgb(229,229,233)" fill-opacity="0.933333" transform="translate(0,0)"></path>
<path d="M 1117.42 469.047 C 1117.92 468.656 1118.6 467.91 1119.35 468.129 L 1119.39 468.242 C 1119.07 468.754 1118.48 468.857 1117.9 469.119 C 1117.17 469.543 1116.45 469.966 1115.72 470.39 C 1116.1 469.914 1117.06 469.304 1117.42 469.047 z" fill="rgb(229,229,233)" fill-opacity="0.776471" transform="translate(0,0)"></path>
<path d="M 1573.43 744.146 C 1571.48 740.789 1571.42 740.128 1572.99 736.055 C 1574.19 735.394 1577.77 736.899 1579.39 737.32 C 1583.66 742.698 1588.56 747.894 1592.91 753.242 C 1588.77 764.055 1584.94 753.983 1581.18 751.985 L 1579.38 751.052 C 1575.47 749.431 1577.17 745.177 1573.43 744.146 z" fill="rgb(229,229,233)" fill-opacity="0.356863" transform="translate(0,0)"></path>
<path d="M 326.406 1112.11 C 328.357 1108.03 327.841 1107.99 328.852 1103.5 C 333.04 1084.89 335.408 1102.96 338.402 1103.5 C 345.806 1104.83 347.359 1105.68 350.702 1106.56 C 345.288 1108.92 340.161 1110.55 334.847 1112.71 C 333.393 1112.87 328.655 1113.03 327.644 1113.77 C 327.513 1113.76 327.382 1113.75 327.251 1113.73 C 326.836 1113.32 327.116 1113.68 326.406 1112.11 z" fill="rgb(229,229,233)" fill-opacity="0.87451" transform="translate(0,0)"></path>
<path d="M 760.739 555.865 C 763.591 553.097 772.088 545.21 774.964 543.093 C 775.699 548.339 777.092 549.814 781.787 547.831 C 780.147 557.222 780.717 557.768 763.558 559.322 C 763.531 559.324 761.56 556.618 760.739 555.865 z" fill="rgb(242,242,243)" fill-opacity="0.635294" transform="translate(0,0)"></path>
<path d="M 1677.19 1125.44 C 1682.29 1146.19 1681.24 1153.49 1676.97 1173.66 C 1671.62 1171.18 1671.73 1168.01 1671.3 1162.48 C 1679.23 1166.24 1678.64 1153.63 1675.51 1149.01 C 1678.23 1138.02 1673.12 1134.43 1677.19 1125.44 z" fill="rgb(242,242,243)" fill-opacity="0.913725" transform="translate(0,0)"></path>
<path d="M 1076.56 491.281 C 1082.4 497.685 1084.24 490.102 1093.28 487.875 L 1092.01 489.32 C 1087.66 494.407 1078.92 497.758 1072.43 503.448 C 1066.65 503.606 1064.65 505.24 1064.47 501.322 C 1064.44 501.298 1059.67 501.49 1059.04 501.461 C 1064.76 497.959 1070.79 494.761 1076.56 491.281 z" fill="rgb(229,229,233)" fill-opacity="0.882353" transform="translate(0,0)"></path>
<path d="M 1169.96 482.223 C 1176.63 485.189 1183.03 489.376 1189.18 492.017 C 1189.22 492.7 1190.57 506.864 1184.77 500.183 C 1178.95 493.486 1174.26 500.113 1175.92 491.588 C 1176.21 490.141 1176.84 489.949 1176.07 488.19 L 1175.8 488.025 C 1174.5 485.726 1173.27 486.089 1171.17 487.163 C 1170.75 485.504 1170.33 483.895 1169.96 482.223 z" fill="rgb(242,242,243)" fill-opacity="0.87451" transform="translate(0,0)"></path>
<path d="M 1160.69 477.858 C 1163.14 478.858 1167.93 480.829 1169.96 482.223 C 1170.33 483.895 1170.75 485.504 1171.17 487.163 C 1170.85 487.599 1170.54 488.043 1170.21 488.472 C 1169.59 489.285 1168.49 489.586 1167.51 489.655 C 1165.48 489.8 1162.44 490.489 1160.52 489.853 C 1159.71 489.586 1159.2 489.158 1158.84 488.378 C 1158.46 487.545 1158.44 487.141 1157.9 486.519 C 1157.52 486.078 1156.92 485.531 1156.75 484.934 C 1156.59 484.362 1156.82 483.601 1157.03 483.074 C 1157.09 482.942 1157.16 482.818 1157.22 482.685 C 1157.46 482.111 1157.67 481.523 1157.91 480.95 C 1158.06 480.604 1158.29 480.278 1158.34 479.904 L 1158.22 479.856 L 1158.19 479.733 C 1158.87 478.242 1159.09 478.423 1160.69 477.858 z" fill="rgb(242,242,243)" fill-opacity="0.839216" transform="translate(0,0)"></path>
<path d="M 1140.24 468.123 L 1152.81 474.358 C 1153.4 474.635 1153.98 474.912 1154.56 475.189 C 1153.86 475.635 1153.14 476.043 1152.42 476.456 C 1149.51 478.127 1145.31 481.725 1141.61 480.622 C 1140.02 480.148 1139.01 478.867 1137.95 477.688 C 1137.57 477.269 1137.18 476.862 1136.8 476.449 C 1137.7 473.276 1139.14 471.979 1140.24 468.123 z" fill="rgb(242,242,243)" fill-opacity="0.364706" transform="translate(0,0)"></path>
<path d="M 1466.67 581.665 C 1467.24 582.441 1467.82 583.216 1468.39 583.992 C 1467.39 585.692 1466.11 588.93 1467.09 590.508 C 1471.91 598.251 1471.7 590.518 1472.42 588.987 C 1474.75 591.369 1476.84 593.979 1478.83 596.647 C 1478.71 598.27 1478.93 603.929 1478.89 604.064 C 1475.44 604.933 1471.5 597.159 1468.94 596.513 C 1462.82 594.969 1463.28 585.994 1466.67 581.665 z" fill="rgb(242,242,243)" fill-opacity="0.47451" transform="translate(0,0)"></path>
<path d="M 1671.22 1293.08 C 1677.09 1272.9 1676.85 1297.97 1676.95 1302.96 C 1671.09 1304.27 1671.26 1307.01 1670.9 1312.19 C 1668.7 1306.12 1670.25 1299.66 1671.22 1293.08 z" fill="rgb(242,242,243)" fill-opacity="0.819608" transform="translate(0,0)"></path>
<path d="M 1118.23 497.941 C 1118.05 498.618 1117.86 499.293 1117.72 499.976 C 1117.21 502.325 1116.81 504.757 1114.51 506.099 C 1113.65 506.598 1112.82 506.613 1111.91 506.25 C 1111.75 506.188 1111.61 506.101 1111.46 506.036 C 1111.02 505.852 1110.49 505.773 1110.12 505.469 L 1110.22 505.252 C 1111.2 504.784 1112.45 504.97 1113.49 504.949 C 1118.79 488.791 1100.04 504.697 1103.13 493.445 C 1107.06 479.178 1108.52 495.889 1116.6 496.932 C 1117.14 497.268 1117.68 497.604 1118.23 497.941 z" fill="rgb(229,229,233)" fill-opacity="0.666667" transform="translate(0,0)"></path>
<path d="M 1378.62 525.965 C 1391.41 528.887 1382.05 534.987 1384.41 544.498 C 1384.99 546.829 1384.15 550.85 1383.51 553.263 C 1381.37 544.101 1379.48 535.353 1378.62 525.965 z" fill="rgb(242,242,243)" transform="translate(0,0)"></path>
<path d="M 321.909 1122.36 C 322.233 1119.38 322.551 1114.77 323.492 1112.01 C 324.911 1111.72 324.847 1111.83 326.406 1112.11 C 327.116 1113.68 326.836 1113.32 327.251 1113.73 C 327.382 1113.75 327.513 1113.76 327.644 1113.77 C 328.655 1113.03 333.393 1112.87 334.847 1112.71 C 335.351 1114.11 335.834 1115.52 336.295 1116.93 C 333.539 1118.21 325.272 1121.06 321.909 1122.36 z" fill="rgb(242,242,243)" fill-opacity="0.854902" transform="translate(0,0)"></path>
<path d="M 1202.07 499.769 C 1202.02 498.248 1201.43 495.863 1202.68 494.649 C 1203.73 494.464 1217.18 498.146 1219.52 498.614 L 1218.22 499.704 C 1211.63 505.336 1209.86 501.743 1202.07 499.769 z" fill="rgb(242,242,243)" fill-opacity="0.921569" transform="translate(0,0)"></path>
<path d="M 1671.3 1162.48 C 1671.08 1159.82 1670.4 1147.64 1672.59 1145.76 L 1672.68 1145.82 C 1672.92 1148.06 1672.65 1150.47 1675.51 1149.01 C 1678.64 1153.63 1679.23 1166.24 1671.3 1162.48 z" fill="rgb(242,242,243)" fill-opacity="0.835294" transform="translate(0,0)"></path>
<path d="M 1094.7 477.969 C 1096.41 476.132 1100.37 474.126 1102.77 473.283 C 1105.23 473.906 1106.82 474.109 1109.33 474.472 C 1105.71 475.607 1097.37 477.154 1106.11 479.39 L 1106.4 480.039 L 1104.73 480.269 C 1100.34 480.84 1098.67 484.726 1094.23 487.566 C 1094.51 481.718 1098.38 483.241 1094.7 477.969 z" fill="rgb(229,229,233)" fill-opacity="0.509804" transform="translate(0,0)"></path>
<path d="M 631.921 1308.72 C 638.804 1308.35 653.308 1308.74 660.618 1308.56 C 660.838 1308.56 660.862 1309.64 660.813 1309.93 C 656.381 1315.43 642.154 1304.96 638.638 1316.11 C 636.864 1309.05 639.298 1311.29 631.921 1308.72 z" fill="rgb(242,242,243)" fill-opacity="0.921569" transform="translate(0,0)"></path>
<path d="M 1087.34 483.305 C 1090.01 486.812 1089.77 487.068 1094.23 487.566 L 1093.28 487.875 C 1084.24 490.102 1082.4 497.685 1076.56 491.281 C 1080.24 488.537 1083.77 486.284 1087.34 483.305 z" fill="rgb(229,229,233)" fill-opacity="0.772549" transform="translate(0,0)"></path>
<path d="M 583.202 1299.36 C 567.969 1284.05 581.621 1292.19 589.452 1294.4 C 587.442 1298.41 586.908 1297.25 583.202 1299.36 z" fill="rgb(242,242,243)" fill-opacity="0.0392157" transform="translate(0,0)"></path>
<path d="M 530.998 713.35 C 533.297 713.186 541.505 711.646 543.148 713.362 C 545.354 715.667 536.691 717.17 536.033 717.256 C 531.423 717.853 530.481 720.171 526.904 716.736 L 527.275 716.358 C 528.844 714.733 529.021 714.323 530.998 713.35 z" fill="rgb(242,242,243)" fill-opacity="0.458824" transform="translate(0,0)"></path>
<path d="M 719.799 1162.81 C 728.15 1168.92 728.564 1167.88 721.183 1173.13 L 720.464 1173.64 C 713.337 1179.94 719.1 1165.64 719.799 1162.81 z" fill="rgb(242,242,243)" transform="translate(0,0)"></path>
<path d="M 1135.05 465.523 C 1136.8 466.204 1138.66 467.101 1140.24 468.123 C 1139.14 471.979 1137.7 473.276 1136.8 476.449 C 1136.22 474 1135.36 472.541 1133.07 471.353 L 1130.22 469.9 C 1124.7 468.591 1132.12 467.48 1135.05 465.523 z" fill="rgb(242,242,243)" fill-opacity="0.541176" transform="translate(0,0)"></path>
<path d="M 1670.9 1312.19 C 1671.26 1307.01 1671.09 1304.27 1676.95 1302.96 C 1677 1304.98 1677.07 1323.62 1671.02 1313.08 L 1670.9 1312.19 z" fill="rgb(242,242,243)" fill-opacity="0.690196" transform="translate(0,0)"></path>
<path d="M 638.85 1316.62 C 642.414 1320.2 642.315 1319.42 647.602 1321.23 C 656.314 1324.2 642.911 1326.52 639.918 1322.65 C 639.973 1322.72 635.663 1321 634.535 1320.47 C 636.97 1319.3 636.833 1318.5 638.85 1316.62 z" fill="rgb(242,242,243)" fill-opacity="0.788235" transform="translate(0,0)"></path>
<path d="M 726.644 595.501 C 728.757 597.489 728.575 597.614 731.163 598.317 C 727.568 600.3 722.147 605.546 718.624 605.367 L 718.045 605 C 717.81 603.663 719.395 603.106 719.561 600.365 C 720.904 598.788 724.769 596.505 726.644 595.501 z" fill="rgb(229,229,233)" fill-opacity="0.956863" transform="translate(0,0)"></path>
<path d="M 774.964 543.093 C 783.567 537.723 784.554 535.183 782.606 544.762 L 781.787 547.831 C 777.092 549.814 775.699 548.339 774.964 543.093 z" fill="rgb(242,242,243)" fill-opacity="0.137255" transform="translate(0,0)"></path>
<path d="M 1446.39 714.05 C 1454.22 714.201 1455.94 721.764 1453.16 727.642 C 1451.7 726.18 1450.91 725.614 1449.94 723.831 C 1450.02 721.02 1450.23 720.059 1448.69 717.618 L 1446.39 714.05 z" fill="rgb(229,229,233)" fill-opacity="0.662745" transform="translate(0,0)"></path>
<path d="M 1087.34 483.305 C 1090.07 481.141 1091.78 479.841 1094.7 477.969 C 1098.38 483.241 1094.51 481.718 1094.23 487.566 C 1089.77 487.068 1090.01 486.812 1087.34 483.305 z" fill="rgb(229,229,233)" fill-opacity="0.396078" transform="translate(0,0)"></path>
<path d="M 999.306 1566.87 C 1000.44 1567.31 1001.57 1567.76 1002.7 1568.22 C 998.988 1570.21 999.075 1570.92 996.539 1574.54 C 994.941 1574.79 975.54 1577.24 986.85 1572.34 C 991.2 1574.63 999.468 1574.25 996.975 1568.98 C 998.004 1567.87 998.078 1567.73 999.306 1566.87 z" fill="rgb(242,242,243)" fill-opacity="0.701961" transform="translate(0,0)"></path>
<path d="M 999.306 1566.87 C 1006.6 1551.99 1010.82 1566.65 1002.7 1568.22 C 1001.57 1567.76 1000.44 1567.31 999.306 1566.87 z" fill="rgb(242,242,243)" fill-opacity="0.580392" transform="translate(0,0)"></path>
<path d="M 1611.01 876.313 L 1610.95 875.333 C 1610.83 873.798 1610.01 870.817 1610.71 869.911 C 1613.84 869.204 1622.51 877.633 1612.17 877.669 L 1611.01 876.313 z" fill="rgb(242,242,243)" fill-opacity="0.647059" transform="translate(0,0)"></path>
<path d="M 1468.39 583.992 C 1470.19 585.951 1470.93 586.778 1472.42 588.987 C 1471.7 590.518 1471.91 598.251 1467.09 590.508 C 1466.11 588.93 1467.39 585.692 1468.39 583.992 z" fill="rgb(229,229,233)" fill-opacity="0.376471" transform="translate(0,0)"></path>
<path d="M 991.286 1569.53 C 993.738 1569.51 994.537 1569.36 996.975 1568.98 C 999.468 1574.25 991.2 1574.63 986.85 1572.34 C 989.029 1570.74 989.023 1570.63 991.286 1569.53 z" fill="rgb(242,242,243)" fill-opacity="0.32549" transform="translate(0,0)"></path>
<path d="M 726.644 595.501 C 728.711 594.027 731.684 591.633 734.262 591.43 C 734.606 595.789 735.44 597.024 731.163 598.317 C 728.575 597.614 728.757 597.489 726.644 595.501 z" fill="rgb(242,242,243)" fill-opacity="0.482353" transform="translate(0,0)"></path>
<path d="M 1109.33 474.472 C 1109.62 474.207 1110.01 473.656 1110.44 473.673 C 1111.58 475.574 1107.28 478.625 1106.11 479.39 C 1097.37 477.154 1105.71 475.607 1109.33 474.472 z" fill="rgb(229,229,233)" fill-opacity="0.396078" transform="translate(0,0)"></path>
<path d="M 1647.04 807.243 C 1647.76 811.029 1646.39 813.231 1645.27 816.861 L 1643.44 814.56 C 1643.36 810.692 1644.3 810.188 1647.04 807.243 z" fill="rgb(242,242,243)" fill-opacity="0.682353" transform="translate(0,0)"></path>
<path d="M 1656.03 1103.31 L 1656.61 1101.67 C 1657.62 1097.74 1657.86 1097.93 1661.8 1099.27 C 1662.44 1104.85 1661.55 1104.33 1656.03 1103.31 z" fill="rgb(242,242,243)" fill-opacity="0.854902" transform="translate(0,0)"></path>
<path d="M 957.191 1274.18 C 955.932 1273.62 950.565 1271.35 949.99 1270.49 C 950.933 1269.17 955.638 1270.38 956.816 1270.6 L 957.191 1274.18 z" fill="rgb(229,229,233)" transform="translate(0,0)"></path>
<path d="M 328.048 1132.32 C 333.914 1130.6 336.226 1131.68 330.968 1136.74 C 329.923 1135.21 329.031 1133.9 328.048 1132.32 z" fill="rgb(229,229,233)" fill-opacity="0.698039" transform="translate(0,0)"></path>
<path d="M 1519.31 713.629 L 1519.91 717.4 L 1516.82 721.127 C 1517.64 717.8 1517.98 716.793 1519.31 713.629 z" fill="rgb(49,47,47)" transform="translate(0,0)"></path>
<metadata><recraft-signature>{"signed_by": "recraft", "signature_b64": "DvATpDhpS3uMp3XqejVv1RHQjKb6/uOJgBT5UEGnwfk0lTaIe+RJWMKW8pi47jLQ2lpXjAH+nehOl1HNVIGVDA==", "signing_algo": "Ed25519", "generation_timestamp": 1782415616, "identifier": "5c7ad942-9422-4379-b023-ccb2c4e37b08"}</recraft-signature></metadata></svg>