<svg xmlns="http://www.w3.org/2000/svg" height="1024" preserveAspectRatio="none" style="display: block;" version="1.1" viewBox="0 0 2048 2048" width="1024">
<defs>
	<linearGradient gradientUnits="userSpaceOnUse" id="Gradient1" x1="1796.31" x2="1795.68" y1="1643.32" y2="1647.81">
		<stop class="stop0" offset="0" stop-color="rgb(220,220,220)" stop-opacity="0.490196"></stop>
		<stop class="stop1" offset="1" stop-color="rgb(220,219,219)" stop-opacity="0.529412"></stop>
	</linearGradient>
	<linearGradient gradientUnits="userSpaceOnUse" id="Gradient2" x1="1199.09" x2="1188.24" y1="1730.09" y2="1726.04">
		<stop class="stop0" offset="0" stop-color="rgb(215,213,214)" stop-opacity="0.796078"></stop>
		<stop class="stop1" offset="1" stop-color="rgb(213,211,211)" stop-opacity="0.854902"></stop>
	</linearGradient>
	<linearGradient gradientUnits="userSpaceOnUse" id="Gradient3" x1="1312.18" x2="1319.97" y1="1231.08" y2="1237.03">
		<stop class="stop0" offset="0" stop-color="rgb(249,248,248)" stop-opacity="0.764706"></stop>
		<stop class="stop1" offset="1" stop-color="rgb(248,248,248)" stop-opacity="0.831373"></stop>
	</linearGradient>
	<linearGradient gradientUnits="userSpaceOnUse" id="Gradient4" x1="1834.89" x2="1934.69" y1="1358.38" y2="1303.57">
		<stop class="stop0" offset="0" stop-color="rgb(215,213,213)" stop-opacity="0.835294"></stop>
		<stop class="stop1" offset="1" stop-color="rgb(213,212,213)" stop-opacity="1"></stop>
	</linearGradient>
	<linearGradient gradientUnits="userSpaceOnUse" id="Gradient5" x1="1922.48" x2="1905.8" y1="1671.36" y2="1796.71">
		<stop class="stop0" offset="0" stop-color="rgb(214,212,212)" stop-opacity="0.941176"></stop>
		<stop class="stop1" offset="1" stop-color="rgb(217,217,217)" stop-opacity="1"></stop>
	</linearGradient>
	<linearGradient gradientUnits="userSpaceOnUse" id="Gradient6" x1="125.023" x2="913.609" y1="994.599" y2="1701.21">
		<stop class="stop0" offset="0" stop-color="rgb(249,249,248)" stop-opacity="0.921569"></stop>
		<stop class="stop1" offset="1" stop-color="rgb(250,249,249)" stop-opacity="1"></stop>
	</linearGradient>
</defs>
<path d="M 372.599 0 L 895.129 0 C 900.015 3.88181 935.265 12.5565 944.482 16.18 C 1013.61 42.8815 1064.56 102.698 1079.94 175.188 C 1086.59 206.995 1085.09 244.843 1085.13 277.744 L 1085.06 400.926 L 1085.16 829.105 L 1085.14 1434.76 L 1085.07 1622.89 C 1085.04 1651.61 1086.38 1696.56 1084.08 1724.03 C 1081.33 1759.11 1069.57 1792.9 1049.94 1822.11 C 1019.82 1867.74 975.671 1892.07 942.662 1933.75 C 906.137 1979.87 859.244 2014.41 803.106 2032.42 C 793.366 2035.54 783.49 2038.23 773.509 2040.47 C 767.494 2041.78 751.67 2043.86 747.816 2048 L 267.294 2048 C 236.967 2041.75 209.389 2037.27 180.444 2025.26 C 107.397 1994.96 47.1488 1931.65 19.2752 1857.77 C 16.1662 1849.53 13.1204 1841.06 10.7371 1832.57 C 7.95958 1822.68 5.83808 1803.46 2.28379 1794.82 L 0 1793.95 L 0 1790.16 L 2.154 1788.31 C 4.36274 1770.32 3.07055 1726.87 3.0527 1706.88 L 3.02943 1553.93 L 3.07812 1057.12 L 3.33474 1057.51 L 3.39891 1056.56 L 4.53318 1327.19 L 4.48663 1423.63 C 4.47449 1438.14 3.75806 1461.73 4.76111 1475.7 L 4.83967 1476.69 C 4.45012 1485.24 3.88958 1514.95 4.72325 1523.4 L 5.60752 1523.71 C 6.06672 1517.83 5.37037 1514.39 7.10297 1508.97 C 8.69763 1513.2 8.04935 1551.57 8.05089 1558.94 L 8.01449 1721.01 C 7.9989 1732.81 7.46716 1760.54 8.19709 1773.44 C 8.78279 1774.42 9.36848 1775.39 9.95418 1776.37 C 11.7422 1792.21 14.8562 1817.17 20.179 1832.08 C 40.4693 1843.63 62.81 1865.23 84.6931 1879.19 C 155.707 1924.5 231.489 1952.86 315.051 1966.41 C 452.489 1988.71 610.134 1974.85 728.563 1895.83 C 837.531 1820.01 907.453 1681.63 928.694 1553.22 C 933.912 1521.68 938.09 1479.26 939.675 1446.99 C 948.975 1257.67 950.038 1068.05 951.185 878.541 C 951.256 866.708 954.266 809.024 950.716 804.038 C 890.288 903.56 806.07 970.936 695.601 1008.24 C 682.987 1012.5 681.628 1002.59 680.662 993.762 C 681.313 989.692 681.262 983.489 680.927 979.268 C 674.15 893.997 601.941 823.736 517.024 817.201 C 507.7 816.484 497.542 817.105 488.085 817.766 C 485.968 817.894 484.274 817.839 482.257 818.391 C 426.323 826.202 373.022 858.882 346.687 909.857 L 346.021 911.027 C 340.974 919.555 334.208 935.554 332.548 945.216 C 330.791 949.265 329.732 953.58 328.601 957.839 L 328.343 959.36 C 326.426 970.244 324.823 977.774 323.396 989.118 C 323.341 990.885 322.981 1002.5 322.769 1002.88 C 316.253 1014.56 269.308 991.33 262.55 988.351 L 262.312 988.229 C 255.274 984.548 239.057 976.573 231.795 973.218 C 223.145 968.048 210.456 960.432 201.807 955.664 C 190.629 948.115 179.681 940.788 169.035 932.472 C 166.367 930.388 161.335 926.161 158.631 924.773 C 135.07 904.34 112.81 881.815 93.8975 856.976 C 92.4912 855.129 90.5631 852.001 88.7973 850.785 C 47.8325 794.24 29.4532 751.006 11.4521 684.075 C 11.2169 683.057 10.837 679.907 9.63247 679.413 C 8.63917 679.885 8.97091 686.43 8.95807 687.391 C 8.677 707.395 9.2984 728.514 8.6433 748.279 C 6.49141 752.059 8.4608 872.302 1.68376 894.212 L 1.04639 893.982 L 0 888.749 L 0 381.607 C 2.04622 376.124 4.32353 360.046 5.96377 352.828 C 10.0412 333.024 16.1972 314.31 24.1612 295.768 C 44.289 248.906 75.4133 219.862 112.067 186.016 C 138.876 161.357 165.926 136.962 193.215 112.834 C 214.32 93.9612 234.392 74.4936 256.048 55.5182 C 282.063 32.7236 314.321 19.2793 347.176 9.28229 C 354.723 6.98571 369.619 6.95034 372.599 0 z M 986.749 722.85 C 989.319 727.947 986.86 730.509 987.94 734.49 C 988.769 737.546 994.07 733.365 993.869 730.021 C 993.525 724.324 995.79 718.184 996.447 712.215 C 996.018 706.912 997.543 704.293 991.888 705.647 C 990.678 710.132 987.515 718.791 986.749 722.85 z M 174.794 434.036 C 180.905 423.28 182.569 412.366 186.137 400.691 C 198.219 361.163 231.192 333.226 266.159 313.755 C 272.971 309.961 291.645 300.92 293.22 292.941 C 290.386 287.197 281.72 288.959 276.067 289.315 C 238.719 296.453 207.104 319.688 185.276 350.51 C 173.606 366.989 150.259 416.659 163.44 435.958 C 168.118 438.694 170.711 437.503 174.794 434.036 z M 352.246 287.755 C 359.164 286.996 382.777 285.039 384.821 280.985 C 390.35 270.013 357.211 272.128 355.088 272.353 C 319.722 276.963 307.227 292.344 352.246 287.755 z M 165.522 452.33 C 153.338 462.45 150.751 492.697 165.822 500.737 C 177.915 492.582 174.953 478.306 173.158 465.484 C 172.398 460.053 170.92 454.643 165.522 452.33 z M 1040.93 1642.29 C 1037.45 1628.02 1035.33 1636.16 1031.26 1643.64 C 1036.75 1646.53 1036.69 1647.08 1040.93 1642.29 z" fill="rgb(10,11,11)" transform="translate(0,0)"></path>
<path d="M 991.888 705.647 C 997.543 704.293 996.018 706.912 996.447 712.215 C 995.79 718.184 993.525 724.324 993.869 730.021 C 994.07 733.365 988.769 737.546 987.94 734.49 C 986.86 730.509 989.319 727.947 986.749 722.85 C 987.515 718.791 990.678 710.132 991.888 705.647 z" fill="rgb(233,233,232)" fill-opacity="0.392157" transform="translate(0,0)"></path>
<path d="M 996.447 712.215 L 996.771 712.369 C 997.932 795.521 996.938 881.135 996.947 964.452 L 997.023 1437.71 L 996.92 1655.55 C 996.859 1700.5 998.728 1750.12 993.04 1794.48 C 985.807 1850.9 956.173 1911.06 916.054 1952.04 C 863.226 2006.87 790.409 2037.91 714.273 2038.06 L 419.89 2038.02 L 333.399 2038.17 C 298.157 2038.33 267.632 2040.01 232.665 2032.48 C 131.99 2010.81 46.8603 1932.43 20.179 1832.08 C 40.4693 1843.63 62.81 1865.23 84.6931 1879.19 C 155.707 1924.5 231.489 1952.86 315.051 1966.41 C 452.489 1988.71 610.134 1974.85 728.563 1895.83 C 837.531 1820.01 907.453 1681.63 928.694 1553.22 C 933.912 1521.68 938.09 1479.26 939.675 1446.99 C 948.975 1257.67 950.038 1068.05 951.185 878.541 C 951.256 866.708 954.266 809.024 950.716 804.038 C 967.82 773.938 975.884 755.252 986.749 722.85 C 989.319 727.947 986.86 730.509 987.94 734.49 C 988.769 737.546 994.07 733.365 993.869 730.021 C 993.525 724.324 995.79 718.184 996.447 712.215 z" fill="rgb(233,233,232)" transform="translate(0,0)"></path>
<path d="M 996.335 687.026 C 997.48 696.052 997.133 703.331 996.771 712.369 L 996.447 712.215 C 996.018 706.912 997.543 704.293 991.888 705.647 C 994.178 697.825 994.79 694.861 996.335 687.026 z" fill="rgb(213,212,212)" transform="translate(0,0)"></path>
<path d="M 308.422 133.423 C 310.123 133.307 311.825 133.213 313.528 133.138 C 337.191 132.16 364.903 132.85 388.885 132.893 L 523.035 133.065 L 637.173 132.93 C 677.488 132.884 713.681 131.54 753.512 139.569 C 804.427 149.832 864.614 176.797 903.142 212.152 C 874.763 211.652 845.681 210.153 817.161 209.444 C 722.447 206.882 627.708 205.352 532.961 204.854 C 483.424 204.821 431.316 203.691 382.074 207.29 C 293.207 213.787 205.397 250.118 146.704 319.034 C 85.5614 395.813 88.6502 464.653 81.8222 556.707 C 75.8493 632.754 71.2181 708.9 67.9306 785.11 C 50.8264 752.251 12.4419 647.432 9.87894 611.255 C 8.21169 587.72 9.05701 518.724 9.00187 491.982 L 8.82087 424.399 C 8.79821 414.425 8.20809 393.257 9.3505 383.584 C 16.0066 327.228 38.2174 274.687 75.2153 231.517 C 86.1667 218.739 102.86 205.898 116.255 196.079 C 174.978 153.031 237.257 137.483 308.422 133.423 z" fill="rgb(41,40,41)" transform="translate(0,0)"></path>
<path d="M 1031.26 1643.64 C 1029.22 1637.36 1030.2 1573.7 1030.24 1562.44 L 1030.51 1415.81 L 1030.66 933.104 C 1030.68 864.863 1030.79 796.526 1030.39 728.29 C 1030.36 724.355 1030.57 720.629 1032.01 716.962 C 1034.69 714.777 1034.46 714.876 1037.89 714.45 C 1041.7 716.132 1042.61 718.729 1042.47 722.923 C 1041.86 741.926 1042.16 760.962 1042.22 779.977 L 1042.43 922.874 L 1042.38 1471.81 L 1042 1580.47 C 1042.02 1591.64 1042.9 1633.07 1040.93 1642.29 C 1037.45 1628.02 1035.33 1636.16 1031.26 1643.64 z" fill="rgb(9,184,114)" transform="translate(0,0)"></path>
<path d="M 1048.83 117.984 C 1054.9 124.954 1065.4 153.701 1068.18 163.584 C 1056.83 174.744 962.893 264.743 957.546 265.432 L 954.759 262.048 C 947.606 249.105 938.688 239.395 928.46 228.96 C 934.759 222.605 941.343 216.191 947.97 210.182 C 981.438 179.83 1014.26 146.975 1048.83 117.984 z" fill="rgb(41,40,41)" transform="translate(0,0)"></path>
<path d="M 379.698 11.3484 C 382.358 11.0319 384.502 10.4015 386.8 11.5628 C 386.581 12.1589 386.459 12.7994 386.145 13.3512 C 381.539 21.452 272.377 121.775 261.192 127.347 C 249.371 133.235 232.497 134.684 219.472 137.784 C 206.611 140.853 193.915 144.579 181.435 148.946 C 179.783 149.433 178.128 149.91 176.47 150.377 L 176.291 149.347 C 198.03 127.249 217.738 109.873 241.105 89.6995 C 283.721 52.9083 321.586 20.2475 379.698 11.3484 z" fill="rgb(41,40,41)" transform="translate(0,0)"></path>
<path d="M 1053.15 502.866 C 1054.98 503.688 1056.35 504.294 1057.82 505.717 C 1060.56 508.371 1059.28 607.861 1059.32 620.004 C 1053.26 626.314 1032.15 643.017 1024.53 647.307 C 1021.23 645.022 1019.31 643.589 1019.32 639.387 C 1019.34 628.909 1019.79 618.423 1019.85 607.935 C 1020.08 582.656 1019.94 557.375 1019.42 532.101 C 1026.5 524.162 1044.07 509.058 1053.15 502.866 z" fill="rgb(41,40,41)" transform="translate(0,0)"></path>
<path d="M 1050.33 514.707 C 1053.35 517.985 1052.57 604.736 1052.4 616.068 C 1044.28 622.473 1035.45 629.969 1027.6 636.691 L 1026.82 636.76 C 1024.38 633.439 1026.27 546.585 1026.8 536.357 C 1035.67 527.839 1041.43 524.554 1050.33 514.707 z" fill="rgb(10,11,11)" transform="translate(0,0)"></path>
<path d="M 1052.26 338.7 C 1055.66 338.782 1056.17 339.677 1058.12 342.02 C 1059.25 346.378 1058.97 447.236 1058.25 454.417 C 1047.56 462.813 1037.66 471.732 1026.77 480.156 C 1024.09 481.171 1023.89 480.808 1020.97 480.264 C 1017.72 476.67 1018.88 464.264 1018.9 458.899 C 1018.99 428.462 1018.92 398.024 1018.88 367.586 C 1025.07 361.01 1044.94 343.705 1052.26 338.7 z" fill="rgb(41,40,41)" transform="translate(0,0)"></path>
<path d="M 1051.71 347.717 C 1054.84 359.46 1052.62 432.977 1052.6 448.831 C 1045.23 456.886 1035.34 464.353 1026.62 470.999 C 1024.03 462.822 1025.76 383.956 1026.11 370.545 C 1034.57 363.383 1043.28 355.13 1051.71 347.717 z" fill="rgb(10,11,11)" transform="translate(0,0)"></path>
<path d="M 359.518 66.4287 L 614.319 66.7066 L 707.77 66.7379 C 717.896 66.7329 741.257 65.037 751.346 68.3449 C 753.406 69.0203 753.761 71.234 754.092 73.2231 C 752.583 76.3042 752.786 76.1646 749.914 78.0045 L 494.735 77.6085 C 451.734 77.6228 408.519 77.2506 365.517 77.7258 C 363.192 77.7515 358.852 76.7811 357.039 75.1696 C 354.581 72.9858 355.028 72.7063 354.895 70.046 C 356.563 67.4292 356.604 67.6788 359.518 66.4287 z" fill="rgb(9,184,114)" transform="translate(0,0)"></path>
<path d="M 1075.58 1652.81 C 1079.41 1657.52 1077.29 1697.29 1077.01 1706.45 L 1006.33 1778.26 C 1005.88 1778.2 1005.44 1778.15 1005 1778.09 C 1005.62 1759.62 1005.98 1743.49 1006.03 1724.97 C 1011.13 1717.64 1022.46 1706.48 1028.84 1699.7 C 1043.97 1683.62 1059.47 1667.91 1075.58 1652.81 z" fill="rgb(41,40,41)" transform="translate(0,0)"></path>
<path d="M 866.391 16.6999 C 870.197 16.6759 872.807 16.4494 875.38 19.9921 C 878.809 24.8191 877.591 29.2893 873.497 33.0101 C 837.762 65.4826 803.106 99.193 767.89 132.17 C 766.881 133.115 765.203 132.34 763.797 132.084 L 749.804 128.489 C 769.587 108.612 791.14 89.2469 811.39 69.5506 C 828.876 52.5441 848.24 32.4391 866.391 16.6999 z" fill="rgb(41,40,41)" transform="translate(0,0)"></path>
<path d="M 1036.4 219.908 C 1048.09 219.932 1053.18 228.982 1047.64 234.664 C 1028.57 254.241 996.934 280.5 977.908 298.314 C 973.944 300.111 968.317 285.636 966.6 282.022 C 971.39 276.965 976.501 272.223 981.902 267.824 C 999.628 253.318 1019.16 232.122 1036.4 219.908 z" fill="rgb(41,40,41)" transform="translate(0,0)"></path>
<path d="M 1031.26 1643.64 C 1035.33 1636.16 1037.45 1628.02 1040.93 1642.29 C 1036.69 1647.08 1036.75 1646.53 1031.26 1643.64 z" fill="rgb(9,184,114)" fill-opacity="0.345098" transform="translate(0,0)"></path>
<path d="M 950.716 804.038 C 954.266 809.024 951.256 866.708 951.185 878.541 C 950.038 1068.05 948.975 1257.67 939.675 1446.99 C 938.09 1479.26 933.912 1521.68 928.694 1553.22 C 907.453 1681.63 837.531 1820.01 728.563 1895.83 C 610.134 1974.85 452.489 1988.71 315.051 1966.41 C 231.489 1952.86 155.707 1924.5 84.6931 1879.19 C 62.81 1865.23 40.4693 1843.63 20.179 1832.08 C 14.8562 1817.17 11.7422 1792.21 9.95418 1776.37 C 8.05915 1729.1 9.08425 1676.66 9.08099 1628.9 L 9.17675 1416.38 C 10.8498 1402.2 10.2153 1373.56 10.5368 1357.87 C 11.6619 1378.09 11.6925 1398.22 13.497 1418.39 C 15.3092 1413.49 12.5311 1356.64 15.0353 1352 L 14.2648 1353.64 C 14.3141 1351.64 14.1056 1352.22 14.7899 1350.44 C 15.5991 1356.49 14.6706 1361.19 17.8333 1364.16 C 18.9326 1368.06 19.2822 1371.21 22.5127 1373.15 C 32.2087 1366.74 33.8099 1386.7 43.4133 1390.57 C 54.6577 1395.1 68.8346 1365.54 72.1772 1364.1 C 81.3971 1372.53 73.9575 1386.26 87.7688 1391.19 C 95.0417 1393.78 91.7068 1406.14 93.6871 1412.78 C 94.9708 1403.61 94.5178 1389.76 94.5292 1380.12 L 94.5888 1329.9 L 95.1776 1166.27 C 95.7204 1153.66 97.2533 1142.44 98.3586 1129.98 C 98.9453 1123.36 99.4902 1120.73 95.6998 1116.33 C 95.1209 1103.23 93.0302 1055.71 95.6573 1045.21 C 99.0949 1043.64 102.499 1042 105.867 1040.28 C 107.423 1040.37 112.678 1041.11 113.697 1039.83 C 114.003 1037.98 105.839 1035.79 109.553 1031.75 C 113.083 1027.91 115.049 1021.23 119.464 1018.75 C 122.427 1017.83 126.286 1012.24 128.713 1011.77 C 138.776 1009.86 143.571 1006.76 128.03 1007.04 C 129.068 1001.51 137.662 987.573 139.681 981.007 C 140.951 976.875 151.098 970.972 155.466 966.552 L 156.398 965.592 C 163.091 968.258 167.225 970.941 174.391 969.181 C 177.218 968.486 182.551 973.049 186.18 973.937 C 191.13 975.147 196.509 974.698 201.642 974.663 C 203.8 974.542 209.969 973.075 211.232 973.619 C 218.806 986.585 223.762 976.896 229.253 978.567 C 231.798 982.417 232.019 991.082 242.377 986.196 C 243.446 985.692 247.023 984.224 248.32 984.565 C 249.005 985.388 249.685 986.212 250.315 987.072 L 250.217 987.053 C 251.075 988.16 252.031 989.227 252.669 990.483 C 252.483 990.962 252.095 991.336 251.801 991.758 C 251.083 992.786 250.78 993.686 250.955 994.943 C 254.037 998.842 260.665 989.404 262.55 988.351 C 269.308 991.33 316.253 1014.56 322.769 1002.88 C 322.981 1002.5 323.341 990.885 323.396 989.118 C 323.671 989.166 325.042 989.324 325.234 989.602 C 332.382 999.962 322.832 1012.85 310.512 1010.68 C 310.032 1010.6 309.915 1011.1 309.77 1011.43 L 310.01 1011.75 C 319.902 1015.21 331.218 999.456 337.965 1026.01 C 338.389 1027.68 340.747 1039.22 339.584 1039.73 C 334.662 1038.92 339.545 1026.77 333.315 1029.82 C 332.977 1029.99 333.871 1036.67 334.304 1038.03 C 333.957 1039.07 332.769 1039.62 332.505 1040.67 L 332.631 1040.84 C 336.95 1042.42 340.329 1039.26 341.107 1045.28 C 341.205 1045.33 341.303 1045.38 341.401 1045.43 L 341.458 1045.39 C 342.019 1042.58 341.866 1035.14 341.345 1032.51 C 340.054 1025.99 341.181 1025.67 337.898 1019.41 C 333.631 1011.27 337.13 1001.21 335.348 992.381 C 334.219 986.787 332.834 976.602 340.326 974.916 C 338.242 1012.62 341.952 1033.94 357.48 1068.68 C 350.469 1064.62 349.629 1054.78 346.587 1053.91 C 345.055 1054.36 348.827 1060.52 348.682 1062.52 C 348.336 1067.33 355.625 1066.53 351 1070 C 347.79 1072.72 349.618 1072.65 351.227 1077.51 C 352.566 1081.56 359.499 1081.33 359.488 1087.57 C 359.611 1088.86 361.737 1091.79 362.535 1092.87 C 362.599 1092.92 364.329 1094.29 364.449 1094.34 C 367.198 1094.71 368.706 1101.37 370.383 1101.41 C 377.194 1101.6 369.064 1092.7 368.723 1092.31 C 366.7 1089.99 367.014 1087.5 367.318 1084.96 C 370.665 1089.78 374.196 1094.48 377.906 1099.03 C 405.14 1131.97 444.477 1152.59 487.066 1156.23 C 530.866 1160.58 574.56 1147.01 608.194 1118.62 C 649.698 1083.89 662.606 1046.26 667.234 994.33 L 670.442 999.057 C 672.017 1001.4 672.033 1001.71 674.569 1002.77 C 678.657 1001.24 679.147 997.723 680.662 993.762 C 681.628 1002.59 682.987 1012.5 695.601 1008.24 C 806.07 970.936 890.288 903.56 950.716 804.038 z" fill="url(#Gradient6)" transform="translate(0,0)"></path>
<path d="M 496.556 1640.22 C 554.185 1634.04 605.948 1675.66 612.285 1733.27 C 618.623 1790.88 577.144 1842.76 519.549 1849.25 C 461.734 1855.77 409.616 1814.1 403.254 1756.26 C 396.893 1698.43 438.706 1646.43 496.556 1640.22 z" fill="rgb(41,40,41)" transform="translate(0,0)"></path>
<path d="M 508.032 1667.67 C 550.454 1667.78 584.822 1702.13 584.952 1744.55 C 585.083 1786.97 550.926 1821.54 508.506 1821.9 C 465.748 1822.27 430.852 1787.79 430.721 1745.03 C 430.59 1702.27 465.274 1667.57 508.032 1667.67 z" fill="rgb(9,184,114)" transform="translate(0,0)"></path>
<path d="M 497.283 1677.44 C 534.591 1671.86 569.36 1697.57 574.959 1734.88 C 580.559 1772.18 554.871 1806.97 517.57 1812.59 C 480.235 1818.22 445.411 1792.5 439.807 1755.16 C 434.202 1717.83 459.941 1683.02 497.283 1677.44 z" fill="rgb(10,11,11)" transform="translate(0,0)"></path>
<path d="M 1298.4 1230.24 C 1292.5 1166.85 1369.94 1146.58 1418.52 1138.7 C 1454.08 1132.94 1478.75 1136.99 1490.64 1175.39 C 1523.38 1174.48 1561.76 1175.93 1595.25 1175.99 C 1632.98 1176.06 1674.88 1174.97 1712.08 1176.2 C 1714.42 1165.32 1718.15 1152.51 1727.88 1146.14 C 1767.58 1120.15 1870.67 1157.03 1894.24 1190.73 C 1902.78 1202.98 1906.03 1218.17 1903.26 1232.85 C 1912.4 1246.06 1923.08 1261.11 1930.43 1275.3 C 1944.4 1302.27 1956.1 1332.01 1966.78 1360.49 C 1984.35 1406.96 2000.03 1454.12 2013.81 1501.86 C 2021.05 1526.81 2034.09 1589.93 2048 1607.25 L 2048 1682.65 C 2042.8 1710.49 2036.6 1729.85 2021.72 1754.36 C 2001.95 1791.84 1938.72 1823.99 1897.99 1802.47 C 1844.2 1774.05 1817.36 1690.31 1764.39 1657.3 C 1721.51 1630.6 1669.76 1634.55 1621.37 1634.77 C 1598.41 1634.85 1575.46 1634.81 1552.51 1634.64 C 1526.01 1634.48 1505.93 1633.53 1479.99 1638.78 C 1401.06 1654.76 1377.28 1733.81 1326.07 1785.26 C 1295.94 1815.53 1248.87 1814.54 1214.47 1790.99 C 1181.59 1768.49 1161.58 1736.44 1153.35 1697.6 C 1149.18 1678.3 1148.28 1658.44 1150.67 1638.84 C 1153.9 1612.46 1164.74 1577.91 1171.37 1551.79 C 1187.13 1489.72 1206.34 1428.58 1228.82 1368.62 C 1238.12 1342.08 1249.3 1316.6 1260.44 1290.85 C 1270.63 1267.31 1284.53 1251.87 1297.73 1231.31 L 1298.4 1230.24 z M 2035.72 1699.7 C 2035.79 1700.74 2036.1 1707.22 2036.24 1707.66 L 2036.44 1707.63 C 2036.7 1707.39 2039.17 1701.57 2039.58 1700.69 C 2042.84 1693.61 2041.05 1689.95 2038.54 1683.24 C 2040.14 1666.22 2040.03 1649.09 2038.24 1632.1 C 2037.99 1630.41 2037.86 1629.61 2037.46 1627.95 L 2037.3 1626.68 C 2037 1624.01 2037.07 1623.31 2036.21 1620.89 C 2034.89 1609.42 2029.45 1589.72 2026.36 1577.98 L 2025.3 1573.99 C 2024.68 1571.57 2024.42 1570.57 2023.62 1568.19 C 2023.3 1566.34 2023.18 1565.83 2022.53 1564.05 C 2010.98 1558.69 2015.17 1547.85 2012.44 1539.69 C 2011.8 1538.48 2011.18 1537.25 2010.58 1536.01 C 2005.94 1520.88 2005.67 1523.02 2004.55 1506.54 C 1996.87 1499 2000.26 1499.18 1996.47 1493.24 C 1995.87 1489.36 1995.45 1485.45 1994.9 1481.55 C 1995.19 1478.35 1995.09 1480.41 1996.78 1479.15 C 1997.57 1474.39 1991.39 1470.14 1993.56 1462.78 C 1992.12 1456.26 1984.89 1434.38 1982.43 1427.46 C 1965.38 1379.43 1944.26 1315.36 1919.47 1271.75 C 1910.75 1256.43 1900.03 1242.35 1887.59 1229.86 C 1846.36 1188.43 1796.58 1183.38 1740.41 1183.16 C 1737.87 1183 1736.14 1183.1 1733.6 1183.22 C 1701.42 1182.42 1667.32 1182.89 1634.98 1182.89 C 1591.66 1182.77 1548.33 1182.88 1505.01 1183.21 C 1500.11 1183 1495.21 1182.99 1490.31 1183.17 C 1473.6 1182.45 1440.28 1182.29 1424.02 1183.21 C 1416.28 1184.22 1408.61 1184.46 1400.93 1186.15 C 1398.95 1186.45 1396.98 1186.78 1395.01 1187.15 C 1393.35 1187.46 1391.84 1187.78 1390.3 1188.46 C 1359.4 1195.53 1330.04 1210.32 1308.15 1233.57 C 1306.82 1234.57 1306.75 1234.58 1305.79 1235.9 C 1302.95 1238.94 1300.28 1241.69 1297.72 1244.98 C 1291.84 1251.69 1287.37 1257.92 1283.22 1265.8 C 1281.37 1267.76 1275.11 1278.79 1273.31 1281.68 C 1272.71 1282.85 1272.27 1283.79 1271.74 1284.99 C 1263.75 1300.56 1257.32 1316.83 1251.42 1333.29 C 1250.88 1334.33 1250.9 1334.29 1250.42 1335.48 C 1218.8 1409.32 1195.97 1487.49 1175.62 1565.06 C 1161.79 1617.8 1144.82 1666.85 1168.51 1720.64 L 1169.24 1722.74 C 1169.65 1723.89 1169.83 1724.3 1170.37 1725.39 C 1171.74 1729.28 1175.6 1738.12 1178.17 1741.25 C 1182.27 1748.76 1187.15 1755.83 1192.72 1762.32 C 1209.44 1781.75 1239.67 1799.35 1265.62 1800.51 C 1314.01 1802.67 1332.95 1765.52 1357.47 1732.33 C 1376.35 1706.79 1393.82 1680.48 1417.26 1659.94 C 1445.48 1641.04 1445.01 1642 1476.34 1631.53 C 1481.92 1630.67 1501.49 1627.45 1506.81 1627.4 C 1536.41 1627.09 1567.03 1627.02 1596.62 1627.28 C 1629.99 1627.56 1667.9 1625.83 1700.73 1629.11 C 1715.72 1630.49 1730.5 1633.61 1744.77 1638.4 C 1748.32 1640.36 1754.86 1643 1758.62 1644.5 L 1759.45 1645.25 L 1760.53 1645.66 C 1769.04 1651.03 1775.03 1655.66 1783.05 1661.31 C 1785.59 1663.87 1786.67 1664.77 1789.58 1666.96 C 1790.92 1668.74 1795.11 1672.97 1796.85 1674.23 C 1799.62 1677.91 1801.41 1679.87 1804.57 1683.17 C 1805.33 1684.43 1805.42 1684.61 1806.23 1685.68 C 1807.73 1687.37 1809.06 1689.18 1810.48 1690.94 C 1811.05 1691.76 1811.63 1692.57 1812.2 1693.38 C 1814.54 1696.75 1816.99 1700.04 1819.55 1703.25 C 1823.76 1711.33 1838.57 1729.46 1844.41 1737.4 C 1862.13 1760.54 1882.71 1794.33 1914.19 1799.62 C 1977.91 1810.34 2023.32 1755.19 2035.72 1699.7 z M 1375.02 1163.58 C 1378.25 1162.82 1382.11 1161.03 1384.98 1159.35 C 1400.42 1152.49 1384.24 1154.52 1378.05 1156.46 C 1374.33 1157.28 1371.75 1158.32 1368.25 1159.75 C 1354.39 1165.44 1340.7 1170.6 1328.9 1180.25 C 1325.81 1182.78 1313.95 1193.47 1324.55 1194.03 C 1330.84 1194.42 1338.06 1187.33 1342.98 1183.84 C 1353.29 1176.51 1363.98 1169.74 1375.02 1163.58 z M 1736.33 1163.12 C 1745.69 1157.29 1755.05 1154.04 1766 1152.32 C 1766.83 1152.2 1767.66 1152.08 1768.49 1151.95 C 1770.34 1151.46 1774.16 1150.8 1775.68 1149.66 C 1776.95 1148.71 1771.86 1147.2 1771.98 1147.23 C 1766.41 1145.84 1760.54 1145.89 1754.85 1146.37 C 1719.63 1151.12 1718.91 1176.08 1727.2 1169.46 C 1730.09 1167.14 1733.14 1165.02 1736.33 1163.12 z" fill="rgb(10,11,11)" transform="translate(0,0)"></path>
<path d="M 1640.03 1225.35 C 1647.47 1225.16 1668.37 1226.72 1674.22 1224.97 C 1694.77 1218.81 1709.68 1209.27 1731.65 1204.74 C 1767.59 1205.15 1806.68 1210.79 1828.56 1243.55 C 1843.58 1246.13 1859.01 1248.58 1873.09 1255.17 C 1924.96 1279.45 1948.15 1321.32 1951.47 1377.11 C 1951.45 1376.69 1977.08 1452.92 1978.64 1456.32 C 1979.41 1455.98 1979.15 1456.02 1979.54 1456.03 C 1981.13 1457 1986.52 1480.59 1987.51 1481.44 L 1987.67 1481.39 C 1988.4 1479.69 1987.53 1475.53 1988.46 1474.26 L 1988.56 1474.29 L 1988.67 1475.63 L 1988.7 1475.39 C 1988.86 1479.38 1988.36 1478.89 1990.17 1482.94 C 1991.51 1487 1992.76 1490.81 1993.74 1494.97 C 1996.9 1504.44 1997.18 1505.19 1996.01 1516.07 C 1998.62 1527.24 2002.41 1539.17 2005.22 1550.48 L 2006.22 1554.48 L 2007.23 1558.48 L 2008.25 1562.46 C 2008.84 1564.75 2009.5 1567.01 2010.23 1569.26 C 2010.52 1570.8 2010.82 1572.23 2011.15 1573.76 C 2012.22 1576.41 2012.92 1580.17 2013.65 1583.01 L 2019.84 1607.52 C 2020.28 1609.28 2020.58 1610.47 2021.12 1612.25 C 2021.2 1614.69 2021.76 1617.09 2022.22 1619.49 L 2023.09 1623.99 C 2026.57 1643.02 2026.32 1660.23 2022.99 1679.29 C 2000.93 1775.83 1915.38 1766.3 1860.17 1704.63 C 1855.78 1699.73 1845.3 1689.12 1840.28 1685.01 C 1838.93 1682.65 1834.08 1677.98 1832 1675.78 C 1824.51 1667.83 1810.62 1653.48 1802.37 1647.02 C 1800.24 1644.35 1798.04 1642.89 1795.26 1640.99 C 1794.09 1639.5 1793.1 1638.95 1791.57 1637.78 C 1789.51 1636.33 1787.4 1635.16 1785.28 1633.81 L 1782.77 1632.12 C 1779.61 1630.9 1779.04 1630.22 1775.53 1629.23 L 1773.97 1627.87 C 1770.45 1626.74 1767.5 1625.28 1763.98 1624.32 C 1759.56 1622.69 1755.05 1621.34 1750.46 1620.27 C 1747.28 1619.51 1744.17 1618.71 1740.92 1618.3 C 1701.89 1611.18 1638.39 1614.1 1597.44 1613.84 C 1555.31 1613.56 1507.82 1612.85 1466.12 1617.34 C 1449.46 1619.14 1432.5 1626.42 1417.33 1632.93 C 1408.68 1637.8 1389.13 1652.29 1384.72 1660.06 C 1336.17 1705.05 1276.23 1788.7 1204.21 1733.04 C 1202.93 1730.99 1199.42 1727.79 1197.59 1725.92 C 1196.17 1723.19 1192.27 1718.63 1190.33 1715.74 C 1188.31 1712.4 1186.39 1708.65 1184.36 1705.48 C 1164.94 1657.35 1174.39 1626.85 1186.31 1579.16 C 1201.37 1518.88 1219.75 1460.11 1238.83 1401.01 C 1244.13 1384.58 1254.78 1365.53 1258.72 1349.39 C 1258.66 1343.6 1262.93 1332.15 1264.52 1326.38 C 1267.09 1320.69 1270.02 1314.58 1272.46 1309.07 C 1274.73 1306.37 1278.57 1299.94 1281.36 1296.33 C 1286.96 1289.06 1290.37 1286.11 1296.56 1279.83 L 1297.11 1279.26 C 1298.11 1278.69 1309.91 1270.08 1310.46 1269.53 C 1325.24 1262.3 1336.15 1255.93 1353 1253.1 L 1365.73 1251.02 C 1367.31 1247 1367.78 1245.43 1369.91 1241.51 C 1378.86 1230.1 1388.4 1223.94 1400.97 1217.37 C 1402.7 1216.8 1403.33 1216.35 1404.99 1215.48 C 1409.5 1213.77 1414.57 1211.71 1419.22 1210.52 C 1422.17 1209.76 1424.18 1209.07 1427.23 1208.46 C 1436.76 1205.97 1443.5 1205.2 1453.23 1204.62 C 1458.58 1204.8 1463.67 1204.72 1469.02 1205.32 C 1472.76 1206.01 1476.39 1206.6 1480.15 1207.33 C 1482.8 1208.36 1489.25 1210.15 1491.93 1210.65 C 1493.91 1211.43 1495.57 1212.21 1497.66 1212.63 C 1527.2 1228.27 1520.72 1226.52 1555.83 1224.9 C 1582.29 1203.06 1613.97 1201.4 1640.03 1225.35 z M 1290.91 1432.63 C 1305.52 1431.11 1332.42 1418.24 1340.55 1406.01 C 1341.06 1401.55 1341.25 1397.37 1341.74 1393.04 C 1329.11 1387.79 1314.04 1395.26 1303.54 1389.17 C 1293.24 1383.21 1293.83 1348.87 1301.24 1340.95 C 1307.01 1334.78 1327.89 1338.04 1336.66 1337.75 C 1340.37 1336.66 1340.47 1336.15 1343.28 1333.29 C 1345.77 1311.64 1332.91 1286.36 1367.99 1288.97 C 1375.52 1289.53 1392.43 1286.66 1398.49 1295.29 C 1407.05 1313.72 1384.01 1341.25 1421.3 1337.12 C 1432.52 1326.51 1449.2 1310.26 1451.98 1294.35 C 1428.82 1271.23 1404.34 1259.57 1371.33 1259.59 C 1342.66 1259.6 1309.15 1274.03 1291.31 1296.81 C 1289.5 1298.89 1287.94 1300.7 1286.25 1302.92 C 1270.73 1325.73 1261.51 1352.89 1266.45 1380.75 C 1269.39 1397.27 1279.15 1420.39 1290.91 1432.63 z M 1232.21 1700.34 C 1242.91 1692.77 1235.59 1683.71 1232.62 1673.47 C 1225.29 1648.13 1228.49 1616.69 1236.38 1591.81 C 1240.11 1580.17 1244.44 1568.73 1249.34 1557.53 C 1254.95 1544.88 1262.53 1533 1267.22 1520.16 C 1269.47 1514.01 1259.46 1512.85 1255.88 1512.83 C 1240.63 1527.57 1221.14 1577.96 1216.17 1598.89 C 1213.01 1612.45 1211.31 1626.3 1211.09 1640.22 C 1210.89 1655.77 1213.78 1684.52 1224.65 1697.81 C 1226.46 1700.01 1229.48 1700.19 1232.21 1700.34 z M 1433.75 1556.24 C 1434.42 1556.92 1435.1 1557.59 1435.79 1558.24 C 1438.28 1558.26 1445.66 1562.55 1448.65 1563.95 C 1446.71 1561.84 1433.07 1547.04 1431.5 1548.44 C 1430.86 1550.37 1433.39 1553.01 1433.61 1554.92 L 1433.75 1556.24 z M 1546.94 1292.95 C 1556.69 1313.46 1577.9 1326.02 1600.57 1324.72 C 1623.25 1323.43 1642.88 1308.53 1650.23 1287.04 C 1657.58 1265.55 1651.18 1241.75 1634.05 1226.84 C 1614.09 1209.47 1584.69 1208.48 1563.62 1224.48 C 1542.54 1240.47 1535.58 1269.05 1546.94 1292.95 z" fill="rgb(10,11,11)" transform="translate(0,0)"></path>
<path d="M 1978.64 1456.32 C 1979.41 1455.98 1979.15 1456.02 1979.54 1456.03 C 1981.13 1457 1986.52 1480.59 1987.51 1481.44 L 1987.67 1481.39 C 1988.4 1479.69 1987.53 1475.53 1988.46 1474.26 L 1988.56 1474.29 L 1988.67 1475.63 L 1988.7 1475.39 C 1988.86 1479.38 1988.36 1478.89 1990.17 1482.94 C 1991.51 1487 1992.76 1490.81 1993.74 1494.97 C 1996.9 1504.44 1997.18 1505.19 1996.01 1516.07 C 1991.12 1499.32 1982.27 1472.89 1978.64 1456.32 z" fill="rgb(213,212,212)" transform="translate(0,0)"></path>
<path d="M 1702.31 1427.94 C 1684.45 1385.3 1684.04 1346.44 1710.75 1306.86 C 1729.82 1279.04 1759.04 1259.81 1792.14 1253.29 C 1825.95 1246.74 1862.94 1255.58 1891.33 1274.76 C 1946.15 1316.41 1959.73 1387.72 1916.42 1443.17 C 1895.98 1469.6 1865.7 1486.62 1832.5 1490.35 C 1823.76 1491.33 1818.99 1491.1 1810.44 1490.83 C 1803.43 1490.61 1779.75 1482.82 1776.51 1486.06 C 1775.23 1494.52 1777.13 1504.47 1776.84 1513.14 C 1776.17 1533.5 1762.83 1554.24 1746.68 1565.98 C 1731.02 1577.43 1711.38 1582.02 1692.27 1578.72 C 1688.18 1578.04 1682.51 1576.45 1678.62 1575.07 C 1671.35 1572.43 1665.06 1569.25 1658.87 1564.62 C 1642.84 1552.66 1632.29 1534.77 1629.57 1514.96 C 1624.58 1478.24 1644.11 1445.51 1678.95 1432.66 C 1686.71 1429.79 1694.13 1429.01 1702.31 1427.94 z" fill="rgb(233,233,232)" transform="translate(0,0)"></path>
<path d="M 1891.33 1274.76 C 1946.15 1316.41 1959.73 1387.72 1916.42 1443.17 C 1895.98 1469.6 1865.7 1486.62 1832.5 1490.35 C 1823.76 1491.33 1818.99 1491.1 1810.44 1490.83 C 1803.43 1490.61 1779.75 1482.82 1776.51 1486.06 C 1775.23 1494.52 1777.13 1504.47 1776.84 1513.14 C 1776.17 1533.5 1762.83 1554.24 1746.68 1565.98 C 1731.02 1577.43 1711.38 1582.02 1692.27 1578.72 C 1688.18 1578.04 1682.51 1576.45 1678.62 1575.07 C 1683.64 1571.84 1690.84 1567.79 1693.88 1562.88 C 1717.39 1566.23 1740.8 1556.23 1754.64 1536.93 C 1768.47 1517.64 1770.42 1492.25 1759.71 1471.07 C 1766.18 1469.62 1784.37 1457.55 1785.89 1451.23 C 1779.85 1439.03 1781.07 1424.49 1789.05 1413.46 C 1797.03 1402.43 1810.47 1396.73 1823.94 1398.66 C 1836.62 1387.22 1841.63 1372.64 1850.99 1364.01 C 1851.93 1353.55 1857.36 1344.01 1865.86 1337.85 C 1866.66 1334.31 1870.62 1327.81 1872.43 1324.21 C 1879.77 1309.64 1890.79 1291.17 1891.33 1274.76 z" fill="rgb(213,212,212)" transform="translate(0,0)"></path>
<path d="M 1785.89 1451.23 C 1779.85 1439.03 1781.07 1424.49 1789.05 1413.46 C 1797.03 1402.43 1810.47 1396.73 1823.94 1398.66 C 1841.2 1401.13 1854.33 1415.41 1855.35 1432.81 C 1856.37 1450.21 1845 1465.93 1828.15 1470.4 C 1811.3 1474.86 1793.63 1466.85 1785.89 1451.23 z" fill="rgb(10,11,11)" transform="translate(0,0)"></path>
<path d="M 1816.77 1404.22 C 1825.16 1403.87 1827.24 1404.89 1835.33 1406.97 C 1813 1409.61 1794.49 1411.91 1793.99 1440.02 C 1794.32 1441.75 1795.9 1448.32 1794.85 1449.67 C 1790.32 1449.54 1778.12 1412.65 1816.77 1404.22 z" fill="rgb(233,233,232)" transform="translate(0,0)"></path>
<path d="M 1865.86 1337.85 C 1879.71 1327.81 1898.67 1328.79 1911.41 1340.2 C 1924.15 1351.6 1927.21 1370.34 1918.77 1385.21 C 1910.32 1400.08 1892.65 1407.04 1876.34 1401.94 C 1860.02 1396.84 1849.47 1381.04 1850.99 1364.01 C 1851.93 1353.55 1857.36 1344.01 1865.86 1337.85 z" fill="rgb(10,11,11)" transform="translate(0,0)"></path>
<path d="M 1894.26 1340.41 C 1880.29 1339.29 1869.68 1348.07 1864.27 1360.58 C 1861.93 1365.97 1863.9 1379.86 1862.46 1381.07 C 1858.19 1380.49 1856.85 1368.65 1857.27 1365 C 1859.24 1347.76 1875.38 1334.02 1893.51 1337.39 L 1894.26 1340.41 z" fill="rgb(233,233,232)" transform="translate(0,0)"></path>
<path d="M 1893.51 1337.39 L 1895.21 1337.86 C 1896.18 1338.1 1897.79 1338.34 1898.32 1339.3 C 1898.31 1340.16 1894.71 1340.34 1894.26 1340.41 L 1893.51 1337.39 z" fill="rgb(233,233,232)" transform="translate(0,0)"></path>
<path d="M 1693.88 1562.88 C 1663.97 1558.61 1641.16 1533.91 1639.3 1503.75 C 1637.43 1473.59 1657.02 1446.27 1686.19 1438.35 C 1715.35 1430.44 1746.06 1444.1 1759.71 1471.07 C 1770.42 1492.25 1768.47 1517.64 1754.64 1536.93 C 1740.8 1556.23 1717.39 1566.23 1693.88 1562.88 z" fill="rgb(10,11,11)" transform="translate(0,0)"></path>
<path d="M 1699.33 1445.3 C 1703.16 1445.12 1715.38 1445.28 1716.39 1449.98 C 1716.2 1453.94 1702.84 1451.63 1699.99 1451.97 C 1673.19 1455.16 1656.74 1475.82 1654.38 1501.25 C 1654.47 1503.07 1655.23 1511.02 1654.64 1511.99 C 1652.16 1516.12 1649.39 1510.26 1649.16 1507.99 C 1647.68 1493.37 1650.41 1480.6 1659.18 1468.6 C 1669.51 1454.45 1682.42 1448.1 1699.33 1445.3 z" fill="rgb(233,233,232)" transform="translate(0,0)"></path>
<path d="M 1744.37 1331.06 C 1764.12 1327.48 1783.04 1340.58 1786.63 1360.33 C 1790.23 1380.07 1777.15 1399 1757.4 1402.62 C 1737.63 1406.24 1718.68 1393.13 1715.07 1373.36 C 1711.47 1353.59 1724.59 1334.64 1744.37 1331.06 z" fill="rgb(10,11,11)" transform="translate(0,0)"></path>
<path d="M 1748.86 1336.23 C 1750.27 1336.19 1761.97 1336.52 1761.54 1338.63 C 1760.58 1339.51 1758.71 1339.82 1757.51 1339.84 C 1744.97 1340.14 1733.53 1347.8 1728.64 1359.39 C 1727.01 1363.25 1726.77 1366.7 1726.23 1370.95 C 1727.53 1382.5 1724.76 1384.74 1721.31 1373.99 C 1716.38 1358.65 1730.05 1339.61 1745 1336.91 L 1748.86 1336.23 z" fill="rgb(233,233,232)" transform="translate(0,0)"></path>
<path d="M 1809.49 1268.26 C 1828.99 1263.56 1848.62 1275.56 1853.31 1295.06 C 1858.01 1314.56 1846 1334.18 1826.49 1338.87 C 1807 1343.55 1787.4 1331.55 1782.71 1312.06 C 1778.02 1292.57 1790 1272.97 1809.49 1268.26 z" fill="rgb(10,11,11)" transform="translate(0,0)"></path>
<path d="M 1815.47 1272.31 C 1817.64 1272.25 1827.1 1272.13 1827.72 1274.96 C 1826.67 1277.15 1793.69 1273.91 1794.64 1311.25 C 1796.08 1320.82 1790.61 1315.84 1789.59 1309.6 C 1786.48 1290.69 1797.04 1276.31 1815.47 1272.31 z" fill="rgb(233,233,232)" transform="translate(0,0)"></path>
<path d="M 1343.28 1333.29 C 1345.77 1311.64 1332.91 1286.36 1367.99 1288.97 C 1375.52 1289.53 1392.43 1286.66 1398.49 1295.29 C 1407.05 1313.72 1384.01 1341.25 1421.3 1337.12 C 1432.52 1326.51 1449.2 1310.26 1451.98 1294.35 C 1516.84 1365.31 1460.22 1475.87 1366.68 1470.66 C 1337.8 1469.19 1310.79 1455.92 1291.98 1433.97 C 1291.62 1433.52 1291.26 1433.08 1290.91 1432.63 C 1305.52 1431.11 1332.42 1418.24 1340.55 1406.01 C 1341.06 1401.55 1341.25 1397.37 1341.74 1393.04 C 1329.11 1387.79 1314.04 1395.26 1303.54 1389.17 C 1293.24 1383.21 1293.83 1348.87 1301.24 1340.95 C 1307.01 1334.78 1327.89 1338.04 1336.66 1337.75 C 1340.37 1336.66 1340.47 1336.15 1343.28 1333.29 z" fill="rgb(41,40,41)" transform="translate(0,0)"></path>
<path d="M 1451.98 1294.35 C 1516.84 1365.31 1460.22 1475.87 1366.68 1470.66 C 1337.8 1469.19 1310.79 1455.92 1291.98 1433.97 C 1291.62 1433.52 1291.26 1433.08 1290.91 1432.63 C 1305.52 1431.11 1332.42 1418.24 1340.55 1406.01 C 1342.21 1406.61 1342.22 1406.48 1344.11 1406.23 C 1341.56 1441.78 1347.17 1438.37 1379.55 1439.53 C 1412.48 1440.24 1396.69 1413.12 1400.08 1399.08 C 1405.82 1375.31 1454.26 1413.51 1449.93 1364.97 C 1447.61 1339.02 1449.41 1336.61 1421.3 1337.12 C 1432.52 1326.51 1449.2 1310.26 1451.98 1294.35 z" fill="rgb(213,212,212)" transform="translate(0,0)"></path>
<path d="M 1341.74 1393.04 C 1344.76 1398.68 1344.09 1399.39 1344.11 1406.23 C 1342.22 1406.48 1342.21 1406.61 1340.55 1406.01 C 1341.06 1401.55 1341.25 1397.37 1341.74 1393.04 z" fill="rgb(240,239,239)" transform="translate(0,0)"></path>
<path d="M 1433.75 1556.24 C 1406.56 1528.4 1406.86 1483.85 1434.42 1456.38 C 1461.98 1428.91 1506.53 1428.76 1534.28 1456.04 C 1562.02 1483.32 1562.62 1527.87 1535.62 1555.89 C 1508.62 1583.91 1464.08 1584.96 1435.79 1558.24 C 1438.28 1558.26 1445.66 1562.55 1448.65 1563.95 C 1446.71 1561.84 1433.07 1547.04 1431.5 1548.44 C 1430.86 1550.37 1433.39 1553.01 1433.61 1554.92 L 1433.75 1556.24 z" fill="rgb(233,233,232)" transform="translate(0,0)"></path>
<path d="M 1474.63 1444.03 C 1509.45 1438.68 1541.96 1462.75 1546.98 1497.62 C 1552 1532.5 1527.61 1564.77 1492.69 1569.45 C 1458.25 1574.08 1426.51 1550.09 1421.56 1515.69 C 1416.6 1481.29 1440.28 1449.32 1474.63 1444.03 z" fill="rgb(10,11,11)" transform="translate(0,0)"></path>
<path d="M 1476.22 1453.17 C 1477.95 1453.02 1502.09 1450.69 1501.31 1456.94 C 1500.53 1459.68 1495.57 1459.11 1494.01 1458.98 C 1478.58 1457.78 1464.7 1460.41 1453.12 1471.54 C 1445.2 1479.16 1441.75 1486.35 1437.59 1496.29 C 1436.61 1502.01 1436.46 1506.74 1436.61 1512.45 C 1435.67 1515.24 1431.57 1516.42 1431.1 1512.5 C 1429.14 1495.98 1436.61 1479.12 1448.21 1467.57 C 1456.51 1459.31 1464.96 1455.55 1476.22 1453.17 z" fill="rgb(233,233,232)" transform="translate(0,0)"></path>
<path d="M 1291.31 1296.81 C 1309.15 1274.03 1342.66 1259.6 1371.33 1259.59 C 1404.34 1259.57 1428.82 1271.23 1451.98 1294.35 C 1449.2 1310.26 1432.52 1326.51 1421.3 1337.12 C 1384.01 1341.25 1407.05 1313.72 1398.49 1295.29 C 1392.43 1286.66 1375.52 1289.53 1367.99 1288.97 C 1332.91 1286.36 1345.77 1311.64 1343.28 1333.29 C 1340.81 1324.81 1338.53 1327.92 1332.97 1330.32 C 1331.98 1330.74 1331.15 1331.47 1330.59 1332.4 C 1331.24 1335.67 1336.06 1332.43 1336.66 1337.75 C 1327.89 1338.04 1307.01 1334.78 1301.24 1340.95 C 1293.83 1348.87 1293.24 1383.21 1303.54 1389.17 C 1314.04 1395.26 1329.11 1387.79 1341.74 1393.04 C 1341.25 1397.37 1341.06 1401.55 1340.55 1406.01 C 1332.42 1418.24 1305.52 1431.11 1290.91 1432.63 C 1279.15 1420.39 1269.39 1397.27 1266.45 1380.75 C 1261.51 1352.89 1270.73 1325.73 1286.25 1302.92 C 1288.14 1303.27 1292.15 1304.97 1293.41 1303.19 L 1294.07 1302.32 C 1294.11 1299.49 1293.07 1298.64 1291.31 1296.81 z M 1338.63 1403.52 C 1341.81 1396.71 1341.56 1394.96 1334.34 1394.4 C 1332.94 1399.8 1333.44 1400.57 1338.63 1403.52 z M 1300.24 1293.46 C 1302.55 1292.85 1303.52 1290.74 1300.04 1291.49 C 1299.11 1291.86 1297.94 1292.2 1298.12 1293.44 C 1298.71 1294.13 1299.47 1293.64 1300.24 1293.46 z" fill="rgb(233,233,232)" fill-opacity="0.909804" transform="translate(0,0)"></path>
<path d="M 1334.34 1394.4 C 1341.56 1394.96 1341.81 1396.71 1338.63 1403.52 C 1333.44 1400.57 1332.94 1399.8 1334.34 1394.4 z" fill="rgb(240,239,239)" fill-opacity="0.756863" transform="translate(0,0)"></path>
<path d="M 1300.04 1291.49 C 1303.52 1290.74 1302.55 1292.85 1300.24 1293.46 C 1299.47 1293.64 1298.71 1294.13 1298.12 1293.44 C 1297.94 1292.2 1299.11 1291.86 1300.04 1291.49 z" fill="rgb(233,233,232)" fill-opacity="0.85098" transform="translate(0,0)"></path>
<path d="M 1546.94 1292.95 C 1535.58 1269.05 1542.54 1240.47 1563.62 1224.48 C 1584.69 1208.48 1614.09 1209.47 1634.05 1226.84 C 1651.18 1241.75 1657.58 1265.55 1650.23 1287.04 C 1642.88 1308.53 1623.25 1323.43 1600.57 1324.72 C 1577.9 1326.02 1556.69 1313.46 1546.94 1292.95 z M 1583.17 1237.67 C 1597.4 1231.51 1586.51 1213.56 1566.75 1232.32 C 1562.42 1236.08 1548.2 1251.44 1563.03 1255.01 C 1564.69 1255.4 1566.63 1253.34 1567.58 1252.36 C 1573.14 1244.62 1575.7 1242.88 1583.17 1237.67 z" fill="rgb(9,184,114)" transform="translate(0,0)"></path>
<path d="M 1634.05 1226.84 C 1651.18 1241.75 1657.58 1265.55 1650.23 1287.04 C 1642.88 1308.53 1623.25 1323.43 1600.57 1324.72 C 1577.9 1326.02 1556.69 1313.46 1546.94 1292.95 C 1554.13 1296.84 1556.76 1301.29 1566.21 1303.41 C 1580.32 1306.96 1599.53 1304.59 1611.97 1296.79 C 1630.29 1285.3 1642.29 1256.12 1635.25 1235.13 C 1634.19 1231.98 1634.06 1230.04 1634.05 1226.84 z" fill="rgb(7,158,93)" transform="translate(0,0)"></path>
<path d="M 1566.75 1232.32 C 1567.77 1235.02 1566.25 1236.47 1567.31 1237.65 C 1568.55 1237.83 1569.12 1235.21 1569.78 1235.58 C 1572.57 1237.15 1568.03 1238.71 1568.45 1239.63 C 1574.55 1240.83 1575.22 1234.51 1583.17 1237.67 C 1575.7 1242.88 1573.14 1244.62 1567.58 1252.36 C 1566.63 1253.34 1564.69 1255.4 1563.03 1255.01 C 1548.2 1251.44 1562.42 1236.08 1566.75 1232.32 z" fill="rgb(233,233,232)" fill-opacity="0.988235" transform="translate(0,0)"></path>
<path d="M 1566.75 1232.32 C 1586.51 1213.56 1597.4 1231.51 1583.17 1237.67 C 1575.22 1234.51 1574.55 1240.83 1568.45 1239.63 C 1568.03 1238.71 1572.57 1237.15 1569.78 1235.58 C 1569.12 1235.21 1568.55 1237.83 1567.31 1237.65 C 1566.25 1236.47 1567.77 1235.02 1566.75 1232.32 z" fill="rgb(233,233,232)" fill-opacity="0.94902" transform="translate(0,0)"></path>
<path d="M 1555.15 1257.21 C 1563.74 1260.25 1559.75 1268.9 1555.42 1274.28 C 1546.57 1271.69 1550.81 1262.27 1555.15 1257.21 z" fill="rgb(233,233,232)" transform="translate(0,0)"></path>
<path d="M 1336.66 1337.75 C 1336.06 1332.43 1331.24 1335.67 1330.59 1332.4 C 1331.15 1331.47 1331.98 1330.74 1332.97 1330.32 C 1338.53 1327.92 1340.81 1324.81 1343.28 1333.29 C 1340.47 1336.15 1340.37 1336.66 1336.66 1337.75 z" fill="rgb(233,233,232)" fill-opacity="0.568627" transform="translate(0,0)"></path>
<path d="M 1433.75 1556.24 L 1433.61 1554.92 C 1433.39 1553.01 1430.86 1550.37 1431.5 1548.44 C 1433.07 1547.04 1446.71 1561.84 1448.65 1563.95 C 1445.66 1562.55 1438.28 1558.26 1435.79 1558.24 C 1435.1 1557.59 1434.42 1556.92 1433.75 1556.24 z" fill="rgb(233,233,232)" fill-opacity="0.917647" transform="translate(0,0)"></path>
<path d="M 1286.25 1302.92 C 1287.94 1300.7 1289.5 1298.89 1291.31 1296.81 C 1293.07 1298.64 1294.11 1299.49 1294.07 1302.32 L 1293.41 1303.19 C 1292.15 1304.97 1288.14 1303.27 1286.25 1302.92 z" fill="rgb(233,233,232)" fill-opacity="0.886275" transform="translate(0,0)"></path>
<path d="M 1417.33 1632.93 C 1432.5 1626.42 1449.46 1619.14 1466.12 1617.34 C 1507.82 1612.85 1555.31 1613.56 1597.44 1613.84 C 1638.39 1614.1 1701.89 1611.18 1740.92 1618.3 C 1740.14 1620.92 1729.45 1621.32 1727.5 1621.09 C 1717.04 1619.84 1712.44 1629.28 1725.92 1629.72 C 1729.35 1630.22 1731.02 1630.55 1734.41 1631.4 C 1739.08 1632.76 1742.85 1633.56 1744.77 1638.4 C 1730.5 1633.61 1715.72 1630.49 1700.73 1629.11 C 1667.9 1625.83 1629.99 1627.56 1596.62 1627.28 C 1567.03 1627.02 1536.41 1627.09 1506.81 1627.4 C 1501.49 1627.45 1481.92 1630.67 1476.34 1631.53 C 1474.5 1631.26 1470.23 1630.99 1468.56 1631.91 C 1466.94 1632.79 1458.95 1634.67 1458.02 1635.29 C 1451.48 1639.71 1442.23 1635.45 1439.22 1642.43 C 1438.45 1644.23 1432.97 1646.36 1431 1646.48 C 1422.61 1646.34 1426.35 1654.76 1418.45 1654.82 C 1417.03 1654.83 1417.3 1659.18 1417.26 1659.94 C 1393.82 1680.48 1376.35 1706.79 1357.47 1732.33 C 1332.95 1765.52 1314.01 1802.67 1265.62 1800.51 C 1239.67 1799.35 1209.44 1781.75 1192.72 1762.32 C 1187.15 1755.83 1182.27 1748.76 1178.17 1741.25 C 1180.52 1741.24 1181.16 1741.33 1183.36 1742.1 C 1188.44 1740.84 1184.11 1732.69 1186.63 1729.79 C 1186.83 1729.57 1187.13 1729.47 1187.42 1729.54 C 1189.17 1729.93 1190.79 1737.72 1193.02 1737.91 C 1198.91 1738.34 1204.07 1745.57 1210.16 1742.25 C 1211.99 1741.25 1205.94 1736.4 1204.21 1733.04 C 1276.23 1788.7 1336.17 1705.05 1384.72 1660.06 C 1383.47 1662.57 1382.98 1663.52 1381.14 1665.63 L 1381.17 1666.41 C 1380.88 1666.58 1380.46 1666.66 1380.35 1666.97 L 1380.41 1667.08 C 1381.81 1667.15 1386.52 1664.19 1387.21 1662.44 C 1388.26 1660.54 1391.05 1656.23 1393.61 1656.13 C 1396.52 1656.02 1395.19 1660.52 1396.18 1660.92 C 1397.33 1660.26 1402.87 1655.21 1401.24 1653.03 C 1398.87 1649.84 1403.97 1643.64 1407.01 1643.01 L 1408.19 1644.39 C 1407.77 1646.29 1405.33 1649.87 1405.55 1650.55 C 1406.79 1651.75 1412.04 1648.75 1410.48 1646.58 C 1404.55 1638.29 1419.96 1637.63 1417.93 1634.07 L 1417.33 1632.93 z" fill="rgb(213,212,212)" fill-opacity="0.980392" transform="translate(0,0)"></path>
<path d="M 1817.05 1686.82 C 1816.48 1684.39 1814.78 1675.67 1812.44 1673.36 C 1812.39 1673.31 1812.24 1673.41 1812.19 1673.44 L 1811.85 1674.31 L 1811.72 1674.31 C 1811.07 1672.73 1810.51 1670.32 1810.48 1668.59 C 1806.94 1668 1818.82 1673.74 1817.77 1673.3 C 1821.23 1673.65 1822.93 1677.01 1824.8 1679.79 C 1829.72 1685.82 1832.44 1688.61 1838.61 1693.79 C 1840.21 1695.14 1845.03 1698.82 1845.82 1694.5 C 1845.61 1691.95 1841.92 1688.15 1840.28 1685.01 C 1845.3 1689.12 1855.78 1699.73 1860.17 1704.63 C 1915.38 1766.3 2000.93 1775.83 2022.99 1679.29 C 2025.78 1683.1 2023.32 1684.76 2028.09 1687.95 C 2033.94 1691.87 2032.62 1683.44 2037.45 1690.1 C 2036.93 1693.38 2036.26 1696.47 2035.72 1699.7 C 2023.32 1755.19 1977.91 1810.34 1914.19 1799.62 C 1882.71 1794.33 1862.13 1760.54 1844.41 1737.4 C 1838.57 1729.46 1823.76 1711.33 1819.55 1703.25 C 1829.95 1700.21 1821.79 1691.32 1817.05 1686.82 z" fill="url(#Gradient5)" transform="translate(0,0)"></path>
<path d="M 1740.41 1183.16 C 1796.58 1183.38 1846.36 1188.43 1887.59 1229.86 C 1900.03 1242.35 1910.75 1256.43 1919.47 1271.75 C 1944.26 1315.36 1965.38 1379.43 1982.43 1427.46 C 1984.89 1434.38 1992.12 1456.26 1993.56 1462.78 C 1991.39 1470.14 1997.57 1474.39 1996.78 1479.15 C 1995.09 1480.41 1995.19 1478.35 1994.9 1481.55 C 1992.45 1482.03 1992.4 1482.05 1990.17 1482.94 C 1988.36 1478.89 1988.86 1479.38 1988.7 1475.39 L 1988.67 1475.63 L 1988.56 1474.29 L 1988.46 1474.26 C 1987.53 1475.53 1988.4 1479.69 1987.67 1481.39 L 1987.51 1481.44 C 1986.52 1480.59 1981.13 1457 1979.54 1456.03 C 1979.15 1456.02 1979.41 1455.98 1978.64 1456.32 C 1977.08 1452.92 1951.45 1376.69 1951.47 1377.11 C 1948.15 1321.32 1924.96 1279.45 1873.09 1255.17 C 1859.01 1248.58 1843.58 1246.13 1828.56 1243.55 C 1806.68 1210.79 1767.59 1205.15 1731.65 1204.74 L 1732.3 1204.37 C 1736.9 1204.34 1762.22 1204.06 1763.54 1202.92 C 1763.51 1202.83 1763.48 1202.74 1763.45 1202.65 C 1762.41 1202.09 1761.13 1202.88 1759.98 1202.47 C 1758.51 1201.95 1756.51 1201.71 1755.03 1202.36 C 1754.83 1202.51 1754.63 1202.66 1754.43 1202.81 C 1752.62 1203.72 1749.23 1203.45 1749.19 1200.79 C 1749.18 1199.79 1748.22 1198.95 1748.58 1197.93 C 1748.87 1197.12 1749.86 1196.94 1750.49 1196.52 C 1753.28 1195.59 1755.84 1193.73 1758.84 1193.49 C 1759.42 1193.45 1761.43 1193.87 1761.42 1192.78 C 1762.09 1193.67 1746.4 1191.33 1740.41 1183.16 z M 1987.15 1466.26 C 1987.28 1462.29 1987.71 1459.46 1984.26 1456.85 C 1984.2 1461.3 1983.87 1462.94 1987.15 1466.26 z" fill="url(#Gradient4)" transform="translate(0,0)"></path>
<path d="M 1984.26 1456.85 C 1987.71 1459.46 1987.28 1462.29 1987.15 1466.26 C 1983.87 1462.94 1984.2 1461.3 1984.26 1456.85 z" fill="rgb(213,212,212)" fill-opacity="0.921569" transform="translate(0,0)"></path>
<path d="M 1308.15 1233.57 C 1330.04 1210.32 1359.4 1195.53 1390.3 1188.46 C 1389.66 1193.32 1380.7 1195.32 1375.92 1197.52 C 1383.1 1201.45 1385.15 1204.98 1391.94 1202.37 C 1395.74 1200.9 1395.51 1199.13 1399.78 1199.54 L 1399.98 1199.69 C 1399.97 1200.86 1388.22 1206.55 1391.74 1212.95 C 1392.99 1215.24 1398.41 1216.14 1400.97 1217.37 C 1388.4 1223.94 1378.86 1230.1 1369.91 1241.51 C 1360.86 1242.64 1351.92 1244.36 1342.99 1246.23 C 1340.73 1246.7 1338.5 1247.3 1336.31 1248.03 C 1335.32 1248.23 1334.37 1248.47 1333.4 1248.75 C 1332.5 1248.94 1331.6 1249.12 1330.71 1249.31 C 1330.12 1249.48 1329.53 1249.66 1328.94 1249.83 C 1324.17 1251.02 1319.22 1252.6 1314.49 1253.86 C 1312.23 1253.7 1311.6 1250.51 1308.93 1249.78 C 1304.89 1248.49 1301.3 1255.85 1297.37 1252.35 C 1296.94 1251.96 1297.74 1246.03 1297.72 1244.98 C 1300.28 1241.69 1302.95 1238.94 1305.79 1235.9 C 1305.27 1243.36 1299.41 1247.15 1299.61 1249.49 C 1300.14 1249.75 1300.87 1249.79 1301.27 1249.3 C 1304.42 1245.44 1309.83 1247.65 1313.38 1246.33 C 1316.45 1236.28 1313.19 1240.93 1319.97 1239.27 C 1323.21 1238.47 1323.76 1224.98 1333.58 1223.39 C 1336.26 1210.99 1314.07 1233.17 1308.15 1233.57 z" fill="rgb(233,233,232)" fill-opacity="0.862745" transform="translate(0,0)"></path>
<path d="M 1424.02 1183.21 C 1440.28 1182.29 1473.6 1182.45 1490.31 1183.17 L 1488.42 1183.96 C 1485.06 1186.55 1483.54 1192.3 1477.46 1192.36 C 1470.24 1192.44 1464.47 1198.52 1469.02 1205.32 C 1463.67 1204.72 1458.58 1204.8 1453.23 1204.62 C 1456.12 1202.81 1461.58 1204.65 1463.16 1203.42 C 1463.51 1199.2 1436.45 1196.07 1435.1 1200.24 C 1432.72 1207.58 1430.55 1199.89 1427.23 1208.46 C 1424.18 1209.07 1422.17 1209.76 1419.22 1210.52 C 1427.63 1201.44 1420.51 1201.75 1413.59 1200.07 C 1427.18 1198.62 1424.59 1193.69 1412.15 1192.95 L 1412.4 1192.17 L 1413.73 1192 C 1421.41 1191.1 1421.56 1191.7 1423.46 1185.1 L 1424.02 1183.21 z" fill="rgb(240,239,239)" fill-opacity="0.678431" transform="translate(0,0)"></path>
<path d="M 1791.57 1637.78 C 1793.1 1638.95 1794.09 1639.5 1795.26 1640.99 L 1794.15 1641.64 C 1792.98 1642.27 1790.94 1643.51 1790.42 1644.76 C 1790.24 1645.18 1790.72 1646.29 1790.96 1646.37 C 1794.81 1647.64 1797.01 1652.38 1799.13 1653.62 C 1802.54 1654.89 1806.05 1655.65 1806.81 1659.55 C 1808.24 1666.83 1815.78 1660.61 1814.59 1667.99 C 1813.25 1667.49 1806.89 1662.73 1805.85 1662.48 C 1796.15 1660.12 1802.89 1668.92 1806.95 1672.31 C 1807.67 1678.17 1807.09 1679.92 1806.23 1685.68 C 1805.42 1684.61 1805.33 1684.43 1804.57 1683.17 C 1805.23 1676.3 1805.42 1673.51 1796.85 1674.23 C 1795.11 1672.97 1790.92 1668.74 1789.58 1666.96 C 1789.46 1662.1 1788.8 1655.13 1783.05 1661.31 C 1775.03 1655.66 1769.04 1651.03 1760.53 1645.66 C 1769.15 1636.3 1775.33 1636.44 1776.19 1646.93 C 1776.48 1650.38 1788.59 1648.08 1787.7 1643.99 C 1787.3 1642.15 1789.58 1640.41 1791.57 1637.78 z M 1774.26 1646.31 C 1772.26 1640.03 1772.69 1641.16 1765.79 1640.88 C 1766.3 1647.06 1768.59 1645.92 1774.26 1646.31 z" fill="rgb(233,233,232)" fill-opacity="0.564706" transform="translate(0,0)"></path>
<path d="M 1765.79 1640.88 C 1772.69 1641.16 1772.26 1640.03 1774.26 1646.31 C 1768.59 1645.92 1766.3 1647.06 1765.79 1640.88 z" fill="rgb(233,233,232)" fill-opacity="0.529412" transform="translate(0,0)"></path>
<path d="M 1490.31 1183.17 C 1495.21 1182.99 1500.11 1183 1505.01 1183.21 C 1502.34 1183.44 1494.97 1183.32 1493.43 1184.81 L 1493.45 1184.87 L 1493.7 1184.93 L 1493.69 1186.13 C 1500.46 1190.64 1507.63 1190.56 1515.37 1191.82 L 1520.01 1193.73 C 1533.47 1198.56 1514.35 1205.87 1509.01 1207.19 C 1503.87 1208.45 1492.86 1205.63 1491.93 1210.65 C 1489.25 1210.15 1482.8 1208.36 1480.15 1207.33 C 1478.91 1206.5 1475 1204.63 1475.3 1202.88 C 1476.48 1196.07 1493.41 1201.47 1498.5 1200.22 C 1499.21 1200.04 1511.86 1202.11 1508.09 1195.91 C 1505.63 1191.88 1493.7 1193.88 1490.09 1190.95 C 1488.98 1190.09 1488.67 1185.3 1488.42 1183.96 L 1490.31 1183.17 z" fill="rgb(233,233,232)" fill-opacity="0.333333" transform="translate(0,0)"></path>
<path d="M 2024.98 1591.24 L 2025.8 1593.11 C 2026.22 1594.05 2026.95 1595.36 2027.45 1596.23 C 2030.57 1601.58 2029.06 1619.52 2036.21 1620.89 C 2037.07 1623.31 2037 1624.01 2037.3 1626.68 L 2037.46 1627.95 C 2031.42 1625.15 2032.75 1620.52 2027.6 1621.11 C 2027.56 1621.15 2026.89 1663.65 2027.09 1667.5 C 2027.83 1681.4 2028.56 1676.49 2037.98 1682.64 L 2038.05 1684 C 2037.93 1686.35 2037.82 1687.78 2037.45 1690.1 C 2032.62 1683.44 2033.94 1691.87 2028.09 1687.95 C 2023.32 1684.76 2025.78 1683.1 2022.99 1679.29 C 2026.32 1660.23 2026.57 1643.02 2023.09 1623.99 L 2022.22 1619.49 C 2021.76 1617.09 2021.2 1614.69 2021.12 1612.25 C 2024.72 1607.52 2024.89 1597 2024.98 1591.24 z" fill="rgb(213,212,212)" fill-opacity="0.756863" transform="translate(0,0)"></path>
<path d="M 1390.3 1188.46 C 1391.84 1187.78 1393.35 1187.46 1395.01 1187.15 C 1396.98 1186.78 1398.95 1186.45 1400.93 1186.15 C 1397.05 1190.37 1410.17 1192.09 1412.4 1192.17 L 1412.15 1192.95 L 1408.49 1193.28 C 1406.86 1193.44 1400.19 1194.97 1404.06 1198.57 C 1404.81 1199.27 1411.43 1199.81 1412.73 1199.99 C 1407.8 1201.21 1401.47 1203.68 1401.08 1211.14 C 1401.02 1212.31 1403.79 1214.11 1404.99 1215.48 C 1403.33 1216.35 1402.7 1216.8 1400.97 1217.37 C 1398.41 1216.14 1392.99 1215.24 1391.74 1212.95 C 1388.22 1206.55 1399.97 1200.86 1399.98 1199.69 L 1399.78 1199.54 C 1395.51 1199.13 1395.74 1200.9 1391.94 1202.37 C 1385.15 1204.98 1383.1 1201.45 1375.92 1197.52 C 1380.7 1195.32 1389.66 1193.32 1390.3 1188.46 z" fill="rgb(240,239,239)" fill-opacity="0.639216" transform="translate(0,0)"></path>
<path d="M 1336.31 1248.03 C 1338.5 1247.3 1340.73 1246.7 1342.99 1246.23 C 1351.92 1244.36 1360.86 1242.64 1369.91 1241.51 C 1367.78 1245.43 1367.31 1247 1365.73 1251.02 L 1353 1253.1 C 1336.15 1255.93 1325.24 1262.3 1310.46 1269.53 L 1309.77 1267.63 C 1314.24 1265.4 1316.36 1261.22 1323.38 1260.78 C 1325.79 1260.63 1324.51 1251.87 1324.51 1251.85 C 1326.59 1251.12 1336.46 1250.39 1338.67 1248.26 L 1338.82 1248.38 C 1338.05 1248.07 1337.15 1248.1 1336.31 1248.03 z" fill="rgb(213,212,212)" fill-opacity="0.980392" transform="translate(0,0)"></path>
<path d="M 1993.56 1462.78 C 1995.81 1468.65 1997.87 1475.58 1999.53 1481.71 C 2006.93 1509.07 2016.14 1536.49 2022.53 1564.05 C 2010.98 1558.69 2015.17 1547.85 2012.44 1539.69 C 2011.8 1538.48 2011.18 1537.25 2010.58 1536.01 C 2005.94 1520.88 2005.67 1523.02 2004.55 1506.54 C 1996.87 1499 2000.26 1499.18 1996.47 1493.24 C 1995.87 1489.36 1995.45 1485.45 1994.9 1481.55 C 1995.19 1478.35 1995.09 1480.41 1996.78 1479.15 C 1997.57 1474.39 1991.39 1470.14 1993.56 1462.78 z" fill="rgb(213,212,212)" transform="translate(0,0)"></path>
<path d="M 1285.81 1267.9 C 1292.59 1264.66 1294.52 1261.24 1301.94 1259.04 C 1305.16 1258.08 1308.59 1254.73 1312.32 1255.21 C 1314.64 1255.22 1320.19 1253.33 1322.61 1252.67 L 1322.98 1252.99 C 1323.11 1258.42 1310.75 1258.8 1310.81 1265.02 C 1308.56 1266.23 1310.27 1264.97 1308.75 1267.4 C 1309.09 1267.48 1309.43 1267.56 1309.77 1267.63 L 1310.46 1269.53 C 1309.91 1270.08 1298.11 1278.69 1297.11 1279.26 C 1295.66 1279.38 1294.6 1279.46 1293.17 1279.23 L 1293.75 1279.22 L 1292.7 1279.06 L 1292.59 1278.97 C 1292.05 1280.2 1291.16 1280.81 1290.03 1281.46 C 1288.77 1274.41 1291.37 1276.36 1285.81 1267.9 z" fill="rgb(213,212,212)" fill-opacity="0.945098" transform="translate(0,0)"></path>
<path d="M 1996.47 1493.24 C 2000.26 1499.18 1996.87 1499 2004.55 1506.54 C 2005.67 1523.02 2005.94 1520.88 2010.58 1536.01 C 2009.99 1535.34 2008.21 1533.36 2007.94 1532.44 C 2007.7 1531.63 2005.5 1529.87 2005.36 1531 C 2004.57 1537.47 2006.91 1544.81 2009.41 1550.66 C 2012.09 1557.16 2013.2 1562.85 2010.23 1569.26 C 2009.5 1567.01 2008.84 1564.75 2008.25 1562.46 L 2007.23 1558.48 L 2006.22 1554.48 L 2005.22 1550.48 C 2002.41 1539.17 1998.62 1527.24 1996.01 1516.07 C 1997.18 1505.19 1996.9 1504.44 1993.74 1494.97 L 1996.47 1493.24 z M 2003.67 1522.48 C 2004.42 1513.72 2005.75 1513.08 1998.39 1510.29 C 1999.33 1514.83 1999.25 1520.5 2003.67 1522.48 z" fill="rgb(213,212,212)" fill-opacity="0.894118" transform="translate(0,0)"></path>
<path d="M 1998.39 1510.29 C 2005.75 1513.08 2004.42 1513.72 2003.67 1522.48 C 1999.25 1520.5 1999.33 1514.83 1998.39 1510.29 z" fill="rgb(213,212,212)" fill-opacity="0.713725" transform="translate(0,0)"></path>
<path d="M 1740.92 1618.3 C 1744.17 1618.71 1747.28 1619.51 1750.46 1620.27 C 1755.05 1621.34 1759.56 1622.69 1763.98 1624.32 C 1757.84 1632.29 1740.87 1630.57 1753.64 1638.63 C 1756.25 1641.28 1756.5 1641.5 1758.62 1644.5 C 1754.86 1643 1748.32 1640.36 1744.77 1638.4 C 1742.85 1633.56 1739.08 1632.76 1734.41 1631.4 C 1735.92 1631.19 1742.86 1630.13 1742.04 1626.54 C 1740.16 1618.38 1722.28 1624.54 1725.92 1629.72 C 1712.44 1629.28 1717.04 1619.84 1727.5 1621.09 C 1729.45 1621.32 1740.14 1620.92 1740.92 1618.3 z" fill="rgb(233,233,232)" fill-opacity="0.694118" transform="translate(0,0)"></path>
<path d="M 2037.98 1682.64 C 2028.56 1676.49 2027.83 1681.4 2027.09 1667.5 C 2026.89 1663.65 2027.56 1621.15 2027.6 1621.11 C 2032.75 1620.52 2031.42 1625.15 2037.46 1627.95 C 2037.86 1629.61 2037.99 1630.41 2038.24 1632.1 C 2036.79 1633.74 2033.83 1638.25 2033.47 1633.47 C 2033.46 1643.51 2032.98 1643.5 2029.63 1652.44 C 2032.44 1659.25 2034.51 1660.68 2033.42 1668.58 C 2033.36 1669.06 2033.46 1669.96 2033.59 1670.45 C 2035.53 1669.79 2037.77 1680.79 2037.98 1682.64 z" fill="rgb(213,212,212)" fill-opacity="0.360784" transform="translate(0,0)"></path>
<path d="M 1469.02 1205.32 C 1464.47 1198.52 1470.24 1192.44 1477.46 1192.36 C 1483.54 1192.3 1485.06 1186.55 1488.42 1183.96 C 1488.67 1185.3 1488.98 1190.09 1490.09 1190.95 C 1493.7 1193.88 1505.63 1191.88 1508.09 1195.91 C 1511.86 1202.11 1499.21 1200.04 1498.5 1200.22 C 1493.41 1201.47 1476.48 1196.07 1475.3 1202.88 C 1475 1204.63 1478.91 1206.5 1480.15 1207.33 C 1476.39 1206.6 1472.76 1206.01 1469.02 1205.32 z" fill="rgb(233,233,232)" fill-opacity="0.537255" transform="translate(0,0)"></path>
<path d="M 1297.72 1244.98 C 1297.74 1246.03 1296.94 1251.96 1297.37 1252.35 C 1301.3 1255.85 1304.89 1248.49 1308.93 1249.78 C 1311.6 1250.51 1312.23 1253.7 1314.49 1253.86 C 1319.22 1252.6 1324.17 1251.02 1328.94 1249.83 C 1329.53 1249.66 1330.12 1249.48 1330.71 1249.31 C 1331.6 1249.12 1332.5 1248.94 1333.4 1248.75 C 1334.37 1248.47 1335.32 1248.23 1336.31 1248.03 C 1337.15 1248.1 1338.05 1248.07 1338.82 1248.38 L 1338.67 1248.26 C 1336.46 1250.39 1326.59 1251.12 1324.51 1251.85 C 1324.51 1251.87 1325.79 1260.63 1323.38 1260.78 C 1316.36 1261.22 1314.24 1265.4 1309.77 1267.63 C 1309.43 1267.56 1309.09 1267.48 1308.75 1267.4 C 1310.27 1264.97 1308.56 1266.23 1310.81 1265.02 C 1310.75 1258.8 1323.11 1258.42 1322.98 1252.99 L 1322.61 1252.67 C 1320.19 1253.33 1314.64 1255.22 1312.32 1255.21 C 1308.59 1254.73 1305.16 1258.08 1301.94 1259.04 C 1294.52 1261.24 1292.59 1264.66 1285.81 1267.9 C 1284.81 1267.05 1284.22 1266.56 1283.22 1265.8 C 1287.37 1257.92 1291.84 1251.69 1297.72 1244.98 z" fill="rgb(240,239,239)" fill-opacity="0.909804" transform="translate(0,0)"></path>
<path d="M 2011.15 1573.76 L 2011.76 1571.91 C 2013.35 1566.39 2013.01 1569.56 2013.44 1564.59 C 2014.54 1563.53 2019.75 1569.5 2019.93 1570.49 C 2020.92 1576 2020.67 1577.68 2023.18 1583.34 C 2023.93 1586.07 2024.37 1588.48 2024.98 1591.24 C 2024.89 1597 2024.72 1607.52 2021.12 1612.25 C 2020.58 1610.47 2020.28 1609.28 2019.84 1607.52 L 2013.65 1583.01 C 2012.92 1580.17 2012.22 1576.41 2011.15 1573.76 z" fill="rgb(213,212,212)" fill-opacity="0.615686" transform="translate(0,0)"></path>
<path d="M 1308.15 1233.57 C 1314.07 1233.17 1336.26 1210.99 1333.58 1223.39 C 1323.76 1224.98 1323.21 1238.47 1319.97 1239.27 C 1313.19 1240.93 1316.45 1236.28 1313.38 1246.33 C 1309.83 1247.65 1304.42 1245.44 1301.27 1249.3 C 1300.87 1249.79 1300.14 1249.75 1299.61 1249.49 C 1299.41 1247.15 1305.27 1243.36 1305.79 1235.9 C 1306.75 1234.58 1306.82 1234.57 1308.15 1233.57 z" fill="url(#Gradient3)" transform="translate(0,0)"></path>
<path d="M 1806.95 1672.31 C 1802.89 1668.92 1796.15 1660.12 1805.85 1662.48 C 1806.89 1662.73 1813.25 1667.49 1814.59 1667.99 L 1817.77 1673.3 C 1818.82 1673.74 1806.94 1668 1810.48 1668.59 C 1810.51 1670.32 1811.07 1672.73 1811.72 1674.31 L 1811.85 1674.31 L 1812.19 1673.44 C 1812.24 1673.41 1812.39 1673.31 1812.44 1673.36 C 1814.78 1675.67 1816.48 1684.39 1817.05 1686.82 C 1821.79 1691.32 1829.95 1700.21 1819.55 1703.25 C 1816.99 1700.04 1814.54 1696.75 1812.2 1693.38 C 1811.63 1692.57 1811.05 1691.76 1810.48 1690.94 C 1816.75 1682.73 1811.88 1685.56 1808.63 1676.6 L 1808.04 1675.08 C 1807.68 1674.16 1807.31 1673.24 1806.95 1672.31 z" fill="rgb(213,212,212)" fill-opacity="0.819608" transform="translate(0,0)"></path>
<path d="M 1733.6 1183.22 C 1736.14 1183.1 1737.87 1183 1740.41 1183.16 C 1746.4 1191.33 1762.09 1193.67 1761.42 1192.78 C 1761.43 1193.87 1759.42 1193.45 1758.84 1193.49 C 1755.84 1193.73 1753.28 1195.59 1750.49 1196.52 C 1749.86 1196.94 1748.87 1197.12 1748.58 1197.93 C 1748.22 1198.95 1749.18 1199.79 1749.19 1200.79 C 1749.23 1203.45 1752.62 1203.72 1754.43 1202.81 C 1754.63 1202.66 1754.83 1202.51 1755.03 1202.36 C 1756.51 1201.71 1758.51 1201.95 1759.98 1202.47 C 1761.13 1202.88 1762.41 1202.09 1763.45 1202.65 C 1763.48 1202.74 1763.51 1202.83 1763.54 1202.92 C 1762.22 1204.06 1736.9 1204.34 1732.3 1204.37 C 1734.4 1200.1 1735.92 1201.18 1737.01 1196 C 1738.17 1190.5 1739.48 1186.29 1733.6 1183.22 z" fill="rgb(233,233,232)" fill-opacity="0.686275" transform="translate(0,0)"></path>
<path d="M 2038.24 1632.1 C 2040.03 1649.09 2040.14 1666.22 2038.54 1683.24 L 2038.05 1684 L 2037.98 1682.64 C 2037.77 1680.79 2035.53 1669.79 2033.59 1670.45 C 2033.46 1669.96 2033.36 1669.06 2033.42 1668.58 C 2034.51 1660.68 2032.44 1659.25 2029.63 1652.44 C 2032.98 1643.5 2033.46 1643.51 2033.47 1633.47 C 2033.83 1638.25 2036.79 1633.74 2038.24 1632.1 z" fill="rgb(213,212,212)" fill-opacity="0.321569" transform="translate(0,0)"></path>
<path d="M 1802.37 1647.02 C 1810.62 1653.48 1824.51 1667.83 1832 1675.78 C 1831.3 1679.74 1828.71 1678.82 1824.8 1679.79 C 1822.93 1677.01 1821.23 1673.65 1817.77 1673.3 L 1814.59 1667.99 C 1815.78 1660.61 1808.24 1666.83 1806.81 1659.55 C 1806.05 1655.65 1802.54 1654.89 1799.13 1653.62 C 1801.14 1650.89 1801.23 1650.3 1802.37 1647.02 z" fill="rgb(233,233,232)" fill-opacity="0.407843" transform="translate(0,0)"></path>
<path d="M 1515.37 1191.82 L 1519.05 1191.55 C 1522.73 1191.31 1530.92 1193.11 1531.34 1197.43 C 1530.77 1198.29 1530.82 1198.03 1529.65 1198.57 C 1528.64 1199.05 1527.88 1199.93 1527.54 1200.99 C 1526.37 1205.32 1526.57 1205.34 1523.04 1204.83 C 1517.88 1204.07 1519.54 1208.77 1521.29 1211.7 C 1522.29 1212.29 1526.75 1211.75 1528.14 1213.55 C 1527.31 1216.61 1514.22 1213.81 1512.02 1212.36 C 1508.52 1210.06 1501.75 1211.07 1497.66 1212.63 C 1495.57 1212.21 1493.91 1211.43 1491.93 1210.65 C 1492.86 1205.63 1503.87 1208.45 1509.01 1207.19 C 1514.35 1205.87 1533.47 1198.56 1520.01 1193.73 L 1515.37 1191.82 z" fill="rgb(233,233,232)" fill-opacity="0.0392157" transform="translate(0,0)"></path>
<path d="M 1179.4 1711.06 L 1179.86 1711.76 C 1182.37 1715.45 1182.55 1718.94 1187.22 1718.84 L 1189.11 1718.84 C 1188.86 1727.49 1184.44 1722.71 1185.84 1725.5 C 1180.51 1730.95 1185.96 1739.59 1182.46 1739.74 C 1175.76 1740.03 1178.2 1729.78 1170.37 1725.39 C 1169.83 1724.3 1169.65 1723.89 1169.24 1722.74 C 1174.31 1722.14 1177.01 1714.94 1179.4 1711.06 z" fill="rgb(213,212,212)" fill-opacity="0.858824" transform="translate(0,0)"></path>
<path d="M 1271.74 1284.99 C 1272.81 1294 1268.72 1294.83 1265.53 1303.28 C 1262.82 1314.4 1266.78 1310.13 1272.46 1309.07 C 1270.02 1314.58 1267.09 1320.69 1264.52 1326.38 C 1263.36 1323.97 1262.13 1318.13 1259.54 1321.06 C 1258.21 1324.25 1257.59 1326.8 1256.47 1330.02 L 1255.73 1330.99 C 1254.42 1332.79 1253.5 1332.8 1251.42 1333.29 C 1257.32 1316.83 1263.75 1300.56 1271.74 1284.99 z" fill="rgb(240,239,239)" fill-opacity="0.988235" transform="translate(0,0)"></path>
<path d="M 1170.37 1725.39 C 1178.2 1729.78 1175.76 1740.03 1182.46 1739.74 C 1185.96 1739.59 1180.51 1730.95 1185.84 1725.5 C 1192.9 1727.91 1193.7 1740.84 1200.29 1734.41 C 1200.71 1734 1198.05 1727.53 1197.59 1725.92 C 1199.42 1727.79 1202.93 1730.99 1204.21 1733.04 C 1205.94 1736.4 1211.99 1741.25 1210.16 1742.25 C 1204.07 1745.57 1198.91 1738.34 1193.02 1737.91 C 1190.79 1737.72 1189.17 1729.93 1187.42 1729.54 C 1187.13 1729.47 1186.83 1729.57 1186.63 1729.79 C 1184.11 1732.69 1188.44 1740.84 1183.36 1742.1 C 1181.16 1741.33 1180.52 1741.24 1178.17 1741.25 C 1175.6 1738.12 1171.74 1729.28 1170.37 1725.39 z" fill="rgb(213,212,212)" fill-opacity="0.913725" transform="translate(0,0)"></path>
<path d="M 1412.73 1199.99 L 1413.59 1200.07 C 1420.51 1201.75 1427.63 1201.44 1419.22 1210.52 C 1414.57 1211.71 1409.5 1213.77 1404.99 1215.48 C 1403.79 1214.11 1401.02 1212.31 1401.08 1211.14 C 1401.47 1203.68 1407.8 1201.21 1412.73 1199.99 z" fill="rgb(240,239,239)" fill-opacity="0.313725" transform="translate(0,0)"></path>
<path d="M 1417.33 1632.93 L 1417.93 1634.07 C 1419.96 1637.63 1404.55 1638.29 1410.48 1646.58 C 1412.04 1648.75 1406.79 1651.75 1405.55 1650.55 C 1405.33 1649.87 1407.77 1646.29 1408.19 1644.39 L 1407.01 1643.01 C 1403.97 1643.64 1398.87 1649.84 1401.24 1653.03 C 1402.87 1655.21 1397.33 1660.26 1396.18 1660.92 C 1395.19 1660.52 1396.52 1656.02 1393.61 1656.13 C 1391.05 1656.23 1388.26 1660.54 1387.21 1662.44 C 1386.52 1664.19 1381.81 1667.15 1380.41 1667.08 L 1380.35 1666.97 C 1380.46 1666.66 1380.88 1666.58 1381.17 1666.41 L 1381.14 1665.63 C 1382.98 1663.52 1383.47 1662.57 1384.72 1660.06 C 1389.13 1652.29 1408.68 1637.8 1417.33 1632.93 z" fill="rgb(213,212,212)" fill-opacity="0.678431" transform="translate(0,0)"></path>
<path d="M 1273.31 1281.68 C 1275.11 1278.79 1281.37 1267.76 1283.22 1265.8 C 1284.22 1266.56 1284.81 1267.05 1285.81 1267.9 C 1291.37 1276.36 1288.77 1274.41 1290.03 1281.46 C 1282.15 1281.61 1282.47 1285.25 1282.67 1292.25 C 1275.79 1292.18 1279.75 1291.81 1275.51 1290.19 C 1283.62 1286.56 1279.01 1276.77 1273.91 1285.52 L 1273.31 1281.68 z" fill="rgb(233,233,232)" fill-opacity="0.901961" transform="translate(0,0)"></path>
<path d="M 2023.18 1583.34 C 2022.89 1578.23 2021.01 1572.69 2023.62 1568.19 C 2024.42 1570.57 2024.68 1571.57 2025.3 1573.99 L 2026.36 1577.98 C 2029.45 1589.72 2034.89 1609.42 2036.21 1620.89 C 2029.06 1619.52 2030.57 1601.58 2027.45 1596.23 C 2026.95 1595.36 2026.22 1594.05 2025.8 1593.11 L 2024.98 1591.24 C 2024.37 1588.48 2023.93 1586.07 2023.18 1583.34 z" fill="rgb(213,212,212)" fill-opacity="0.988235" transform="translate(0,0)"></path>
<path d="M 1427.23 1208.46 C 1430.55 1199.89 1432.72 1207.58 1435.1 1200.24 C 1436.45 1196.07 1463.51 1199.2 1463.16 1203.42 C 1461.58 1204.65 1456.12 1202.81 1453.23 1204.62 C 1443.5 1205.2 1436.76 1205.97 1427.23 1208.46 z" fill="rgb(240,239,239)" fill-opacity="0.760784" transform="translate(0,0)"></path>
<path d="M 1785.28 1633.81 C 1787.4 1635.16 1789.51 1636.33 1791.57 1637.78 C 1789.58 1640.41 1787.3 1642.15 1787.7 1643.99 C 1788.59 1648.08 1776.48 1650.38 1776.19 1646.93 C 1775.33 1636.44 1769.15 1636.3 1760.53 1645.66 L 1759.45 1645.25 C 1764.79 1638.36 1765.29 1637.99 1774.5 1637.88 C 1782.72 1637.78 1779.78 1637.01 1785.28 1633.81 z M 1782.7 1646.75 C 1783.9 1646.12 1784.64 1644.88 1784.65 1643.53 C 1784.65 1642.18 1783.91 1640.94 1782.71 1640.31 C 1781.52 1639.68 1780.08 1639.75 1778.96 1640.51 C 1777.36 1641.59 1776.89 1643.74 1777.88 1645.4 C 1778.87 1647.06 1780.99 1647.65 1782.7 1646.75 z" fill="rgb(233,233,232)" fill-opacity="0.592157" transform="translate(0,0)"></path>
<path d="M 1778.96 1640.51 C 1780.08 1639.75 1781.52 1639.68 1782.71 1640.31 C 1783.91 1640.94 1784.65 1642.18 1784.65 1643.53 C 1784.64 1644.88 1783.9 1646.12 1782.7 1646.75 C 1780.99 1647.65 1778.87 1647.06 1777.88 1645.4 C 1776.89 1643.74 1777.36 1641.59 1778.96 1640.51 z" fill="rgb(233,233,232)" fill-opacity="0.65098" transform="translate(0,0)"></path>
<path d="M 1417.26 1659.94 C 1417.3 1659.18 1417.03 1654.83 1418.45 1654.82 C 1426.35 1654.76 1422.61 1646.34 1431 1646.48 C 1432.97 1646.36 1438.45 1644.23 1439.22 1642.43 C 1442.23 1635.45 1451.48 1639.71 1458.02 1635.29 C 1458.95 1634.67 1466.94 1632.79 1468.56 1631.91 C 1470.23 1630.99 1474.5 1631.26 1476.34 1631.53 C 1445.01 1642 1445.48 1641.04 1417.26 1659.94 z" fill="rgb(233,233,232)" fill-opacity="0.988235" transform="translate(0,0)"></path>
<path d="M 1832 1675.78 C 1834.08 1677.98 1838.93 1682.65 1840.28 1685.01 C 1841.92 1688.15 1845.61 1691.95 1845.82 1694.5 C 1845.03 1698.82 1840.21 1695.14 1838.61 1693.79 C 1832.44 1688.61 1829.72 1685.82 1824.8 1679.79 C 1828.71 1678.82 1831.3 1679.74 1832 1675.78 z" fill="rgb(213,212,212)" fill-opacity="0.894118" transform="translate(0,0)"></path>
<path d="M 1290.03 1281.46 C 1291.16 1280.81 1292.05 1280.2 1292.59 1278.97 L 1292.7 1279.06 L 1293.75 1279.22 L 1293.17 1279.23 C 1294.6 1279.46 1295.66 1279.38 1297.11 1279.26 L 1296.56 1279.83 C 1290.37 1286.11 1286.96 1289.06 1281.36 1296.33 C 1278.57 1299.94 1274.73 1306.37 1272.46 1309.07 C 1266.78 1310.13 1262.82 1314.4 1265.53 1303.28 C 1266.33 1310.66 1267.58 1311.03 1271.72 1303.38 C 1276.22 1295.04 1275.48 1297.29 1282.67 1292.25 C 1282.47 1285.25 1282.15 1281.61 1290.03 1281.46 z" fill="rgb(213,212,212)" fill-opacity="0.988235" transform="translate(0,0)"></path>
<path d="M 2012.44 1539.69 C 2015.17 1547.85 2010.98 1558.69 2022.53 1564.05 C 2023.18 1565.83 2023.3 1566.34 2023.62 1568.19 C 2021.01 1572.69 2022.89 1578.23 2023.18 1583.34 C 2020.67 1577.68 2020.92 1576 2019.93 1570.49 C 2019.75 1569.5 2014.54 1563.53 2013.44 1564.59 C 2013.01 1569.56 2013.35 1566.39 2011.76 1571.91 L 2011.15 1573.76 C 2010.82 1572.23 2010.52 1570.8 2010.23 1569.26 C 2013.2 1562.85 2012.09 1557.16 2009.41 1550.66 C 2012.67 1550.23 2012.15 1542.21 2012.44 1539.69 z" fill="rgb(213,212,212)" fill-opacity="0.85098" transform="translate(0,0)"></path>
<path d="M 1184.36 1705.48 C 1186.39 1708.65 1188.31 1712.4 1190.33 1715.74 L 1189.11 1718.84 L 1187.22 1718.84 C 1182.55 1718.94 1182.37 1715.45 1179.86 1711.76 L 1179.4 1711.06 C 1177.01 1714.94 1174.31 1722.14 1169.24 1722.74 L 1168.51 1720.64 C 1172.4 1714.98 1176.46 1705.26 1184.36 1705.48 z" fill="rgb(213,212,212)" fill-opacity="0.329412" transform="translate(0,0)"></path>
<path d="M 1773.97 1627.87 L 1775.53 1629.23 C 1774.52 1629.9 1771.49 1630.98 1771.36 1631.94 C 1770.28 1640 1781.12 1632.66 1782.77 1632.12 L 1785.28 1633.81 C 1779.78 1637.01 1782.72 1637.78 1774.5 1637.88 C 1765.29 1637.99 1764.79 1638.36 1759.45 1645.25 L 1758.62 1644.5 C 1756.5 1641.5 1756.25 1641.28 1753.64 1638.63 C 1762.51 1637.38 1765.83 1631.12 1773.97 1627.87 z" fill="rgb(233,233,232)" fill-opacity="0.619608" transform="translate(0,0)"></path>
<path d="M 1763.98 1624.32 C 1767.5 1625.28 1770.45 1626.74 1773.97 1627.87 C 1765.83 1631.12 1762.51 1637.38 1753.64 1638.63 C 1740.87 1630.57 1757.84 1632.29 1763.98 1624.32 z" fill="rgb(233,233,232)" fill-opacity="0.54902" transform="translate(0,0)"></path>
<path d="M 1400.93 1186.15 C 1408.61 1184.46 1416.28 1184.22 1424.02 1183.21 L 1423.46 1185.1 C 1421.56 1191.7 1421.41 1191.1 1413.73 1192 L 1412.4 1192.17 C 1410.17 1192.09 1397.05 1190.37 1400.93 1186.15 z" fill="rgb(240,239,239)" fill-opacity="0.388235" transform="translate(0,0)"></path>
<path d="M 1273.31 1281.68 L 1273.91 1285.52 C 1274.32 1286.99 1274.98 1288.71 1275.51 1290.19 C 1279.75 1291.81 1275.79 1292.18 1282.67 1292.25 C 1275.48 1297.29 1276.22 1295.04 1271.72 1303.38 C 1267.58 1311.03 1266.33 1310.66 1265.53 1303.28 C 1268.72 1294.83 1272.81 1294 1271.74 1284.99 C 1272.27 1283.79 1272.71 1282.85 1273.31 1281.68 z" fill="rgb(233,233,232)" fill-opacity="0.894118" transform="translate(0,0)"></path>
<path d="M 1259.54 1321.06 C 1262.13 1318.13 1263.36 1323.97 1264.52 1326.38 C 1262.93 1332.15 1258.66 1343.6 1258.72 1349.39 C 1256.83 1340.19 1257.36 1339.41 1250.42 1335.48 C 1250.9 1334.29 1250.88 1334.33 1251.42 1333.29 C 1253.5 1332.8 1254.42 1332.79 1255.73 1330.99 L 1256.47 1330.02 C 1261.91 1328.94 1261.86 1325.41 1259.54 1321.06 z" fill="rgb(240,239,239)" fill-opacity="0.792157" transform="translate(0,0)"></path>
<path d="M 1190.33 1715.74 C 1192.27 1718.63 1196.17 1723.19 1197.59 1725.92 C 1198.05 1727.53 1200.71 1734 1200.29 1734.41 C 1193.7 1740.84 1192.9 1727.91 1185.84 1725.5 C 1184.44 1722.71 1188.86 1727.49 1189.11 1718.84 L 1190.33 1715.74 z" fill="url(#Gradient2)" transform="translate(0,0)"></path>
<path d="M 1412.15 1192.95 C 1424.59 1193.69 1427.18 1198.62 1413.59 1200.07 L 1412.73 1199.99 C 1411.43 1199.81 1404.81 1199.27 1404.06 1198.57 C 1400.19 1194.97 1406.86 1193.44 1408.49 1193.28 L 1412.15 1192.95 z" fill="rgb(240,239,239)" fill-opacity="0.890196" transform="translate(0,0)"></path>
<path d="M 1725.92 1629.72 C 1722.28 1624.54 1740.16 1618.38 1742.04 1626.54 C 1742.86 1630.13 1735.92 1631.19 1734.41 1631.4 C 1731.02 1630.55 1729.35 1630.22 1725.92 1629.72 z" fill="rgb(233,233,232)" fill-opacity="0.588235" transform="translate(0,0)"></path>
<path d="M 2009.41 1550.66 C 2006.91 1544.81 2004.57 1537.47 2005.36 1531 C 2005.5 1529.87 2007.7 1531.63 2007.94 1532.44 C 2008.21 1533.36 2009.99 1535.34 2010.58 1536.01 C 2011.18 1537.25 2011.8 1538.48 2012.44 1539.69 C 2012.15 1542.21 2012.67 1550.23 2009.41 1550.66 z" fill="rgb(213,212,212)" fill-opacity="0.65098" transform="translate(0,0)"></path>
<path d="M 1799.13 1653.62 C 1797.01 1652.38 1794.81 1647.64 1790.96 1646.37 C 1790.72 1646.29 1790.24 1645.18 1790.42 1644.76 C 1790.94 1643.51 1792.98 1642.27 1794.15 1641.64 L 1795.26 1640.99 C 1798.04 1642.89 1800.24 1644.35 1802.37 1647.02 C 1801.23 1650.3 1801.14 1650.89 1799.13 1653.62 z" fill="url(#Gradient1)" transform="translate(0,0)"></path>
<path d="M 2038.05 1684 L 2038.54 1683.24 C 2041.05 1689.95 2042.84 1693.61 2039.58 1700.69 C 2039.17 1701.57 2036.7 1707.39 2036.44 1707.63 L 2036.24 1707.66 C 2036.1 1707.22 2035.79 1700.74 2035.72 1699.7 C 2036.26 1696.47 2036.93 1693.38 2037.45 1690.1 C 2037.82 1687.78 2037.93 1686.35 2038.05 1684 z" fill="rgb(10,11,11)" fill-opacity="0.854902" transform="translate(0,0)"></path>
<path d="M 1368.25 1159.75 C 1371.75 1158.32 1374.33 1157.28 1378.05 1156.46 C 1380.8 1158.21 1381.81 1158.22 1384.98 1159.35 C 1382.11 1161.03 1378.25 1162.82 1375.02 1163.58 C 1372.34 1162.12 1370.74 1161.65 1368.25 1159.75 z" fill="rgb(233,233,232)" fill-opacity="0.878431" transform="translate(0,0)"></path>
<path d="M 1806.95 1672.31 C 1807.31 1673.24 1807.68 1674.16 1808.04 1675.08 L 1808.63 1676.6 C 1811.88 1685.56 1816.75 1682.73 1810.48 1690.94 C 1809.06 1689.18 1807.73 1687.37 1806.23 1685.68 C 1807.09 1679.92 1807.67 1678.17 1806.95 1672.31 z" fill="rgb(213,212,212)" fill-opacity="0.611765" transform="translate(0,0)"></path>
<path d="M 1775.53 1629.23 C 1779.04 1630.22 1779.61 1630.9 1782.77 1632.12 C 1781.12 1632.66 1770.28 1640 1771.36 1631.94 C 1771.49 1630.98 1774.52 1629.9 1775.53 1629.23 z" fill="rgb(233,233,232)" fill-opacity="0.694118" transform="translate(0,0)"></path>
<path d="M 1990.17 1482.94 C 1992.4 1482.05 1992.45 1482.03 1994.9 1481.55 C 1995.45 1485.45 1995.87 1489.36 1996.47 1493.24 L 1993.74 1494.97 C 1992.76 1490.81 1991.51 1487 1990.17 1482.94 z" fill="rgb(233,233,232)" fill-opacity="0.607843" transform="translate(0,0)"></path>
<path d="M 1378.05 1156.46 C 1384.24 1154.52 1400.42 1152.49 1384.98 1159.35 C 1381.81 1158.22 1380.8 1158.21 1378.05 1156.46 z" fill="rgb(233,233,232)" fill-opacity="0.0862745" transform="translate(0,0)"></path>
<path d="M 1796.85 1674.23 C 1805.42 1673.51 1805.23 1676.3 1804.57 1683.17 C 1801.41 1679.87 1799.62 1677.91 1796.85 1674.23 z" fill="rgb(213,212,212)" fill-opacity="0.478431" transform="translate(0,0)"></path>
<path d="M 1273.91 1285.52 C 1279.01 1276.77 1283.62 1286.56 1275.51 1290.19 C 1274.98 1288.71 1274.32 1286.99 1273.91 1285.52 z" fill="rgb(233,233,232)" fill-opacity="0.835294" transform="translate(0,0)"></path>
<path d="M 1783.05 1661.31 C 1788.8 1655.13 1789.46 1662.1 1789.58 1666.96 C 1786.67 1664.77 1785.59 1663.87 1783.05 1661.31 z" fill="rgb(233,233,232)" fill-opacity="0.490196" transform="translate(0,0)"></path>
<path d="M 1259.54 1321.06 C 1261.86 1325.41 1261.91 1328.94 1256.47 1330.02 C 1257.59 1326.8 1258.21 1324.25 1259.54 1321.06 z" fill="rgb(240,239,239)" fill-opacity="0.690196" transform="translate(0,0)"></path>
<path d="M 482.257 818.391 L 482.975 819.519 C 483.373 820.131 483.726 820.659 483.765 821.398 C 482.109 823.684 469.606 824.448 469.933 828.266 C 471.347 830.22 478.662 829.231 480.713 828.873 C 485.335 829.253 488.557 828.737 491.63 832.48 C 541.996 832.98 577.481 841.742 615.652 877.365 C 651.702 911.01 662.759 946.76 667.234 994.33 C 662.606 1046.26 649.698 1083.89 608.194 1118.62 C 574.56 1147.01 530.866 1160.58 487.066 1156.23 C 444.477 1152.59 405.14 1131.97 377.906 1099.03 C 374.196 1094.48 370.665 1089.78 367.318 1084.96 C 366.66 1083.39 358.507 1069.85 357.48 1068.68 C 341.952 1033.94 338.242 1012.62 340.326 974.916 C 341.004 973.103 340.937 972.877 341.122 970.856 C 342.028 964.559 343.91 958.16 344.782 951.884 C 341.288 946.323 343.237 945.352 338.167 939.995 C 340.213 936.333 345.007 916.556 347.446 915.147 C 347.546 915.814 347.551 919.505 349.949 919.38 C 357.259 918.997 353.517 909.891 350.548 908.887 C 348.112 909.432 349.892 911.148 346.687 909.857 C 373.022 858.882 426.323 826.202 482.257 818.391 z M 389.569 1014.1 C 394.56 1006.8 406.283 968.539 402.313 961.845 C 400.607 958.92 397.785 956.815 394.496 956.011 C 391.681 955.312 389.887 955.574 387.064 955.821 L 384.45 957.903 C 374.78 965.738 365.549 1019.62 389.569 1014.1 z" fill="rgb(10,11,11)" transform="translate(0,0)"></path>
<path d="M 482.257 818.391 L 482.975 819.519 C 483.373 820.131 483.726 820.659 483.765 821.398 C 482.109 823.684 469.606 824.448 469.933 828.266 C 471.347 830.22 478.662 829.231 480.713 828.873 C 485.335 829.253 488.557 828.737 491.63 832.48 C 487.347 832.953 483.062 833.417 478.793 834.002 C 413.038 843.011 364.483 890.015 344.782 951.884 C 341.288 946.323 343.237 945.352 338.167 939.995 C 340.213 936.333 345.007 916.556 347.446 915.147 C 347.546 915.814 347.551 919.505 349.949 919.38 C 357.259 918.997 353.517 909.891 350.548 908.887 C 348.112 909.432 349.892 911.148 346.687 909.857 C 373.022 858.882 426.323 826.202 482.257 818.391 z" fill="rgb(233,233,232)" transform="translate(0,0)"></path>
<path d="M 365.151 1064.85 C 334.283 1004.19 346.603 930.494 395.521 883.172 C 444.438 835.849 518.506 825.979 578.109 858.84 C 636.373 890.963 667.634 956.689 655.788 1022.16 C 643.942 1087.63 591.631 1138.23 525.805 1147.9 C 459.979 1157.57 395.326 1124.15 365.151 1064.85 z M 389.569 1014.1 C 394.56 1006.8 406.283 968.539 402.313 961.845 C 400.607 958.92 397.785 956.815 394.496 956.011 C 391.681 955.312 389.887 955.574 387.064 955.821 L 384.45 957.903 C 374.78 965.738 365.549 1019.62 389.569 1014.1 z" fill="rgb(9,184,114)" transform="translate(0,0)"></path>
<path d="M 578.109 858.84 C 636.373 890.963 667.634 956.689 655.788 1022.16 C 643.942 1087.63 591.631 1138.23 525.805 1147.9 C 459.979 1157.57 395.326 1124.15 365.151 1064.85 C 372.868 1066.39 379.073 1072.42 386.108 1076.66 C 420.319 1097.38 461.424 1103.49 500.183 1093.6 C 537.646 1084.11 569.713 1059.94 589.163 1026.55 C 617.866 977.968 612.484 925.028 586.354 875.788 C 583.267 869.971 579.402 865.382 578.109 858.84 z" fill="rgb(7,158,93)" transform="translate(0,0)"></path>
<path d="M 469.557 869.232 C 482.865 868.048 492.507 876.221 490.166 889.53 C 488.415 899.489 466.77 904.321 457.611 909.254 C 450.237 913.26 443.516 918.365 437.679 924.394 C 430.769 931.44 424.059 946.259 417.317 949.624 L 415.577 950.539 C 409.028 951.118 404.215 950.32 399.559 944.761 C 399.225 943.561 392.976 938.875 393.005 938.03 C 394.084 906.382 433.251 877.639 460.012 871.227 C 463.168 870.445 466.352 869.779 469.557 869.232 z" fill="rgb(233,233,232)" transform="translate(0,0)"></path>
<path d="M 387.064 955.821 C 389.887 955.574 391.681 955.312 394.496 956.011 C 397.785 956.815 400.607 958.92 402.313 961.845 C 406.283 968.539 394.56 1006.8 389.569 1014.1 C 365.549 1019.62 374.78 965.738 384.45 957.903 L 387.064 955.821 z" fill="rgb(233,233,232)" fill-opacity="0.964706" transform="translate(0,0)"></path>
<path d="M 9.09944 836.493 C 9.50916 838.429 10.202 843.473 10.9104 844.883 L 11.0984 844.836 C 12.6678 847.91 16.8202 865.84 17.9926 870.497 C 18.0002 866.177 18.4495 851.905 16.4773 848.466 L 16.196 848.36 C 15.2327 848.845 15.5135 850.842 15.4225 851.796 C 14.4588 851.205 15.1349 843.023 15.2641 841.62 C 17.0508 844.935 19.0045 848.785 20.9741 851.947 C 23.5686 849.308 26.2308 845.917 29.6291 845.033 C 36.9616 846.163 36.8602 846.891 44.5118 844.659 C 66.9683 838.107 69.0797 863.018 80.0539 873.797 C 83.991 877.664 96.2367 878.014 98.2816 883.131 C 100.836 888.118 98.5357 890.662 105.361 893.783 C 111.362 896.526 116.75 901.053 121.42 904.79 C 125.819 908.312 129.226 910.636 133.258 914.864 C 135.446 916.583 136.149 918.658 139.335 920.784 C 144.791 924.423 143.923 927.795 150.494 930.966 C 152.226 933.643 153.34 934.5 155.875 936.159 L 158.369 937.821 C 160.014 938.905 174.188 948.416 174.196 948.435 C 173.521 949.459 171.868 948.617 171.017 949.483 C 171.134 950.372 172.419 951.489 172.924 952.011 C 174.132 953.234 175.26 954.983 176.381 956.215 C 178.803 958.878 183.098 956.316 182.463 961.998 C 182.066 965.552 188.297 960.289 189.311 963.567 C 189.995 965.777 190.699 965.447 192.692 964.877 C 196.371 964.939 198 964.3 198.064 967.899 C 198.092 969.52 200.683 972.845 201.642 974.663 C 196.509 974.698 191.13 975.147 186.18 973.937 C 182.551 973.049 177.218 968.486 174.391 969.181 C 167.225 970.941 163.091 968.258 156.398 965.592 L 155.466 966.552 C 151.098 970.972 140.951 976.875 139.681 981.007 C 137.662 987.573 129.068 1001.51 128.03 1007.04 C 119.202 1006.96 109.223 1006.65 100.488 1006.96 C 88.8429 1007.36 96.43 1003.09 93.5107 999.342 L 93.7183 999.337 L 93.5316 999.353 C 91.0426 1003.1 94.8782 1007.49 92.7915 1012.05 C 89.6958 1018.82 92.6969 1031.22 91.3119 1038.74 C 90.7856 1038.94 87.902 1039.57 86.3458 1040.13 L 86.5019 1041 L 91.2953 1041.19 C 93.3581 1072.54 89.2481 1106.06 89.689 1137.54 C 89.8175 1146.71 94.6887 1157.22 95.1776 1166.27 L 94.5888 1329.9 L 94.5292 1380.12 C 94.5178 1389.76 94.9708 1403.61 93.6871 1412.78 C 91.7068 1406.14 95.0417 1393.78 87.7688 1391.19 C 73.9575 1386.26 81.3971 1372.53 72.1772 1364.1 C 68.8346 1365.54 54.6577 1395.1 43.4133 1390.57 C 33.8099 1386.7 32.2087 1366.74 22.5127 1373.15 C 19.2822 1371.21 18.9326 1368.06 17.8333 1364.16 C 19.5545 1357.96 19.7851 1349.95 19.239 1343.54 C 19.8444 1324.95 19.2419 1313.1 18.0082 1294.61 C 19.0621 1290.11 17.9459 1278.29 17.7381 1273.2 C 17.0696 1256.83 16.2337 1240.58 17.0088 1224.2 C 18.1422 1200.26 21.113 1167.24 18.3084 1143.57 L 18.4557 1144.87 L 17.4692 1145.38 C 16.3238 1167.68 16.8029 1189.29 15.745 1210.61 C 15.1675 1203.66 15.4338 1192.24 15.1773 1184.59 C 16.0715 1178.43 14.5596 1156.29 14.544 1148.54 L 14.4901 1041.02 C 18.7669 1041.1 20.7249 1041.06 24.9589 1040.52 C 23.4307 1039.23 18.0067 1039.09 15.49 1038.81 L 15.5055 1009.06 L 16.2668 1009.07 L 16.7357 1011.03 C 21.7717 1010.15 21.5426 1008.51 30.4454 1007.67 L 32.02 1007.53 L 31.4953 1006.94 L 15.4906 1007 L 15.5894 945.251 C 16.3548 953.996 15.244 997.825 18.0892 1001.2 C 20.0756 988.78 21.7275 955.33 19.985 943.224 C 16.02 915.678 12.8002 887 9.101 859.459 C 8.63219 853.308 9.04346 842.959 9.09944 836.493 z" fill="rgb(233,233,232)" fill-opacity="0.568627" transform="translate(0,0)"></path>
<path d="M 0 955.862 C 1.63535 960.671 1.54488 963.594 1.86098 968.598 C 4.40225 1008.83 6.5152 1049 6.1352 1089.35 C 4.59562 1101.42 6.51488 1144.07 6.56681 1159.35 L 6.49669 1385.31 L 6.45125 1449.1 C 6.42908 1453.81 6.95222 1474.71 4.83967 1476.69 L 4.76111 1475.7 C 3.75806 1461.73 4.47449 1438.14 4.48663 1423.63 L 4.53318 1327.19 L 3.39891 1056.56 L 3.33474 1057.51 L 3.07812 1057.12 L 3.02943 1553.93 L 3.0527 1706.88 C 3.07055 1726.87 4.36274 1770.32 2.154 1788.31 L 0 1790.16 L 0 955.862 z" fill="rgb(41,40,41)" fill-opacity="0.960784" transform="translate(0,0)"></path>
<path d="M 9.101 859.459 C 12.8002 887 16.02 915.678 19.985 943.224 C 21.7275 955.33 20.0756 988.78 18.0892 1001.2 C 15.244 997.825 16.3548 953.996 15.5894 945.251 L 15.4906 1007 L 31.4953 1006.94 L 32.02 1007.53 L 30.4454 1007.67 C 21.5426 1008.51 21.7717 1010.15 16.7357 1011.03 L 16.2668 1009.07 L 15.5055 1009.06 L 15.49 1038.81 C 18.0067 1039.09 23.4307 1039.23 24.9589 1040.52 C 20.7249 1041.06 18.7669 1041.1 14.4901 1041.02 L 14.544 1148.54 C 14.5596 1156.29 16.0715 1178.43 15.1773 1184.59 C 10.5349 1203.4 12.8302 1324.33 19.239 1343.54 C 19.7851 1349.95 19.5545 1357.96 17.8333 1364.16 C 14.6706 1361.19 15.5991 1356.49 14.7899 1350.44 C 14.1056 1352.22 14.3141 1351.64 14.2648 1353.64 L 15.0353 1352 C 12.5311 1356.64 15.3092 1413.49 13.497 1418.39 C 11.6925 1398.22 11.6619 1378.09 10.5368 1357.87 C 10.2153 1373.56 10.8498 1402.2 9.17675 1416.38 C 7.73974 1383.06 9.33199 1343.62 8.80429 1309.36 C 9.65714 1296.96 8.97614 1276.43 8.98388 1263.41 L 9.03321 1171.18 L 9.101 859.459 z" fill="rgb(233,233,232)" fill-opacity="0.67451" transform="translate(0,0)"></path>
<path d="M 8.91622 807.072 C 11.7405 811.999 14.2649 806.639 14.52 812.44 L 14.6278 812.399 C 16.7411 808.542 14.077 809.102 19.0822 803.743 C 31.5396 790.407 26.4378 789.94 42.8333 801.163 C 42.5745 804.782 41.9113 805.341 44.3478 808.133 C 50.3602 815.022 78.6778 839.85 79.7082 847.023 C 80.3242 853.086 81.5037 852.273 84.9357 857.052 C 87.8955 861.172 88.4734 863.602 93.2813 866.887 C 94.4539 867.689 95.1686 869.445 97.3591 870.797 C 102.371 873.892 104.918 878.259 106.688 883.592 C 108.94 886.551 112.496 888.178 113.324 892.099 C 113.44 892.647 113.326 893.833 112.557 893.902 C 110.274 894.109 108.629 890.226 106.382 889.588 C 105.653 888.999 104.925 888.411 104.196 887.822 C 103.584 887.414 102.973 887.005 102.361 886.597 C 100.886 885.59 99.6188 884.302 98.2816 883.131 C 96.2367 878.014 83.991 877.664 80.0539 873.797 C 69.0797 863.018 66.9683 838.107 44.5118 844.659 C 36.8602 846.891 36.9616 846.163 29.6291 845.033 C 26.2308 845.917 23.5686 849.308 20.9741 851.947 C 19.0045 848.785 17.0508 844.935 15.2641 841.62 C 15.8363 832.068 13.6446 822.868 11.4426 813.6 L 11.4925 812.73 C 11.3642 814.396 11.3712 816.089 10.6346 817.552 C 10.51 817.346 9.33278 810.505 9.10998 809.562 L 8.91622 807.072 z" fill="rgb(233,233,232)" fill-opacity="0.290196" transform="translate(0,0)"></path>
<path d="M 0 888.749 L 1.04639 893.982 L 1.68376 894.212 C 8.4608 872.302 6.49141 752.059 8.6433 748.279 C 8.79294 766.23 8.65108 785.024 9.12554 802.898 C 9.09753 804.334 9.00815 805.643 8.91622 807.072 L 9.10998 809.562 C 8.94423 815.881 8.51193 830.704 9.09944 836.493 C 9.04346 842.959 8.63219 853.308 9.101 859.459 L 9.03321 1171.18 L 8.98388 1263.41 C 8.97614 1276.43 9.65714 1296.96 8.80429 1309.36 C 5.90199 1317.34 7.52227 1404 7.51982 1418.33 L 7.52297 1194.12 C 7.4768 1170.75 7.30357 1147.39 7.00329 1124.04 C 6.91285 1116.15 7.10132 1096.1 6.1352 1089.35 C 6.5152 1049 4.40225 1008.83 1.86098 968.598 C 1.54488 963.594 1.63535 960.671 0 955.862 L 0 888.749 z" fill="rgb(41,40,41)" fill-opacity="0.901961" transform="translate(0,0)"></path>
<path d="M 6.1352 1089.35 C 7.10132 1096.1 6.91285 1116.15 7.00329 1124.04 C 7.30357 1147.39 7.4768 1170.75 7.52297 1194.12 L 7.51982 1418.33 C 7.52227 1404 5.90199 1317.34 8.80429 1309.36 C 9.33199 1343.62 7.73974 1383.06 9.17675 1416.38 L 9.08099 1628.9 C 9.08425 1676.66 8.05915 1729.1 9.95418 1776.37 C 9.36848 1775.39 8.78279 1774.42 8.19709 1773.44 C 7.46716 1760.54 7.9989 1732.81 8.01449 1721.01 L 8.05089 1558.94 C 8.04935 1551.57 8.69763 1513.2 7.10297 1508.97 C 5.37037 1514.39 6.06672 1517.83 5.60752 1523.71 L 4.72325 1523.4 C 3.88958 1514.95 4.45012 1485.24 4.83967 1476.69 C 6.95222 1474.71 6.42908 1453.81 6.45125 1449.1 L 6.49669 1385.31 L 6.56681 1159.35 C 6.51488 1144.07 4.59562 1101.42 6.1352 1089.35 z" fill="rgb(41,40,41)" fill-opacity="0.945098" transform="translate(0,0)"></path>
<path d="M 79.7082 847.023 C 86.3021 848.337 82.9094 848.496 88.7973 850.785 C 90.5631 852.001 92.4912 855.129 93.8975 856.976 C 112.81 881.815 135.07 904.34 158.631 924.773 C 152.022 927.58 151.508 923.882 148.139 924.05 C 147.092 926.549 152.344 927.932 152.41 929.507 C 152.031 930.151 151.077 930.55 150.494 930.966 C 143.923 927.795 144.791 924.423 139.335 920.784 C 136.149 918.658 135.446 916.583 133.258 914.864 C 129.226 910.636 125.819 908.312 121.42 904.79 C 116.75 901.053 111.362 896.526 105.361 893.783 C 98.5357 890.662 100.836 888.118 98.2816 883.131 C 99.6188 884.302 100.886 885.59 102.361 886.597 C 102.973 887.005 103.584 887.414 104.196 887.822 C 104.925 888.411 105.653 888.999 106.382 889.588 C 108.629 890.226 110.274 894.109 112.557 893.902 C 113.326 893.833 113.44 892.647 113.324 892.099 C 112.496 888.178 108.94 886.551 106.688 883.592 C 104.918 878.259 102.371 873.892 97.3591 870.797 C 95.1686 869.445 94.4539 867.689 93.2813 866.887 C 88.4734 863.602 87.8955 861.172 84.9357 857.052 C 81.5037 852.273 80.3242 853.086 79.7082 847.023 z" fill="rgb(233,233,232)" fill-opacity="0.0666667" transform="translate(0,0)"></path>
<path d="M 86.3458 1040.13 C 87.902 1039.57 90.7856 1038.94 91.3119 1038.74 C 92.6969 1031.22 89.6958 1018.82 92.7915 1012.05 C 94.8782 1007.49 91.0426 1003.1 93.5316 999.353 L 93.7183 999.337 L 93.5107 999.342 C 96.43 1003.09 88.8429 1007.36 100.488 1006.96 C 109.223 1006.65 119.202 1006.96 128.03 1007.04 C 143.571 1006.76 138.776 1009.86 128.713 1011.77 C 126.286 1012.24 122.427 1017.83 119.464 1018.75 C 115.049 1021.23 113.083 1027.91 109.553 1031.75 C 105.839 1035.79 114.003 1037.98 113.697 1039.83 C 112.678 1041.11 107.423 1040.37 105.867 1040.28 C 101.954 1039.16 91.8554 1040.65 86.3458 1040.13 z" fill="rgb(233,233,232)" fill-opacity="0.670588" transform="translate(0,0)"></path>
<path d="M 150.494 930.966 C 151.077 930.55 152.031 930.151 152.41 929.507 C 152.344 927.932 147.092 926.549 148.139 924.05 C 151.508 923.882 152.022 927.58 158.631 924.773 C 161.335 926.161 166.367 930.388 169.035 932.472 C 179.681 940.788 190.629 948.115 201.807 955.664 C 198.608 957.464 195.714 957.404 195.328 960.714 C 194.434 962.236 193.765 963.472 192.692 964.877 C 190.699 965.447 189.995 965.777 189.311 963.567 C 188.297 960.289 182.066 965.552 182.463 961.998 C 183.098 956.316 178.803 958.878 176.381 956.215 C 175.26 954.983 174.132 953.234 172.924 952.011 C 172.419 951.489 171.134 950.372 171.017 949.483 C 171.868 948.617 173.521 949.459 174.196 948.435 C 174.188 948.416 160.014 938.905 158.369 937.821 L 155.875 936.159 C 153.34 934.5 152.226 933.643 150.494 930.966 z" fill="rgb(233,233,232)" fill-opacity="0.34902" transform="translate(0,0)"></path>
<path d="M 323.396 989.118 C 324.823 977.774 326.426 970.244 328.343 959.36 L 328.601 957.839 C 331.32 969.092 326.937 970.364 341.122 970.856 C 340.937 972.877 341.004 973.103 340.326 974.916 C 332.834 976.602 334.219 986.787 335.348 992.381 C 337.13 1001.21 333.631 1011.27 337.898 1019.41 C 341.181 1025.67 340.054 1025.99 341.345 1032.51 C 341.866 1035.14 342.019 1042.58 341.458 1045.39 L 341.401 1045.43 C 341.303 1045.38 341.205 1045.33 341.107 1045.28 C 340.329 1039.26 336.95 1042.42 332.631 1040.84 L 332.505 1040.67 C 332.769 1039.62 333.957 1039.07 334.304 1038.03 C 333.871 1036.67 332.977 1029.99 333.315 1029.82 C 339.545 1026.77 334.662 1038.92 339.584 1039.73 C 340.747 1039.22 338.389 1027.68 337.965 1026.01 C 331.218 999.456 319.902 1015.21 310.01 1011.75 L 309.77 1011.43 C 309.915 1011.1 310.032 1010.6 310.512 1010.68 C 322.832 1012.85 332.382 999.962 325.234 989.602 C 325.042 989.324 323.671 989.166 323.396 989.118 z" fill="rgb(233,233,232)" fill-opacity="0.792157" transform="translate(0,0)"></path>
<path d="M 86.3458 1040.13 C 91.8554 1040.65 101.954 1039.16 105.867 1040.28 C 102.499 1042 99.0949 1043.64 95.6573 1045.21 C 93.0302 1055.71 95.1209 1103.23 95.6998 1116.33 C 99.4902 1120.73 98.9453 1123.36 98.3586 1129.98 C 97.2533 1142.44 95.7204 1153.66 95.1776 1166.27 C 94.6887 1157.22 89.8175 1146.71 89.689 1137.54 C 89.2481 1106.06 93.3581 1072.54 91.2953 1041.19 L 86.5019 1041 L 86.3458 1040.13 z" fill="rgb(233,233,232)" fill-opacity="0.694118" transform="translate(0,0)"></path>
<path d="M 195.328 960.714 C 199.35 961.664 199.489 961.869 201.133 965.683 C 203.481 971.125 212.864 966.944 215.55 968.45 C 217.754 969.685 217.099 976.143 222.978 974.524 C 226.458 973.709 228.026 973.54 231.795 973.218 C 239.057 976.573 255.274 984.548 262.312 988.229 L 262.55 988.351 C 260.665 989.404 254.037 998.842 250.955 994.943 C 250.78 993.686 251.083 992.786 251.801 991.758 C 252.095 991.336 252.483 990.962 252.669 990.483 C 252.031 989.227 251.075 988.16 250.217 987.053 L 250.315 987.072 C 249.685 986.212 249.005 985.388 248.32 984.565 C 247.023 984.224 243.446 985.692 242.377 986.196 C 232.019 991.082 231.798 982.417 229.253 978.567 C 223.762 976.896 218.806 986.585 211.232 973.619 C 209.969 973.075 203.8 974.542 201.642 974.663 C 200.683 972.845 198.092 969.52 198.064 967.899 C 198 964.3 196.371 964.939 192.692 964.877 C 193.765 963.472 194.434 962.236 195.328 960.714 z" fill="rgb(233,233,232)" fill-opacity="0.627451" transform="translate(0,0)"></path>
<path d="M 15.1773 1184.59 C 15.4338 1192.24 15.1675 1203.66 15.745 1210.61 C 14.2167 1226.56 15.329 1276.83 16.8661 1293.63 L 18.0082 1294.61 C 19.2419 1313.1 19.8444 1324.95 19.239 1343.54 C 12.8302 1324.33 10.5349 1203.4 15.1773 1184.59 z" fill="rgb(233,233,232)" fill-opacity="0.615686" transform="translate(0,0)"></path>
<path d="M 338.167 939.995 C 343.237 945.352 341.288 946.323 344.782 951.884 C 343.91 958.16 342.028 964.559 341.122 970.856 C 326.937 970.364 331.32 969.092 328.601 957.839 C 329.732 953.58 330.791 949.265 332.548 945.216 C 336.958 944.09 335.653 943.753 338.167 939.995 z" fill="rgb(233,233,232)" fill-opacity="0.0941176" transform="translate(0,0)"></path>
<path d="M 15.745 1210.61 C 16.8029 1189.29 16.3238 1167.68 17.4692 1145.38 L 18.4557 1144.87 L 18.3084 1143.57 C 21.113 1167.24 18.1422 1200.26 17.0088 1224.2 C 16.2337 1240.58 17.0696 1256.83 17.7381 1273.2 C 17.9459 1278.29 19.0621 1290.11 18.0082 1294.61 L 16.8661 1293.63 C 15.329 1276.83 14.2167 1226.56 15.745 1210.61 z" fill="rgb(233,233,232)" fill-opacity="0.607843" transform="translate(0,0)"></path>
<path d="M 9.12554 802.898 C 12.0263 804.182 12.0248 803.21 13.7038 800.455 C 16.4733 795.911 21.4498 792.401 24.2125 788.27 C 26.238 785.241 36.052 784.48 37.2762 789.535 C 40.3007 796.25 42.34 793.537 42.8333 801.163 C 26.4378 789.94 31.5396 790.407 19.0822 803.743 C 14.077 809.102 16.7411 808.542 14.6278 812.399 L 14.52 812.44 C 14.2649 806.639 11.7405 811.999 8.91622 807.072 C 9.00815 805.643 9.09753 804.334 9.12554 802.898 z" fill="rgb(233,233,232)" fill-opacity="0.0666667" transform="translate(0,0)"></path>
<path d="M 201.807 955.664 C 210.456 960.432 223.145 968.048 231.795 973.218 C 228.026 973.54 226.458 973.709 222.978 974.524 C 217.099 976.143 217.754 969.685 215.55 968.45 C 212.864 966.944 203.481 971.125 201.133 965.683 C 199.489 961.869 199.35 961.664 195.328 960.714 C 195.714 957.404 198.608 957.464 201.807 955.664 z" fill="rgb(233,233,232)" fill-opacity="0.509804" transform="translate(0,0)"></path>
<path d="M 9.10998 809.562 C 9.33278 810.505 10.51 817.346 10.6346 817.552 C 11.3712 816.089 11.3642 814.396 11.4925 812.73 L 11.4426 813.6 C 13.6446 822.868 15.8363 832.068 15.2641 841.62 C 15.1349 843.023 14.4588 851.205 15.4225 851.796 C 15.5135 850.842 15.2327 848.845 16.196 848.36 L 16.4773 848.466 C 18.4495 851.905 18.0002 866.177 17.9926 870.497 C 16.8202 865.84 12.6678 847.91 11.0984 844.836 L 10.9104 844.883 C 10.202 843.473 9.50916 838.429 9.09944 836.493 C 8.51193 830.704 8.94423 815.881 9.10998 809.562 z" fill="rgb(233,233,232)" fill-opacity="0.352941" transform="translate(0,0)"></path>
<path d="M 351 1070 C 355.625 1066.53 348.336 1067.33 348.682 1062.52 C 348.827 1060.52 345.055 1054.36 346.587 1053.91 C 349.629 1054.78 350.469 1064.62 357.48 1068.68 C 358.507 1069.85 366.66 1083.39 367.318 1084.96 C 367.014 1087.5 366.7 1089.99 368.723 1092.31 C 369.064 1092.7 377.194 1101.6 370.383 1101.41 C 368.706 1101.37 367.198 1094.71 364.449 1094.34 C 364.329 1094.29 362.599 1092.92 362.535 1092.87 C 372.569 1091.03 357.723 1081.01 358.008 1076.17 C 358.142 1075.01 357.528 1073.88 356.475 1073.36 C 355.421 1072.84 354.155 1073.04 353.312 1073.86 C 352.469 1074.68 352.231 1075.94 352.718 1077.01 C 351.594 1073.38 350.947 1074.02 351 1070 z" fill="rgb(233,233,232)" fill-opacity="0.890196" transform="translate(0,0)"></path>
<path d="M 346.687 909.857 C 349.892 911.148 348.112 909.432 350.548 908.887 C 353.517 909.891 357.259 918.997 349.949 919.38 C 347.551 919.505 347.546 915.814 347.446 915.147 C 345.007 916.556 340.213 936.333 338.167 939.995 C 335.653 943.753 336.958 944.09 332.548 945.216 C 334.208 935.554 340.974 919.555 346.021 911.027 L 346.687 909.857 z" fill="rgb(233,233,232)" fill-opacity="0.945098" transform="translate(0,0)"></path>
<path d="M 362.535 1092.87 C 361.737 1091.79 359.611 1088.86 359.488 1087.57 C 359.499 1081.33 352.566 1081.56 351.227 1077.51 C 349.618 1072.65 347.79 1072.72 351 1070 C 350.947 1074.02 351.594 1073.38 352.718 1077.01 C 353.235 1078.14 354.446 1078.8 355.68 1078.6 C 356.913 1078.41 357.865 1077.41 358.008 1076.17 C 357.723 1081.01 372.569 1091.03 362.535 1092.87 z" fill="rgb(233,233,232)" fill-opacity="0.858824" transform="translate(0,0)"></path>
<path d="M 482.257 818.391 C 484.274 817.839 485.968 817.894 488.085 817.766 C 489.017 823.694 484.386 821.495 481.665 824.695 L 481.814 824.878 C 481.861 825.437 480.519 827.115 480.007 827.525 C 479.9 828.109 480.354 828.42 480.713 828.873 C 478.662 829.231 471.347 830.22 469.933 828.266 C 469.606 824.448 482.109 823.684 483.765 821.398 C 483.726 820.659 483.373 820.131 482.975 819.519 L 482.257 818.391 z" fill="rgb(233,233,232)" fill-opacity="0.356863" transform="translate(0,0)"></path>
<path d="M 352.718 1077.01 C 352.231 1075.94 352.469 1074.68 353.312 1073.86 C 354.155 1073.04 355.421 1072.84 356.475 1073.36 C 357.528 1073.88 358.142 1075.01 358.008 1076.17 C 357.865 1077.41 356.913 1078.41 355.68 1078.6 C 354.446 1078.8 353.235 1078.14 352.718 1077.01 z" fill="rgb(233,233,232)" fill-opacity="0.811765" transform="translate(0,0)"></path>
<path d="M 8.95807 687.391 C 8.97091 686.43 8.63917 679.885 9.63247 679.413 C 10.837 679.907 11.2169 683.057 11.4521 684.075 L 8.95807 687.391 z" fill="rgb(240,239,239)" fill-opacity="0.0627451" transform="translate(0,0)"></path>
<metadata><recraft-signature>{"signed_by": "recraft", "signature_b64": "f7MLOlyDFlf8Ay4Vl4ysBRX3gRLUrzOwSCerozkeTpJWFQdFv4zjBqIQ4FcmNNDA8lejKub9wVGzA/5lsWCcAg==", "signing_algo": "Ed25519", "generation_timestamp": 1782415260, "identifier": "e53e0910-dd68-4eee-b75f-45d43a039534"}</recraft-signature></metadata></svg>